<?xml version="1.0" encoding="us-ascii" standalone="no"?><svg xmlns="http://www.w3.org/2000/svg" xmlns:xlink="http://www.w3.org/1999/xlink" contentStyleType="text/css" height="1461.4583px" preserveAspectRatio="none" style="width:1968px;height:1461px;" version="1.1" viewBox="0 0 1968 1461" width="1968.75px" zoomAndPan="magnify"><defs/><g><rect fill="none" height="51.2916" id="_title" rx="4.1667" ry="4.1667" style="stroke:#BABDBF;stroke-width:1.0416666666666667;" width="513.5417" x="722.9167" y="20.8333"/><text fill="#2FA4E7" font-family="Verdana" font-size="20.8333" font-weight="bold" lengthAdjust="spacing" textLength="490.625" x="734.375" y="54.5625">IOC Threat Intelligence Service - Domain Model</text><!--class Indicator--><g id="elem_Indicator"><rect codeLine="11" fill="#FFFFFF" height="469.4709" id="Indicator" rx="4.1667" ry="4.1667" style="stroke:#000000;stroke-width:1.0416666666666667;" width="168.75" x="351.5625" y="90.875"/><ellipse cx="401.5625" cy="109.0947" fill="none" rx="10.4167" ry="10.4167" style="stroke:#2683B9;stroke-width:1.0416666666666667;"/><path d="M403.4668,113.5218 Q403.0436,113.7334 402.5716,113.8473 Q402.0996,113.9612 401.5951,113.9612 Q399.7396,113.9612 398.763,112.7568 Q397.8027,111.5361 397.8027,109.2412 Q397.8027,106.93 398.763,105.7256 Q399.7396,104.5049 401.5951,104.5049 Q402.0996,104.5049 402.5716,104.6188 Q403.0599,104.7165 403.4668,104.9443 L403.4668,106.9463 Q403.0111,106.5231 402.5716,106.3278 Q402.1322,106.1162 401.6764,106.1162 Q400.6836,106.1162 400.179,106.9137 Q399.6745,107.695 399.6745,109.2412 Q399.6745,110.7711 400.179,111.5524 Q400.6836,112.3336 401.6764,112.3336 Q402.1322,112.3336 402.5716,112.1383 Q403.0111,111.943 403.4668,111.5198 L403.4668,113.5218 Z " fill="#2FA4E7"/><text fill="#343A40" font-family="Verdana" font-size="11.4583" lengthAdjust="spacing" textLength="50" x="426.5625" y="113.5405">Indicator</text><line style="stroke:#000000;stroke-width:1.0416666666666667;" x1="352.6042" x2="519.2708" y1="127.3144" y2="127.3144"/><text fill="#343A40" font-family="Verdana" font-size="11.4583" lengthAdjust="spacing" textLength="93.75" x="363.0208" y="148.9383">+id: Integer &#171;PK&#187;</text><text fill="#343A40" font-family="Verdana" font-size="11.4583" lengthAdjust="spacing" textLength="138.5417" x="363.0208" y="174.9611">+value: String &#171;required&#187;</text><text fill="#343A40" font-family="Verdana" font-size="11.4583" lengthAdjust="spacing" textLength="133.3333" x="363.0208" y="200.9839">+type: String &#171;required&#187;</text><text fill="#343A40" font-family="Verdana" font-size="11.4583" lengthAdjust="spacing" textLength="145.8333" x="363.0208" y="227.0067">+source: String &#171;required&#187;</text><text fill="#343A40" font-family="Verdana" font-size="11.4583" lengthAdjust="spacing" textLength="97.9167" x="363.0208" y="253.0295">+source_id: String</text><text fill="#343A40" font-family="Verdana" font-size="11.4583" lengthAdjust="spacing" textLength="137.5" x="363.0208" y="279.0523">+confidence: Integer = 50</text><text fill="#343A40" font-family="Verdana" font-size="11.4583" lengthAdjust="spacing" textLength="116.6667" x="363.0208" y="305.0751">+tlp: String = "WHITE"</text><text fill="#343A40" font-family="Verdana" font-size="11.4583" lengthAdjust="spacing" textLength="137.5" x="363.0208" y="331.0979">+is_active: Boolean = true</text><text fill="#343A40" font-family="Verdana" font-size="11.4583" lengthAdjust="spacing" textLength="100" x="363.0208" y="357.1207">+tags: List&lt;String&gt;</text><text fill="#343A40" font-family="Verdana" font-size="11.4583" lengthAdjust="spacing" textLength="97.9167" x="363.0208" y="383.1435">+metadata: JSONB</text><text fill="#343A40" font-family="Verdana" font-size="11.4583" lengthAdjust="spacing" textLength="115.625" x="363.0208" y="409.1663">+first_seen: DateTime</text><text fill="#343A40" font-family="Verdana" font-size="11.4583" lengthAdjust="spacing" textLength="112.5" x="363.0208" y="435.1891">+last_seen: DateTime</text><text fill="#343A40" font-family="Verdana" font-size="11.4583" lengthAdjust="spacing" textLength="119.7917" x="363.0208" y="461.2119">+created_at: DateTime</text><text fill="#343A40" font-family="Verdana" font-size="11.4583" lengthAdjust="spacing" textLength="125" x="363.0208" y="487.2347">+updated_at: DateTime</text><line style="stroke:#000000;stroke-width:1.0416666666666667;" x1="352.6042" x2="519.2708" y1="499.967" y2="499.967"/><text fill="#343A40" font-family="Verdana" font-size="11.4583" lengthAdjust="spacing" textLength="76.0417" x="363.0208" y="521.5908">+to_dict(): Dict</text><text fill="#343A40" font-family="Verdana" font-size="11.4583" lengthAdjust="spacing" textLength="118.75" x="363.0208" y="547.6136">+is_expired(): Boolean</text></g><!--class SyncJob--><g id="elem_SyncJob"><rect codeLine="31" fill="#FFFFFF" height="443.4481" id="SyncJob" rx="4.1667" ry="4.1667" style="stroke:#000000;stroke-width:1.0416666666666667;" width="453.125" x="17.7083" y="652.3333"/><ellipse cx="213.5417" cy="670.553" fill="none" rx="10.4167" ry="10.4167" style="stroke:#2683B9;stroke-width:1.0416666666666667;"/><path d="M215.446,674.9801 Q215.0228,675.1917 214.5508,675.3056 Q214.0788,675.4196 213.5742,675.4196 Q211.7188,675.4196 210.7422,674.2151 Q209.7819,672.9944 209.7819,670.6995 Q209.7819,668.3883 210.7422,667.1839 Q211.7188,665.9632 213.5742,665.9632 Q214.0788,665.9632 214.5508,666.0771 Q215.0391,666.1748 215.446,666.4026 L215.446,668.4046 Q214.9902,667.9814 214.5508,667.7861 Q214.1113,667.5745 213.6556,667.5745 Q212.6628,667.5745 212.1582,668.3721 Q211.6536,669.1533 211.6536,670.6995 Q211.6536,672.2295 212.1582,673.0107 Q212.6628,673.792 213.6556,673.792 Q214.1113,673.792 214.5508,673.5967 Q214.9902,673.4013 215.446,672.9782 L215.446,674.9801 Z " fill="#2FA4E7"/><text fill="#343A40" font-family="Verdana" font-size="11.4583" lengthAdjust="spacing" textLength="42.7083" x="238.5417" y="674.9988">SyncJob</text><line style="stroke:#000000;stroke-width:1.0416666666666667;" x1="18.75" x2="469.7917" y1="688.7728" y2="688.7728"/><text fill="#343A40" font-family="Verdana" font-size="11.4583" lengthAdjust="spacing" textLength="93.75" x="29.1667" y="710.3966">+id: Integer &#171;PK&#187;</text><text fill="#343A40" font-family="Verdana" font-size="11.4583" lengthAdjust="spacing" textLength="196.875" x="29.1667" y="736.4194">+job_id: String &#171;unique&#187; &#171;required&#187;</text><text fill="#343A40" font-family="Verdana" font-size="11.4583" lengthAdjust="spacing" textLength="190.625" x="29.1667" y="762.4422">+feed_source_id: String &#171;required&#187;</text><text fill="#343A40" font-family="Verdana" font-size="11.4583" lengthAdjust="spacing" textLength="175" x="29.1667" y="788.465">+trigger_type: String = "manual"</text><text fill="#343A40" font-family="Verdana" font-size="11.4583" lengthAdjust="spacing" textLength="140.625" x="29.1667" y="814.4878">+idempotency_key: String</text><text fill="#343A40" font-family="Verdana" font-size="11.4583" lengthAdjust="spacing" textLength="430.2083" x="29.1667" y="840.5106">+status: String = "queued|running|success|failed|cancel_requested|cancelled"</text><text fill="#343A40" font-family="Verdana" font-size="11.4583" lengthAdjust="spacing" textLength="75" x="29.1667" y="866.5334">+error: String</text><text fill="#343A40" font-family="Verdana" font-size="11.4583" lengthAdjust="spacing" textLength="106.25" x="29.1667" y="892.5562">+result_json: JSONB</text><text fill="#343A40" font-family="Verdana" font-size="11.4583" lengthAdjust="spacing" textLength="119.7917" x="29.1667" y="918.579">+created_at: DateTime</text><text fill="#343A40" font-family="Verdana" font-size="11.4583" lengthAdjust="spacing" textLength="117.7083" x="29.1667" y="944.6018">+started_at: DateTime</text><text fill="#343A40" font-family="Verdana" font-size="11.4583" lengthAdjust="spacing" textLength="122.9167" x="29.1667" y="970.6246">+finished_at: DateTime</text><line style="stroke:#000000;stroke-width:1.0416666666666667;" x1="18.75" x2="469.7917" y1="983.3569" y2="983.3569"/><text fill="#343A40" font-family="Verdana" font-size="11.4583" lengthAdjust="spacing" textLength="90.625" x="29.1667" y="1004.9808">+mark_running()</text><text fill="#343A40" font-family="Verdana" font-size="11.4583" lengthAdjust="spacing" textLength="143.75" x="29.1667" y="1031.0036">+mark_success(result: Dict)</text><text fill="#343A40" font-family="Verdana" font-size="11.4583" lengthAdjust="spacing" textLength="144.7917" x="29.1667" y="1057.0264">+mark_failed(error: String)</text><text fill="#343A40" font-family="Verdana" font-size="11.4583" lengthAdjust="spacing" textLength="92.7083" x="29.1667" y="1083.0492">+request_cancel()</text></g><!--class Feed--><g id="elem_Feed"><rect codeLine="50" fill="#FFFFFF" height="339.3569" id="Feed" rx="4.1667" ry="4.1667" style="stroke:#000000;stroke-width:1.0416666666666667;" width="238.5417" x="821.875" y="155.9791"/><ellipse cx="918.75" cy="174.1989" fill="none" rx="10.4167" ry="10.4167" style="stroke:#2683B9;stroke-width:1.0416666666666667;"/><path d="M920.6543,178.626 Q920.2311,178.8375 919.7591,178.9515 Q919.2871,179.0654 918.7826,179.0654 Q916.9271,179.0654 915.9505,177.861 Q914.9902,176.6403 914.9902,174.3454 Q914.9902,172.0342 915.9505,170.8297 Q916.9271,169.609 918.7826,169.609 Q919.2871,169.609 919.7591,169.723 Q920.2474,169.8206 920.6543,170.0485 L920.6543,172.0504 Q920.1986,171.6273 919.7591,171.4319 Q919.3197,171.2204 918.8639,171.2204 Q917.8711,171.2204 917.3665,172.0179 Q916.862,172.7991 916.862,174.3454 Q916.862,175.8753 917.3665,176.6566 Q917.8711,177.4378 918.8639,177.4378 Q919.3197,177.4378 919.7591,177.2425 Q920.1986,177.0472 920.6543,176.624 L920.6543,178.626 Z " fill="#2FA4E7"/><text fill="#343A40" font-family="Verdana" font-size="11.4583" lengthAdjust="spacing" textLength="26.0417" x="943.75" y="178.6447">Feed</text><line style="stroke:#000000;stroke-width:1.0416666666666667;" x1="822.9167" x2="1059.375" y1="192.4186" y2="192.4186"/><text fill="#343A40" font-family="Verdana" font-size="11.4583" lengthAdjust="spacing" textLength="93.75" x="833.3333" y="214.0425">+id: Integer &#171;PK&#187;</text><text fill="#343A40" font-family="Verdana" font-size="11.4583" lengthAdjust="spacing" textLength="215.625" x="833.3333" y="240.0653">+source_id: String &#171;unique&#187; &#171;required&#187;</text><text fill="#343A40" font-family="Verdana" font-size="11.4583" lengthAdjust="spacing" textLength="175" x="833.3333" y="266.0881">+source_type: String &#171;required&#187;</text><text fill="#343A40" font-family="Verdana" font-size="11.4583" lengthAdjust="spacing" textLength="183.3333" x="833.3333" y="292.1109">+display_name: String &#171;required&#187;</text><text fill="#343A40" font-family="Verdana" font-size="11.4583" lengthAdjust="spacing" textLength="91.6667" x="833.3333" y="318.1337">+base_url: String</text><text fill="#343A40" font-family="Verdana" font-size="11.4583" lengthAdjust="spacing" textLength="100" x="833.3333" y="344.1565">+auth_type: String</text><text fill="#343A40" font-family="Verdana" font-size="11.4583" lengthAdjust="spacing" textLength="205.2083" x="833.3333" y="370.1793">+schedule_cron: String = "*/15 * * * *"</text><text fill="#343A40" font-family="Verdana" font-size="11.4583" lengthAdjust="spacing" textLength="136.4583" x="833.3333" y="396.2021">+enabled: Boolean = true</text><text fill="#343A40" font-family="Verdana" font-size="11.4583" lengthAdjust="spacing" textLength="135.4167" x="833.3333" y="422.2249">+deleted: Boolean = false</text><text fill="#343A40" font-family="Verdana" font-size="11.4583" lengthAdjust="spacing" textLength="119.7917" x="833.3333" y="448.2477">+created_at: DateTime</text><text fill="#343A40" font-family="Verdana" font-size="11.4583" lengthAdjust="spacing" textLength="125" x="833.3333" y="474.2705">+updated_at: DateTime</text><line style="stroke:#000000;stroke-width:1.0416666666666667;" x1="822.9167" x2="1059.375" y1="487.0027" y2="487.0027"/></g><!--class FeedStats--><g id="elem_FeedStats"><rect codeLine="64" fill="#FFFFFF" height="313.3341" id="FeedStats" rx="4.1667" ry="4.1667" style="stroke:#000000;stroke-width:1.0416666666666667;" width="195.8333" x="720.3125" y="717.4375"/><ellipse cx="782.8125" cy="735.6572" fill="none" rx="10.4167" ry="10.4167" style="stroke:#2683B9;stroke-width:1.0416666666666667;"/><path d="M784.7168,740.0843 Q784.2936,740.2959 783.8216,740.4098 Q783.3496,740.5237 782.8451,740.5237 Q780.9896,740.5237 780.013,739.3193 Q779.0527,738.0986 779.0527,735.8037 Q779.0527,733.4925 780.013,732.2881 Q780.9896,731.0674 782.8451,731.0674 Q783.3496,731.0674 783.8216,731.1813 Q784.3099,731.279 784.7168,731.5068 L784.7168,733.5088 Q784.2611,733.0856 783.8216,732.8903 Q783.3822,732.6787 782.9264,732.6787 Q781.9336,732.6787 781.429,733.4762 Q780.9245,734.2575 780.9245,735.8037 Q780.9245,737.3336 781.429,738.1149 Q781.9336,738.8961 782.9264,738.8961 Q783.3822,738.8961 783.8216,738.7008 Q784.2611,738.5055 784.7168,738.0823 L784.7168,740.0843 Z " fill="#2FA4E7"/><text fill="#343A40" font-family="Verdana" font-size="11.4583" lengthAdjust="spacing" textLength="52.0833" x="807.8125" y="740.103">FeedStats</text><line style="stroke:#000000;stroke-width:1.0416666666666667;" x1="721.3542" x2="915.1042" y1="753.8769" y2="753.8769"/><text fill="#343A40" font-family="Verdana" font-size="11.4583" lengthAdjust="spacing" textLength="93.75" x="731.7708" y="775.5008">+id: Integer &#171;PK&#187;</text><text fill="#343A40" font-family="Verdana" font-size="11.4583" lengthAdjust="spacing" textLength="145.8333" x="731.7708" y="801.5236">+source: String &#171;required&#187;</text><text fill="#343A40" font-family="Verdana" font-size="11.4583" lengthAdjust="spacing" textLength="97.9167" x="731.7708" y="827.5464">+source_id: String</text><text fill="#343A40" font-family="Verdana" font-size="11.4583" lengthAdjust="spacing" textLength="156.25" x="731.7708" y="853.5692">+total_indicators: Integer = 0</text><text fill="#343A40" font-family="Verdana" font-size="11.4583" lengthAdjust="spacing" textLength="162.5" x="731.7708" y="879.592">+active_indicators: Integer = 0</text><text fill="#343A40" font-family="Verdana" font-size="11.4583" lengthAdjust="spacing" textLength="172.9167" x="731.7708" y="905.6148">+inactive_indicators: Integer = 0</text><text fill="#343A40" font-family="Verdana" font-size="11.4583" lengthAdjust="spacing" textLength="126.0417" x="731.7708" y="931.6376">+last_update: DateTime</text><text fill="#343A40" font-family="Verdana" font-size="11.4583" lengthAdjust="spacing" textLength="134.375" x="731.7708" y="957.6604">+last_fetch_status: String</text><text fill="#343A40" font-family="Verdana" font-size="11.4583" lengthAdjust="spacing" textLength="131.25" x="731.7708" y="983.6832">+last_fetch_error: String</text><text fill="#343A40" font-family="Verdana" font-size="11.4583" lengthAdjust="spacing" textLength="97.9167" x="731.7708" y="1009.706">+metadata: JSONB</text><line style="stroke:#000000;stroke-width:1.0416666666666667;" x1="721.3542" x2="915.1042" y1="1022.4383" y2="1022.4383"/></g><!--class FeedRun--><g id="elem_FeedRun"><rect codeLine="77" fill="#FFFFFF" height="287.3113" id="FeedRun" rx="4.1667" ry="4.1667" style="stroke:#000000;stroke-width:1.0416666666666667;" width="221.875" x="953.125" y="730.4583"/><ellipse cx="1030.7292" cy="748.678" fill="none" rx="10.4167" ry="10.4167" style="stroke:#2683B9;stroke-width:1.0416666666666667;"/><path d="M1032.6335,753.1051 Q1032.2103,753.3167 1031.7383,753.4306 Q1031.2663,753.5446 1030.7617,753.5446 Q1028.9063,753.5446 1027.9297,752.3401 Q1026.9694,751.1194 1026.9694,748.8245 Q1026.9694,746.5133 1027.9297,745.3089 Q1028.9063,744.0882 1030.7617,744.0882 Q1031.2663,744.0882 1031.7383,744.2021 Q1032.2266,744.2998 1032.6335,744.5276 L1032.6335,746.5296 Q1032.1777,746.1064 1031.7383,745.9111 Q1031.2988,745.6995 1030.8431,745.6995 Q1029.8503,745.6995 1029.3457,746.4971 Q1028.8411,747.2783 1028.8411,748.8245 Q1028.8411,750.3545 1029.3457,751.1357 Q1029.8503,751.917 1030.8431,751.917 Q1031.2988,751.917 1031.7383,751.7217 Q1032.1777,751.5263 1032.6335,751.1032 L1032.6335,753.1051 Z " fill="#2FA4E7"/><text fill="#343A40" font-family="Verdana" font-size="11.4583" lengthAdjust="spacing" textLength="47.9167" x="1055.7292" y="753.1238">FeedRun</text><line style="stroke:#000000;stroke-width:1.0416666666666667;" x1="954.1667" x2="1173.9583" y1="766.8978" y2="766.8978"/><text fill="#343A40" font-family="Verdana" font-size="11.4583" lengthAdjust="spacing" textLength="93.75" x="964.5833" y="788.5216">+id: Integer &#171;PK&#187;</text><text fill="#343A40" font-family="Verdana" font-size="11.4583" lengthAdjust="spacing" textLength="190.625" x="964.5833" y="814.5444">+feed_source_id: String &#171;required&#187;</text><text fill="#343A40" font-family="Verdana" font-size="11.4583" lengthAdjust="spacing" textLength="198.9583" x="964.5833" y="840.5672">+run_id: String &#171;unique&#187; &#171;required&#187;</text><text fill="#343A40" font-family="Verdana" font-size="11.4583" lengthAdjust="spacing" textLength="175" x="964.5833" y="866.59">+trigger_type: String = "manual"</text><text fill="#343A40" font-family="Verdana" font-size="11.4583" lengthAdjust="spacing" textLength="143.75" x="964.5833" y="892.6128">+status: String = "running"</text><text fill="#343A40" font-family="Verdana" font-size="11.4583" lengthAdjust="spacing" textLength="75" x="964.5833" y="918.6356">+error: String</text><text fill="#343A40" font-family="Verdana" font-size="11.4583" lengthAdjust="spacing" textLength="148.9583" x="964.5833" y="944.6584">+fetched_count: Integer = 0</text><text fill="#343A40" font-family="Verdana" font-size="11.4583" lengthAdjust="spacing" textLength="117.7083" x="964.5833" y="970.6812">+started_at: DateTime</text><text fill="#343A40" font-family="Verdana" font-size="11.4583" lengthAdjust="spacing" textLength="122.9167" x="964.5833" y="996.704">+finished_at: DateTime</text><line style="stroke:#000000;stroke-width:1.0416666666666667;" x1="954.1667" x2="1173.9583" y1="1009.4363" y2="1009.4363"/></g><!--class AuditLog--><g id="elem_AuditLog"><rect codeLine="89" fill="#FFFFFF" height="261.2885" id="AuditLog" rx="4.1667" ry="4.1667" style="stroke:#000000;stroke-width:1.0416666666666667;" width="165.625" x="1534.375" y="195.0416"/><ellipse cx="1582.8125" cy="213.2614" fill="none" rx="10.4167" ry="10.4167" style="stroke:#2683B9;stroke-width:1.0416666666666667;"/><path d="M1584.7168,217.6885 Q1584.2936,217.9 1583.8216,218.014 Q1583.3496,218.1279 1582.8451,218.1279 Q1580.9896,218.1279 1580.013,216.9235 Q1579.0527,215.7028 1579.0527,213.4079 Q1579.0527,211.0967 1580.013,209.8922 Q1580.9896,208.6715 1582.8451,208.6715 Q1583.3496,208.6715 1583.8216,208.7855 Q1584.3099,208.8831 1584.7168,209.111 L1584.7168,211.1129 Q1584.2611,210.6898 1583.8216,210.4944 Q1583.3822,210.2829 1582.9264,210.2829 Q1581.9336,210.2829 1581.429,211.0804 Q1580.9245,211.8616 1580.9245,213.4079 Q1580.9245,214.9378 1581.429,215.7191 Q1581.9336,216.5003 1582.9264,216.5003 Q1583.3822,216.5003 1583.8216,216.305 Q1584.2611,216.1097 1584.7168,215.6865 L1584.7168,217.6885 Z " fill="#2FA4E7"/><text fill="#343A40" font-family="Verdana" font-size="11.4583" lengthAdjust="spacing" textLength="50" x="1607.8125" y="217.7072">AuditLog</text><line style="stroke:#000000;stroke-width:1.0416666666666667;" x1="1535.4167" x2="1698.9583" y1="231.4811" y2="231.4811"/><text fill="#343A40" font-family="Verdana" font-size="11.4583" lengthAdjust="spacing" textLength="93.75" x="1545.8333" y="253.105">+id: Integer &#171;PK&#187;</text><text fill="#343A40" font-family="Verdana" font-size="11.4583" lengthAdjust="spacing" textLength="142.7083" x="1545.8333" y="279.1278">+action: String &#171;required&#187;</text><text fill="#343A40" font-family="Verdana" font-size="11.4583" lengthAdjust="spacing" textLength="106.25" x="1545.8333" y="305.1506">+entity_type: String</text><text fill="#343A40" font-family="Verdana" font-size="11.4583" lengthAdjust="spacing" textLength="100" x="1545.8333" y="331.1734">+entity_id: Integer</text><text fill="#343A40" font-family="Verdana" font-size="11.4583" lengthAdjust="spacing" textLength="85.4167" x="1545.8333" y="357.1962">+user_id: String</text><text fill="#343A40" font-family="Verdana" font-size="11.4583" lengthAdjust="spacing" textLength="95.8333" x="1545.8333" y="383.219">+ip_address: INET</text><text fill="#343A40" font-family="Verdana" font-size="11.4583" lengthAdjust="spacing" textLength="97.9167" x="1545.8333" y="409.2418">+metadata: JSONB</text><text fill="#343A40" font-family="Verdana" font-size="11.4583" lengthAdjust="spacing" textLength="119.7917" x="1545.8333" y="435.2646">+created_at: DateTime</text><line style="stroke:#000000;stroke-width:1.0416666666666667;" x1="1535.4167" x2="1698.9583" y1="447.9968" y2="447.9968"/></g><!--class ExportJob--><g id="elem_ExportJob"><rect codeLine="100" fill="#FFFFFF" height="287.3113" id="ExportJob" rx="4.1667" ry="4.1667" style="stroke:#000000;stroke-width:1.0416666666666667;" width="219.7917" x="1736.4583" y="182.0208"/><ellipse cx="1809.8958" cy="200.2405" fill="none" rx="10.4167" ry="10.4167" style="stroke:#2683B9;stroke-width:1.0416666666666667;"/><path d="M1811.8001,204.6676 Q1811.377,204.8792 1810.9049,204.9931 Q1810.4329,205.1071 1809.9284,205.1071 Q1808.0729,205.1071 1807.0964,203.9026 Q1806.1361,202.6819 1806.1361,200.387 Q1806.1361,198.0758 1807.0964,196.8714 Q1808.0729,195.6507 1809.9284,195.6507 Q1810.4329,195.6507 1810.9049,195.7646 Q1811.3932,195.8623 1811.8001,196.0901 L1811.8001,198.0921 Q1811.3444,197.6689 1810.9049,197.4736 Q1810.4655,197.262 1810.0098,197.262 Q1809.0169,197.262 1808.5124,198.0596 Q1808.0078,198.8408 1808.0078,200.387 Q1808.0078,201.917 1808.5124,202.6982 Q1809.0169,203.4795 1810.0098,203.4795 Q1810.4655,203.4795 1810.9049,203.2842 Q1811.3444,203.0888 1811.8001,202.6657 L1811.8001,204.6676 Z " fill="#2FA4E7"/><text fill="#343A40" font-family="Verdana" font-size="11.4583" lengthAdjust="spacing" textLength="54.1667" x="1834.8958" y="204.6863">ExportJob</text><line style="stroke:#000000;stroke-width:1.0416666666666667;" x1="1737.5" x2="1955.2083" y1="218.4603" y2="218.4603"/><text fill="#343A40" font-family="Verdana" font-size="11.4583" lengthAdjust="spacing" textLength="93.75" x="1747.9167" y="240.0841">+id: Integer &#171;PK&#187;</text><text fill="#343A40" font-family="Verdana" font-size="11.4583" lengthAdjust="spacing" textLength="196.875" x="1747.9167" y="266.1069">+job_id: String &#171;unique&#187; &#171;required&#187;</text><text fill="#343A40" font-family="Verdana" font-size="11.4583" lengthAdjust="spacing" textLength="128.125" x="1747.9167" y="292.1297">+fmt: String &#171;required&#187;</text><text fill="#343A40" font-family="Verdana" font-size="11.4583" lengthAdjust="spacing" textLength="140.625" x="1747.9167" y="318.1525">+status: String = "queued"</text><text fill="#343A40" font-family="Verdana" font-size="11.4583" lengthAdjust="spacing" textLength="107.2917" x="1747.9167" y="344.1753">+result_path: String</text><text fill="#343A40" font-family="Verdana" font-size="11.4583" lengthAdjust="spacing" textLength="75" x="1747.9167" y="370.1981">+error: String</text><text fill="#343A40" font-family="Verdana" font-size="11.4583" lengthAdjust="spacing" textLength="107.2917" x="1747.9167" y="396.2209">+query_json: JSONB</text><text fill="#343A40" font-family="Verdana" font-size="11.4583" lengthAdjust="spacing" textLength="119.7917" x="1747.9167" y="422.2437">+created_at: DateTime</text><text fill="#343A40" font-family="Verdana" font-size="11.4583" lengthAdjust="spacing" textLength="125" x="1747.9167" y="448.2665">+updated_at: DateTime</text><line style="stroke:#000000;stroke-width:1.0416666666666667;" x1="1737.5" x2="1955.2083" y1="460.9988" y2="460.9988"/></g><!--class AppSetting--><g id="elem_AppSetting"><rect codeLine="112" fill="#FFFFFF" height="235.2657" id="AppSetting" rx="4.1667" ry="4.1667" style="stroke:#000000;stroke-width:1.0416666666666667;" width="205.2083" x="1096.875" y="208.0625"/><ellipse cx="1159.8958" cy="226.2822" fill="none" rx="10.4167" ry="10.4167" style="stroke:#2683B9;stroke-width:1.0416666666666667;"/><path d="M1161.8001,230.7093 Q1161.377,230.9209 1160.9049,231.0348 Q1160.4329,231.1487 1159.9284,231.1487 Q1158.0729,231.1487 1157.0964,229.9443 Q1156.1361,228.7236 1156.1361,226.4287 Q1156.1361,224.1175 1157.0964,222.9131 Q1158.0729,221.6924 1159.9284,221.6924 Q1160.4329,221.6924 1160.9049,221.8063 Q1161.3932,221.904 1161.8001,222.1318 L1161.8001,224.1338 Q1161.3444,223.7106 1160.9049,223.5153 Q1160.4655,223.3037 1160.0098,223.3037 Q1159.0169,223.3037 1158.5124,224.1012 Q1158.0078,224.8825 1158.0078,226.4287 Q1158.0078,227.9586 1158.5124,228.7399 Q1159.0169,229.5211 1160.0098,229.5211 Q1160.4655,229.5211 1160.9049,229.3258 Q1161.3444,229.1305 1161.8001,228.7073 L1161.8001,230.7093 Z " fill="#2FA4E7"/><text fill="#343A40" font-family="Verdana" font-size="11.4583" lengthAdjust="spacing" textLength="60.4167" x="1184.8958" y="230.728">AppSetting</text><line style="stroke:#000000;stroke-width:1.0416666666666667;" x1="1097.9167" x2="1301.0417" y1="244.5019" y2="244.5019"/><text fill="#343A40" font-family="Verdana" font-size="11.4583" lengthAdjust="spacing" textLength="93.75" x="1108.3333" y="266.1258">+id: Integer &#171;PK&#187;</text><text fill="#343A40" font-family="Verdana" font-size="11.4583" lengthAdjust="spacing" textLength="182.2917" x="1108.3333" y="292.1486">+key: String &#171;unique&#187; &#171;required&#187;</text><text fill="#343A40" font-family="Verdana" font-size="11.4583" lengthAdjust="spacing" textLength="138.5417" x="1108.3333" y="318.1714">+value: String &#171;required&#187;</text><text fill="#343A40" font-family="Verdana" font-size="11.4583" lengthAdjust="spacing" textLength="140.625" x="1108.3333" y="344.1942">+is_secret: Boolean = false</text><text fill="#343A40" font-family="Verdana" font-size="11.4583" lengthAdjust="spacing" textLength="125" x="1108.3333" y="370.217">+updated_at: DateTime</text><line style="stroke:#000000;stroke-width:1.0416666666666667;" x1="1097.9167" x2="1301.0417" y1="382.9493" y2="382.9493"/><text fill="#343A40" font-family="Verdana" font-size="11.4583" lengthAdjust="spacing" textLength="88.5417" x="1108.3333" y="404.5731">+encrypt_value()</text><text fill="#343A40" font-family="Verdana" font-size="11.4583" lengthAdjust="spacing" textLength="128.125" x="1108.3333" y="430.5959">+decrypt_value(): String</text></g><!--class AppLog--><g id="elem_AppLog"><rect codeLine="123" fill="#FFFFFF" height="261.2885" id="AppLog" rx="4.1667" ry="4.1667" style="stroke:#000000;stroke-width:1.0416666666666667;" width="179.1667" x="656.7708" y="1187.75"/><ellipse cx="715.625" cy="1205.9697" fill="none" rx="10.4167" ry="10.4167" style="stroke:#2683B9;stroke-width:1.0416666666666667;"/><path d="M717.5293,1210.3968 Q717.1061,1210.6084 716.6341,1210.7223 Q716.1621,1210.8362 715.6576,1210.8362 Q713.8021,1210.8362 712.8255,1209.6318 Q711.8652,1208.4111 711.8652,1206.1162 Q711.8652,1203.805 712.8255,1202.6006 Q713.8021,1201.3799 715.6576,1201.3799 Q716.1621,1201.3799 716.6341,1201.4938 Q717.1224,1201.5915 717.5293,1201.8193 L717.5293,1203.8213 Q717.0736,1203.3981 716.6341,1203.2028 Q716.1947,1202.9912 715.7389,1202.9912 Q714.7461,1202.9912 714.2415,1203.7887 Q713.737,1204.57 713.737,1206.1162 Q713.737,1207.6461 714.2415,1208.4274 Q714.7461,1209.2086 715.7389,1209.2086 Q716.1947,1209.2086 716.6341,1209.0133 Q717.0736,1208.818 717.5293,1208.3948 L717.5293,1210.3968 Z " fill="#2FA4E7"/><text fill="#343A40" font-family="Verdana" font-size="11.4583" lengthAdjust="spacing" textLength="42.7083" x="740.625" y="1210.4155">AppLog</text><line style="stroke:#000000;stroke-width:1.0416666666666667;" x1="657.8125" x2="834.8958" y1="1224.1894" y2="1224.1894"/><text fill="#343A40" font-family="Verdana" font-size="11.4583" lengthAdjust="spacing" textLength="93.75" x="668.2292" y="1245.8133">+id: Integer &#171;PK&#187;</text><text fill="#343A40" font-family="Verdana" font-size="11.4583" lengthAdjust="spacing" textLength="119.7917" x="668.2292" y="1271.8361">+level: String = "INFO"</text><text fill="#343A40" font-family="Verdana" font-size="11.4583" lengthAdjust="spacing" textLength="150" x="668.2292" y="1297.8589">+component: String = "app"</text><text fill="#343A40" font-family="Verdana" font-size="11.4583" lengthAdjust="spacing" textLength="156.25" x="668.2292" y="1323.8817">+message: String &#171;required&#187;</text><text fill="#343A40" font-family="Verdana" font-size="11.4583" lengthAdjust="spacing" textLength="127.0833" x="668.2292" y="1349.9045">+feed_source_id: String</text><text fill="#343A40" font-family="Verdana" font-size="11.4583" lengthAdjust="spacing" textLength="81.25" x="668.2292" y="1375.9273">+run_id: String</text><text fill="#343A40" font-family="Verdana" font-size="11.4583" lengthAdjust="spacing" textLength="97.9167" x="668.2292" y="1401.9501">+metadata: JSONB</text><text fill="#343A40" font-family="Verdana" font-size="11.4583" lengthAdjust="spacing" textLength="119.7917" x="668.2292" y="1427.9729">+created_at: DateTime</text><line style="stroke:#000000;stroke-width:1.0416666666666667;" x1="657.8125" x2="834.8958" y1="1440.7052" y2="1440.7052"/></g><g id="elem_GMN16"><path d="M557.2917,276.8125 L557.2917,321.6041 L520.5417,325.7708 L557.2917,329.9375 L557.2917,374.4381 A4.1667,4.1667 0 0 0 561.4583,378.6047 L781.25,378.6047 A4.1667,4.1667 0 0 0 785.4167,374.4381 L785.4167,283.0625 L775,272.6458 L561.4583,272.6458 A4.1667,4.1667 0 0 0 557.2917,276.8125 " fill="none" style="stroke:#033C73;stroke-width:1.0416666666666667;"/><path d="M775,272.6458 L775,280.9791 A2.0833,2.0833 0 0 0 777.0833,283.0625 L785.4167,283.0625 L775,272.6458 " fill="none" style="stroke:#033C73;stroke-width:1.0416666666666667;"/><text fill="#033C73" font-family="Verdana" font-size="12.5" lengthAdjust="spacing" textLength="141.6667" x="568.75" y="296.4251">Core entity representing</text><text fill="#033C73" font-family="Verdana" font-size="12.5" lengthAdjust="spacing" textLength="195.8333" x="568.75" y="313.4502">an IOC (Indicator of Compromise)</text><text fill="#033C73" font-family="Verdana" font-size="12.5" lengthAdjust="spacing" textLength="3.125" x="568.75" y="330.4753">&#160;</text><text fill="#033C73" font-family="Verdana" font-size="12.5" lengthAdjust="spacing" textLength="195.8333" x="568.75" y="347.5004">Types: ip, domain, url, hash, email</text><text fill="#033C73" font-family="Verdana" font-size="12.5" lengthAdjust="spacing" textLength="192.7083" x="568.75" y="364.5255">TLP: WHITE, GREEN, AMBER, RED</text></g><g id="elem_GMN19"><path d="M507.2917,842.4375 L507.2917,870.0416 L470.875,874.2083 L507.2917,878.375 L507.2917,906.0128 A4.1667,4.1667 0 0 0 511.4583,910.1795 L679.1667,910.1795 A4.1667,4.1667 0 0 0 683.3333,906.0128 L683.3333,848.6875 L672.9167,838.2708 L511.4583,838.2708 A4.1667,4.1667 0 0 0 507.2917,842.4375 " fill="none" style="stroke:#033C73;stroke-width:1.0416666666666667;"/><path d="M672.9167,838.2708 L672.9167,846.6041 A2.0833,2.0833 0 0 0 675,848.6875 L683.3333,848.6875 L672.9167,838.2708 " fill="none" style="stroke:#033C73;stroke-width:1.0416666666666667;"/><text fill="#033C73" font-family="Verdana" font-size="12.5" lengthAdjust="spacing" textLength="143.75" x="518.75" y="862.0501">Async job queue for feed</text><text fill="#033C73" font-family="Verdana" font-size="12.5" lengthAdjust="spacing" textLength="118.75" x="518.75" y="879.0752">synchronization with</text><text fill="#033C73" font-family="Verdana" font-size="12.5" lengthAdjust="spacing" textLength="122.9167" x="518.75" y="896.1003">idempotency support</text></g><g id="elem_GMN22"><path d="M1339.0625,294 L1339.0625,321.6041 L1302.4479,325.7708 L1339.0625,329.9375 L1339.0625,357.5753 A4.1667,4.1667 0 0 0 1343.2292,361.742 L1493.2292,361.742 A4.1667,4.1667 0 0 0 1497.3958,357.5753 L1497.3958,300.25 L1486.9792,289.8333 L1343.2292,289.8333 A4.1667,4.1667 0 0 0 1339.0625,294 " fill="none" style="stroke:#033C73;stroke-width:1.0416666666666667;"/><path d="M1486.9792,289.8333 L1486.9792,298.1666 A2.0833,2.0833 0 0 0 1489.0625,300.25 L1497.3958,300.25 L1486.9792,289.8333 " fill="none" style="stroke:#033C73;stroke-width:1.0416666666666667;"/><text fill="#033C73" font-family="Verdana" font-size="12.5" lengthAdjust="spacing" textLength="126.0417" x="1350.5208" y="313.6126">Encrypted storage for</text><text fill="#033C73" font-family="Verdana" font-size="12.5" lengthAdjust="spacing" textLength="118.75" x="1350.5208" y="330.6377">feed credentials and</text><text fill="#033C73" font-family="Verdana" font-size="12.5" lengthAdjust="spacing" textLength="77.0833" x="1350.5208" y="347.6628">configuration</text></g><!--link Feed to SyncJob--><g id="link_Feed_SyncJob"><path codeLine="135" d="M863.2188,495.8541 C846.3125,520.1354 826.5,542.875 803.6458,560.6666 C688.7292,650.1146 616.25,581.3958 489.0625,652.3333 C483.0625,655.6771 477.0938,659.1979 471.1563,662.8646 " fill="none" id="Feed-SyncJob" style="stroke:#000000;stroke-width:3.125;"/><polygon fill="#343A40" points="751.8958,608.3121,759.7902,607.6113,757.8706,603.1049,751.8958,608.3121" style="stroke:#343A40;stroke-width:1.0416666666666667;"/><text fill="#343A40" font-family="Verdana" font-size="12.5" lengthAdjust="spacing" textLength="59.375" x="770.3125" y="611.5292">generates</text><text fill="#343A40" font-family="Verdana" font-size="12.5" lengthAdjust="spacing" textLength="7.2917" x="847.0577" y="522.1841">1</text><text fill="#343A40" font-family="Verdana" font-size="12.5" lengthAdjust="spacing" textLength="20.8333" x="484.322" y="646.9839">0..*</text></g><!--link Feed to FeedStats--><g id="link_Feed_FeedStats"><path codeLine="136" d="M903.1771,495.5625 C887.2813,566.25 868.9063,647.9271 853.3229,717.1875 " fill="none" id="Feed-FeedStats" style="stroke:#000000;stroke-width:3.125;"/><polygon fill="#343A40" points="882.9397,610.7443,886.9834,603.928,882.2046,602.853,882.9397,610.7443" style="stroke:#343A40;stroke-width:1.0416666666666667;"/><text fill="#343A40" font-family="Verdana" font-size="12.5" lengthAdjust="spacing" textLength="35.4167" x="898.4375" y="611.5292">tracks</text><text fill="#343A40" font-family="Verdana" font-size="12.5" lengthAdjust="spacing" textLength="7.2917" x="888.5554" y="522.4539">1</text><text fill="#343A40" font-family="Verdana" font-size="12.5" lengthAdjust="spacing" textLength="20.8333" x="828.2243" y="700.4272">0..1</text></g><!--link Feed to FeedRun--><g id="link_Feed_FeedRun"><path codeLine="137" d="M979.1146,495.5625 C996.0417,570.8021 1015.7604,658.4687 1031.9375,730.3854 " fill="none" id="Feed-FeedRun" style="stroke:#000000;stroke-width:3.125;"/><polygon fill="#343A40" points="1010.8103,610.7443,1011.5454,602.853,1006.7666,603.928,1010.8103,610.7443" style="stroke:#343A40;stroke-width:1.0416666666666667;"/><text fill="#343A40" font-family="Verdana" font-size="12.5" lengthAdjust="spacing" textLength="52.0833" x="1024.4792" y="611.5292">executes</text><text fill="#343A40" font-family="Verdana" font-size="12.5" lengthAdjust="spacing" textLength="7.2917" x="967.9338" y="522.4539">1</text><text fill="#343A40" font-family="Verdana" font-size="12.5" lengthAdjust="spacing" textLength="20.8333" x="1003.2845" y="713.2821">0..*</text></g><!--link Feed to AppLog--><g id="link_Feed_AppLog"><path codeLine="138" d="M1030.3646,495.7916 C1045.2292,518.5312 1061.4583,540.8229 1078.6458,560.6666 C1121.3438,609.9583 1164.9792,593.5521 1193.2292,652.3333 C1278.6667,830.0937 1297.2292,928.5104 1193.2292,1096.0833 C1115.2708,1221.6875 942.5,1278.2187 836.0833,1301.9375 " fill="none" id="Feed-AppLog" style="stroke:#000000;stroke-width:3.125;"/><polygon fill="#343A40" points="1267.2529,878.4382,1271.3999,871.6843,1266.638,870.5366,1267.2529,878.4382" style="stroke:#343A40;stroke-width:1.0416666666666667;"/><text fill="#343A40" font-family="Verdana" font-size="12.5" lengthAdjust="spacing" textLength="23.9583" x="1282.8125" y="879.2376">logs</text><text fill="#343A40" font-family="Verdana" font-size="12.5" lengthAdjust="spacing" textLength="7.2917" x="1021.255" y="522.1189">1</text><text fill="#343A40" font-family="Verdana" font-size="12.5" lengthAdjust="spacing" textLength="20.8333" x="849.3578" y="1291.142">0..*</text></g><!--link SyncJob to AppLog--><g id="link_SyncJob_AppLog"><path codeLine="139" d="M471.1563,1080.2604 C477.1771,1085.6041 483.1563,1090.8854 489.0625,1096.0833 C544.3333,1144.7708 606.9688,1198.6875 656.6042,1241.125 " fill="none" id="SyncJob-AppLog" style="stroke:#000000;stroke-width:3.125;"/><polygon fill="#343A40" points="559.9183,1144.8261,555.8293,1138.037,552.6196,1141.7371,559.9183,1144.8261" style="stroke:#343A40;stroke-width:1.0416666666666667;"/><text fill="#343A40" font-family="Verdana" font-size="12.5" lengthAdjust="spacing" textLength="43.75" x="571.3542" y="1146.9459">creates</text><text fill="#343A40" font-family="Verdana" font-size="12.5" lengthAdjust="spacing" textLength="7.2917" x="484.0998" y="1078.0756">1</text><text fill="#343A40" font-family="Verdana" font-size="12.5" lengthAdjust="spacing" textLength="20.8333" x="622.4947" y="1225.6736">0..*</text></g><!--SRC=[hLVVKzj837xFNw7Bom4NUlIXBndAJ83qBZqAdOIPFdeMMucth7VTNIqbBVU_dzPs4ZjnVj0vO2P1qbhIzqbQ-JTACKE8qNg5GfyQJqfgxBX7gNDXHGQn4iuDYAnyy8IZsEY9_85mjcu2Fpl0FvSYVfnPutLoPPIny2MLX8LcOAtvNWel5LkLviOcQElIVpiTagGGHdTNS9zQ50GZJQYKdA6E4IPedoH_diAroOJKyCaag3gTCegHJcGiY1zNnlE7JFh5-HbQE3___C_5HIb_4ifZ7oQSc9wnnk8tBoqc2ptDyrrgPxoDznj4mNrfKuePlwbCGYAhiDx3kxFAgSgNZtmFtIz_Z-w7tIeF5ucOv1EVkpGcaCKMP3rM9yNCzU56EZelprTXP4WY4IJwy75oTtjP2gVIEeeSekx3jI2ybrdr6CQmNH478Z291ArhV9wqQqvFgz1Cn9pGqJ7h-NEP3Zxd0R0Whp8Av9SqJkOw_cWUzf7urJpK46QLr_ARnukB5aAco45kiDB6l9KpTXGrAe3Po8JsGYteI33B3J6Hy-WHvqsI7GdohdwMW_AOl5YlDKjUd8zZTEvbAgHYSIou7bGK0a57Im6hAc_8lMERFYmwhoZwwenkSBkTA8xAjckcKakNxk8m4_Ongg8_Egx9gaoEod1AXklwCiEZHWB7YmoATACoMNxgalqFJDK-wjkOtC5-PRwdgnFfSYNcaHRPBhC7uJ3oLZKP4PxIXeFASyp8ydIDOXkeMjN4oPzlty59-RlWMOi7XgkznNdA8JMLKw7ShpLe0-i9rwix3F3NJpmo95Ga5tFPrUTUDVRAmRRRHkf3h8hvLIRSEjgcI74QDVjpGztIRUjZj07VsEjzu1qyVBZ73gxfWmRLvYogsdZxQ2bGu7XZliQf1UJN3f8bM0EVIBenitre1QPhlRAPEMhU4UOjpLOfQW-kUi0nJkkLAVD890bFhb19jyFx7JTcQtSjyne-vyRI_trVPRIhsRPSCTt6xP0BIjS0sgIR3zhvQowItGDbaESJ90fHxK6ZTc_kXcBVhiRBX4EEbxRCnhqh2b_ZTfvJL3XQt6y9DeHBqEgP7b3C2fzGrOaQtNwuwowsGLuYD6ggwqMUTnUbw9oOxSgyVQwqZP9VAExVOOnAX5PqgSnTfxYMks-x31jqpzwyEUakzxG-y7AEbWyxkDWmv6-hQwRFLnel-crs9ztbFEq3FcFisv_7TXNsVL1c5amMWMonAbCCXXtDMnlmv4m9p7Jrli1GN1cBK4uGi9Xp3uL_2kYueiBxoD7gzOBFNZ5xrcJIOQWO_hldUSGzAVCU9CMxIGzuI-X1AbpQ0sI92bOtd_jGhFOz-6iy7DxsOF3fSZZkmNXutK6TG0XnFT0gGJu_SFmLU9H0qV8mvMX27R0gQ59UC-IFWZRuBYbbSMrP1UVpCAos-bcrBnySbdt1w3lEcKinE6DvS1SmJG90t6UCJt1VlDpCl2sShppy1m00]--></g></svg>