<?plantuml 1.2026.2?><svg xmlns="http://www.w3.org/2000/svg" xmlns:xlink="http://www.w3.org/1999/xlink" contentStyleType="text/css" data-diagram-type="SEQUENCE" height="2083.3333px" preserveAspectRatio="none" style="width:1612px;height:2083px;" version="1.1" viewBox="0 0 1612 2083" width="1612.5px" zoomAndPan="magnify"><title>IOC Service - Indicator Export Sequence</title><defs/><g><rect fill="none" height="47.168" rx="4.1667" ry="4.1667" style="stroke:#BABDBF;stroke-width:1.0417;" width="492.2262" x="558.9859" y="20.8333"/><text fill="#2FA4E7" font-family="'Verdana'" font-size="20.8333" font-weight="bold" lengthAdjust="spacing" textLength="469.3095" x="570.4442" y="51.6296">IOC Service - Indicator Export Sequence</text><g><title>FlaskApp</title><rect fill="none" height="1420.6706" style="stroke:#2683B9;stroke-width:1.0417;" width="10.4167" x="266.4256" y="263.737"/></g><g><title>Security</title><rect fill="none" height="205.013" style="stroke:#2683B9;stroke-width:1.0417;" width="10.4167" x="465.3086" y="303.2878"/></g><g><title>QueryParser</title><rect fill="none" height="39.5508" style="stroke:#2683B9;stroke-width:1.0417;" width="10.4167" x="673.7345" y="856.9661"/></g><g><title>Formatter</title><rect fill="none" height="39.5508" style="stroke:#2683B9;stroke-width:1.0417;" width="10.4167" x="890.2903" y="1550.1302"/></g><g><title>PostgreSQL</title><rect fill="none" height="39.5508" style="stroke:#2683B9;stroke-width:1.0417;" width="10.4167" x="1044.0999" y="1253.5156"/></g><g><title>Redis</title><rect fill="none" height="169.6289" style="stroke:#2683B9;stroke-width:1.0417;" width="10.4167" x="1172.5037" y="593.6523"/></g><g><title>Redis</title><rect fill="none" height="169.6289" style="stroke:#2683B9;stroke-width:1.0417;" width="10.4167" x="1172.5037" y="990.2018"/></g><g><title>ExportJob</title><rect fill="none" height="197.7539" style="stroke:#2683B9;stroke-width:1.0417;" width="10.4167" x="1340.7837" y="1769.7591"/></g><rect fill="none" height="182.0964" rx="4.1667" ry="4.1667" style="stroke:#2FA4E7;stroke-width:1.0417;" width="550.9796" x="20.8333" y="318.9128"/><rect fill="none" height="115.4948" rx="4.1667" ry="4.1667" style="stroke:#2FA4E7;stroke-width:1.0417;" width="1240.8986" x="20.8333" y="609.2773"/><rect fill="none" height="115.4948" rx="4.1667" ry="4.1667" style="stroke:#2FA4E7;stroke-width:1.0417;" width="1240.8986" x="20.8333" y="1005.8268"/><rect fill="none" height="314.2904" rx="4.1667" ry="4.1667" style="stroke:#2FA4E7;stroke-width:1.0417;" width="1240.8986" x="20.8333" y="1362.8255"/><g class="participant-lifeline" data-entity-uid="part1" data-qualified-name="Client" id="part1-lifeline"><g><title>Client</title><rect fill="#000000" fill-opacity="0.00000" height="1818.2943" width="8.3333" x="53.5105" y="167.9688"/><line style="stroke:#BABDBF;stroke-width:1.0417;stroke-dasharray:5.2083,5.2083;" x1="57.2917" x2="57.2917" y1="167.9688" y2="1986.263"/></g></g><g class="participant-lifeline" data-entity-uid="part2" data-qualified-name="Flask" id="part2-lifeline"><g><title>FlaskApp</title><rect fill="#000000" fill-opacity="0.00000" height="1818.2943" width="8.3333" x="267.4672" y="167.9688"/><line style="stroke:#BABDBF;stroke-width:1.0417;stroke-dasharray:5.2083,5.2083;" x1="271.5118" x2="271.5118" y1="167.9688" y2="1986.263"/></g></g><g class="participant-lifeline" data-entity-uid="part3" data-qualified-name="Security" id="part3-lifeline"><g><title>Security</title><rect fill="#000000" fill-opacity="0.00000" height="1818.2943" width="8.3333" x="466.3503" y="167.9688"/><line style="stroke:#BABDBF;stroke-width:1.0417;stroke-dasharray:5.2083,5.2083;" x1="470.2627" x2="470.2627" y1="167.9688" y2="1986.263"/></g></g><g class="participant-lifeline" data-entity-uid="part4" data-qualified-name="Parser" id="part4-lifeline"><g><title>QueryParser</title><rect fill="#000000" fill-opacity="0.00000" height="1818.2943" width="8.3333" x="674.7762" y="167.9688"/><line style="stroke:#BABDBF;stroke-width:1.0417;stroke-dasharray:5.2083,5.2083;" x1="678.0629" x2="678.0629" y1="167.9688" y2="1986.263"/></g></g><g class="participant-lifeline" data-entity-uid="part5" data-qualified-name="Formatter" id="part5-lifeline"><g><title>Formatter</title><rect fill="#000000" fill-opacity="0.00000" height="1818.2943" width="8.3333" x="891.332" y="167.9688"/><line style="stroke:#BABDBF;stroke-width:1.0417;stroke-dasharray:5.2083,5.2083;" x1="895.4478" x2="895.4478" y1="167.9688" y2="1986.263"/></g></g><g class="participant-lifeline" data-entity-uid="part6" data-qualified-name="DB" id="part6-lifeline"><g><title>PostgreSQL</title><rect fill="#000000" fill-opacity="0.00000" height="1818.2943" width="8.3333" x="1045.1416" y="167.9688"/><line style="stroke:#BABDBF;stroke-width:1.0417;stroke-dasharray:5.2083,5.2083;" x1="1048.6745" x2="1048.6745" y1="167.9688" y2="1986.263"/></g></g><g class="participant-lifeline" data-entity-uid="part7" data-qualified-name="Cache" id="part7-lifeline"><g><title>Redis</title><rect fill="#000000" fill-opacity="0.00000" height="1818.2943" width="8.3333" x="1173.5453" y="167.9688"/><line style="stroke:#BABDBF;stroke-width:1.0417;stroke-dasharray:5.2083,5.2083;" x1="1177.0253" x2="1177.0253" y1="167.9688" y2="1986.263"/></g></g><g class="participant-lifeline" data-entity-uid="part8" data-qualified-name="Worker" id="part8-lifeline"><g><title>ExportJob</title><rect fill="#000000" fill-opacity="0.00000" height="1818.2943" width="8.3333" x="1341.8254" y="167.9688"/><line style="stroke:#BABDBF;stroke-width:1.0417;stroke-dasharray:5.2083,5.2083;" x1="1345.0653" x2="1345.0653" y1="167.9688" y2="1986.263"/></g></g><g class="participant-lifeline" data-entity-uid="part9" data-qualified-name="FS" id="part9-lifeline"><g><title>File</title><rect fill="#000000" fill-opacity="0.00000" height="1818.2943" width="8.3333" x="1513.975" y="167.9688"/><line style="stroke:#BABDBF;stroke-width:1.0417;stroke-dasharray:5.2083,5.2083;" x1="1517.7521" x2="1517.7521" y1="167.9688" y2="1986.263"/></g></g><g class="participant participant-head" data-entity-uid="part1" data-qualified-name="Client" id="part1-head"><text fill="#2FA4E7" font-family="'Verdana'" font-size="12.5" lengthAdjust="spacing" textLength="36.1877" x="36.4583" y="159.8124">Client</text><ellipse cx="57.6772" cy="88.8346" fill="none" rx="8.3333" ry="8.3333" style="stroke:#2FA4E7;stroke-width:1.0417;"/><path d="M57.6772,97.168 L57.6772,125.293 M44.1355,105.5013 L71.2189,105.5013 M57.6772,125.293 L44.1355,140.918 M57.6772,125.293 L71.2189,140.918" fill="none" style="stroke:#2FA4E7;stroke-width:1.0417;"/></g><g class="participant participant-tail" data-entity-uid="part1" data-qualified-name="Client" id="part1-tail"><text fill="#2FA4E7" font-family="'Verdana'" font-size="12.5" lengthAdjust="spacing" textLength="36.1877" x="36.4583" y="2002.0325">Client</text><ellipse cx="57.6772" cy="2019.5638" fill="none" rx="8.3333" ry="8.3333" style="stroke:#2FA4E7;stroke-width:1.0417;"/><path d="M57.6772,2027.8971 L57.6772,2056.0221 M44.1355,2036.2305 L71.2189,2036.2305 M57.6772,2056.0221 L44.1355,2071.6471 M57.6772,2056.0221 L71.2189,2071.6471" fill="none" style="stroke:#2FA4E7;stroke-width:1.0417;"/></g><g class="participant participant-head" data-entity-uid="part2" data-qualified-name="Flask" id="part2-head"><rect fill="none" height="54.1016" rx="4.1667" ry="4.1667" style="stroke:#2FA4E7;stroke-width:1.0417;" width="81.4941" x="230.8868" y="112.8255"/><text fill="#2FA4E7" font-family="'Verdana'" font-size="12.5" lengthAdjust="spacing" textLength="56.4941" x="243.3868" y="136.9283">FlaskApp</text><text fill="#2FA4E7" font-family="'Verdana'" font-size="12.5" lengthAdjust="spacing" textLength="54.7485" x="244.2596" y="151.4791">/main.py</text></g><g class="participant participant-tail" data-entity-uid="part2" data-qualified-name="Flask" id="part2-tail"><rect fill="none" height="54.1016" rx="4.1667" ry="4.1667" style="stroke:#2FA4E7;stroke-width:1.0417;" width="81.4941" x="230.8868" y="1985.2214"/><text fill="#2FA4E7" font-family="'Verdana'" font-size="12.5" lengthAdjust="spacing" textLength="56.4941" x="243.3868" y="2009.3241">FlaskApp</text><text fill="#2FA4E7" font-family="'Verdana'" font-size="12.5" lengthAdjust="spacing" textLength="54.7485" x="244.2596" y="2023.8749">/main.py</text></g><g class="participant participant-head" data-entity-uid="part3" data-qualified-name="Security" id="part3-head"><rect fill="none" height="54.1016" rx="4.1667" ry="4.1667" style="stroke:#2FA4E7;stroke-width:1.0417;" width="98.4253" x="421.3043" y="112.8255"/><text fill="#2FA4E7" font-family="'Verdana'" font-size="12.5" lengthAdjust="spacing" textLength="51.3306" x="444.8517" y="136.9283">Security</text><text fill="#2FA4E7" font-family="'Verdana'" font-size="12.5" lengthAdjust="spacing" textLength="73.4253" x="433.8043" y="151.4791">/security.py</text></g><g class="participant participant-tail" data-entity-uid="part3" data-qualified-name="Security" id="part3-tail"><rect fill="none" height="54.1016" rx="4.1667" ry="4.1667" style="stroke:#2FA4E7;stroke-width:1.0417;" width="98.4253" x="421.3043" y="1985.2214"/><text fill="#2FA4E7" font-family="'Verdana'" font-size="12.5" lengthAdjust="spacing" textLength="51.3306" x="444.8517" y="2009.3241">Security</text><text fill="#2FA4E7" font-family="'Verdana'" font-size="12.5" lengthAdjust="spacing" textLength="73.4253" x="433.8043" y="2023.8749">/security.py</text></g><g class="participant participant-head" data-entity-uid="part4" data-qualified-name="Parser" id="part4-head"><rect fill="none" height="54.1016" rx="4.1667" ry="4.1667" style="stroke:#2FA4E7;stroke-width:1.0417;" width="130.9265" x="613.4796" y="112.8255"/><text fill="#2FA4E7" font-family="'Verdana'" font-size="12.5" lengthAdjust="spacing" textLength="77.6672" x="640.1093" y="136.9283">QueryParser</text><text fill="#2FA4E7" font-family="'Verdana'" font-size="12.5" lengthAdjust="spacing" textLength="105.9265" x="625.9796" y="151.4791">/query_parser.py</text></g><g class="participant participant-tail" data-entity-uid="part4" data-qualified-name="Parser" id="part4-tail"><rect fill="none" height="54.1016" rx="4.1667" ry="4.1667" style="stroke:#2FA4E7;stroke-width:1.0417;" width="130.9265" x="613.4796" y="1985.2214"/><text fill="#2FA4E7" font-family="'Verdana'" font-size="12.5" lengthAdjust="spacing" textLength="77.6672" x="640.1093" y="2009.3241">QueryParser</text><text fill="#2FA4E7" font-family="'Verdana'" font-size="12.5" lengthAdjust="spacing" textLength="105.9265" x="625.9796" y="2023.8749">/query_parser.py</text></g><g class="participant participant-head" data-entity-uid="part5" data-qualified-name="Formatter" id="part5-head"><rect fill="none" height="54.1016" rx="4.1667" ry="4.1667" style="stroke:#2FA4E7;stroke-width:1.0417;" width="114.6851" x="838.1561" y="112.8255"/><text fill="#2FA4E7" font-family="'Verdana'" font-size="12.5" lengthAdjust="spacing" textLength="62.4451" x="864.2761" y="136.9283">Formatter</text><text fill="#2FA4E7" font-family="'Verdana'" font-size="12.5" lengthAdjust="spacing" textLength="89.6851" x="850.6561" y="151.4791">/formatters.py</text></g><g class="participant participant-tail" data-entity-uid="part5" data-qualified-name="Formatter" id="part5-tail"><rect fill="none" height="54.1016" rx="4.1667" ry="4.1667" style="stroke:#2FA4E7;stroke-width:1.0417;" width="114.6851" x="838.1561" y="1985.2214"/><text fill="#2FA4E7" font-family="'Verdana'" font-size="12.5" lengthAdjust="spacing" textLength="62.4451" x="864.2761" y="2009.3241">Formatter</text><text fill="#2FA4E7" font-family="'Verdana'" font-size="12.5" lengthAdjust="spacing" textLength="89.6851" x="850.6561" y="2023.8749">/formatters.py</text></g><g class="participant participant-head" data-entity-uid="part6" data-qualified-name="DB" id="part6-head"><text fill="#2FA4E7" font-family="'Verdana'" font-size="12.5" lengthAdjust="spacing" textLength="72.1008" x="1010.1329" y="159.8124">PostgreSQL</text><path d="M1030.5583,105.5013 C1030.5583,95.0846 1049.3083,95.0846 1049.3083,95.0846 C1049.3083,95.0846 1068.0583,95.0846 1068.0583,105.5013 L1068.0583,132.5846 C1068.0583,143.0013 1049.3083,143.0013 1049.3083,143.0013 C1049.3083,143.0013 1030.5583,143.0013 1030.5583,132.5846 L1030.5583,105.5013" fill="none" style="stroke:#2FA4E7;stroke-width:1.0417;"/><path d="M1030.5583,105.5013 C1030.5583,115.918 1049.3083,115.918 1049.3083,115.918 C1049.3083,115.918 1068.0583,115.918 1068.0583,105.5013" fill="none" style="stroke:#2FA4E7;stroke-width:1.0417;"/></g><g class="participant participant-tail" data-entity-uid="part6" data-qualified-name="DB" id="part6-tail"><text fill="#2FA4E7" font-family="'Verdana'" font-size="12.5" lengthAdjust="spacing" textLength="72.1008" x="1010.1329" y="2002.0325">PostgreSQL</text><path d="M1030.5583,2020.6055 C1030.5583,2010.1888 1049.3083,2010.1888 1049.3083,2010.1888 C1049.3083,2010.1888 1068.0583,2010.1888 1068.0583,2020.6055 L1068.0583,2047.6888 C1068.0583,2058.1055 1049.3083,2058.1055 1049.3083,2058.1055 C1049.3083,2058.1055 1030.5583,2058.1055 1030.5583,2047.6888 L1030.5583,2020.6055" fill="none" style="stroke:#2FA4E7;stroke-width:1.0417;"/><path d="M1030.5583,2020.6055 C1030.5583,2031.0221 1049.3083,2031.0221 1049.3083,2031.0221 C1049.3083,2031.0221 1068.0583,2031.0221 1068.0583,2020.6055" fill="none" style="stroke:#2FA4E7;stroke-width:1.0417;"/></g><g class="participant participant-head" data-entity-uid="part7" data-qualified-name="Cache" id="part7-head"><rect fill="none" height="54.1016" rx="4.1667" ry="4.1667" style="stroke:#2FA4E7;stroke-width:1.0417;" width="63.8733" x="1145.7753" y="112.8255"/><text fill="#2FA4E7" font-family="'Verdana'" font-size="12.5" lengthAdjust="spacing" textLength="34.2957" x="1160.5642" y="136.9283">Redis</text><text fill="#2FA4E7" font-family="'Verdana'" font-size="12.5" lengthAdjust="spacing" textLength="38.8733" x="1158.2753" y="151.4791">Cache</text></g><g class="participant participant-tail" data-entity-uid="part7" data-qualified-name="Cache" id="part7-tail"><rect fill="none" height="54.1016" rx="4.1667" ry="4.1667" style="stroke:#2FA4E7;stroke-width:1.0417;" width="63.8733" x="1145.7753" y="1985.2214"/><text fill="#2FA4E7" font-family="'Verdana'" font-size="12.5" lengthAdjust="spacing" textLength="34.2957" x="1160.5642" y="2009.3241">Redis</text><text fill="#2FA4E7" font-family="'Verdana'" font-size="12.5" lengthAdjust="spacing" textLength="38.8733" x="1158.2753" y="2023.8749">Cache</text></g><g class="participant participant-head" data-entity-uid="part8" data-qualified-name="Worker" id="part8-head"><rect fill="none" height="54.1016" rx="4.1667" ry="4.1667" style="stroke:#2FA4E7;stroke-width:1.0417;" width="85.1868" x="1303.3986" y="112.8255"/><text fill="#2FA4E7" font-family="'Verdana'" font-size="12.5" lengthAdjust="spacing" textLength="60.1868" x="1315.8986" y="136.9283">ExportJob</text><text fill="#2FA4E7" font-family="'Verdana'" font-size="12.5" lengthAdjust="spacing" textLength="45.2148" x="1323.3846" y="151.4791">Worker</text></g><g class="participant participant-tail" data-entity-uid="part8" data-qualified-name="Worker" id="part8-tail"><rect fill="none" height="54.1016" rx="4.1667" ry="4.1667" style="stroke:#2FA4E7;stroke-width:1.0417;" width="85.1868" x="1303.3986" y="1985.2214"/><text fill="#2FA4E7" font-family="'Verdana'" font-size="12.5" lengthAdjust="spacing" textLength="60.1868" x="1315.8986" y="2009.3241">ExportJob</text><text fill="#2FA4E7" font-family="'Verdana'" font-size="12.5" lengthAdjust="spacing" textLength="45.2148" x="1323.3846" y="2023.8749">Worker</text></g><g class="participant participant-head" data-entity-uid="part9" data-qualified-name="FS" id="part9-head"><rect fill="none" height="54.1016" rx="4.1667" ry="4.1667" style="stroke:#2FA4E7;stroke-width:1.0417;" width="71.6125" x="1482.3354" y="112.8255"/><text fill="#2FA4E7" font-family="'Verdana'" font-size="12.5" lengthAdjust="spacing" textLength="21.8262" x="1507.2286" y="136.9283">File</text><text fill="#2FA4E7" font-family="'Verdana'" font-size="12.5" lengthAdjust="spacing" textLength="46.6125" x="1494.8354" y="151.4791">System</text></g><g class="participant participant-tail" data-entity-uid="part9" data-qualified-name="FS" id="part9-tail"><rect fill="none" height="54.1016" rx="4.1667" ry="4.1667" style="stroke:#2FA4E7;stroke-width:1.0417;" width="71.6125" x="1482.3354" y="1985.2214"/><text fill="#2FA4E7" font-family="'Verdana'" font-size="12.5" lengthAdjust="spacing" textLength="21.8262" x="1507.2286" y="2009.3241">File</text><text fill="#2FA4E7" font-family="'Verdana'" font-size="12.5" lengthAdjust="spacing" textLength="46.6125" x="1494.8354" y="2023.8749">System</text></g><g><title>FlaskApp</title><rect fill="none" height="1420.6706" style="stroke:#2683B9;stroke-width:1.0417;" width="10.4167" x="266.4256" y="263.737"/></g><g><title>Security</title><rect fill="none" height="205.013" style="stroke:#2683B9;stroke-width:1.0417;" width="10.4167" x="465.3086" y="303.2878"/></g><g><title>QueryParser</title><rect fill="none" height="39.5508" style="stroke:#2683B9;stroke-width:1.0417;" width="10.4167" x="673.7345" y="856.9661"/></g><g><title>Formatter</title><rect fill="none" height="39.5508" style="stroke:#2683B9;stroke-width:1.0417;" width="10.4167" x="890.2903" y="1550.1302"/></g><g><title>PostgreSQL</title><rect fill="none" height="39.5508" style="stroke:#2683B9;stroke-width:1.0417;" width="10.4167" x="1044.0999" y="1253.5156"/></g><g><title>Redis</title><rect fill="none" height="169.6289" style="stroke:#2683B9;stroke-width:1.0417;" width="10.4167" x="1172.5037" y="593.6523"/></g><g><title>Redis</title><rect fill="none" height="169.6289" style="stroke:#2683B9;stroke-width:1.0417;" width="10.4167" x="1172.5037" y="990.2018"/></g><g><title>ExportJob</title><rect fill="none" height="197.7539" style="stroke:#2683B9;stroke-width:1.0417;" width="10.4167" x="1340.7837" y="1769.7591"/></g><rect fill="#F8F9FA" height="3.125" rx="4.1667" ry="4.1667" style="stroke:#F8F9FA;stroke-width:1.0417;" width="1590.4063" x="10.4167" y="204.4108"/><line style="stroke:#868E96;stroke-width:1.0417;" x1="10.4167" x2="1600.823" y1="204.4108" y2="204.4108"/><line style="stroke:#868E96;stroke-width:1.0417;" x1="10.4167" x2="1600.823" y1="207.5358" y2="207.5358"/><rect fill="#F8F9FA" height="33.3008" rx="4.1667" ry="4.1667" style="stroke:#868E96;stroke-width:2.0833;" width="163.3545" x="723.9426" y="188.8021"/><text fill="#343A40" font-family="'Verdana'" font-size="12.5" font-weight="bold" lengthAdjust="spacing" textLength="134.0027" x="735.4009" y="209.7799">Request Validation</text><g class="message" data-entity-1="part1" data-entity-2="part2" id="msg1"><polygon fill="#2FA4E7" points="253.9256,259.5703,264.3422,263.737,253.9256,267.9036,258.0922,263.737" style="stroke:#2FA4E7;stroke-width:1.0417;"/><line style="stroke:#2FA4E7;stroke-width:3.125;" x1="57.6772" x2="260.1756" y1="263.737" y2="263.737"/><text fill="#343A40" font-family="'Verdana'" font-size="12.5" lengthAdjust="spacing" textLength="178.54" x="70.1772" y="253.4973">GET /indicators/&lt;fmt&gt;?q=...</text></g><g class="message" data-entity-1="part2" data-entity-2="part3" id="msg2"><polygon fill="#2FA4E7" points="452.8086,299.1211,463.2253,303.2878,452.8086,307.4544,456.9753,303.2878" style="stroke:#2FA4E7;stroke-width:1.0417;"/><line style="stroke:#2FA4E7;stroke-width:3.125;" x1="276.8422" x2="459.0586" y1="303.2878" y2="303.2878"/><text fill="#343A40" font-family="'Verdana'" font-size="12.5" lengthAdjust="spacing" textLength="158.2581" x="289.3422" y="293.0481">validate_search_query(q)</text></g><path d="M25,318.9128 L96.8201,318.9128 L96.8201,335.5469 L86.4034,345.9635 L20.8333,345.9635 L20.8333,323.0794 A4.1667,4.1667 0 0 1 25,318.9128" fill="#E9ECEF" style="stroke:#868E96;stroke-width:1.0417;"/><rect fill="none" height="182.0964" rx="4.1667" ry="4.1667" style="stroke:#2FA4E7;stroke-width:1.0417;" width="550.9796" x="20.8333" y="318.9128"/><text fill="#033C73" font-family="'Verdana'" font-size="12.5" font-weight="bold" lengthAdjust="spacing" textLength="18.6951" x="41.6667" y="336.7655">alt</text><text fill="#343A40" font-family="'Verdana'" font-size="12.5" font-weight="bold" lengthAdjust="spacing" textLength="104.0649" x="117.6534" y="337.8072">[Invalid query]</text><g class="message" data-entity-1="part3" data-entity-2="part2" id="msg3"><polygon fill="#2FA4E7" points="288.3006,382.3568,277.8839,386.5234,288.3006,390.6901,284.1339,386.5234" style="stroke:#2FA4E7;stroke-width:1.0417;"/><line style="stroke:#2FA4E7;stroke-width:3.125;stroke-dasharray:2.0833,2.0833;" x1="282.0506" x2="464.267" y1="386.5234" y2="386.5234"/><text fill="#343A40" font-family="'Verdana'" font-size="12.5" lengthAdjust="spacing" textLength="32.5256" x="299.7589" y="376.2838">False</text></g><g class="message" data-entity-1="part2" data-entity-2="part1" id="msg4"><polygon fill="#2FA4E7" points="69.1355,421.9076,58.7189,426.0742,69.1355,430.2409,64.9689,426.0742" style="stroke:#2FA4E7;stroke-width:1.0417;"/><line style="stroke:#2FA4E7;stroke-width:3.125;stroke-dasharray:2.0833,2.0833;" x1="62.8855" x2="265.3839" y1="426.0742" y2="426.0742"/><text fill="#343A40" font-family="'Verdana'" font-size="12.5" lengthAdjust="spacing" textLength="107.312" x="80.5939" y="415.8346">400 Bad Request</text></g><line style="stroke:#2FA4E7;stroke-width:1.0417;stroke-dasharray:2.0833,2.0833;" x1="20.8333" x2="571.8129" y1="435.4492" y2="435.4492"/><text fill="#343A40" font-family="'Verdana'" font-size="12.5" font-weight="bold" lengthAdjust="spacing" textLength="92.041" x="31.25" y="452.2603">[Valid query]</text><g class="message" data-entity-1="part3" data-entity-2="part2" id="msg5"><polygon fill="#2FA4E7" points="288.3006,488.5091,277.8839,492.6758,288.3006,496.8424,284.1339,492.6758" style="stroke:#2FA4E7;stroke-width:1.0417;"/><line style="stroke:#2FA4E7;stroke-width:3.125;stroke-dasharray:2.0833,2.0833;" x1="282.0506" x2="464.267" y1="492.6758" y2="492.6758"/><text fill="#343A40" font-family="'Verdana'" font-size="12.5" lengthAdjust="spacing" textLength="28.3875" x="299.7589" y="482.4361">True</text></g><rect fill="#F8F9FA" height="3.125" rx="4.1667" ry="4.1667" style="stroke:#F8F9FA;stroke-width:1.0417;" width="1590.4063" x="10.4167" y="534.3262"/><line style="stroke:#868E96;stroke-width:1.0417;" x1="10.4167" x2="1600.823" y1="534.3262" y2="534.3262"/><line style="stroke:#868E96;stroke-width:1.0417;" x1="10.4167" x2="1600.823" y1="537.4512" y2="537.4512"/><rect fill="#F8F9FA" height="33.3008" rx="4.1667" ry="4.1667" style="stroke:#868E96;stroke-width:2.0833;" width="148.3765" x="731.4316" y="518.7174"/><text fill="#343A40" font-family="'Verdana'" font-size="12.5" font-weight="bold" lengthAdjust="spacing" textLength="119.0247" x="742.8899" y="539.6952">Rate Limit Check</text><g class="message" data-entity-1="part2" data-entity-2="part7" id="msg6"><polygon fill="#2FA4E7" points="1160.0037,589.4857,1170.4203,593.6523,1160.0037,597.819,1164.1703,593.6523" style="stroke:#2FA4E7;stroke-width:1.0417;"/><line style="stroke:#2FA4E7;stroke-width:3.125;" x1="276.8422" x2="1166.2537" y1="593.6523" y2="593.6523"/><text fill="#343A40" font-family="'Verdana'" font-size="12.5" lengthAdjust="spacing" textLength="108.6792" x="289.3422" y="583.4127">Check global RPS</text></g><path d="M25,609.2773 L96.8201,609.2773 L96.8201,625.9115 L86.4034,636.3281 L20.8333,636.3281 L20.8333,613.444 A4.1667,4.1667 0 0 1 25,609.2773" fill="#E9ECEF" style="stroke:#868E96;stroke-width:1.0417;"/><rect fill="none" height="115.4948" rx="4.1667" ry="4.1667" style="stroke:#2FA4E7;stroke-width:1.0417;" width="1240.8986" x="20.8333" y="609.2773"/><text fill="#033C73" font-family="'Verdana'" font-size="12.5" font-weight="bold" lengthAdjust="spacing" textLength="18.6951" x="41.6667" y="627.1301">alt</text><text fill="#343A40" font-family="'Verdana'" font-size="12.5" font-weight="bold" lengthAdjust="spacing" textLength="115.5701" x="117.6534" y="628.1718">[Rate exceeded]</text><g class="message" data-entity-1="part7" data-entity-2="part2" id="msg7"><polygon fill="#2FA4E7" points="288.3006,672.7214,277.8839,676.888,288.3006,681.0547,284.1339,676.888" style="stroke:#2FA4E7;stroke-width:1.0417;"/><line style="stroke:#2FA4E7;stroke-width:3.125;stroke-dasharray:2.0833,2.0833;" x1="282.0506" x2="1171.462" y1="676.888" y2="676.888"/><text fill="#343A40" font-family="'Verdana'" font-size="12.5" lengthAdjust="spacing" textLength="61.1084" x="299.7589" y="666.6484">Exceeded</text></g><g class="message" data-entity-1="part2" data-entity-2="part1" id="msg8"><polygon fill="#2FA4E7" points="69.1355,712.2721,58.7189,716.4388,69.1355,720.6055,64.9689,716.4388" style="stroke:#2FA4E7;stroke-width:1.0417;"/><line style="stroke:#2FA4E7;stroke-width:3.125;stroke-dasharray:2.0833,2.0833;" x1="62.8855" x2="265.3839" y1="716.4388" y2="716.4388"/><text fill="#343A40" font-family="'Verdana'" font-size="12.5" lengthAdjust="spacing" textLength="150.3235" x="80.5939" y="706.1991">429 Too Many Requests</text></g><g class="message" data-entity-1="part7" data-entity-2="part2" id="msg9"><polygon fill="#2FA4E7" points="288.3006,759.1146,277.8839,763.2813,288.3006,767.4479,284.1339,763.2813" style="stroke:#2FA4E7;stroke-width:1.0417;"/><line style="stroke:#2FA4E7;stroke-width:3.125;stroke-dasharray:2.0833,2.0833;" x1="282.0506" x2="1176.6703" y1="763.2813" y2="763.2813"/><text fill="#343A40" font-family="'Verdana'" font-size="12.5" lengthAdjust="spacing" textLength="18.0359" x="299.7589" y="753.0416">OK</text></g><rect fill="#F8F9FA" height="3.125" rx="4.1667" ry="4.1667" style="stroke:#F8F9FA;stroke-width:1.0417;" width="1590.4063" x="10.4167" y="797.64"/><line style="stroke:#868E96;stroke-width:1.0417;" x1="10.4167" x2="1600.823" y1="797.64" y2="797.64"/><line style="stroke:#868E96;stroke-width:1.0417;" x1="10.4167" x2="1600.823" y1="800.765" y2="800.765"/><rect fill="#F8F9FA" height="33.3008" rx="4.1667" ry="4.1667" style="stroke:#868E96;stroke-width:2.0833;" width="129.3518" x="740.9439" y="782.0313"/><text fill="#343A40" font-family="'Verdana'" font-size="12.5" font-weight="bold" lengthAdjust="spacing" textLength="100" x="752.4022" y="803.009">Query Parsing</text><g class="message" data-entity-1="part2" data-entity-2="part4" id="msg10"><polygon fill="#2FA4E7" points="661.2345,852.7995,671.6512,856.9661,661.2345,861.1328,665.4012,856.9661" style="stroke:#2FA4E7;stroke-width:1.0417;"/><line style="stroke:#2FA4E7;stroke-width:3.125;" x1="276.8422" x2="667.4845" y1="856.9661" y2="856.9661"/><text fill="#343A40" font-family="'Verdana'" font-size="12.5" lengthAdjust="spacing" textLength="143.0969" x="289.3422" y="846.7265">parse_kibana_query(q)</text></g><g class="message" data-entity-1="part4" data-entity-2="part2" id="msg11"><polygon fill="#2FA4E7" points="288.3006,892.3503,277.8839,896.5169,288.3006,900.6836,284.1339,896.5169" style="stroke:#2FA4E7;stroke-width:1.0417;"/><line style="stroke:#2FA4E7;stroke-width:3.125;stroke-dasharray:2.0833,2.0833;" x1="282.0506" x2="677.9012" y1="896.5169" y2="896.5169"/><text fill="#343A40" font-family="'Verdana'" font-size="12.5" lengthAdjust="spacing" textLength="69.1589" x="299.7589" y="886.2773">rpn_tokens</text></g><rect fill="#F8F9FA" height="3.125" rx="4.1667" ry="4.1667" style="stroke:#F8F9FA;stroke-width:1.0417;" width="1590.4063" x="10.4167" y="930.8757"/><line style="stroke:#868E96;stroke-width:1.0417;" x1="10.4167" x2="1600.823" y1="930.8757" y2="930.8757"/><line style="stroke:#868E96;stroke-width:1.0417;" x1="10.4167" x2="1600.823" y1="934.0007" y2="934.0007"/><rect fill="#F8F9FA" height="33.3008" rx="4.1667" ry="4.1667" style="stroke:#868E96;stroke-width:2.0833;" width="118.3716" x="746.434" y="915.2669"/><text fill="#343A40" font-family="'Verdana'" font-size="12.5" font-weight="bold" lengthAdjust="spacing" textLength="89.0198" x="757.8924" y="936.2447">Cache Check</text><g class="message" data-entity-1="part2" data-entity-2="part7" id="msg12"><polygon fill="#2FA4E7" points="1160.0037,986.0352,1170.4203,990.2018,1160.0037,994.3685,1164.1703,990.2018" style="stroke:#2FA4E7;stroke-width:1.0417;"/><line style="stroke:#2FA4E7;stroke-width:3.125;" x1="276.8422" x2="1166.2537" y1="990.2018" y2="990.2018"/><text fill="#343A40" font-family="'Verdana'" font-size="12.5" lengthAdjust="spacing" textLength="126.9897" x="289.3422" y="979.9622">Check cached result</text></g><path d="M25,1005.8268 L96.8201,1005.8268 L96.8201,1022.4609 L86.4034,1032.8776 L20.8333,1032.8776 L20.8333,1009.9935 A4.1667,4.1667 0 0 1 25,1005.8268" fill="#E9ECEF" style="stroke:#868E96;stroke-width:1.0417;"/><rect fill="none" height="115.4948" rx="4.1667" ry="4.1667" style="stroke:#2FA4E7;stroke-width:1.0417;" width="1240.8986" x="20.8333" y="1005.8268"/><text fill="#033C73" font-family="'Verdana'" font-size="12.5" font-weight="bold" lengthAdjust="spacing" textLength="18.6951" x="41.6667" y="1023.6796">alt</text><text fill="#343A40" font-family="'Verdana'" font-size="12.5" font-weight="bold" lengthAdjust="spacing" textLength="77.3315" x="117.6534" y="1024.7213">[Cache hit]</text><g class="message" data-entity-1="part7" data-entity-2="part2" id="msg13"><polygon fill="#2FA4E7" points="288.3006,1069.2708,277.8839,1073.4375,288.3006,1077.6042,284.1339,1073.4375" style="stroke:#2FA4E7;stroke-width:1.0417;"/><line style="stroke:#2FA4E7;stroke-width:3.125;stroke-dasharray:2.0833,2.0833;" x1="282.0506" x2="1171.462" y1="1073.4375" y2="1073.4375"/><text fill="#343A40" font-family="'Verdana'" font-size="12.5" lengthAdjust="spacing" textLength="79.3579" x="299.7589" y="1063.1978">cached_data</text></g><g class="message" data-entity-1="part2" data-entity-2="part1" id="msg14"><polygon fill="#2FA4E7" points="69.1355,1108.8216,58.7189,1112.9883,69.1355,1117.1549,64.9689,1112.9883" style="stroke:#2FA4E7;stroke-width:1.0417;"/><line style="stroke:#2FA4E7;stroke-width:3.125;stroke-dasharray:2.0833,2.0833;" x1="62.8855" x2="265.3839" y1="1112.9883" y2="1112.9883"/><text fill="#343A40" font-family="'Verdana'" font-size="12.5" lengthAdjust="spacing" textLength="152.2095" x="80.5939" y="1102.7486">Return cached response</text></g><g class="message" data-entity-1="part7" data-entity-2="part2" id="msg15"><polygon fill="#2FA4E7" points="288.3006,1155.6641,277.8839,1159.8307,288.3006,1163.9974,284.1339,1159.8307" style="stroke:#2FA4E7;stroke-width:1.0417;"/><line style="stroke:#2FA4E7;stroke-width:3.125;stroke-dasharray:2.0833,2.0833;" x1="282.0506" x2="1176.6703" y1="1159.8307" y2="1159.8307"/><text fill="#343A40" font-family="'Verdana'" font-size="12.5" lengthAdjust="spacing" textLength="27.2827" x="299.7589" y="1149.5911">Miss</text></g><rect fill="#F8F9FA" height="3.125" rx="4.1667" ry="4.1667" style="stroke:#F8F9FA;stroke-width:1.0417;" width="1590.4063" x="10.4167" y="1194.1895"/><line style="stroke:#868E96;stroke-width:1.0417;" x1="10.4167" x2="1600.823" y1="1194.1895" y2="1194.1895"/><line style="stroke:#868E96;stroke-width:1.0417;" x1="10.4167" x2="1600.823" y1="1197.3145" y2="1197.3145"/><rect fill="#F8F9FA" height="33.3008" rx="4.1667" ry="4.1667" style="stroke:#868E96;stroke-width:2.0833;" width="142.5415" x="734.3491" y="1178.5807"/><text fill="#343A40" font-family="'Verdana'" font-size="12.5" font-weight="bold" lengthAdjust="spacing" textLength="113.1897" x="745.8074" y="1199.5585">Database Query</text><g class="message" data-entity-1="part2" data-entity-2="part6" id="msg16"><polygon fill="#2FA4E7" points="1031.5999,1249.349,1042.0166,1253.5156,1031.5999,1257.6823,1035.7666,1253.5156" style="stroke:#2FA4E7;stroke-width:1.0417;"/><line style="stroke:#2FA4E7;stroke-width:3.125;" x1="276.8422" x2="1037.8499" y1="1253.5156" y2="1253.5156"/><text fill="#343A40" font-family="'Verdana'" font-size="12.5" lengthAdjust="spacing" textLength="178.1555" x="289.3422" y="1243.276">query_indicators(rpn, filters)</text></g><g class="message" data-entity-1="part6" data-entity-2="part2" id="msg17"><polygon fill="#2FA4E7" points="288.3006,1288.8997,277.8839,1293.0664,288.3006,1297.2331,284.1339,1293.0664" style="stroke:#2FA4E7;stroke-width:1.0417;"/><line style="stroke:#2FA4E7;stroke-width:3.125;stroke-dasharray:2.0833,2.0833;" x1="282.0506" x2="1048.2666" y1="1293.0664" y2="1293.0664"/><text fill="#343A40" font-family="'Verdana'" font-size="12.5" lengthAdjust="spacing" textLength="71.2891" x="299.7589" y="1282.8267">indicators[]</text></g><rect fill="#F8F9FA" height="3.125" rx="4.1667" ry="4.1667" style="stroke:#F8F9FA;stroke-width:1.0417;" width="1590.4063" x="10.4167" y="1327.4251"/><line style="stroke:#868E96;stroke-width:1.0417;" x1="10.4167" x2="1600.823" y1="1327.4251" y2="1327.4251"/><line style="stroke:#868E96;stroke-width:1.0417;" x1="10.4167" x2="1600.823" y1="1330.5501" y2="1330.5501"/><rect fill="#F8F9FA" height="33.3008" rx="4.1667" ry="4.1667" style="stroke:#868E96;stroke-width:2.0833;" width="154.071" x="728.5843" y="1311.8164"/><text fill="#343A40" font-family="'Verdana'" font-size="12.5" font-weight="bold" lengthAdjust="spacing" textLength="124.7192" x="740.0426" y="1332.7942">Result Size Check</text><path d="M25,1362.8255 L96.8201,1362.8255 L96.8201,1379.4596 L86.4034,1389.8763 L20.8333,1389.8763 L20.8333,1366.9922 A4.1667,4.1667 0 0 1 25,1362.8255" fill="#E9ECEF" style="stroke:#868E96;stroke-width:1.0417;"/><rect fill="none" height="314.2904" rx="4.1667" ry="4.1667" style="stroke:#2FA4E7;stroke-width:1.0417;" width="1240.8986" x="20.8333" y="1362.8255"/><text fill="#033C73" font-family="'Verdana'" font-size="12.5" font-weight="bold" lengthAdjust="spacing" textLength="18.6951" x="41.6667" y="1380.6783">alt</text><text fill="#343A40" font-family="'Verdana'" font-size="12.5" font-weight="bold" lengthAdjust="spacing" textLength="158.0505" x="117.6534" y="1381.72">[Large result (&gt;5000)]</text><g class="message" data-entity-1="part2" data-entity-2="part2" id="msg18"><line style="stroke:#2FA4E7;stroke-width:3.125;" x1="276.8422" x2="320.5922" y1="1430.4362" y2="1430.4362"/><line style="stroke:#2FA4E7;stroke-width:3.125;" x1="320.5922" x2="320.5922" y1="1430.4362" y2="1443.9779"/><line style="stroke:#2FA4E7;stroke-width:3.125;" x1="277.8839" x2="320.5922" y1="1443.9779" y2="1443.9779"/><polygon fill="#2FA4E7" points="288.3006,1439.8112,277.8839,1443.9779,288.3006,1448.1445,284.1339,1443.9779" style="stroke:#2FA4E7;stroke-width:1.0417;"/><text fill="#343A40" font-family="'Verdana'" font-size="12.5" lengthAdjust="spacing" textLength="146.3074" x="289.3422" y="1420.1965">Create async ExportJob</text></g><g class="message" data-entity-1="part2" data-entity-2="part1" id="msg19"><polygon fill="#2FA4E7" points="69.1355,1479.362,58.7189,1483.5286,69.1355,1487.6953,64.9689,1483.5286" style="stroke:#2FA4E7;stroke-width:1.0417;"/><line style="stroke:#2FA4E7;stroke-width:3.125;stroke-dasharray:2.0833,2.0833;" x1="62.8855" x2="265.3839" y1="1483.5286" y2="1483.5286"/><text fill="#343A40" font-family="'Verdana'" font-size="12.5" lengthAdjust="spacing" textLength="141.4124" x="80.5939" y="1473.289">202 Accepted + job_id</text></g><line style="stroke:#2FA4E7;stroke-width:1.0417;stroke-dasharray:2.0833,2.0833;" x1="20.8333" x2="1261.732" y1="1492.9036" y2="1492.9036"/><text fill="#343A40" font-family="'Verdana'" font-size="12.5" font-weight="bold" lengthAdjust="spacing" textLength="96.051" x="31.25" y="1509.7148">[Small result]</text><g class="message" data-entity-1="part2" data-entity-2="part5" id="msg20"><polygon fill="#2FA4E7" points="877.7903,1545.9635,888.207,1550.1302,877.7903,1554.2969,881.957,1550.1302" style="stroke:#2FA4E7;stroke-width:1.0417;"/><line style="stroke:#2FA4E7;stroke-width:3.125;" x1="276.8422" x2="884.0403" y1="1550.1302" y2="1550.1302"/><text fill="#343A40" font-family="'Verdana'" font-size="12.5" lengthAdjust="spacing" textLength="189.5996" x="289.3422" y="1539.8905">format_export(fmt, indicators)</text></g><g class="message" data-entity-1="part5" data-entity-2="part2" id="msg21"><polygon fill="#2FA4E7" points="288.3006,1585.5143,277.8839,1589.681,288.3006,1593.8477,284.1339,1589.681" style="stroke:#2FA4E7;stroke-width:1.0417;"/><line style="stroke:#2FA4E7;stroke-width:3.125;stroke-dasharray:2.0833,2.0833;" x1="282.0506" x2="894.457" y1="1589.681" y2="1589.681"/><text fill="#343A40" font-family="'Verdana'" font-size="12.5" lengthAdjust="spacing" textLength="96.8567" x="299.7589" y="1579.4413">formatted_data</text></g><g class="message" data-entity-1="part2" data-entity-2="part7" id="msg22"><polygon fill="#2FA4E7" points="1165.212,1625.0651,1175.6287,1629.2318,1165.212,1633.3984,1169.3787,1629.2318" style="stroke:#2FA4E7;stroke-width:1.0417;"/><line style="stroke:#2FA4E7;stroke-width:3.125;" x1="276.8422" x2="1171.462" y1="1629.2318" y2="1629.2318"/><text fill="#343A40" font-family="'Verdana'" font-size="12.5" lengthAdjust="spacing" textLength="89.6729" x="289.3422" y="1618.9921">Store in cache</text></g><g class="message" data-entity-1="part2" data-entity-2="part1" id="msg23"><polygon fill="#2FA4E7" points="69.1355,1664.6159,58.7189,1668.7826,69.1355,1672.9492,64.9689,1668.7826" style="stroke:#2FA4E7;stroke-width:1.0417;"/><line style="stroke:#2FA4E7;stroke-width:3.125;stroke-dasharray:2.0833,2.0833;" x1="62.8855" x2="265.3839" y1="1668.7826" y2="1668.7826"/><text fill="#343A40" font-family="'Verdana'" font-size="12.5" lengthAdjust="spacing" textLength="161.145" x="80.5939" y="1658.5429">200 OK + formatted_data</text></g><rect fill="#F8F9FA" height="3.125" rx="4.1667" ry="4.1667" style="stroke:#F8F9FA;stroke-width:1.0417;" width="1590.4063" x="10.4167" y="1710.4329"/><line style="stroke:#868E96;stroke-width:1.0417;" x1="10.4167" x2="1600.823" y1="1710.4329" y2="1710.4329"/><line style="stroke:#868E96;stroke-width:1.0417;" x1="10.4167" x2="1600.823" y1="1713.5579" y2="1713.5579"/><rect fill="#F8F9FA" height="33.3008" rx="4.1667" ry="4.1667" style="stroke:#868E96;stroke-width:2.0833;" width="206.1462" x="702.5467" y="1694.8242"/><text fill="#343A40" font-family="'Verdana'" font-size="12.5" font-weight="bold" lengthAdjust="spacing" textLength="176.7944" x="714.005" y="1715.802">Async Export Completion</text><g class="message" data-entity-1="part2" data-entity-2="part8" id="msg24"><polygon fill="#2FA4E7" points="1328.2837,1765.5924,1338.7004,1769.7591,1328.2837,1773.9258,1332.4504,1769.7591" style="stroke:#2FA4E7;stroke-width:1.0417;"/><line style="stroke:#2FA4E7;stroke-width:3.125;" x1="271.6339" x2="1334.5337" y1="1769.7591" y2="1769.7591"/><text fill="#343A40" font-family="'Verdana'" font-size="12.5" lengthAdjust="spacing" textLength="109.3872" x="284.1339" y="1759.5194">Spawn export job</text></g><g class="message" data-entity-1="part8" data-entity-2="part6" id="msg25"><polygon fill="#2FA4E7" points="1060.7666,1805.1432,1050.3499,1809.3099,1060.7666,1813.4766,1056.5999,1809.3099" style="stroke:#2FA4E7;stroke-width:1.0417;"/><line style="stroke:#2FA4E7;stroke-width:3.125;" x1="1054.5166" x2="1339.742" y1="1809.3099" y2="1809.3099"/><text fill="#343A40" font-family="'Verdana'" font-size="12.5" lengthAdjust="spacing" textLength="123.9197" x="1072.2249" y="1799.0702">Query full result set</text></g><g class="message" data-entity-1="part8" data-entity-2="part5" id="msg26"><polygon fill="#2FA4E7" points="906.957,1844.694,896.5403,1848.8607,906.957,1853.0273,902.7903,1848.8607" style="stroke:#2FA4E7;stroke-width:1.0417;"/><line style="stroke:#2FA4E7;stroke-width:3.125;" x1="900.707" x2="1339.742" y1="1848.8607" y2="1848.8607"/><text fill="#343A40" font-family="'Verdana'" font-size="12.5" lengthAdjust="spacing" textLength="88.8855" x="918.4153" y="1838.621">format_export</text></g><g class="message" data-entity-1="part8" data-entity-2="part9" id="msg27"><polygon fill="#2FA4E7" points="1505.6417,1884.2448,1516.0583,1888.4115,1505.6417,1892.5781,1509.8083,1888.4115" style="stroke:#2FA4E7;stroke-width:1.0417;"/><line style="stroke:#2FA4E7;stroke-width:3.125;" x1="1351.2004" x2="1511.8917" y1="1888.4115" y2="1888.4115"/><text fill="#343A40" font-family="'Verdana'" font-size="12.5" lengthAdjust="spacing" textLength="73.0957" x="1363.7004" y="1878.1718">Write to file</text></g><g class="message" data-entity-1="part8" data-entity-2="part6" id="msg28"><polygon fill="#2FA4E7" points="1060.7666,1923.7956,1050.3499,1927.9622,1060.7666,1932.1289,1056.5999,1927.9622" style="stroke:#2FA4E7;stroke-width:1.0417;"/><line style="stroke:#2FA4E7;stroke-width:3.125;" x1="1054.5166" x2="1339.742" y1="1927.9622" y2="1927.9622"/><text fill="#343A40" font-family="'Verdana'" font-size="12.5" lengthAdjust="spacing" textLength="195.4224" x="1072.2249" y="1917.7226">Update job status = completed</text></g><g class="message" data-entity-1="part8" data-entity-2="part2" id="msg29"><polygon fill="#2FA4E7" points="283.0922,1963.3464,272.6756,1967.513,283.0922,1971.6797,278.9256,1967.513" style="stroke:#2FA4E7;stroke-width:1.0417;"/><line style="stroke:#2FA4E7;stroke-width:3.125;stroke-dasharray:2.0833,2.0833;" x1="276.8422" x2="1344.9504" y1="1967.513" y2="1967.513"/><text fill="#343A40" font-family="'Verdana'" font-size="12.5" lengthAdjust="spacing" textLength="110.8826" x="294.5506" y="1957.2734">Notify completion</text></g><?plantuml-src XPLDKzim48Rl_XLRJc5A8CEqXp8D7GZGeOK2CIs7fkDHx4sYnfOSIQQalxxwi6mvJOQS7ElThsTNwpTgWGL2YgBAaR0-hrHE6KQHeYf7kBuRGOpYcQO8VRXc6Ks9uW8kNqekb3vQLSXIBIUfUJtAAJ8LbKGecjAIC0LxLpcHoxEodB2ZWb1sMAxtW4YmhxlA6DDAKBNMIba_UhK_wXeyL2ZMzqH85DfcPVubfVthxTpXHa9S54GfQpFppxB9ox-9CgB8b4Y4lNikrLnW_71Z9HVdNOTZpAYSi1595sW5zYcAXaCO6q1ImG-IK-sFSWR3OUGmGV_KKO0J-7pv24VKuvL77sU5Elsq6XuU7Xgqz9aeh955paORUoZQ_jdvnqGY4UaYiInwg_tMk24OaLpfJbeBiBe8zAznrW_IkYAvH7jS1zLdTV8dy6umW7EI-HeZr5fNw6jk7qM54R8iod1BVWQRUND32wfWjC1qQQ0rPLkwseixcUTyId8OtyTjhOw_gTCwmfSKCSFC9kIimsmkm-DjTHv_W4VEuPQmjIzMslJ_ztNtDQofdGCxgNOQAPjtgd4Jgatju2PBEYMCREbVFScrF8mfIfOelaGcmzYrtWHtQRu6CZN_CX0egrnjO-da2wfsS7GE4dDjTg4Sewe42qALd4dSmVAMIhcTveM_cGvhMDF5kRPqcw2zJZsDw01cD3SNFM2gBxBMXp5Rcv-_mjXQwQwpWGCn_HlmD6nkY9XZpGvwf-y7Wy5-2A6DC19e71AvPcczHh_mwIvWnuDZE4jJB9NczHP-ysb2CtVJueBakMzNDvHVOTg1Mt09sa0zlLKEWXfTYkr-QLQVTTTu2G7vXHdqES3KzT3DoazRh2EZJi9DmUx21_eowP8t0ffH2HjJxqJTcxE0A8nuKURezsrdMpVC9-o9YoKAkxBTuyQ7WkOuOV5QAYpSjo4Ejg-pC0MLv0y3HzXqg9slsccjzDFfXdPMDTq3YIeGxMnVg8druPFUbmYAcyd6pIZVI_CzCFc0L4HL4eQGEYfwrNbnqDblND7PsciqkH1pNSa_?></g></svg>