<?plantuml 1.2026.2?><svg xmlns="http://www.w3.org/2000/svg" xmlns:xlink="http://www.w3.org/1999/xlink" contentStyleType="text/css" data-diagram-type="DESCRIPTION" height="1788.5417px" preserveAspectRatio="none" style="width:750px;height:1788px;" version="1.1" viewBox="0 0 750 1788" width="750px" zoomAndPan="magnify"><title>IOC Threat Intelligence Service - Use Case Diagram</title><defs/><g><g class="title" data-source-line="3"><rect fill="none" height="47.168" rx="4.1667" ry="4.1667" style="stroke:#BABDBF;stroke-width:1.0417;" width="624.3774" x="58.5336" y="20.8333"/><text fill="#2FA4E7" font-family="'Verdana'" font-size="20.8333" font-weight="bold" lengthAdjust="spacing" textLength="601.4608" x="69.9919" y="51.6296">IOC Threat Intelligence Service - Use Case Diagram</text></g><!--cluster IOC Service--><g class="cluster" data-qualified-name="IOC Service" data-source-line="11" id="ent0005"><rect fill="none" height="1240.625" rx="4.1667" ry="4.1667" style="stroke:#2FA4E7;stroke-width:2.0833;" width="551.8125" x="172.5521" y="412.7096"/><text fill="#2FA4E7" font-family="'Verdana'" font-size="12.5" font-weight="bold" lengthAdjust="spacing" textLength="80.7678" x="408.0744" y="431.6041">IOC Service</text></g><!--cluster Core Functions--><g class="cluster" data-qualified-name="IOC Service.Core Functions" data-source-line="13" id="ent0006"><path d="M207.7083,464.793 L321.7301,464.793 A6.25,6.25 0 0 1 325.8968,468.9596 L333.1885,496.0104 L369.2604,496.0104 A4.1667,4.1667 0 0 1 373.4271,500.1771 L373.4271,763.7513 A4.1667,4.1667 0 0 1 369.2604,767.918 L207.7083,767.918 A4.1667,4.1667 0 0 1 203.5417,763.7513 L203.5417,468.9596 A4.1667,4.1667 0 0 1 207.7083,464.793" fill="none" style="stroke:#2FA4E7;stroke-width:2.0833;"/><line style="stroke:#2FA4E7;stroke-width:2.0833;" x1="203.5417" x2="333.1885" y1="496.0104" y2="496.0104"/><text fill="#2FA4E7" font-family="'Verdana'" font-size="12.5" font-weight="bold" lengthAdjust="spacing" textLength="105.6885" x="212.9167" y="483.6874">Core Functions</text></g><!--cluster Feed Management--><g class="cluster" data-qualified-name="IOC Service.Feed Management" data-source-line="20" id="ent0011"><path d="M201.7188,792.918 L340.8565,792.918 A6.25,6.25 0 0 1 345.0232,797.0846 L352.3149,824.1354 L694.1563,824.1354 A4.1667,4.1667 0 0 1 698.3229,828.3021 L698.3229,1298.1263 A4.1667,4.1667 0 0 1 694.1563,1302.293 L201.7188,1302.293 A4.1667,4.1667 0 0 1 197.5521,1298.1263 L197.5521,797.0846 A4.1667,4.1667 0 0 1 201.7188,792.918" fill="none" style="stroke:#2FA4E7;stroke-width:2.0833;"/><line style="stroke:#2FA4E7;stroke-width:2.0833;" x1="197.5521" x2="352.3149" y1="824.1354" y2="824.1354"/><text fill="#2FA4E7" font-family="'Verdana'" font-size="12.5" font-weight="bold" lengthAdjust="spacing" textLength="130.8044" x="206.9271" y="811.8124">Feed Management</text></g><!--cluster Integration--><g class="cluster" data-qualified-name="IOC Service.Integration" data-source-line="31" id="ent0020"><path d="M541.2917,1327.293 L628.9219,1327.293 A6.25,6.25 0 0 1 633.0885,1331.4596 L640.3802,1358.5104 L695.1979,1358.5104 A4.1667,4.1667 0 0 1 699.3646,1362.6771 L699.3646,1624.168 A4.1667,4.1667 0 0 1 695.1979,1628.3346 L541.2917,1628.3346 A4.1667,4.1667 0 0 1 537.125,1624.168 L537.125,1331.4596 A4.1667,4.1667 0 0 1 541.2917,1327.293" fill="none" style="stroke:#2FA4E7;stroke-width:2.0833;"/><line style="stroke:#2FA4E7;stroke-width:2.0833;" x1="537.125" x2="640.3802" y1="1358.5104" y2="1358.5104"/><text fill="#2FA4E7" font-family="'Verdana'" font-size="12.5" font-weight="bold" lengthAdjust="spacing" textLength="79.2969" x="546.5" y="1346.1874">Integration</text></g><!--entity UC1--><g class="entity" data-qualified-name="IOC Service.Core Functions.UC1" data-source-line="14" id="ent0007"><ellipse cx="288.4924" cy="734.5827" fill="none" rx="67.7528" ry="16.6439" style="stroke:#2FA4E7;stroke-width:2.0833;"/><text fill="#2FA4E7" font-family="'Verdana'" font-size="12.5" lengthAdjust="spacing" textLength="108.9417" x="234.0215" y="738.2122">Search Indicators</text></g><!--entity UC2--><g class="entity" data-qualified-name="IOC Service.Core Functions.UC2" data-source-line="15" id="ent0008"><ellipse cx="288.4931" cy="525.21" fill="none" rx="47.3577" ry="16.2608" style="stroke:#2FA4E7;stroke-width:2.0833;"/><text fill="#2FA4E7" font-family="'Verdana'" font-size="12.5" lengthAdjust="spacing" textLength="73.6572" x="251.6645" y="528.8396">Export IOCs</text></g><!--entity UC3--><g class="entity" data-qualified-name="IOC Service.Core Functions.UC3" data-source-line="16" id="ent0009"><ellipse cx="288.4939" cy="595.0062" fill="none" rx="68.2751" ry="16.6508" style="stroke:#2FA4E7;stroke-width:2.0833;"/><text fill="#2FA4E7" font-family="'Verdana'" font-size="12.5" lengthAdjust="spacing" textLength="109.845" x="233.5714" y="598.6358">View Correlations</text></g><!--entity UC4--><g class="entity" data-qualified-name="IOC Service.Core Functions.UC4" data-source-line="17" id="ent0010"><ellipse cx="288.4897" cy="664.7964" fill="none" rx="63.7084" ry="16.5868" style="stroke:#2FA4E7;stroke-width:2.0833;"/><text fill="#2FA4E7" font-family="'Verdana'" font-size="12.5" lengthAdjust="spacing" textLength="101.947" x="237.5162" y="668.426">View Dashboard</text></g><!--entity UC5--><g class="entity" data-qualified-name="IOC Service.Feed Management.UC5" data-source-line="21" id="ent0012"><ellipse cx="288.4853" cy="1131.4622" fill="none" rx="63.652" ry="16.5859" style="stroke:#2FA4E7;stroke-width:2.0833;"/><text fill="#2FA4E7" font-family="'Verdana'" font-size="12.5" lengthAdjust="spacing" textLength="101.8494" x="237.5606" y="1135.0918">Configure Feeds</text></g><!--entity UC6--><g class="entity" data-qualified-name="IOC Service.Feed Management.UC6" data-source-line="22" id="ent0013"><ellipse cx="288.4924" cy="1201.2565" fill="none" rx="50.4715" ry="16.3385" style="stroke:#2FA4E7;stroke-width:2.0833;"/><text fill="#2FA4E7" font-family="'Verdana'" font-size="12.5" lengthAdjust="spacing" textLength="79.0466" x="248.969" y="1204.886">Trigger Sync</text></g><!--entity UC7--><g class="entity" data-qualified-name="IOC Service.Feed Management.UC7" data-source-line="23" id="ent0014"><ellipse cx="288.4876" cy="1270.0022" fill="none" rx="41.1855" ry="16.0739" style="stroke:#2FA4E7;stroke-width:2.0833;"/><text fill="#2FA4E7" font-family="'Verdana'" font-size="12.5" lengthAdjust="spacing" textLength="62.97" x="257.0026" y="1273.6318">View Logs</text></g><!--entity UC8--><g class="entity" data-qualified-name="IOC Service.Feed Management.UC8" data-source-line="24" id="ent0015"><ellipse cx="618.2384" cy="992.917" fill="none" rx="63.4155" ry="16.5824" style="stroke:#2FA4E7;stroke-width:2.0833;"/><text fill="#2FA4E7" font-family="'Verdana'" font-size="12.5" lengthAdjust="spacing" textLength="101.4404" x="567.5182" y="996.5465">Test Connection</text></g><!--entity UC9--><g class="entity" data-qualified-name="IOC Service.Feed Management.UC9" data-source-line="25" id="ent0016"><ellipse cx="288.4917" cy="924.1663" fill="none" rx="38.8355" ry="15.9879" style="stroke:#2FA4E7;stroke-width:2.0833;"/><text fill="#2FA4E7" font-family="'Verdana'" font-size="12.5" lengthAdjust="spacing" textLength="58.8989" x="259.0423" y="927.7958">Add Feed</text></g><!--entity UC10--><g class="entity" data-qualified-name="IOC Service.Feed Management.UC10" data-source-line="26" id="ent0017"><ellipse cx="288.4934" cy="992.9219" fill="none" rx="38.7122" ry="15.9831" style="stroke:#2FA4E7;stroke-width:2.0833;"/><text fill="#2FA4E7" font-family="'Verdana'" font-size="12.5" lengthAdjust="spacing" textLength="58.6853" x="259.1508" y="996.5515">Edit Feed</text></g><!--entity UC11--><g class="entity" data-qualified-name="IOC Service.Feed Management.UC11" data-source-line="27" id="ent0018"><ellipse cx="288.4911" cy="1061.6658" fill="none" rx="51.512" ry="16.3624" style="stroke:#2FA4E7;stroke-width:2.0833;"/><text fill="#2FA4E7" font-family="'Verdana'" font-size="12.5" lengthAdjust="spacing" textLength="80.8472" x="248.0675" y="1065.2954">Disable Feed</text></g><!--entity UC12--><g class="entity" data-qualified-name="IOC Service.Feed Management.UC12" data-source-line="28" id="ent0019"><ellipse cx="288.494" cy="854.3751" fill="none" rx="74.2648" ry="17.353" style="stroke:#2FA4E7;stroke-width:2.0833;"/><text fill="#2FA4E7" font-family="'Verdana'" font-size="12.5" lengthAdjust="spacing" textLength="122.2717" x="227.3581" y="858.0047">Configure Schedule</text></g><!--entity UC13--><g class="entity" data-qualified-name="IOC Service.Integration.UC13" data-source-line="32" id="ent0021"><ellipse cx="618.2395" cy="1594.9977" fill="none" rx="53.8541" ry="16.4131" style="stroke:#2FA4E7;stroke-width:2.0833;"/><text fill="#2FA4E7" font-family="'Verdana'" font-size="12.5" lengthAdjust="spacing" textLength="84.8999" x="575.7895" y="1598.6273">Ingest via API</text></g><!--entity UC14--><g class="entity" data-qualified-name="IOC Service.Integration.UC14" data-source-line="33" id="ent0022"><ellipse cx="618.2378" cy="1457.5003" fill="none" rx="60.769" ry="16.5407" style="stroke:#2FA4E7;stroke-width:2.0833;"/><text fill="#2FA4E7" font-family="'Verdana'" font-size="12.5" lengthAdjust="spacing" textLength="96.8628" x="569.8064" y="1461.1298">Monitor Metrics</text></g><!--entity UC15--><g class="entity" data-qualified-name="IOC Service.Integration.UC15" data-source-line="34" id="ent0023"><ellipse cx="618.2381" cy="1526.2541" fill="none" rx="42.1652" ry="16.107" style="stroke:#2FA4E7;stroke-width:2.0833;"/><text fill="#2FA4E7" font-family="'Verdana'" font-size="12.5" lengthAdjust="spacing" textLength="64.6667" x="585.9047" y="1529.8837">API Export</text></g><!--entity UC16--><g class="entity" data-qualified-name="IOC Service.Integration.UC16" data-source-line="35" id="ent0024"><ellipse cx="618.2412" cy="1387.7136" fill="none" rx="64.4495" ry="16.5977" style="stroke:#2FA4E7;stroke-width:2.0833;"/><text fill="#2FA4E7" font-family="'Verdana'" font-size="12.5" lengthAdjust="spacing" textLength="103.2288" x="566.6268" y="1391.3432">Auto-sync Feeds</text></g><!--entity Analyst--><g class="entity" data-qualified-name="Analyst" data-source-line="7" id="ent0002"><ellipse cx="67.5273" cy="595.543" fill="none" rx="8.3333" ry="8.3333" style="stroke:#2FA4E7;stroke-width:1.0417;"/><path d="M67.5273,603.8763 L67.5273,632.0013 M53.9856,612.2096 L81.0689,612.2096 M67.5273,632.0013 L53.9856,647.6263 M67.5273,632.0013 L81.0689,647.6263" fill="none" style="stroke:#2FA4E7;stroke-width:1.0417;"/><text fill="#2FA4E7" font-family="'Verdana'" font-size="12.5" lengthAdjust="spacing" textLength="101.7212" x="16.6667" y="666.5208">Security Analyst</text></g><!--entity Admin--><g class="entity" data-qualified-name="Admin" data-source-line="8" id="ent0003"><ellipse cx="67.528" cy="1096.5846" fill="none" rx="8.3333" ry="8.3333" style="stroke:#2FA4E7;stroke-width:1.0417;"/><path d="M67.528,1104.918 L67.528,1133.043 M53.9863,1113.2513 L81.0696,1113.2513 M67.528,1133.043 L53.9863,1148.668 M67.528,1133.043 L81.0696,1148.668" fill="none" style="stroke:#2FA4E7;stroke-width:1.0417;"/><text fill="#2FA4E7" font-family="'Verdana'" font-size="12.5" lengthAdjust="spacing" textLength="85.4309" x="24.8125" y="1167.5624">Administrator</text></g><!--entity External--><g class="entity" data-qualified-name="External" data-source-line="9" id="ent0004"><ellipse cx="288.4899" cy="1703.8542" fill="none" rx="8.3333" ry="8.3333" style="stroke:#2FA4E7;stroke-width:1.0417;"/><path d="M288.4899,1712.1875 L288.4899,1740.3125 M274.9482,1720.5208 L302.0315,1720.5208 M288.4899,1740.3125 L274.9482,1755.9375 M288.4899,1740.3125 L302.0315,1755.9375" fill="none" style="stroke:#2FA4E7;stroke-width:1.0417;"/><text fill="#2FA4E7" font-family="'Verdana'" font-size="12.5" lengthAdjust="spacing" textLength="102.6672" x="237.1563" y="1774.8319">External System</text><text fill="#2FA4E7" font-family="'Verdana'" font-size="12.5" font-style="italic" lengthAdjust="spacing" textLength="83.9233" x="246.5282" y="1686.3228">&#171;automated&#187;</text></g><g class="entity" data-qualified-name="GMN43" data-source-line="67" id="ent0044"><path d="M498.1667,89.8763 L498.1667,175.1302 A4.1667,4.1667 0 0 0 502.3333,179.2969 L734.153,179.2969 A4.1667,4.1667 0 0 0 738.3197,175.1302 L738.3197,96.1263 L727.903,85.7096 L502.3333,85.7096 A4.1667,4.1667 0 0 0 498.1667,89.8763" fill="none" style="stroke:#033C73;stroke-width:1.0417;"/><path d="M727.903,85.7096 L727.903,94.043 A2.0833,2.0833 0 0 0 729.9863,96.1263 L738.3197,96.1263 L727.903,85.7096" fill="none" style="stroke:#033C73;stroke-width:1.0417;"/><text fill="#033C73" font-family="'Verdana'" font-size="12.5" lengthAdjust="spacing" textLength="117.2119" x="509.625" y="107.7291">17 export formats:</text><text fill="#033C73" font-family="'Verdana'" font-size="12.5" lengthAdjust="spacing" textLength="138.4949" x="509.625" y="122.2799">- TXT, CSV, JSON, XML</text><text fill="#033C73" font-family="'Verdana'" font-size="12.5" lengthAdjust="spacing" textLength="207.8613" x="509.625" y="136.8306">- FortiGate, Palo Alto, Checkpoint</text><text fill="#033C73" font-family="'Verdana'" font-size="12.5" lengthAdjust="spacing" textLength="170.5383" x="509.625" y="151.3814">- Sentinel, ArcSight, Splunk</text><text fill="#033C73" font-family="'Verdana'" font-size="12.5" lengthAdjust="spacing" textLength="175.4578" x="509.625" y="165.9322">- Elasticsearch, Fidelis, Cribl</text></g><g class="entity" data-qualified-name="GMN46" data-source-line="75" id="ent0047"><path d="M525.0833,220.0638 L525.0833,290.7669 A4.1667,4.1667 0 0 0 529.25,294.9336 L707.2367,294.9336 A4.1667,4.1667 0 0 0 711.4033,290.7669 L711.4033,226.3138 L700.9867,215.8971 L529.25,215.8971 A4.1667,4.1667 0 0 0 525.0833,220.0638" fill="none" style="stroke:#033C73;stroke-width:1.0417;"/><path d="M700.9867,215.8971 L700.9867,224.2305 A2.0833,2.0833 0 0 0 703.07,226.3138 L711.4033,226.3138 L700.9867,215.8971" fill="none" style="stroke:#033C73;stroke-width:1.0417;"/><text fill="#033C73" font-family="'Verdana'" font-size="12.5" lengthAdjust="spacing" textLength="119.2139" x="536.5417" y="237.9166">Kibana-like search:</text><text fill="#033C73" font-family="'Verdana'" font-size="12.5" lengthAdjust="spacing" textLength="122.3633" x="536.5417" y="252.4674">- Field:value syntax</text><text fill="#033C73" font-family="'Verdana'" font-size="12.5" lengthAdjust="spacing" textLength="154.0283" x="536.5417" y="267.0181">- AND/OR/NOT operators</text><text fill="#033C73" font-family="'Verdana'" font-size="12.5" lengthAdjust="spacing" textLength="115.2954" x="536.5417" y="281.5689">- Wildcard support</text></g><g class="entity" data-qualified-name="GMN49" data-source-line="82" id="ent0050"><path d="M525.4167,335.6784 L525.4167,391.8307 A4.1667,4.1667 0 0 0 529.5833,395.9974 L706.9108,395.9974 A4.1667,4.1667 0 0 0 711.0775,391.8307 L711.0775,341.9284 L700.6608,331.5117 L529.5833,331.5117 A4.1667,4.1667 0 0 0 525.4167,335.6784" fill="none" style="stroke:#033C73;stroke-width:1.0417;"/><path d="M700.6608,331.5117 L700.6608,339.8451 A2.0833,2.0833 0 0 0 702.7441,341.9284 L711.0775,341.9284 L700.6608,331.5117" fill="none" style="stroke:#033C73;stroke-width:1.0417;"/><text fill="#033C73" font-family="'Verdana'" font-size="12.5" lengthAdjust="spacing" textLength="153.3691" x="536.875" y="353.5312">Background worker runs</text><text fill="#033C73" font-family="'Verdana'" font-size="12.5" lengthAdjust="spacing" textLength="126.1719" x="536.875" y="368.0819">scheduled sync jobs</text><text fill="#033C73" font-family="'Verdana'" font-size="12.5" lengthAdjust="spacing" textLength="112.1338" x="536.875" y="382.6327">with idempotency</text></g><!--link Analyst to UC1--><g class="link" data-entity-1="ent0002" data-entity-2="ent0007" data-link-type="dependency" data-source-line="40" id="lnk25"><path d="M123.7083,674.8867 C136.5,683.8034 150.4167,692.4805 164.2188,699.168 C186.5521,710.0013 206.7435,716.5809 229.2748,722.2893" fill="none" id="Analyst-to-UC1" style="stroke:#2FA4E7;stroke-width:3.125;"/><polygon fill="#2FA4E7" points="235.3333,723.8242,227.2688,717.4827,230.2845,722.5451,225.2222,725.5608,235.3333,723.8242" style="stroke:#2FA4E7;stroke-width:3.125;"/></g><!--link Analyst to UC2--><g class="link" data-entity-1="ent0002" data-entity-2="ent0008" data-link-type="dependency" data-source-line="41" id="lnk26"><path d="M122.6146,585.9805 C135.6875,576.668 150,567.5846 164.2188,560.6263 C190.3125,547.8555 215.7344,540.3189 240.3594,534.6106" fill="none" id="Analyst-to-UC2" style="stroke:#2FA4E7;stroke-width:3.125;"/><polygon fill="#2FA4E7" points="246.4479,533.1992,236.3742,531.2573,241.3741,534.3754,238.256,539.3753,246.4479,533.1992" style="stroke:#2FA4E7;stroke-width:3.125;"/></g><!--link Analyst to UC3--><g class="link" data-entity-1="ent0002" data-entity-2="ent0009" data-link-type="dependency" data-source-line="42" id="lnk27"><path d="M124.0833,621.4388 C156.6354,616.168 191.4971,610.5318 224.2991,605.2193" fill="none" id="Analyst-to-UC3" style="stroke:#2FA4E7;stroke-width:3.125;"/><polygon fill="#2FA4E7" points="230.4688,604.2201,220.5482,601.6058,225.3274,605.0527,221.8805,609.8319,230.4688,604.2201" style="stroke:#2FA4E7;stroke-width:3.125;"/></g><!--link Analyst to UC4--><g class="link" data-entity-1="ent0002" data-entity-2="ent0010" data-link-type="dependency" data-source-line="43" id="lnk28"><path d="M124.0833,639.1367 C157.5208,644.3867 193.732,650.073 226.9507,655.2917" fill="none" id="Analyst-to-UC4" style="stroke:#2FA4E7;stroke-width:3.125;"/><polygon fill="#2FA4E7" points="233.125,656.2617,224.5103,650.6905,227.9798,655.4534,223.2169,658.9229,233.125,656.2617" style="stroke:#2FA4E7;stroke-width:3.125;"/></g><!--link Admin to UC5--><g class="link" data-entity-1="ent0003" data-entity-2="ent0012" data-link-type="dependency" data-source-line="46" id="lnk29"><path d="M115.7917,1131.4596 C147.5833,1131.4596 183.625,1131.4596 218.2708,1131.4596" fill="none" id="Admin-to-UC5" style="stroke:#2FA4E7;stroke-width:3.125;"/><polygon fill="#2FA4E7" points="224.5208,1131.4596,215.1458,1127.293,219.3125,1131.4596,215.1458,1135.6263,224.5208,1131.4596" style="stroke:#2FA4E7;stroke-width:3.125;"/></g><!--link Admin to UC6--><g class="link" data-entity-1="ent0003" data-entity-2="ent0013" data-link-type="dependency" data-source-line="47" id="lnk30"><path d="M115.5521,1149.0326 C130.9792,1154.6159 148.2708,1160.6784 164.2188,1165.8346 C192.2917,1174.8971 218.288,1182.4103 242.6526,1189.1395" fill="none" id="Admin-to-UC6" style="stroke:#2FA4E7;stroke-width:3.125;"/><polygon fill="#2FA4E7" points="248.6771,1190.8034,240.7497,1184.2913,243.6567,1189.4168,238.5312,1192.3239,248.6771,1190.8034" style="stroke:#2FA4E7;stroke-width:3.125;"/></g><!--link Admin to UC7--><g class="link" data-entity-1="ent0003" data-entity-2="ent0014" data-link-type="dependency" data-source-line="48" id="lnk31"><path d="M100.2396,1176.168 C117.0833,1196.9701 139.4167,1220.418 164.2188,1235.6263 C190.0625,1251.4701 217.2387,1259.0679 242.7074,1263.7554" fill="none" id="Admin-to-UC7" style="stroke:#2FA4E7;stroke-width:3.125;"/><polygon fill="#2FA4E7" points="248.8542,1264.8867,240.3882,1259.0919,243.7319,1263.944,238.8798,1267.2876,248.8542,1264.8867" style="stroke:#2FA4E7;stroke-width:3.125;"/></g><!--link Admin to UC8--><g class="link" data-entity-1="ent0003" data-entity-2="ent0015" data-link-type="dependency" data-source-line="49" id="lnk32"><path d="M79.3646,1175.9805 C92.0313,1217.4284 117.5313,1276.8451 164.2188,1304.3763 C280.2396,1372.7826 358.5521,1369.7826 466.9167,1289.793 C565.4479,1217.0638 602.6277,1067.3277 612.9194,1015.9006" fill="none" id="Admin-to-UC8" style="stroke:#2FA4E7;stroke-width:3.125;"/><polygon fill="#2FA4E7" points="614.1458,1009.7721,608.2205,1018.1472,613.1238,1014.8792,616.3918,1019.7825,614.1458,1009.7721" style="stroke:#2FA4E7;stroke-width:3.125;"/></g><!--link Admin to UC9--><g class="link" data-entity-1="ent0003" data-entity-2="ent0016" data-link-type="dependency" data-source-line="50" id="lnk33"><path d="M82.1458,1086.9701 C96.4063,1047.5846 122.6354,991.4076 164.2188,958.543 C188.7083,939.1992 217.2377,931.5989 243.5919,927.901" fill="none" id="Admin-to-UC9" style="stroke:#2FA4E7;stroke-width:3.125;"/><polygon fill="#2FA4E7" points="249.7813,927.0326,239.9182,924.209,244.6234,927.7563,241.0762,932.4615,249.7813,927.0326" style="stroke:#2FA4E7;stroke-width:3.125;"/></g><!--link Admin to UC10--><g class="link" data-entity-1="ent0003" data-entity-2="ent0017" data-link-type="dependency" data-source-line="51" id="lnk34"><path d="M100.2396,1086.7513 C117.0833,1065.9492 139.4167,1042.5013 164.2188,1027.293 C190.8229,1010.9805 219.1906,1003.3162 244.9198,998.7328" fill="none" id="Admin-to-UC10" style="stroke:#2FA4E7;stroke-width:3.125;"/><polygon fill="#2FA4E7" points="251.0729,997.6367,241.1125,995.1788,245.9453,998.5501,242.574,1003.383,251.0729,997.6367" style="stroke:#2FA4E7;stroke-width:3.125;"/></g><!--link Admin to UC11--><g class="link" data-entity-1="ent0003" data-entity-2="ent0018" data-link-type="dependency" data-source-line="52" id="lnk35"><path d="M115.5521,1113.8867 C130.9792,1108.3034 148.2708,1102.2409 164.2188,1097.0846 C192.0729,1088.0846 217.7989,1080.6563 242.101,1073.9376" fill="none" id="Admin-to-UC11" style="stroke:#2FA4E7;stroke-width:3.125;"/><polygon fill="#2FA4E7" points="248.125,1072.2721,237.9787,1070.7543,243.105,1073.66,240.1993,1078.7863,248.125,1072.2721" style="stroke:#2FA4E7;stroke-width:3.125;"/></g><!--link External to UC13--><g class="link" data-entity-1="ent0004" data-entity-2="ent0021" data-link-type="dependency" data-source-line="55" id="lnk36"><path d="M345.4896,1703.8346 C414.2083,1676.3138 522.7294,1632.8461 578.6148,1610.4607" fill="none" id="External-to-UC13" style="stroke:#2FA4E7;stroke-width:3.125;"/><polygon fill="#2FA4E7" points="584.4167,1608.1367,574.1646,1607.7548,579.5818,1610.0734,577.2632,1615.4906,584.4167,1608.1367" style="stroke:#2FA4E7;stroke-width:3.125;"/></g><!--link External to UC14--><g class="link" data-entity-1="ent0004" data-entity-2="ent0022" data-link-type="dependency" data-source-line="56" id="lnk37"><path d="M322.9375,1669.1055 C358.7083,1613.6784 420.8958,1532.1992 498.1667,1491.8763 C519.8125,1480.5846 539.5989,1474.0413 561.6614,1468.5934" fill="none" id="External-to-UC14" style="stroke:#2FA4E7;stroke-width:3.125;"/><polygon fill="#2FA4E7" points="567.7292,1467.0951,557.6287,1465.2974,562.6727,1468.3436,559.6264,1473.3877,567.7292,1467.0951" style="stroke:#2FA4E7;stroke-width:3.125;"/></g><!--link External to UC15--><g class="link" data-entity-1="ent0004" data-entity-2="ent0023" data-link-type="dependency" data-source-line="57" id="lnk38"><path d="M345.4688,1671.7201 C385.2083,1635.6576 441.4063,1589.8138 498.1667,1560.6263 C523.8958,1547.3971 549.3482,1539.9471 573.5045,1534.5513" fill="none" id="External-to-UC15" style="stroke:#2FA4E7;stroke-width:3.125;"/><polygon fill="#2FA4E7" points="579.6042,1533.1888,569.5463,1531.1661,574.5211,1534.3242,571.363,1539.299,579.6042,1533.1888" style="stroke:#2FA4E7;stroke-width:3.125;"/></g><!--link External to UC16--><g class="link" data-entity-1="ent0004" data-entity-2="ent0024" data-link-type="dependency" data-source-line="58" id="lnk39"><path d="M310.8021,1669.3034 C328.9583,1624.9492 357.8646,1563.1576 394,1515.8346 C431.6146,1466.5846 444.0208,1453.2826 498.1667,1423.1263 C519.0729,1411.4805 538.1726,1404.8152 559.9643,1399.2631" fill="none" id="External-to-UC16" style="stroke:#2FA4E7;stroke-width:3.125;"/><polygon fill="#2FA4E7" points="566.0208,1397.7201,555.9073,1395.997,560.9737,1399.006,557.9648,1404.0724,566.0208,1397.7201" style="stroke:#2FA4E7;stroke-width:3.125;"/></g><!--link UC9 to UC8--><g class="link" data-entity-1="ent0016" data-entity-2="ent0015" data-link-type="dependency" data-source-line="61" id="lnk40"><path d="M323.6667,931.3346 C381.8542,943.543 494.3519,967.145 561.6228,981.2596" fill="none" id="UC9-to-UC8" style="stroke:#2FA4E7;stroke-width:3.125;stroke-dasharray:7.2917,7.2917;"/><polygon fill="#2FA4E7" points="567.7396,982.543,559.42,976.54,562.6422,981.4735,557.7088,984.6957,567.7396,982.543" style="stroke:#2FA4E7;stroke-width:3.125;"/><text fill="#343A40" font-family="'Verdana'" font-size="12.5" lengthAdjust="spacing" textLength="60.5835" x="400.25" y="938.2187">&#171;include&#187;</text></g><!--link UC10 to UC8--><g class="link" data-entity-1="ent0017" data-entity-2="ent0015" data-link-type="dependency" data-source-line="62" id="lnk41"><path d="M327.2396,994.3242 C347.1042,994.9909 371.8646,995.7096 394,996.043 C448.4479,996.8555 504.106,995.9858 548.8977,994.9024" fill="none" id="UC10-to-UC8" style="stroke:#2FA4E7;stroke-width:3.125;stroke-dasharray:7.2917,7.2917;"/><polygon fill="#2FA4E7" points="555.1458,994.7513,545.6728,990.8125,549.939,994.8772,545.8743,999.1434,555.1458,994.7513" style="stroke:#2FA4E7;stroke-width:3.125;"/><text fill="#343A40" font-family="'Verdana'" font-size="12.5" lengthAdjust="spacing" textLength="58.8318" x="401.2917" y="987.8541">&#171;extend&#187;</text></g><!--link UC6 to UC16--><g class="link" data-entity-1="ent0013" data-entity-2="ent0024" data-link-type="dependency" data-source-line="63" id="lnk42"><path d="M325.7708,1212.7201 C343.0938,1218.7096 363.8958,1226.6576 381.7604,1235.6263 C465.2604,1277.5326 550.923,1338.4098 591.048,1368.0869" fill="none" id="UC6-to-UC16" style="stroke:#2FA4E7;stroke-width:3.125;stroke-dasharray:7.2917,7.2917;"/><polygon fill="#2FA4E7" points="596.0729,1371.8034,591.0132,1362.8786,591.8855,1368.7063,586.0578,1369.5786,596.0729,1371.8034" style="stroke:#2FA4E7;stroke-width:3.125;"/><text fill="#343A40" font-family="'Verdana'" font-size="12.5" lengthAdjust="spacing" textLength="60.5835" x="400.25" y="1234.3333">&#171;include&#187;</text></g><!--link UC2 to GMN43--><g class="link" data-entity-1="ent0008" data-entity-2="ent0044" data-link-type="association" data-source-line="67" id="lnk45"><path d="M290.7813,508.7201 C295.3438,459.6159 315.2604,312.5534 394,228.3346 C421.8646,198.5326 460.5521,177.5638 497.8958,163.0221" fill="none" id="UC2-GMN43" style="stroke:#2FA4E7;stroke-width:3.125;stroke-dasharray:7.2917,7.2917;"/></g><!--link UC1 to GMN46--><g class="link" data-entity-1="ent0007" data-entity-2="ent0047" data-link-type="association" data-source-line="75" id="lnk48"><path d="M341.3646,723.8346 C356.0833,718.5534 371.0208,710.7305 381.7604,699.168 C503.5729,568.0846 382.3125,450.1263 498.1667,313.7513 C505.6875,304.8971 514.875,297.2617 524.7813,290.7201" fill="none" id="UC1-GMN46" style="stroke:#2FA4E7;stroke-width:3.125;stroke-dasharray:7.2917,7.2917;"/></g><!--link UC16 to GMN49--><g class="link" data-entity-1="ent0024" data-entity-2="ent0050" data-link-type="association" data-source-line="82" id="lnk51"><path d="M573.0833,1375.5951 C530.25,1361.4388 468.3542,1333.4076 439.9688,1284.0638 C341.1458,1112.3138 404.5417,1033.1888 439.9688,838.2305 C471.5,664.6367 563,471.918 601.1875,396.5117" fill="none" id="UC16-GMN49" style="stroke:#2FA4E7;stroke-width:3.125;stroke-dasharray:7.2917,7.2917;"/></g><?plantuml-src VLLBSzem4BxxLsovz099oOCy9fCP2g536o1JaxHN8I-sYf0OIKx2TFBVkv9jMcDI7mox-sbVsltymMMuHk1eSebCTNJkf50OHKuuYJ2U3M2U6MGEnigXb295nH5YDC-2VZlmQ146Z5v3mLB3rb4aSUd0QJ0YpHmamY1tGgieOjnf0wqOUMw4sq9VCRcrhWNCLlyhJ3zP2oMiCup40k0rbVdkrQ6X4n3J6Lm7m4vtSyDofzVCON9x6qK-F5Cf5TForPIPj-1t1FI4ruRn5Ki9CD06OPIhaB2jCFx9BN9V9MNF3C-e6udWFZaRWZyEkatetUj66-TxM85Ecg0dWIz0SGrALaODqDDte4DciuLc9YbnPm7tTg2O4M824wP8MADo1wiPQBKKQUwh9dGL-xm9dDDjfcYeuOgNgDux6Txhj79qSS0HMaVrAbLCHGcyR0BxIHAIAX5N1_gR2FSlfFkfYHaAonOIQx3k__eGymmJseKAVF9kV_r2qCGNLHpexLYbljPdmQ3_CAxy7RZNYLR2Z_K4dH5yDr1d1thoC8PYgYhGWQlgq_HtBDrJxKwxlRAGjoZwMAqRxAOk4niRLTfEvpPCT5q-sPDFz-IpuDYlQTqjzQtG5h3pcjIhIHSrwR8cNTKakkkQsFN1zsXXhxgTjJnosj2SDJJd3KtF1nehBlC4zm9GZd1q53A7Qw8XKQ28X7o-DHEILvK4IwyqT7jxXoZEL3kC5BrACjNBaaIw5u05koor8QgprwJimFpdl0s3-AaDN-FPj0q_9_T1FoAa-4ACs8O79ZNqfTC4p92lDbee5q0naGHHlsn3t_3Onsj3l96vMWNpdMJMqNW6_cl3I2GeXIKlHYnaHDM0JpHgfEktxPjO40zrf5WX50wAV4S2PNBzp6HE-grox3Me-zFXyUpxyNGs1xt1y0smmV13o8GJzu7DDxxw_R0BxOZvoxX-u3_JigP6vmHxqMP516PovNtPSiqJ29loIo-yzaMu3AYmzOQyARxzw_yF?></g></svg>