<?xml version="1.0" encoding="us-ascii" standalone="no"?><svg xmlns="http://www.w3.org/2000/svg" xmlns:xlink="http://www.w3.org/1999/xlink" contentStyleType="text/css" height="2206.25px" preserveAspectRatio="none" style="width:1542px;height:2206px;" version="1.1" viewBox="0 0 1542 2206" width="1542.7083px" zoomAndPan="magnify"><defs/><g><rect fill="none" height="51.2916" id="_title" rx="4.1667" ry="4.1667" style="stroke:#BABDBF;stroke-width:1.0416666666666667;" width="432.2917" x="553.6458" y="20.8333"/><text fill="#2FA4E7" font-family="Verdana" font-size="20.8333" font-weight="bold" lengthAdjust="spacing" textLength="409.375" x="565.1042" y="54.5625">IOC Service - Indicator Export Sequence</text><rect fill="none" height="1512.2211" style="stroke:#BABDBF;stroke-width:1.0416666666666667;" width="10.4167" x="242.7083" y="275.2837"/><rect fill="none" height="219.859" style="stroke:#BABDBF;stroke-width:1.0416666666666667;" width="10.4167" x="428.125" y="317.3088"/><rect fill="none" height="42.0251" style="stroke:#BABDBF;stroke-width:1.0416666666666667;" width="10.4167" x="629.1667" y="908.1022"/><rect fill="none" height="42.0251" style="stroke:#BABDBF;stroke-width:1.0416666666666667;" width="10.4167" x="838.5417" y="1645.8044"/><rect fill="none" height="42.0251" style="stroke:#BABDBF;stroke-width:1.0416666666666667;" width="10.4167" x="986.9792" y="1329.3951"/><rect fill="none" height="182.0006" style="stroke:#BABDBF;stroke-width:1.0416666666666667;" width="10.4167" x="1111.9792" y="627.4681"/><rect fill="none" height="182.0006" style="stroke:#BABDBF;stroke-width:1.0416666666666667;" width="10.4167" x="1111.9792" y="1048.7609"/><rect fill="none" height="210.1256" style="stroke:#BABDBF;stroke-width:1.0416666666666667;" width="10.4167" x="1276.5625" y="1877.805"/><rect fill="none" height="196.9424" rx="4.1667" ry="4.1667" style="stroke:#2FA4E7;stroke-width:1.0416666666666667;" width="510.4167" x="20.8333" y="332.9338"/><rect fill="none" height="125.3921" rx="4.1667" ry="4.1667" style="stroke:#2FA4E7;stroke-width:1.0416666666666667;" width="1179.1667" x="20.8333" y="643.0931"/><rect fill="none" height="125.3921" rx="4.1667" ry="4.1667" style="stroke:#2FA4E7;stroke-width:1.0416666666666667;" width="1179.1667" x="20.8333" y="1064.3859"/><rect fill="none" height="336.5594" rx="4.1667" ry="4.1667" style="stroke:#2FA4E7;stroke-width:1.0416666666666667;" width="1179.1667" x="20.8333" y="1443.6537"/><line style="stroke:#BABDBF;stroke-width:1.0416666666666667;stroke-dasharray:5.0,5.0;" x1="56.25" x2="56.25" y1="174.5668" y2="2106.6806"/><line style="stroke:#BABDBF;stroke-width:1.0416666666666667;stroke-dasharray:5.0,5.0;" x1="247.9167" x2="247.9167" y1="174.5668" y2="2106.6806"/><line style="stroke:#BABDBF;stroke-width:1.0416666666666667;stroke-dasharray:5.0,5.0;" x1="433.3333" x2="433.3333" y1="174.5668" y2="2106.6806"/><line style="stroke:#BABDBF;stroke-width:1.0416666666666667;stroke-dasharray:5.0,5.0;" x1="634.375" x2="634.375" y1="174.5668" y2="2106.6806"/><line style="stroke:#BABDBF;stroke-width:1.0416666666666667;stroke-dasharray:5.0,5.0;" x1="843.75" x2="843.75" y1="174.5668" y2="2106.6806"/><line style="stroke:#BABDBF;stroke-width:1.0416666666666667;stroke-dasharray:5.0,5.0;" x1="991.6667" x2="991.6667" y1="174.5668" y2="2106.6806"/><line style="stroke:#BABDBF;stroke-width:1.0416666666666667;stroke-dasharray:5.0,5.0;" x1="1116.6667" x2="1116.6667" y1="174.5668" y2="2106.6806"/><line style="stroke:#BABDBF;stroke-width:1.0416666666666667;stroke-dasharray:5.0,5.0;" x1="1281.25" x2="1281.25" y1="174.5668" y2="2106.6806"/><line style="stroke:#BABDBF;stroke-width:1.0416666666666667;stroke-dasharray:5.0,5.0;" x1="1448.9583" x2="1448.9583" y1="174.5668" y2="2106.6806"/><text fill="#2FA4E7" font-family="Verdana" font-size="12.5" lengthAdjust="spacing" textLength="33.3333" x="36.4583" y="165.6959">Client</text><ellipse cx="56.25" cy="92.9583" fill="none" rx="8.3333" ry="8.3333" style="stroke:#2FA4E7;stroke-width:1.0416666666666667;"/><path d="M56.25,101.2916 L56.25,129.4166 M42.7083,109.625 L69.7917,109.625 M56.25,129.4166 L42.7083,145.0416 M56.25,129.4166 L69.7917,145.0416 " fill="none" style="stroke:#2FA4E7;stroke-width:1.0416666666666667;"/><text fill="#2FA4E7" font-family="Verdana" font-size="12.5" lengthAdjust="spacing" textLength="33.3333" x="36.4583" y="2124.2098">Client</text><ellipse cx="56.25" cy="2142.4557" fill="none" rx="8.3333" ry="8.3333" style="stroke:#2FA4E7;stroke-width:1.0416666666666667;"/><path d="M56.25,2150.789 L56.25,2178.914 M42.7083,2159.1224 L69.7917,2159.1224 M56.25,2178.914 L42.7083,2194.539 M56.25,2178.914 L69.7917,2194.539 " fill="none" style="stroke:#2FA4E7;stroke-width:1.0416666666666667;"/><rect fill="none" height="59.0502" rx="4.1667" ry="4.1667" style="stroke:#2FA4E7;stroke-width:1.0416666666666667;" width="77.0833" x="209.375" y="114.4749"/><text fill="#2FA4E7" font-family="Verdana" font-size="12.5" lengthAdjust="spacing" textLength="52.0833" x="221.875" y="140.3374">FlaskApp</text><text fill="#2FA4E7" font-family="Verdana" font-size="12.5" lengthAdjust="spacing" textLength="50" x="222.9167" y="157.3626">/main.py</text><rect fill="none" height="59.0502" rx="4.1667" ry="4.1667" style="stroke:#2FA4E7;stroke-width:1.0416666666666667;" width="77.0833" x="209.375" y="2105.6389"/><text fill="#2FA4E7" font-family="Verdana" font-size="12.5" lengthAdjust="spacing" textLength="52.0833" x="221.875" y="2131.5015">FlaskApp</text><text fill="#2FA4E7" font-family="Verdana" font-size="12.5" lengthAdjust="spacing" textLength="50" x="222.9167" y="2148.5266">/main.py</text><rect fill="none" height="59.0502" rx="4.1667" ry="4.1667" style="stroke:#2FA4E7;stroke-width:1.0416666666666667;" width="91.6667" x="387.5" y="114.4749"/><text fill="#2FA4E7" font-family="Verdana" font-size="12.5" lengthAdjust="spacing" textLength="46.875" x="409.8958" y="140.3374">Security</text><text fill="#2FA4E7" font-family="Verdana" font-size="12.5" lengthAdjust="spacing" textLength="66.6667" x="400" y="157.3626">/security.py</text><rect fill="none" height="59.0502" rx="4.1667" ry="4.1667" style="stroke:#2FA4E7;stroke-width:1.0416666666666667;" width="91.6667" x="387.5" y="2105.6389"/><text fill="#2FA4E7" font-family="Verdana" font-size="12.5" lengthAdjust="spacing" textLength="46.875" x="409.8958" y="2131.5015">Security</text><text fill="#2FA4E7" font-family="Verdana" font-size="12.5" lengthAdjust="spacing" textLength="66.6667" x="400" y="2148.5266">/security.py</text><rect fill="none" height="59.0502" rx="4.1667" ry="4.1667" style="stroke:#2FA4E7;stroke-width:1.0416666666666667;" width="122.9167" x="572.9167" y="114.4749"/><text fill="#2FA4E7" font-family="Verdana" font-size="12.5" lengthAdjust="spacing" textLength="73.9583" x="597.3958" y="140.3374">QueryParser</text><text fill="#2FA4E7" font-family="Verdana" font-size="12.5" lengthAdjust="spacing" textLength="97.9167" x="585.4167" y="157.3626">/query_parser.py</text><rect fill="none" height="59.0502" rx="4.1667" ry="4.1667" style="stroke:#2FA4E7;stroke-width:1.0416666666666667;" width="122.9167" x="572.9167" y="2105.6389"/><text fill="#2FA4E7" font-family="Verdana" font-size="12.5" lengthAdjust="spacing" textLength="73.9583" x="597.3958" y="2131.5015">QueryParser</text><text fill="#2FA4E7" font-family="Verdana" font-size="12.5" lengthAdjust="spacing" textLength="97.9167" x="585.4167" y="2148.5266">/query_parser.py</text><rect fill="none" height="59.0502" rx="4.1667" ry="4.1667" style="stroke:#2FA4E7;stroke-width:1.0416666666666667;" width="108.3333" x="789.5833" y="114.4749"/><text fill="#2FA4E7" font-family="Verdana" font-size="12.5" lengthAdjust="spacing" textLength="58.3333" x="814.5833" y="140.3374">Formatter</text><text fill="#2FA4E7" font-family="Verdana" font-size="12.5" lengthAdjust="spacing" textLength="83.3333" x="802.0833" y="157.3626">/formatters.py</text><rect fill="none" height="59.0502" rx="4.1667" ry="4.1667" style="stroke:#2FA4E7;stroke-width:1.0416666666666667;" width="108.3333" x="789.5833" y="2105.6389"/><text fill="#2FA4E7" font-family="Verdana" font-size="12.5" lengthAdjust="spacing" textLength="58.3333" x="814.5833" y="2131.5015">Formatter</text><text fill="#2FA4E7" font-family="Verdana" font-size="12.5" lengthAdjust="spacing" textLength="83.3333" x="802.0833" y="2148.5266">/formatters.py</text><text fill="#2FA4E7" font-family="Verdana" font-size="12.5" lengthAdjust="spacing" textLength="67.7083" x="955.2083" y="165.6959">PostgreSQL</text><path d="M973.4375,109.625 C973.4375,99.2083 992.1875,99.2083 992.1875,99.2083 C992.1875,99.2083 1010.9375,99.2083 1010.9375,109.625 L1010.9375,136.7083 C1010.9375,147.125 992.1875,147.125 992.1875,147.125 C992.1875,147.125 973.4375,147.125 973.4375,136.7083 L973.4375,109.625 " fill="none" style="stroke:#2FA4E7;stroke-width:1.5625;"/><path d="M973.4375,109.625 C973.4375,120.0416 992.1875,120.0416 992.1875,120.0416 C992.1875,120.0416 1010.9375,120.0416 1010.9375,109.625 " fill="none" style="stroke:#2FA4E7;stroke-width:1.5625;"/><text fill="#2FA4E7" font-family="Verdana" font-size="12.5" lengthAdjust="spacing" textLength="67.7083" x="955.2083" y="2124.2098">PostgreSQL</text><path d="M973.4375,2143.4974 C973.4375,2133.0807 992.1875,2133.0807 992.1875,2133.0807 C992.1875,2133.0807 1010.9375,2133.0807 1010.9375,2143.4974 L1010.9375,2170.5807 C1010.9375,2180.9974 992.1875,2180.9974 992.1875,2180.9974 C992.1875,2180.9974 973.4375,2180.9974 973.4375,2170.5807 L973.4375,2143.4974 " fill="none" style="stroke:#2FA4E7;stroke-width:1.5625;"/><path d="M973.4375,2143.4974 C973.4375,2153.914 992.1875,2153.914 992.1875,2153.914 C992.1875,2153.914 1010.9375,2153.914 1010.9375,2143.4974 " fill="none" style="stroke:#2FA4E7;stroke-width:1.5625;"/><rect fill="none" height="59.0502" rx="4.1667" ry="4.1667" style="stroke:#2FA4E7;stroke-width:1.0416666666666667;" width="61.4583" x="1086.4583" y="114.4749"/><text fill="#2FA4E7" font-family="Verdana" font-size="12.5" lengthAdjust="spacing" textLength="31.25" x="1101.5625" y="140.3374">Redis</text><text fill="#2FA4E7" font-family="Verdana" font-size="12.5" lengthAdjust="spacing" textLength="36.4583" x="1098.9583" y="157.3626">Cache</text><rect fill="none" height="59.0502" rx="4.1667" ry="4.1667" style="stroke:#2FA4E7;stroke-width:1.0416666666666667;" width="61.4583" x="1086.4583" y="2105.6389"/><text fill="#2FA4E7" font-family="Verdana" font-size="12.5" lengthAdjust="spacing" textLength="31.25" x="1101.5625" y="2131.5015">Redis</text><text fill="#2FA4E7" font-family="Verdana" font-size="12.5" lengthAdjust="spacing" textLength="36.4583" x="1098.9583" y="2148.5266">Cache</text><rect fill="none" height="59.0502" rx="4.1667" ry="4.1667" style="stroke:#2FA4E7;stroke-width:1.0416666666666667;" width="80.2083" x="1241.6667" y="114.4749"/><text fill="#2FA4E7" font-family="Verdana" font-size="12.5" lengthAdjust="spacing" textLength="55.2083" x="1254.1667" y="140.3374">ExportJob</text><text fill="#2FA4E7" font-family="Verdana" font-size="12.5" lengthAdjust="spacing" textLength="42.7083" x="1260.4167" y="157.3626">Worker</text><rect fill="none" height="59.0502" rx="4.1667" ry="4.1667" style="stroke:#2FA4E7;stroke-width:1.0416666666666667;" width="80.2083" x="1241.6667" y="2105.6389"/><text fill="#2FA4E7" font-family="Verdana" font-size="12.5" lengthAdjust="spacing" textLength="55.2083" x="1254.1667" y="2131.5015">ExportJob</text><text fill="#2FA4E7" font-family="Verdana" font-size="12.5" lengthAdjust="spacing" textLength="42.7083" x="1260.4167" y="2148.5266">Worker</text><rect fill="none" height="59.0502" rx="4.1667" ry="4.1667" style="stroke:#2FA4E7;stroke-width:1.0416666666666667;" width="67.7083" x="1415.625" y="114.4749"/><text fill="#2FA4E7" font-family="Verdana" font-size="12.5" lengthAdjust="spacing" textLength="19.7917" x="1439.5833" y="140.3374">File</text><text fill="#2FA4E7" font-family="Verdana" font-size="12.5" lengthAdjust="spacing" textLength="42.7083" x="1428.125" y="157.3626">System</text><rect fill="none" height="59.0502" rx="4.1667" ry="4.1667" style="stroke:#2FA4E7;stroke-width:1.0416666666666667;" width="67.7083" x="1415.625" y="2105.6389"/><text fill="#2FA4E7" font-family="Verdana" font-size="12.5" lengthAdjust="spacing" textLength="19.7917" x="1439.5833" y="2131.5015">File</text><text fill="#2FA4E7" font-family="Verdana" font-size="12.5" lengthAdjust="spacing" textLength="42.7083" x="1428.125" y="2148.5266">System</text><rect fill="none" height="1512.2211" style="stroke:#BABDBF;stroke-width:1.0416666666666667;" width="10.4167" x="242.7083" y="275.2837"/><rect fill="none" height="219.859" style="stroke:#BABDBF;stroke-width:1.0416666666666667;" width="10.4167" x="428.125" y="317.3088"/><rect fill="none" height="42.0251" style="stroke:#BABDBF;stroke-width:1.0416666666666667;" width="10.4167" x="629.1667" y="908.1022"/><rect fill="none" height="42.0251" style="stroke:#BABDBF;stroke-width:1.0416666666666667;" width="10.4167" x="838.5417" y="1645.8044"/><rect fill="none" height="42.0251" style="stroke:#BABDBF;stroke-width:1.0416666666666667;" width="10.4167" x="986.9792" y="1329.3951"/><rect fill="none" height="182.0006" style="stroke:#BABDBF;stroke-width:1.0416666666666667;" width="10.4167" x="1111.9792" y="627.4681"/><rect fill="none" height="182.0006" style="stroke:#BABDBF;stroke-width:1.0416666666666667;" width="10.4167" x="1111.9792" y="1048.7609"/><rect fill="none" height="210.1256" style="stroke:#BABDBF;stroke-width:1.0416666666666667;" width="10.4167" x="1276.5625" y="1877.805"/><rect fill="#F8F9FA" height="3.125" rx="4.1667" ry="4.1667" style="stroke:#F8F9FA;stroke-width:1.0416666666666667;" width="1519.7917" x="10.4167" y="212.246"/><line style="stroke:#868E96;stroke-width:1.0416666666666667;" x1="10.4167" x2="1530.2083" y1="212.246" y2="212.246"/><line style="stroke:#868E96;stroke-width:1.0416666666666667;" x1="10.4167" x2="1530.2083" y1="215.371" y2="215.371"/><rect fill="#F8F9FA" height="35.7751" rx="4.1667" ry="4.1667" style="stroke:#868E96;stroke-width:2.0833333333333335;" width="146.875" x="696.875" y="195.4001"/><text fill="#343A40" font-family="Verdana" font-size="12.5" font-weight="bold" lengthAdjust="spacing" textLength="118.75" x="708.3333" y="218.1377">Request Validation</text><polygon fill="#2FA4E7" points="230.2083,271.117,240.625,275.2837,230.2083,279.4503,234.375,275.2837" style="stroke:#2FA4E7;stroke-width:1.0416666666666667;"/><line style="stroke:#2FA4E7;stroke-width:3.125;" x1="56.25" x2="236.4583" y1="275.2837" y2="275.2837"/><text fill="#343A40" font-family="Verdana" font-size="12.5" lengthAdjust="spacing" textLength="156.25" x="68.75" y="264.3295">GET /indicators/&lt;fmt&gt;?q=...</text><polygon fill="#2FA4E7" points="415.625,313.1421,426.0417,317.3088,415.625,321.4755,419.7917,317.3088" style="stroke:#2FA4E7;stroke-width:1.0416666666666667;"/><line style="stroke:#2FA4E7;stroke-width:3.125;" x1="253.125" x2="421.875" y1="317.3088" y2="317.3088"/><text fill="#343A40" font-family="Verdana" font-size="12.5" lengthAdjust="spacing" textLength="144.7917" x="265.625" y="306.3546">validate_search_query(q)</text><path d="M25,332.9338 L94.7917,332.9338 L94.7917,352.0422 L84.375,362.4589 L20.8333,362.4589 L20.8333,337.1005 A4.1667,4.1667 0 0 1 25,332.9338 " fill="#E9ECEF" style="stroke:#868E96;stroke-width:1.0416666666666667;"/><rect fill="none" height="196.9424" rx="4.1667" ry="4.1667" style="stroke:#2FA4E7;stroke-width:1.0416666666666667;" width="510.4167" x="20.8333" y="332.9338"/><text fill="#033C73" font-family="Verdana" font-size="12.5" font-weight="bold" lengthAdjust="spacing" textLength="16.6667" x="41.6667" y="352.5464">alt</text><text fill="#343A40" font-family="Verdana" font-size="12.5" font-weight="bold" lengthAdjust="spacing" textLength="92.7083" x="115.625" y="353.588">[Invalid query]</text><polygon fill="#2FA4E7" points="264.5833,403.8008,254.1667,407.9675,264.5833,412.1341,260.4167,407.9675" style="stroke:#2FA4E7;stroke-width:1.0416666666666667;"/><line style="stroke:#2FA4E7;stroke-width:3.125;stroke-dasharray:2.0,2.0;" x1="258.3333" x2="427.0833" y1="407.9675" y2="407.9675"/><text fill="#343A40" font-family="Verdana" font-size="12.5" lengthAdjust="spacing" textLength="30.2083" x="276.0417" y="397.0133">False</text><polygon fill="#2FA4E7" points="67.7083,445.8259,57.2917,449.9926,67.7083,454.1593,63.5417,449.9926" style="stroke:#2FA4E7;stroke-width:1.0416666666666667;"/><line style="stroke:#2FA4E7;stroke-width:3.125;stroke-dasharray:2.0,2.0;" x1="61.4583" x2="241.6667" y1="449.9926" y2="449.9926"/><text fill="#343A40" font-family="Verdana" font-size="12.5" lengthAdjust="spacing" textLength="97.9167" x="79.1667" y="439.0384">400 Bad Request</text><line style="stroke:#2FA4E7;stroke-width:1.0416666666666667;stroke-dasharray:2.0,2.0;" x1="20.8333" x2="531.25" y1="459.3676" y2="459.3676"/><text fill="#343A40" font-family="Verdana" font-size="12.5" font-weight="bold" lengthAdjust="spacing" textLength="80.2083" x="31.25" y="477.9385">[Valid query]</text><polygon fill="#2FA4E7" points="264.5833,517.3762,254.1667,521.5428,264.5833,525.7095,260.4167,521.5428" style="stroke:#2FA4E7;stroke-width:1.0416666666666667;"/><line style="stroke:#2FA4E7;stroke-width:3.125;stroke-dasharray:2.0,2.0;" x1="258.3333" x2="427.0833" y1="521.5428" y2="521.5428"/><text fill="#343A40" font-family="Verdana" font-size="12.5" lengthAdjust="spacing" textLength="27.0833" x="276.0417" y="510.5886">True</text><rect fill="#F8F9FA" height="3.125" rx="4.1667" ry="4.1667" style="stroke:#F8F9FA;stroke-width:1.0416666666666667;" width="1519.7917" x="10.4167" y="564.4304"/><line style="stroke:#868E96;stroke-width:1.0416666666666667;" x1="10.4167" x2="1530.2083" y1="564.4304" y2="564.4304"/><line style="stroke:#868E96;stroke-width:1.0416666666666667;" x1="10.4167" x2="1530.2083" y1="567.5554" y2="567.5554"/><rect fill="#F8F9FA" height="35.7751" rx="4.1667" ry="4.1667" style="stroke:#868E96;stroke-width:2.0833333333333335;" width="133.3333" x="703.6458" y="547.5845"/><text fill="#343A40" font-family="Verdana" font-size="12.5" font-weight="bold" lengthAdjust="spacing" textLength="105.2083" x="715.1042" y="570.3221">Rate Limit Check</text><polygon fill="#2FA4E7" points="1099.4792,623.3014,1109.8958,627.4681,1099.4792,631.6347,1103.6458,627.4681" style="stroke:#2FA4E7;stroke-width:1.0416666666666667;"/><line style="stroke:#2FA4E7;stroke-width:3.125;" x1="253.125" x2="1105.7292" y1="627.4681" y2="627.4681"/><text fill="#343A40" font-family="Verdana" font-size="12.5" lengthAdjust="spacing" textLength="98.9583" x="265.625" y="616.5139">Check global RPS</text><path d="M25,643.0931 L94.7917,643.0931 L94.7917,662.2015 L84.375,672.6182 L20.8333,672.6182 L20.8333,647.2597 A4.1667,4.1667 0 0 1 25,643.0931 " fill="#E9ECEF" style="stroke:#868E96;stroke-width:1.0416666666666667;"/><rect fill="none" height="125.3921" rx="4.1667" ry="4.1667" style="stroke:#2FA4E7;stroke-width:1.0416666666666667;" width="1179.1667" x="20.8333" y="643.0931"/><text fill="#033C73" font-family="Verdana" font-size="12.5" font-weight="bold" lengthAdjust="spacing" textLength="16.6667" x="41.6667" y="662.7057">alt</text><text fill="#343A40" font-family="Verdana" font-size="12.5" font-weight="bold" lengthAdjust="spacing" textLength="98.9583" x="115.625" y="663.7473">[Rate exceeded]</text><polygon fill="#2FA4E7" points="264.5833,713.9601,254.1667,718.1268,264.5833,722.2934,260.4167,718.1268" style="stroke:#2FA4E7;stroke-width:1.0416666666666667;"/><line style="stroke:#2FA4E7;stroke-width:3.125;stroke-dasharray:2.0,2.0;" x1="258.3333" x2="1110.9375" y1="718.1268" y2="718.1268"/><text fill="#343A40" font-family="Verdana" font-size="12.5" lengthAdjust="spacing" textLength="56.25" x="276.0417" y="707.1726">Exceeded</text><polygon fill="#2FA4E7" points="67.7083,755.9852,57.2917,760.1519,67.7083,764.3185,63.5417,760.1519" style="stroke:#2FA4E7;stroke-width:1.0416666666666667;"/><line style="stroke:#2FA4E7;stroke-width:3.125;stroke-dasharray:2.0,2.0;" x1="61.4583" x2="241.6667" y1="760.1519" y2="760.1519"/><text fill="#343A40" font-family="Verdana" font-size="12.5" lengthAdjust="spacing" textLength="138.5417" x="79.1667" y="749.1977">429 Too Many Requests</text><polygon fill="#2FA4E7" points="264.5833,805.302,254.1667,809.4687,264.5833,813.6353,260.4167,809.4687" style="stroke:#2FA4E7;stroke-width:1.0416666666666667;"/><line style="stroke:#2FA4E7;stroke-width:3.125;stroke-dasharray:2.0,2.0;" x1="258.3333" x2="1116.1458" y1="809.4687" y2="809.4687"/><text fill="#343A40" font-family="Verdana" font-size="12.5" lengthAdjust="spacing" textLength="16.6667" x="276.0417" y="798.5145">OK</text><rect fill="#F8F9FA" height="3.125" rx="4.1667" ry="4.1667" style="stroke:#F8F9FA;stroke-width:1.0416666666666667;" width="1519.7917" x="10.4167" y="845.0646"/><line style="stroke:#868E96;stroke-width:1.0416666666666667;" x1="10.4167" x2="1530.2083" y1="845.0646" y2="845.0646"/><line style="stroke:#868E96;stroke-width:1.0416666666666667;" x1="10.4167" x2="1530.2083" y1="848.1896" y2="848.1896"/><rect fill="#F8F9FA" height="35.7751" rx="4.1667" ry="4.1667" style="stroke:#868E96;stroke-width:2.0833333333333335;" width="117.7083" x="711.4583" y="828.2187"/><text fill="#343A40" font-family="Verdana" font-size="12.5" font-weight="bold" lengthAdjust="spacing" textLength="89.5833" x="722.9167" y="850.9563">Query Parsing</text><polygon fill="#2FA4E7" points="616.6667,903.9356,627.0833,908.1022,616.6667,912.2689,620.8333,908.1022" style="stroke:#2FA4E7;stroke-width:1.0416666666666667;"/><line style="stroke:#2FA4E7;stroke-width:3.125;" x1="253.125" x2="622.9167" y1="908.1022" y2="908.1022"/><text fill="#343A40" font-family="Verdana" font-size="12.5" lengthAdjust="spacing" textLength="131.25" x="265.625" y="897.148">parse_kibana_query(q)</text><polygon fill="#2FA4E7" points="264.5833,945.9607,254.1667,950.1274,264.5833,954.294,260.4167,950.1274" style="stroke:#2FA4E7;stroke-width:1.0416666666666667;"/><line style="stroke:#2FA4E7;stroke-width:3.125;stroke-dasharray:2.0,2.0;" x1="258.3333" x2="633.3333" y1="950.1274" y2="950.1274"/><text fill="#343A40" font-family="Verdana" font-size="12.5" lengthAdjust="spacing" textLength="63.5417" x="276.0417" y="939.1732">rpn_tokens</text><rect fill="#F8F9FA" height="3.125" rx="4.1667" ry="4.1667" style="stroke:#F8F9FA;stroke-width:1.0416666666666667;" width="1519.7917" x="10.4167" y="985.7232"/><line style="stroke:#868E96;stroke-width:1.0416666666666667;" x1="10.4167" x2="1530.2083" y1="985.7232" y2="985.7232"/><line style="stroke:#868E96;stroke-width:1.0416666666666667;" x1="10.4167" x2="1530.2083" y1="988.8482" y2="988.8482"/><rect fill="#F8F9FA" height="35.7751" rx="4.1667" ry="4.1667" style="stroke:#868E96;stroke-width:2.0833333333333335;" width="106.25" x="717.1875" y="968.8774"/><text fill="#343A40" font-family="Verdana" font-size="12.5" font-weight="bold" lengthAdjust="spacing" textLength="78.125" x="728.6458" y="991.6149">Cache Check</text><polygon fill="#2FA4E7" points="1099.4792,1044.5943,1109.8958,1048.7609,1099.4792,1052.9276,1103.6458,1048.7609" style="stroke:#2FA4E7;stroke-width:1.0416666666666667;"/><line style="stroke:#2FA4E7;stroke-width:3.125;" x1="253.125" x2="1105.7292" y1="1048.7609" y2="1048.7609"/><text fill="#343A40" font-family="Verdana" font-size="12.5" lengthAdjust="spacing" textLength="116.6667" x="265.625" y="1037.8067">Check cached result</text><path d="M25,1064.3859 L94.7917,1064.3859 L94.7917,1083.4944 L84.375,1093.911 L20.8333,1093.911 L20.8333,1068.5526 A4.1667,4.1667 0 0 1 25,1064.3859 " fill="#E9ECEF" style="stroke:#868E96;stroke-width:1.0416666666666667;"/><rect fill="none" height="125.3921" rx="4.1667" ry="4.1667" style="stroke:#2FA4E7;stroke-width:1.0416666666666667;" width="1179.1667" x="20.8333" y="1064.3859"/><text fill="#033C73" font-family="Verdana" font-size="12.5" font-weight="bold" lengthAdjust="spacing" textLength="16.6667" x="41.6667" y="1083.9985">alt</text><text fill="#343A40" font-family="Verdana" font-size="12.5" font-weight="bold" lengthAdjust="spacing" textLength="66.6667" x="115.625" y="1085.0402">[Cache hit]</text><polygon fill="#2FA4E7" points="264.5833,1135.253,254.1667,1139.4196,264.5833,1143.5863,260.4167,1139.4196" style="stroke:#2FA4E7;stroke-width:1.0416666666666667;"/><line style="stroke:#2FA4E7;stroke-width:3.125;stroke-dasharray:2.0,2.0;" x1="258.3333" x2="1110.9375" y1="1139.4196" y2="1139.4196"/><text fill="#343A40" font-family="Verdana" font-size="12.5" lengthAdjust="spacing" textLength="72.9167" x="276.0417" y="1128.4654">cached_data</text><polygon fill="#2FA4E7" points="67.7083,1177.2781,57.2917,1181.4447,67.7083,1185.6114,63.5417,1181.4447" style="stroke:#2FA4E7;stroke-width:1.0416666666666667;"/><line style="stroke:#2FA4E7;stroke-width:3.125;stroke-dasharray:2.0,2.0;" x1="61.4583" x2="241.6667" y1="1181.4447" y2="1181.4447"/><text fill="#343A40" font-family="Verdana" font-size="12.5" lengthAdjust="spacing" textLength="140.625" x="79.1667" y="1170.4905">Return cached response</text><polygon fill="#2FA4E7" points="264.5833,1226.5949,254.1667,1230.7615,264.5833,1234.9282,260.4167,1230.7615" style="stroke:#2FA4E7;stroke-width:1.0416666666666667;"/><line style="stroke:#2FA4E7;stroke-width:3.125;stroke-dasharray:2.0,2.0;" x1="258.3333" x2="1116.1458" y1="1230.7615" y2="1230.7615"/><text fill="#343A40" font-family="Verdana" font-size="12.5" lengthAdjust="spacing" textLength="27.0833" x="276.0417" y="1219.8073">Miss</text><rect fill="#F8F9FA" height="3.125" rx="4.1667" ry="4.1667" style="stroke:#F8F9FA;stroke-width:1.0416666666666667;" width="1519.7917" x="10.4167" y="1266.3574"/><line style="stroke:#868E96;stroke-width:1.0416666666666667;" x1="10.4167" x2="1530.2083" y1="1266.3574" y2="1266.3574"/><line style="stroke:#868E96;stroke-width:1.0416666666666667;" x1="10.4167" x2="1530.2083" y1="1269.4824" y2="1269.4824"/><rect fill="#F8F9FA" height="35.7751" rx="4.1667" ry="4.1667" style="stroke:#868E96;stroke-width:2.0833333333333335;" width="128.125" x="706.25" y="1249.5115"/><text fill="#343A40" font-family="Verdana" font-size="12.5" font-weight="bold" lengthAdjust="spacing" textLength="100" x="717.7083" y="1272.2491">Database Query</text><polygon fill="#2FA4E7" points="974.4792,1325.2284,984.8958,1329.3951,974.4792,1333.5618,978.6458,1329.3951" style="stroke:#2FA4E7;stroke-width:1.0416666666666667;"/><line style="stroke:#2FA4E7;stroke-width:3.125;" x1="253.125" x2="980.7292" y1="1329.3951" y2="1329.3951"/><text fill="#343A40" font-family="Verdana" font-size="12.5" lengthAdjust="spacing" textLength="163.5417" x="265.625" y="1318.4409">query_indicators(rpn, filters)</text><polygon fill="#2FA4E7" points="264.5833,1367.2535,254.1667,1371.4202,264.5833,1375.5869,260.4167,1371.4202" style="stroke:#2FA4E7;stroke-width:1.0416666666666667;"/><line style="stroke:#2FA4E7;stroke-width:3.125;stroke-dasharray:2.0,2.0;" x1="258.3333" x2="991.1458" y1="1371.4202" y2="1371.4202"/><text fill="#343A40" font-family="Verdana" font-size="12.5" lengthAdjust="spacing" textLength="65.625" x="276.0417" y="1360.466">indicators[]</text><rect fill="#F8F9FA" height="3.125" rx="4.1667" ry="4.1667" style="stroke:#F8F9FA;stroke-width:1.0416666666666667;" width="1519.7917" x="10.4167" y="1407.0161"/><line style="stroke:#868E96;stroke-width:1.0416666666666667;" x1="10.4167" x2="1530.2083" y1="1407.0161" y2="1407.0161"/><line style="stroke:#868E96;stroke-width:1.0416666666666667;" x1="10.4167" x2="1530.2083" y1="1410.1411" y2="1410.1411"/><rect fill="#F8F9FA" height="35.7751" rx="4.1667" ry="4.1667" style="stroke:#868E96;stroke-width:2.0833333333333335;" width="136.4583" x="702.0833" y="1390.1702"/><text fill="#343A40" font-family="Verdana" font-size="12.5" font-weight="bold" lengthAdjust="spacing" textLength="108.3333" x="713.5417" y="1412.9078">Result Size Check</text><path d="M25,1443.6537 L94.7917,1443.6537 L94.7917,1462.7621 L84.375,1473.1788 L20.8333,1473.1788 L20.8333,1447.8203 A4.1667,4.1667 0 0 1 25,1443.6537 " fill="#E9ECEF" style="stroke:#868E96;stroke-width:1.0416666666666667;"/><rect fill="none" height="336.5594" rx="4.1667" ry="4.1667" style="stroke:#2FA4E7;stroke-width:1.0416666666666667;" width="1179.1667" x="20.8333" y="1443.6537"/><text fill="#033C73" font-family="Verdana" font-size="12.5" font-weight="bold" lengthAdjust="spacing" textLength="16.6667" x="41.6667" y="1463.2663">alt</text><text fill="#343A40" font-family="Verdana" font-size="12.5" font-weight="bold" lengthAdjust="spacing" textLength="131.25" x="115.625" y="1464.3079">[Large result (&gt;5000)]</text><line style="stroke:#2FA4E7;stroke-width:3.125;" x1="253.125" x2="296.875" y1="1518.6874" y2="1518.6874"/><line style="stroke:#2FA4E7;stroke-width:3.125;" x1="296.875" x2="296.875" y1="1518.6874" y2="1532.229"/><line style="stroke:#2FA4E7;stroke-width:3.125;" x1="254.1667" x2="296.875" y1="1532.229" y2="1532.229"/><polygon fill="#2FA4E7" points="264.5833,1528.0624,254.1667,1532.229,264.5833,1536.3957,260.4167,1532.229" style="stroke:#2FA4E7;stroke-width:1.0416666666666667;"/><text fill="#343A40" font-family="Verdana" font-size="12.5" lengthAdjust="spacing" textLength="134.375" x="265.625" y="1507.7332">Create async ExportJob</text><polygon fill="#2FA4E7" points="67.7083,1570.0875,57.2917,1574.2541,67.7083,1578.4208,63.5417,1574.2541" style="stroke:#2FA4E7;stroke-width:1.0416666666666667;"/><line style="stroke:#2FA4E7;stroke-width:3.125;stroke-dasharray:2.0,2.0;" x1="61.4583" x2="241.6667" y1="1574.2541" y2="1574.2541"/><text fill="#343A40" font-family="Verdana" font-size="12.5" lengthAdjust="spacing" textLength="126.0417" x="79.1667" y="1563.2999">202 Accepted + job_id</text><line style="stroke:#2FA4E7;stroke-width:1.0416666666666667;stroke-dasharray:2.0,2.0;" x1="20.8333" x2="1200" y1="1583.6291" y2="1583.6291"/><text fill="#343A40" font-family="Verdana" font-size="12.5" font-weight="bold" lengthAdjust="spacing" textLength="83.3333" x="31.25" y="1602.2001">[Small result]</text><polygon fill="#2FA4E7" points="826.0417,1641.6377,836.4583,1645.8044,826.0417,1649.971,830.2083,1645.8044" style="stroke:#2FA4E7;stroke-width:1.0416666666666667;"/><line style="stroke:#2FA4E7;stroke-width:3.125;" x1="253.125" x2="832.2917" y1="1645.8044" y2="1645.8044"/><text fill="#343A40" font-family="Verdana" font-size="12.5" lengthAdjust="spacing" textLength="173.9583" x="265.625" y="1634.8502">format_export(fmt, indicators)</text><polygon fill="#2FA4E7" points="264.5833,1683.6628,254.1667,1687.8295,264.5833,1691.9962,260.4167,1687.8295" style="stroke:#2FA4E7;stroke-width:1.0416666666666667;"/><line style="stroke:#2FA4E7;stroke-width:3.125;stroke-dasharray:2.0,2.0;" x1="258.3333" x2="842.7083" y1="1687.8295" y2="1687.8295"/><text fill="#343A40" font-family="Verdana" font-size="12.5" lengthAdjust="spacing" textLength="89.5833" x="276.0417" y="1676.8753">formatted_data</text><polygon fill="#2FA4E7" points="1104.6875,1725.688,1115.1042,1729.8546,1104.6875,1734.0213,1108.8542,1729.8546" style="stroke:#2FA4E7;stroke-width:1.0416666666666667;"/><line style="stroke:#2FA4E7;stroke-width:3.125;" x1="253.125" x2="1110.9375" y1="1729.8546" y2="1729.8546"/><text fill="#343A40" font-family="Verdana" font-size="12.5" lengthAdjust="spacing" textLength="82.2917" x="265.625" y="1718.9004">Store in cache</text><polygon fill="#2FA4E7" points="67.7083,1767.7131,57.2917,1771.8797,67.7083,1776.0464,63.5417,1771.8797" style="stroke:#2FA4E7;stroke-width:1.0416666666666667;"/><line style="stroke:#2FA4E7;stroke-width:3.125;stroke-dasharray:2.0,2.0;" x1="61.4583" x2="241.6667" y1="1771.8797" y2="1771.8797"/><text fill="#343A40" font-family="Verdana" font-size="12.5" lengthAdjust="spacing" textLength="144.7917" x="79.1667" y="1760.9255">200 OK + formatted_data</text><rect fill="#F8F9FA" height="3.125" rx="4.1667" ry="4.1667" style="stroke:#F8F9FA;stroke-width:1.0416666666666667;" width="1519.7917" x="10.4167" y="1814.7673"/><line style="stroke:#868E96;stroke-width:1.0416666666666667;" x1="10.4167" x2="1530.2083" y1="1814.7673" y2="1814.7673"/><line style="stroke:#868E96;stroke-width:1.0416666666666667;" x1="10.4167" x2="1530.2083" y1="1817.8923" y2="1817.8923"/><rect fill="#F8F9FA" height="35.7751" rx="4.1667" ry="4.1667" style="stroke:#868E96;stroke-width:2.0833333333333335;" width="184.375" x="678.125" y="1797.9214"/><text fill="#343A40" font-family="Verdana" font-size="12.5" font-weight="bold" lengthAdjust="spacing" textLength="156.25" x="689.5833" y="1820.659">Async Export Completion</text><polygon fill="#2FA4E7" points="1264.0625,1873.6383,1274.4792,1877.805,1264.0625,1881.9716,1268.2292,1877.805" style="stroke:#2FA4E7;stroke-width:1.0416666666666667;"/><line style="stroke:#2FA4E7;stroke-width:3.125;" x1="247.9167" x2="1270.3125" y1="1877.805" y2="1877.805"/><text fill="#343A40" font-family="Verdana" font-size="12.5" lengthAdjust="spacing" textLength="100" x="260.4167" y="1866.8508">Spawn export job</text><polygon fill="#2FA4E7" points="1003.6458,1915.6634,993.2292,1919.8301,1003.6458,1923.9968,999.4792,1919.8301" style="stroke:#2FA4E7;stroke-width:1.0416666666666667;"/><line style="stroke:#2FA4E7;stroke-width:3.125;" x1="997.3958" x2="1275.5208" y1="1919.8301" y2="1919.8301"/><text fill="#343A40" font-family="Verdana" font-size="12.5" lengthAdjust="spacing" textLength="113.5417" x="1015.1042" y="1908.8759">Query full result set</text><polygon fill="#2FA4E7" points="855.2083,1957.6885,844.7917,1961.8552,855.2083,1966.0219,851.0417,1961.8552" style="stroke:#2FA4E7;stroke-width:1.0416666666666667;"/><line style="stroke:#2FA4E7;stroke-width:3.125;" x1="848.9583" x2="1275.5208" y1="1961.8552" y2="1961.8552"/><text fill="#343A40" font-family="Verdana" font-size="12.5" lengthAdjust="spacing" textLength="82.2917" x="866.6667" y="1950.901">format_export</text><polygon fill="#2FA4E7" points="1436.9792,1999.7137,1447.3958,2003.8803,1436.9792,2008.047,1441.1458,2003.8803" style="stroke:#2FA4E7;stroke-width:1.0416666666666667;"/><line style="stroke:#2FA4E7;stroke-width:3.125;" x1="1286.9792" x2="1443.2292" y1="2003.8803" y2="2003.8803"/><text fill="#343A40" font-family="Verdana" font-size="12.5" lengthAdjust="spacing" textLength="66.6667" x="1299.4792" y="1992.9261">Write to file</text><polygon fill="#2FA4E7" points="1003.6458,2041.7388,993.2292,2045.9055,1003.6458,2050.0721,999.4792,2045.9055" style="stroke:#2FA4E7;stroke-width:1.0416666666666667;"/><line style="stroke:#2FA4E7;stroke-width:3.125;" x1="997.3958" x2="1275.5208" y1="2045.9055" y2="2045.9055"/><text fill="#343A40" font-family="Verdana" font-size="12.5" lengthAdjust="spacing" textLength="177.0833" x="1015.1042" y="2034.9513">Update job status = completed</text><polygon fill="#2FA4E7" points="259.375,2083.7639,248.9583,2087.9306,259.375,2092.0972,255.2083,2087.9306" style="stroke:#2FA4E7;stroke-width:1.0416666666666667;"/><line style="stroke:#2FA4E7;stroke-width:3.125;stroke-dasharray:2.0,2.0;" x1="253.125" x2="1280.7292" y1="2087.9306" y2="2087.9306"/><text fill="#343A40" font-family="Verdana" font-size="12.5" lengthAdjust="spacing" textLength="102.0833" x="270.8333" y="2076.9764">Notify completion</text><!--SRC=[XPLDKzim48Rl_XLRJc5A8CEqXp8D7GZGeOK2CIs7fkDHx4sYnfOSIQQalxxwi6mvJOQS7ElThsTNwpTgWGL2YgBAaR0-hrHE6KQHeYf7kBuRGOpYcQO8VRXc6Ks9uW8kNqekb3vQLSXIBIUfUJtAAJ8LbKGecjAIC0LxLpcHoxEodB2ZWb1sMAxtW4YmhxlA6DDAKBNMIba_UhK_wXeyL2ZMzqH85DfcPVubfVthxTpXHa9S54GfQpFppxB9ox-9CgB8b4Y4lNikrLnW_71Z9HVdNOTZpAYSi1595sW5zYcAXaCO6q1ImG-IK-sFSWR3OUGmGV_KKO0J-7pv24VKuvL77sU5Elsq6XuU7Xgqz9aeh955paORUoZQ_jdvnqGY4UaYiInwg_tMk24OaLpfJbeBiBe8zAznrW_IkYAvH7jS1zLdTV8dy6umW7EI-HeZr5fNw6jk7qM54R8iod1BVWQRUND32wfWjC1qQQ0rPLkwseixcUTyId8OtyTjhOw_gTCwmfSKCSFC9kIimsmkm-DjTHv_W4VEuPQmjIzMslJ_ztNtDQofdGCxgNOQAPjtgd4Jgatju2PBEYMCREbVFScrF8mfIfOelaGcmzYrtWHtQRu6CZN_CX0egrnjO-da2wfsS7GE4dDjTg4Sewe42qALd4dSmVAMIhcTveM_cGvhMDF5kRPqcw2zJZsDw01cD3SNFM2gBxBMXp5Rcv-_mjXQwQwpWGCn_HlmD6nkY9XZpGvwf-y7Wy5-2A6DC19e71AvPcczHh_mwIvWnuDZE4jJB9NczHP-ysb2CtVJueBakMzNDvHVOTg1Mt09sa0zlLKEWXfTYkr-QLQVTTTu2G7vXHdqES3KzT3DoazRh2EZJi9DmUx21_eowP8t0ffH2HjJxqJTcxE0A8nuKURezsrdMpVC9-o9YoKAkxBTuyQ7WkOuOV5QAYpSjo4Ejg-pC0MLv0y3HzXqg9slsccjzDFfXdPMDTq3YIeGxMnVg8druPFUbmYAcyd6pIZVI_CzCFc0L4HL4eQGEYfwrNbnqDblND7PsciqkH1pNSa_]--></g></svg>