<?plantuml 1.2026.2?><svg xmlns="http://www.w3.org/2000/svg" xmlns:xlink="http://www.w3.org/1999/xlink" contentStyleType="text/css" data-diagram-type="DESCRIPTION" height="1042.5px" preserveAspectRatio="none" style="width:3245px;height:1042px;" version="1.1" viewBox="0 0 3245 1042" width="3245px" zoomAndPan="magnify"><title>IOC Service - Component Diagram</title><defs/><g><g class="title" data-source-line="4"><rect fill="none" height="56.6016" rx="5" ry="5" style="stroke:#BABDBF;stroke-width:1.25;" width="506.0034" x="1364.1194" y="25"/><text fill="#2FA4E7" font-family="'Verdana'" font-size="25" font-weight="bold" lengthAdjust="spacing" textLength="478.5034" x="1377.8694" y="61.9556">IOC Service - Component Diagram</text></g><!--cluster Web Application--><g class="cluster" data-qualified-name="Web Application" data-source-line="6" id="ent0002"><path d="M2001.3559,277.7766 L2149.7104,277.7766 A7.5,7.5 0 0 1 2154.7104,282.7766 L2163.4604,315.2375 L2465.1059,315.2375 A5,5 0 0 1 2470.1059,320.2375 L2470.1059,843.8516 A5,5 0 0 1 2465.1059,848.8516 L2001.3559,848.8516 A5,5 0 0 1 1996.3559,843.8516 L1996.3559,282.7766 A5,5 0 0 1 2001.3559,277.7766" fill="none" style="stroke:#2FA4E7;stroke-width:2.5;"/><line style="stroke:#2FA4E7;stroke-width:2.5;" x1="1996.3559" x2="2163.4604" y1="315.2375" y2="315.2375"/><text fill="#2FA4E7" font-family="'Verdana'" font-size="15" font-weight="bold" lengthAdjust="spacing" textLength="138.3545" x="2007.6059" y="300.4499">Web Application</text></g><!--cluster Feed Connectors--><g class="cluster" data-qualified-name="Feed Connectors" data-source-line="13" id="ent0007"><path d="M113.8559,486.4891 L265.9458,486.4891 A7.5,7.5 0 0 1 270.9458,491.4891 L279.6958,523.95 L1386.3559,523.95 A5,5 0 0 1 1391.3559,528.95 L1391.3559,621.4516 A5,5 0 0 1 1386.3559,626.4516 L113.8559,626.4516 A5,5 0 0 1 108.8559,621.4516 L108.8559,491.4891 A5,5 0 0 1 113.8559,486.4891" fill="none" style="stroke:#2FA4E7;stroke-width:2.5;"/><line style="stroke:#2FA4E7;stroke-width:2.5;" x1="108.8559" x2="279.6958" y1="523.95" y2="523.95"/><text fill="#2FA4E7" font-family="'Verdana'" font-size="15" font-weight="bold" lengthAdjust="spacing" textLength="142.0898" x="120.1059" y="509.1624">Feed Connectors</text></g><!--cluster Processing--><g class="cluster" data-qualified-name="Processing" data-source-line="21" id="ent0013"><path d="M1121.3559,700.1516 L1223.5312,700.1516 A7.5,7.5 0 0 1 1228.5312,705.1516 L1237.2812,737.6125 L1961.3559,737.6125 A5,5 0 0 1 1966.3559,742.6125 L1966.3559,835.1141 A5,5 0 0 1 1961.3559,840.1141 L1121.3559,840.1141 A5,5 0 0 1 1116.3559,835.1141 L1116.3559,705.1516 A5,5 0 0 1 1121.3559,700.1516" fill="none" style="stroke:#2FA4E7;stroke-width:2.5;"/><line style="stroke:#2FA4E7;stroke-width:2.5;" x1="1116.3559" x2="1237.2812" y1="737.6125" y2="737.6125"/><text fill="#2FA4E7" font-family="'Verdana'" font-size="15" font-weight="bold" lengthAdjust="spacing" textLength="92.1753" x="1127.6059" y="722.8249">Processing</text></g><!--cluster External APIs--><g class="cluster" data-qualified-name="External APIs" data-source-line="30" id="ent0019"><path d="M53.8056,722.0558 C70.2677,688.624 100.4312,690.3138 120.2516,718.4302 C142.0178,674.5589 174.5358,681.924 201.298,713.0298 C224.6782,676.4984 249.5621,680.469 274.2858,711.5802 C293.7569,687.3155 325.4707,686.095 336.448,720.5689 C356.5719,683.0994 387.3744,686.6222 410.5714,717.2224 C428.3839,684.5313 459.8149,680.0348 482.6303,711.613 C506.3628,675.5726 535.3311,676.3445 559.0321,711.6467 C587.6825,675.6612 615.0948,668.1822 641.9112,713.516 C666.1282,687.1558 690.0736,687.7126 708.9492,719.6573 C730.6217,686.549 758.0604,686.5955 778.8278,720.5997 C795.4854,679.8329 828.6457,673.1048 855.8509,710.1604 C876.0484,672.5643 914.7871,676.3776 934.0819,711.1363 C955.7873,687.4843 985.5772,684.2004 997.5418,721.3097 C1017.4096,681.245 1054.3169,687.902 1076.3559,718.9016 C1078.3386,716.8712 1080.1124,717.2581 1081.5379,719.5669 C1096.8543,726.4962 1095.8091,736.1778 1085.9914,747.1633 C1099.8177,753.3223 1100.3096,761.3095 1091.5296,772.4246 C1101.8532,782.221 1100.2504,789.2979 1088.3695,796.1349 C1099.2568,815.4357 1088.3869,830.1646 1067.6059,830.1141 C1070.4273,830.9346 1071.7157,832.5228 1069.5835,835.2505 C1050.6715,868.1201 1019.3369,870.3846 995.3763,841.2973 C971.3546,870.7331 943.5343,871.6856 925.8442,834.672 C899.7931,873.3498 876.6129,874.873 851.4267,833.8643 C834.0617,871.9909 811.2139,874.9146 781.9337,846.2641 C755.3046,876.1519 731.5932,874.5904 710.0431,840.5524 C689.2997,874.7186 666.073,877.5533 641.5217,844.4299 C617.3823,874.8695 593.8851,876.7155 568.6139,845.7743 C539.4349,890.5817 509.9999,880.8985 482.994,843.5107 C465.0163,872.2168 442.9902,877.088 422.6466,845.8941 C403.3123,880.4298 366.5201,878.1015 346.8817,846.2411 C326.2187,877.074 293.1577,883.9117 272.5275,846.2056 C250.3733,872.5485 215.7667,868.2994 203.0689,835.1627 C184.1187,872.2764 150.9043,881.1546 123.8454,843.7879 C85.0448,872.0557 54.8463,868.5243 35.1059,821.3641 C36.7669,820.7214 37.8134,821.0396 37.906,823.0312 C26.7665,818.4674 22.9532,808.4143 33.1096,799.5082 C22.3935,791.1649 20.1732,781.6911 34.2273,774.4528 C21.4762,764.6561 20.177,754.1144 35.8937,745.9841 C20,732.7381 26.2507,715.9538 43.8559,710.1516 C52.6043,709.805 56.8793,712.5213 53.8056,722.0558" fill="none" style="stroke:#2FA4E7;stroke-width:1.25;"/><text fill="#343A40" font-family="'Verdana'" font-size="15" font-weight="bold" lengthAdjust="spacing" textLength="112.9395" x="499.2612" y="736.5749">External APIs</text></g><!--entity API--><g class="entity" data-qualified-name="Web Application.API" data-source-line="7" id="ent0003"><rect fill="none" height="67.4609" rx="5" ry="5" style="stroke:#2FA4E7;stroke-width:1.25;" width="132.8198" x="2057.4434" y="538.9891"/><rect fill="none" height="12.5" style="stroke:#2FA4E7;stroke-width:1.25;" width="18.75" x="2165.2632" y="545.2391"/><rect fill="none" height="2.5" style="stroke:#2FA4E7;stroke-width:1.25;" width="5" x="2162.7632" y="547.7391"/><rect fill="none" height="2.5" style="stroke:#2FA4E7;stroke-width:1.25;" width="5" x="2162.7632" y="552.7391"/><text fill="#2FA4E7" font-family="'Verdana'" font-size="15" lengthAdjust="spacing" textLength="70.3198" x="2082.4434" y="584.1624">API Layer</text></g><!--entity WebUI--><g class="entity" data-qualified-name="Web Application.WebUI" data-source-line="8" id="ent0004"><rect fill="none" height="67.4609" rx="5" ry="5" style="stroke:#2FA4E7;stroke-width:1.25;" width="116.2524" x="2155.7309" y="330.2766"/><rect fill="none" height="12.5" style="stroke:#2FA4E7;stroke-width:1.25;" width="18.75" x="2246.9834" y="336.5266"/><rect fill="none" height="2.5" style="stroke:#2FA4E7;stroke-width:1.25;" width="5" x="2244.4834" y="339.0266"/><rect fill="none" height="2.5" style="stroke:#2FA4E7;stroke-width:1.25;" width="5" x="2244.4834" y="344.0266"/><text fill="#2FA4E7" font-family="'Verdana'" font-size="15" lengthAdjust="spacing" textLength="53.7524" x="2180.7309" y="375.4499">Web UI</text></g><!--entity Security--><g class="entity" data-qualified-name="Web Application.Security" data-source-line="9" id="ent0005"><rect fill="none" height="67.4609" rx="5" ry="5" style="stroke:#2FA4E7;stroke-width:1.25;" width="170.686" x="2016.0184" y="752.6516"/><rect fill="none" height="12.5" style="stroke:#2FA4E7;stroke-width:1.25;" width="18.75" x="2161.7045" y="758.9016"/><rect fill="none" height="2.5" style="stroke:#2FA4E7;stroke-width:1.25;" width="5" x="2159.2045" y="761.4016"/><rect fill="none" height="2.5" style="stroke:#2FA4E7;stroke-width:1.25;" width="5" x="2159.2045" y="766.4016"/><text fill="#2FA4E7" font-family="'Verdana'" font-size="15" lengthAdjust="spacing" textLength="108.186" x="2041.0184" y="797.8249">Security Layer</text></g><!--entity JobAdmin--><g class="entity" data-qualified-name="Web Application.JobAdmin" data-source-line="10" id="ent0006"><rect fill="none" height="84.9219" rx="5" ry="5" style="stroke:#2FA4E7;stroke-width:1.25;" width="219.1943" x="2230.5059" y="743.9266"/><rect fill="none" height="12.5" style="stroke:#2FA4E7;stroke-width:1.25;" width="18.75" x="2424.7003" y="750.1766"/><rect fill="none" height="2.5" style="stroke:#2FA4E7;stroke-width:1.25;" width="5" x="2422.2003" y="752.6766"/><rect fill="none" height="2.5" style="stroke:#2FA4E7;stroke-width:1.25;" width="5" x="2422.2003" y="757.6766"/><text fill="#2FA4E7" font-family="'Verdana'" font-size="15" lengthAdjust="spacing" textLength="116.8799" x="2255.5059" y="789.0999">Sync Job Admin</text><text fill="#2FA4E7" font-family="'Verdana'" font-size="15" lengthAdjust="spacing" textLength="156.6943" x="2255.5059" y="806.5608">(retry/cancel/details)</text></g><!--entity CrowdSec--><g class="entity" data-qualified-name="Feed Connectors.CrowdSec" data-source-line="14" id="ent0008"><rect fill="none" height="67.4609" rx="5" ry="5" style="stroke:#2FA4E7;stroke-width:1.25;" width="219.2383" x="927.9809" y="538.9891"/><rect fill="none" height="12.5" style="stroke:#2FA4E7;stroke-width:1.25;" width="18.75" x="1122.2192" y="545.2391"/><rect fill="none" height="2.5" style="stroke:#2FA4E7;stroke-width:1.25;" width="5" x="1119.7192" y="547.7391"/><rect fill="none" height="2.5" style="stroke:#2FA4E7;stroke-width:1.25;" width="5" x="1119.7192" y="552.7391"/><text fill="#2FA4E7" font-family="'Verdana'" font-size="15" lengthAdjust="spacing" textLength="156.7383" x="952.9809" y="584.1624">CrowdSec Connector</text></g><!--entity MISP--><g class="entity" data-qualified-name="Feed Connectors.MISP" data-source-line="15" id="ent0009"><rect fill="none" height="67.4609" rx="5" ry="5" style="stroke:#2FA4E7;stroke-width:1.25;" width="180.5664" x="1191.0684" y="538.9891"/><rect fill="none" height="12.5" style="stroke:#2FA4E7;stroke-width:1.25;" width="18.75" x="1346.6348" y="545.2391"/><rect fill="none" height="2.5" style="stroke:#2FA4E7;stroke-width:1.25;" width="5" x="1344.1348" y="547.7391"/><rect fill="none" height="2.5" style="stroke:#2FA4E7;stroke-width:1.25;" width="5" x="1344.1348" y="552.7391"/><text fill="#2FA4E7" font-family="'Verdana'" font-size="15" lengthAdjust="spacing" textLength="118.0664" x="1216.0684" y="584.1624">MISP Connector</text></g><!--entity Bazaar--><g class="entity" data-qualified-name="Feed Connectors.Bazaar" data-source-line="16" id="ent0010"><rect fill="none" height="67.4609" rx="5" ry="5" style="stroke:#2FA4E7;stroke-width:1.25;" width="259.6973" x="129.0059" y="538.9891"/><rect fill="none" height="12.5" style="stroke:#2FA4E7;stroke-width:1.25;" width="18.75" x="363.7032" y="545.2391"/><rect fill="none" height="2.5" style="stroke:#2FA4E7;stroke-width:1.25;" width="5" x="361.2032" y="547.7391"/><rect fill="none" height="2.5" style="stroke:#2FA4E7;stroke-width:1.25;" width="5" x="361.2032" y="552.7391"/><text fill="#2FA4E7" font-family="'Verdana'" font-size="15" lengthAdjust="spacing" textLength="197.1973" x="154.0059" y="584.1624">MalwareBazaar Connector</text></g><!--entity MWDB--><g class="entity" data-qualified-name="Feed Connectors.MWDB" data-source-line="17" id="ent0011"><rect fill="none" height="67.4609" rx="5" ry="5" style="stroke:#2FA4E7;stroke-width:1.25;" width="194.248" x="432.9809" y="538.9891"/><rect fill="none" height="12.5" style="stroke:#2FA4E7;stroke-width:1.25;" width="18.75" x="602.229" y="545.2391"/><rect fill="none" height="2.5" style="stroke:#2FA4E7;stroke-width:1.25;" width="5" x="599.729" y="547.7391"/><rect fill="none" height="2.5" style="stroke:#2FA4E7;stroke-width:1.25;" width="5" x="599.729" y="552.7391"/><text fill="#2FA4E7" font-family="'Verdana'" font-size="15" lengthAdjust="spacing" textLength="131.748" x="457.9809" y="584.1624">MWDB Connector</text></g><!--entity AbuseCh--><g class="entity" data-qualified-name="Feed Connectors.AbuseCh" data-source-line="18" id="ent0012"><rect fill="none" height="67.4609" rx="5" ry="5" style="stroke:#2FA4E7;stroke-width:1.25;" width="213.4888" x="670.8559" y="538.9891"/><rect fill="none" height="12.5" style="stroke:#2FA4E7;stroke-width:1.25;" width="18.75" x="859.3447" y="545.2391"/><rect fill="none" height="2.5" style="stroke:#2FA4E7;stroke-width:1.25;" width="5" x="856.8447" y="547.7391"/><rect fill="none" height="2.5" style="stroke:#2FA4E7;stroke-width:1.25;" width="5" x="856.8447" y="552.7391"/><text fill="#2FA4E7" font-family="'Verdana'" font-size="15" lengthAdjust="spacing" textLength="150.9888" x="695.8559" y="584.1624">Abuse.ch Connector</text></g><!--entity QueryEngine--><g class="entity" data-qualified-name="Processing.QueryEngine" data-source-line="22" id="ent0014"><rect fill="none" height="67.4609" rx="5" ry="5" style="stroke:#2FA4E7;stroke-width:1.25;" width="164.2627" x="1570.4684" y="752.6516"/><rect fill="none" height="12.5" style="stroke:#2FA4E7;stroke-width:1.25;" width="18.75" x="1709.7311" y="758.9016"/><rect fill="none" height="2.5" style="stroke:#2FA4E7;stroke-width:1.25;" width="5" x="1707.2311" y="761.4016"/><rect fill="none" height="2.5" style="stroke:#2FA4E7;stroke-width:1.25;" width="5" x="1707.2311" y="766.4016"/><text fill="#2FA4E7" font-family="'Verdana'" font-size="15" lengthAdjust="spacing" textLength="101.7627" x="1595.4684" y="797.8249">Query Engine</text></g><!--entity ExportEngine--><g class="entity" data-qualified-name="Processing.ExportEngine" data-source-line="23" id="ent0015"><rect fill="none" height="67.4609" rx="5" ry="5" style="stroke:#2FA4E7;stroke-width:1.25;" width="167.7783" x="1778.7184" y="752.6516"/><rect fill="none" height="12.5" style="stroke:#2FA4E7;stroke-width:1.25;" width="18.75" x="1921.4967" y="758.9016"/><rect fill="none" height="2.5" style="stroke:#2FA4E7;stroke-width:1.25;" width="5" x="1918.9967" y="761.4016"/><rect fill="none" height="2.5" style="stroke:#2FA4E7;stroke-width:1.25;" width="5" x="1918.9967" y="766.4016"/><text fill="#2FA4E7" font-family="'Verdana'" font-size="15" lengthAdjust="spacing" textLength="105.2783" x="1803.7184" y="797.8249">Export Engine</text></g><!--entity Correlation--><g class="entity" data-qualified-name="Processing.Correlation" data-source-line="24" id="ent0016"><rect fill="none" height="67.4609" rx="5" ry="5" style="stroke:#2FA4E7;stroke-width:1.25;" width="201.9824" x="1325.3684" y="752.6516"/><rect fill="none" height="12.5" style="stroke:#2FA4E7;stroke-width:1.25;" width="18.75" x="1502.3508" y="758.9016"/><rect fill="none" height="2.5" style="stroke:#2FA4E7;stroke-width:1.25;" width="5" x="1499.8508" y="761.4016"/><rect fill="none" height="2.5" style="stroke:#2FA4E7;stroke-width:1.25;" width="5" x="1499.8508" y="766.4016"/><text fill="#2FA4E7" font-family="'Verdana'" font-size="15" lengthAdjust="spacing" textLength="139.4824" x="1350.3684" y="797.8249">Correlation Engine</text></g><!--entity Normalizer--><g class="entity" data-qualified-name="Processing.Normalizer" data-source-line="25" id="ent0017"><rect fill="none" height="67.4609" rx="5" ry="5" style="stroke:#2FA4E7;stroke-width:1.25;" width="144.4727" x="1136.6184" y="752.6516"/><rect fill="none" height="12.5" style="stroke:#2FA4E7;stroke-width:1.25;" width="18.75" x="1256.0911" y="758.9016"/><rect fill="none" height="2.5" style="stroke:#2FA4E7;stroke-width:1.25;" width="5" x="1253.5911" y="761.4016"/><rect fill="none" height="2.5" style="stroke:#2FA4E7;stroke-width:1.25;" width="5" x="1253.5911" y="766.4016"/><text fill="#2FA4E7" font-family="'Verdana'" font-size="15" lengthAdjust="spacing" textLength="81.9727" x="1161.6184" y="797.8249">Normalizer</text></g><!--entity CrowdSec API--><g class="entity" data-qualified-name="External APIs.CrowdSec API" data-source-line="31" id="ent0020"><rect fill="none" height="67.4609" rx="5" ry="5" style="stroke:#2FA4E7;stroke-width:1.25;" width="165.603" x="689.8059" y="752.6516"/><rect fill="none" height="12.5" style="stroke:#2FA4E7;stroke-width:1.25;" width="18.75" x="830.4089" y="758.9016"/><rect fill="none" height="2.5" style="stroke:#2FA4E7;stroke-width:1.25;" width="5" x="827.9089" y="761.4016"/><rect fill="none" height="2.5" style="stroke:#2FA4E7;stroke-width:1.25;" width="5" x="827.9089" y="766.4016"/><text fill="#2FA4E7" font-family="'Verdana'" font-size="15" lengthAdjust="spacing" textLength="103.103" x="714.8059" y="797.8249">CrowdSec API</text></g><!--entity MISP Instance--><g class="entity" data-qualified-name="External APIs.MISP Instance" data-source-line="32" id="ent0021"><rect fill="none" height="67.4609" rx="5" ry="5" style="stroke:#2FA4E7;stroke-width:1.25;" width="167.002" x="899.1059" y="752.6516"/><rect fill="none" height="12.5" style="stroke:#2FA4E7;stroke-width:1.25;" width="18.75" x="1041.1079" y="758.9016"/><rect fill="none" height="2.5" style="stroke:#2FA4E7;stroke-width:1.25;" width="5" x="1038.6079" y="761.4016"/><rect fill="none" height="2.5" style="stroke:#2FA4E7;stroke-width:1.25;" width="5" x="1038.6079" y="766.4016"/><text fill="#2FA4E7" font-family="'Verdana'" font-size="15" lengthAdjust="spacing" textLength="104.502" x="924.1059" y="797.8249">MISP Instance</text></g><!--entity MalwareBazaar API--><g class="entity" data-qualified-name="External APIs.MalwareBazaar API" data-source-line="33" id="ent0022"><rect fill="none" height="67.4609" rx="5" ry="5" style="stroke:#2FA4E7;stroke-width:1.25;" width="206.062" x="44.5809" y="752.6516"/><rect fill="none" height="12.5" style="stroke:#2FA4E7;stroke-width:1.25;" width="18.75" x="225.6429" y="758.9016"/><rect fill="none" height="2.5" style="stroke:#2FA4E7;stroke-width:1.25;" width="5" x="223.1429" y="761.4016"/><rect fill="none" height="2.5" style="stroke:#2FA4E7;stroke-width:1.25;" width="5" x="223.1429" y="766.4016"/><text fill="#2FA4E7" font-family="'Verdana'" font-size="15" lengthAdjust="spacing" textLength="143.562" x="69.5809" y="797.8249">MalwareBazaar API</text></g><!--entity MWDB API--><g class="entity" data-qualified-name="External APIs.MWDB API" data-source-line="34" id="ent0023"><rect fill="none" height="67.4609" rx="5" ry="5" style="stroke:#2FA4E7;stroke-width:1.25;" width="140.6128" x="294.7934" y="752.6516"/><rect fill="none" height="12.5" style="stroke:#2FA4E7;stroke-width:1.25;" width="18.75" x="410.4062" y="758.9016"/><rect fill="none" height="2.5" style="stroke:#2FA4E7;stroke-width:1.25;" width="5" x="407.9062" y="761.4016"/><rect fill="none" height="2.5" style="stroke:#2FA4E7;stroke-width:1.25;" width="5" x="407.9062" y="766.4016"/><text fill="#2FA4E7" font-family="'Verdana'" font-size="15" lengthAdjust="spacing" textLength="78.1128" x="319.7934" y="797.8249">MWDB API</text></g><!--entity abuse.ch APIs--><g class="entity" data-qualified-name="External APIs.abuse.ch APIs" data-source-line="35" id="ent0024"><rect fill="none" height="67.4609" rx="5" ry="5" style="stroke:#2FA4E7;stroke-width:1.25;" width="166.5991" x="479.3059" y="752.6516"/><rect fill="none" height="12.5" style="stroke:#2FA4E7;stroke-width:1.25;" width="18.75" x="620.905" y="758.9016"/><rect fill="none" height="2.5" style="stroke:#2FA4E7;stroke-width:1.25;" width="5" x="618.405" y="761.4016"/><rect fill="none" height="2.5" style="stroke:#2FA4E7;stroke-width:1.25;" width="5" x="618.405" y="766.4016"/><text fill="#2FA4E7" font-family="'Verdana'" font-size="15" lengthAdjust="spacing" textLength="104.0991" x="504.3059" y="797.8249">abuse.ch APIs</text></g><!--entity Worker--><g class="entity" data-qualified-name="Worker" data-source-line="28" id="ent0018"><rect fill="none" height="67.4609" rx="5" ry="5" style="stroke:#2FA4E7;stroke-width:1.25;" width="211.3428" x="834.4309" y="330.2766"/><rect fill="none" height="12.5" style="stroke:#2FA4E7;stroke-width:1.25;" width="18.75" x="1020.7737" y="336.5266"/><rect fill="none" height="2.5" style="stroke:#2FA4E7;stroke-width:1.25;" width="5" x="1018.2737" y="339.0266"/><rect fill="none" height="2.5" style="stroke:#2FA4E7;stroke-width:1.25;" width="5" x="1018.2737" y="344.0266"/><text fill="#2FA4E7" font-family="'Verdana'" font-size="15" lengthAdjust="spacing" textLength="148.8428" x="859.4309" y="375.4499">Background Worker</text></g><!--entity Postgres--><g class="entity" data-qualified-name="Postgres" data-source-line="38" id="ent0025"><path d="M1423.0934,961.2891 C1423.0934,948.7891 1485.1039,948.7891 1485.1039,948.7891 C1485.1039,948.7891 1547.1144,948.7891 1547.1144,961.2891 L1547.1144,1002.5 C1547.1144,1015 1485.1039,1015 1485.1039,1015 C1485.1039,1015 1423.0934,1015 1423.0934,1002.5 L1423.0934,961.2891" fill="none" style="stroke:#2FA4E7;stroke-width:1.25;"/><path d="M1423.0934,961.2891 C1423.0934,973.7891 1485.1039,973.7891 1485.1039,973.7891 C1485.1039,973.7891 1547.1144,973.7891 1547.1144,961.2891" fill="none" style="stroke:#2FA4E7;stroke-width:1.25;"/><text fill="#2FA4E7" font-family="'Verdana'" font-size="15" lengthAdjust="spacing" textLength="86.521" x="1441.8434" y="998.9624">PostgreSQL</text></g><!--entity Redis--><g class="entity" data-qualified-name="Redis" data-source-line="39" id="ent0026"><rect fill="none" height="54.9609" rx="43.75" ry="43.75" style="stroke:#DD5600;stroke-width:1.25;" width="130.0708" x="1797.5684" y="954.4141"/><text fill="#DD5600" font-family="'Verdana'" font-size="15" lengthAdjust="spacing" textLength="92.5708" x="1816.3184" y="987.0874">Redis Cache</text></g><!--entity Nginx--><g class="entity" data-qualified-name="Nginx" data-source-line="40" id="ent0027"><rect fill="none" height="84.9219" rx="5" ry="5" style="stroke:#2FA4E7;stroke-width:1.25;" width="170.3784" x="2202.4184" y="104.1016"/><rect fill="none" height="12.5" style="stroke:#2FA4E7;stroke-width:1.25;" width="18.75" x="2347.7968" y="110.3516"/><rect fill="none" height="2.5" style="stroke:#2FA4E7;stroke-width:1.25;" width="5" x="2345.2968" y="112.8516"/><rect fill="none" height="2.5" style="stroke:#2FA4E7;stroke-width:1.25;" width="5" x="2345.2968" y="117.8516"/><text fill="#2FA4E7" font-family="'Verdana'" font-size="15" lengthAdjust="spacing" textLength="107.8784" x="2227.4184" y="149.2749">Reverse Proxy</text><text fill="#2FA4E7" font-family="'Verdana'" font-size="15" lengthAdjust="spacing" textLength="43.2935" x="2227.4184" y="166.7358">Nginx</text></g><g class="entity" data-qualified-name="GMN59" data-source-line="82" id="ent0060"><path d="M2759.8809,735.2391 L2759.8809,837.5438 A5,5 0 0 0 2764.8809,842.5438 L3097.835,842.5438 A5,5 0 0 0 3102.835,837.5438 L3102.835,742.7391 L3090.335,730.2391 L2764.8809,730.2391 A5,5 0 0 0 2759.8809,735.2391" fill="none" style="stroke:#033C73;stroke-width:1.25;"/><path d="M3090.335,730.2391 L3090.335,740.2391 A2.5,2.5 0 0 0 3092.835,742.7391 L3102.835,742.7391 L3090.335,730.2391" fill="none" style="stroke:#033C73;stroke-width:1.25;"/><text fill="#033C73" font-family="'Verdana'" font-size="15" lengthAdjust="spacing" textLength="140.6543" x="2773.6309" y="756.6624">17 export formats:</text><text fill="#033C73" font-family="'Verdana'" font-size="15" lengthAdjust="spacing" textLength="192.2241" x="2773.6309" y="774.1233">- Basic: txt, csv, json, xml</text><text fill="#033C73" font-family="'Verdana'" font-size="15" lengthAdjust="spacing" textLength="304.2041" x="2773.6309" y="791.5843">- Firewall: fortigate, checkpoint, paloalto</text><text fill="#033C73" font-family="'Verdana'" font-size="15" lengthAdjust="spacing" textLength="244.6436" x="2773.6309" y="809.0452">- SIEM: sentinel, arcsight, splunk</text><text fill="#033C73" font-family="'Verdana'" font-size="15" lengthAdjust="spacing" textLength="285.8862" x="2773.6309" y="826.5062">- Platforms: elasticsearch, cribl, fidelis</text></g><g class="entity" data-qualified-name="GMN62" data-source-line="90" id="ent0063"><path d="M2493.7309,761.4266 L2493.7309,811.3484 A5,5 0 0 0 2498.7309,816.3484 L2711.4873,816.3484 A5,5 0 0 0 2716.4873,811.3484 L2716.4873,768.9266 L2703.9873,756.4266 L2498.7309,756.4266 A5,5 0 0 0 2493.7309,761.4266" fill="none" style="stroke:#033C73;stroke-width:1.25;"/><path d="M2703.9873,756.4266 L2703.9873,766.4266 A2.5,2.5 0 0 0 2706.4873,768.9266 L2716.4873,768.9266 L2703.9873,756.4266" fill="none" style="stroke:#033C73;stroke-width:1.25;"/><text fill="#033C73" font-family="'Verdana'" font-size="15" lengthAdjust="spacing" textLength="184.0063" x="2507.4809" y="782.8499">Kibana-like query parser</text><text fill="#033C73" font-family="'Verdana'" font-size="15" lengthAdjust="spacing" textLength="150.9448" x="2507.4809" y="800.3108">with RPN evaluation</text></g><g class="entity" data-qualified-name="GMN65" data-source-line="95" id="ent0066"><path d="M1415.7184,539.0266 L1415.7184,606.4094 A5,5 0 0 0 1420.7184,611.4094 L1684.5026,611.4094 A5,5 0 0 0 1689.5026,606.4094 L1689.5026,546.5266 L1677.0026,534.0266 L1420.7184,534.0266 A5,5 0 0 0 1415.7184,539.0266" fill="none" style="stroke:#033C73;stroke-width:1.25;"/><path d="M1677.0026,534.0266 L1677.0026,544.0266 A2.5,2.5 0 0 0 1679.5026,546.5266 L1689.5026,546.5266 L1677.0026,534.0266" fill="none" style="stroke:#033C73;stroke-width:1.25;"/><text fill="#033C73" font-family="'Verdana'" font-size="15" lengthAdjust="spacing" textLength="234.8804" x="1429.4684" y="560.4499">Scheduled by 'schedule' library</text><text fill="#033C73" font-family="'Verdana'" font-size="15" lengthAdjust="spacing" textLength="196.9189" x="1429.4684" y="577.9108">with idempotency support</text><text fill="#033C73" font-family="'Verdana'" font-size="15" lengthAdjust="spacing" textLength="235.0342" x="1429.4684" y="595.3718">and cancel_requested handling</text></g><!--link Nginx to API--><g class="link" data-entity-1="ent0027" data-entity-2="ent0003" data-link-type="dependency" data-source-line="43" id="lnk28"><path d="M2316.6559,189.3516 C2323.1934,200.8766 2329.2059,213.7516 2332.6059,226.5266 C2361.0559,333.6016 2333.3684,379.2266 2265.1059,466.4891 C2242.5184,495.3641 2216.3557,516.1501 2188.2557,534.4251" fill="none" id="Nginx-to-API" style="stroke:#2FA4E7;stroke-width:3.75;"/><polygon fill="#2FA4E7" points="2181.9684,538.5141,2194.1254,536.5721,2187.2078,535.1066,2188.6734,528.189,2181.9684,538.5141" style="stroke:#2FA4E7;stroke-width:3.75;"/><text fill="#343A40" font-family="'Verdana'" font-size="15" lengthAdjust="spacing" textLength="91.875" x="2351.1809" y="369.7999">HTTP/HTTPS</text></g><!--link Nginx to WebUI--><g class="link" data-entity-1="ent0027" data-entity-2="ent0004" data-link-type="dependency" data-source-line="44" id="lnk29"><path d="M2244.1809,189.4391 C2235.0684,200.5766 2226.6184,213.2391 2221.3559,226.5266 C2208.0934,260.0016 2207.3877,294.2713 2209.4502,322.6713" fill="none" id="Nginx-to-WebUI" style="stroke:#2FA4E7;stroke-width:3.75;"/><polygon fill="#2FA4E7" points="2209.9934,330.1516,2214.1654,318.569,2209.5407,323.918,2204.1917,319.2933,2209.9934,330.1516" style="stroke:#2FA4E7;stroke-width:3.75;"/><text fill="#343A40" font-family="'Verdana'" font-size="15" lengthAdjust="spacing" textLength="91.875" x="2228.8559" y="247.9499">HTTP/HTTPS</text></g><!--link API to Security--><g class="link" data-entity-1="ent0003" data-entity-2="ent0005" data-link-type="dependency" data-source-line="45" id="lnk30"><path d="M2088.6559,607.0141 C2078.2059,619.0766 2068.0809,633.5516 2062.6059,648.9016 C2050.2184,683.6516 2062.1006,717.8411 2077.0131,745.6661" fill="none" id="API-to-Security" style="stroke:#2FA4E7;stroke-width:3.75;"/><polygon fill="#2FA4E7" points="2080.5559,752.2766,2079.6487,739.999,2077.6036,746.7678,2070.8347,744.7227,2080.5559,752.2766" style="stroke:#2FA4E7;stroke-width:3.75;"/><text fill="#343A40" font-family="'Verdana'" font-size="15" lengthAdjust="spacing" textLength="34.3652" x="2070.1059" y="670.3249">uses</text></g><!--link API to QueryEngine--><g class="link" data-entity-1="ent0003" data-entity-2="ent0014" data-link-type="dependency" data-source-line="46" id="lnk31"><path d="M2056.9809,584.8266 C1979.9809,599.5641 1851.8309,631.1141 1756.3559,690.1516 C1728.7309,707.2391 1707.0332,726.8359 1687.5457,746.8859" fill="none" id="API-to-QueryEngine" style="stroke:#2FA4E7;stroke-width:3.75;"/><polygon fill="#2FA4E7" points="1682.3184,752.2641,1693.7449,747.6816,1686.6745,747.7822,1686.5739,740.7119,1682.3184,752.2641" style="stroke:#2FA4E7;stroke-width:3.75;"/><text fill="#343A40" font-family="'Verdana'" font-size="15" lengthAdjust="spacing" textLength="55.6348" x="1838.4184" y="670.3249">queries</text></g><!--link API to ExportEngine--><g class="link" data-entity-1="ent0003" data-entity-2="ent0015" data-link-type="dependency" data-source-line="47" id="lnk32"><path d="M2056.9184,600.9391 C2030.3809,613.3766 2000.5059,629.6766 1976.3559,648.9016 C1938.9934,678.6641 1909.4815,716.1821 1888.6065,746.0071" fill="none" id="API-to-ExportEngine" style="stroke:#2FA4E7;stroke-width:3.75;"/><polygon fill="#2FA4E7" points="1884.3059,752.1516,1894.8532,745.8019,1887.8898,747.0312,1886.6605,740.0678,1884.3059,752.1516" style="stroke:#2FA4E7;stroke-width:3.75;"/><text fill="#343A40" font-family="'Verdana'" font-size="15" lengthAdjust="spacing" textLength="56.6675" x="1983.8559" y="670.3249">exports</text></g><!--link API to Correlation--><g class="link" data-entity-1="ent0003" data-entity-2="ent0016" data-link-type="dependency" data-source-line="48" id="lnk33"><path d="M2056.9934,582.7641 C1925.2309,600.8641 1637.1309,644.4141 1548.8559,690.1516 C1516.8434,706.7516 1490.4358,727.0623 1467.1358,747.3623" fill="none" id="API-to-Correlation" style="stroke:#2FA4E7;stroke-width:3.75;"/><polygon fill="#2FA4E7" points="1461.4809,752.2891,1473.2477,748.6688,1466.1933,748.1834,1466.6787,741.1291,1461.4809,752.2891" style="stroke:#2FA4E7;stroke-width:3.75;"/><text fill="#343A40" font-family="'Verdana'" font-size="15" lengthAdjust="spacing" textLength="65.8521" x="1674.0809" y="670.3249">analyzes</text></g><!--link API to JobAdmin--><g class="link" data-entity-1="ent0003" data-entity-2="ent0006" data-link-type="dependency" data-source-line="49" id="lnk34"><path d="M2127.0309,607.0016 C2131.0934,630.7641 2140.3309,661.7391 2161.3559,680.1516 C2177.5809,694.3766 2189.1309,681.4266 2208.8559,690.1516 C2238.9434,703.4891 2263.0739,719.7951 2286.7864,738.6576" fill="none" id="API-to-JobAdmin" style="stroke:#2FA4E7;stroke-width:3.75;"/><polygon fill="#2FA4E7" points="2292.6559,743.3266,2286.9644,732.4101,2287.7647,739.4358,2280.7391,740.2361,2292.6559,743.3266" style="stroke:#2FA4E7;stroke-width:3.75;"/><text fill="#343A40" font-family="'Verdana'" font-size="15" lengthAdjust="spacing" textLength="143.7305" x="2168.8559" y="670.3249">manages sync jobs</text></g><!--link WebUI to API--><g class="link" data-entity-1="ent0004" data-entity-2="ent0003" data-link-type="dependency" data-source-line="51" id="lnk35"><path d="M2199.5934,397.9266 C2182.7934,436.4266 2158.0312,493.1528 2141.1937,531.7278" fill="none" id="WebUI-to-API" style="stroke:#2FA4E7;stroke-width:3.75;"/><polygon fill="#2FA4E7" points="2138.1934,538.6016,2147.2764,530.2912,2140.6937,532.8735,2138.1114,526.2908,2138.1934,538.6016" style="stroke:#2FA4E7;stroke-width:3.75;"/><text fill="#343A40" font-family="'Verdana'" font-size="15" lengthAdjust="spacing" textLength="57.8174" x="2189.6809" y="456.6624">internal</text></g><!--link WebUI to JobAdmin--><g class="link" data-entity-1="ent0004" data-entity-2="ent0006" data-link-type="dependency" data-source-line="52" id="lnk36"><path d="M2241.7809,398.1891 C2250.2184,409.4016 2258.8809,422.3516 2265.1059,435.2391 C2315.2559,539.0016 2331.5009,668.626 2336.9759,736.276" fill="none" id="WebUI-to-JobAdmin" style="stroke:#2FA4E7;stroke-width:3.75;"/><polygon fill="#2FA4E7" points="2337.5809,743.7516,2341.6571,732.1349,2337.0767,737.5219,2331.6897,732.9416,2337.5809,743.7516" style="stroke:#2FA4E7;stroke-width:3.75;"/><text fill="#343A40" font-family="'Verdana'" font-size="15" lengthAdjust="spacing" textLength="105.7544" x="2331.5434" y="578.5124">admin actions</text></g><!--link Worker to CrowdSec--><g class="link" data-entity-1="ent0018" data-entity-2="ent0008" data-link-type="dependency" data-source-line="54" id="lnk37"><path d="M955.5559,397.9266 C973.7559,436.4266 1000.6253,493.2462 1018.8628,531.8212" fill="none" id="Worker-to-CrowdSec" style="stroke:#2FA4E7;stroke-width:3.75;"/><polygon fill="#2FA4E7" points="1022.0684,538.6016,1021.7802,526.2939,1019.3971,532.9512,1012.7397,530.5681,1022.0684,538.6016" style="stroke:#2FA4E7;stroke-width:3.75;"/><text fill="#343A40" font-family="'Verdana'" font-size="15" lengthAdjust="spacing" textLength="58.4692" x="993.4309" y="456.6624">triggers</text></g><!--link Worker to MISP--><g class="link" data-entity-1="ent0018" data-entity-2="ent0009" data-link-type="dependency" data-source-line="55" id="lnk38"><path d="M1020.0184,398.2266 C1065.1809,418.2891 1121.8434,445.9016 1168.8559,476.4891 C1196.9184,494.7516 1220.1736,514.1389 1241.6111,533.6639" fill="none" id="Worker-to-MISP" style="stroke:#2FA4E7;stroke-width:3.75;"/><polygon fill="#2FA4E7" points="1247.1559,538.7141,1242.2054,527.4422,1242.5352,534.5056,1235.4718,534.8354,1247.1559,538.7141" style="stroke:#2FA4E7;stroke-width:3.75;"/><text fill="#343A40" font-family="'Verdana'" font-size="15" lengthAdjust="spacing" textLength="58.4692" x="1158.9184" y="456.6624">triggers</text></g><!--link Worker to Bazaar--><g class="link" data-entity-1="ent0018" data-entity-2="ent0010" data-link-type="dependency" data-source-line="56" id="lnk39"><path d="M833.8559,375.9016 C724.5809,389.5016 551.1059,418.6016 411.3559,476.4891 C372.5934,492.5391 338.6179,513.6457 309.2554,534.1457" fill="none" id="Worker-to-Bazaar" style="stroke:#2FA4E7;stroke-width:3.75;"/><polygon fill="#2FA4E7" points="303.1059,538.4391,315.1925,536.0986,308.2305,534.8612,309.4679,527.8993,303.1059,538.4391" style="stroke:#2FA4E7;stroke-width:3.75;"/><text fill="#343A40" font-family="'Verdana'" font-size="15" lengthAdjust="spacing" textLength="58.4692" x="530.2809" y="456.6624">triggers</text></g><!--link Worker to MWDB--><g class="link" data-entity-1="ent0018" data-entity-2="ent0011" data-link-type="dependency" data-source-line="57" id="lnk40"><path d="M834.1184,396.8891 C777.2684,416.0141 707.1059,443.1516 648.8559,476.4891 C618.6059,493.7891 593.6086,513.5438 571.0336,533.4313" fill="none" id="Worker-to-MWDB" style="stroke:#2FA4E7;stroke-width:3.75;"/><polygon fill="#2FA4E7" points="565.4059,538.3891,577.1526,534.7043,570.0957,534.2576,570.5423,527.2007,565.4059,538.3891" style="stroke:#2FA4E7;stroke-width:3.75;"/><text fill="#343A40" font-family="'Verdana'" font-size="15" lengthAdjust="spacing" textLength="58.4692" x="732.8309" y="456.6624">triggers</text></g><!--link Worker to AbuseCh--><g class="link" data-entity-1="ent0018" data-entity-2="ent0012" data-link-type="dependency" data-source-line="58" id="lnk41"><path d="M914.3559,397.9266 C884.0184,436.4266 838.5482,494.1359 808.1482,532.7109" fill="none" id="Worker-to-AbuseCh" style="stroke:#2FA4E7;stroke-width:3.75;"/><polygon fill="#2FA4E7" points="803.5059,538.6016,814.3964,532.8605,807.3745,533.6927,806.5422,526.6708,803.5059,538.6016" style="stroke:#2FA4E7;stroke-width:3.75;"/><text fill="#343A40" font-family="'Verdana'" font-size="15" lengthAdjust="spacing" textLength="58.4692" x="890.4059" y="456.6624">triggers</text></g><!--link CrowdSec to CrowdSec API--><g class="link" data-entity-1="ent0008" data-entity-2="ent0020" data-link-type="dependency" data-source-line="60" id="lnk42"><path d="M979.1309,606.9141 C956.9684,618.0141 931.1059,629.3641 906.3559,636.4516 C882.7059,643.2141 814.2684,632.0391 796.3559,648.9016 C768.5684,675.0766 765.6163,713.8067 767.7663,745.0692" fill="none" id="CrowdSec-to-CrowdSec API" style="stroke:#2FA4E7;stroke-width:3.75;"/><polygon fill="#2FA4E7" points="768.2809,752.5516,772.4973,740.985,767.8521,746.3163,762.5208,741.6711,768.2809,752.5516" style="stroke:#2FA4E7;stroke-width:3.75;"/><text fill="#343A40" font-family="'Verdana'" font-size="15" lengthAdjust="spacing" textLength="48.1714" x="803.8559" y="670.3249">HTTPS</text></g><!--link MISP to MISP Instance--><g class="link" data-entity-1="ent0009" data-entity-2="ent0021" data-link-type="dependency" data-source-line="61" id="lnk43"><path d="M1232.3559,606.8141 C1213.2934,618.0516 1190.8059,629.5141 1168.8559,636.4516 C1143.5559,644.4391 1071.8934,633.7641 1050.1059,648.9016 C1015.4309,673.0141 999.6352,712.9473 991.2352,744.9473" fill="none" id="MISP-to-MISP Instance" style="stroke:#2FA4E7;stroke-width:3.75;"/><polygon fill="#2FA4E7" points="989.3309,752.2016,997.0234,742.5897,990.9178,746.1564,987.3511,740.0507,989.3309,752.2016" style="stroke:#2FA4E7;stroke-width:3.75;"/><text fill="#343A40" font-family="'Verdana'" font-size="15" lengthAdjust="spacing" textLength="90.1978" x="1057.6059" y="670.3249">HTTPS/JSON</text></g><!--link Bazaar to MalwareBazaar API--><g class="link" data-entity-1="ent0010" data-entity-2="ent0022" data-link-type="dependency" data-source-line="62" id="lnk44"><path d="M204.6184,606.8141 C189.9559,618.3141 175.5934,632.5266 166.3559,648.9016 C148.4184,680.7266 145.1311,715.6771 145.4686,744.6771" fill="none" id="Bazaar-to-MalwareBazaar API" style="stroke:#2FA4E7;stroke-width:3.75;"/><polygon fill="#2FA4E7" points="145.5559,752.1766,150.4247,740.8691,145.4832,745.927,140.4253,740.9855,145.5559,752.1766" style="stroke:#2FA4E7;stroke-width:3.75;"/><text fill="#343A40" font-family="'Verdana'" font-size="15" lengthAdjust="spacing" textLength="48.1714" x="173.8559" y="670.3249">HTTPS</text></g><!--link MWDB to MWDB API--><g class="link" data-entity-1="ent0011" data-entity-2="ent0023" data-link-type="dependency" data-source-line="63" id="lnk45"><path d="M477.6184,606.9016 C457.2684,618.1391 433.3059,629.5891 410.1059,636.4516 C382.0059,644.7516 298.5684,627.2391 278.8559,648.9016 C269.5059,659.1766 274.1684,667.0766 278.8559,680.1516 C288.7184,707.6891 304.0076,727.8313 322.5826,746.7938" fill="none" id="MWDB-to-MWDB API" style="stroke:#2FA4E7;stroke-width:3.75;"/><polygon fill="#2FA4E7" points="327.8309,752.1516,323.5303,740.6161,323.4574,747.6868,316.3867,747.6138,327.8309,752.1516" style="stroke:#2FA4E7;stroke-width:3.75;"/><text fill="#343A40" font-family="'Verdana'" font-size="15" lengthAdjust="spacing" textLength="48.1714" x="286.3559" y="670.3249">HTTPS</text></g><!--link AbuseCh to abuse.ch APIs--><g class="link" data-entity-1="ent0012" data-entity-2="ent0024" data-link-type="dependency" data-source-line="64" id="lnk46"><path d="M720.3184,606.9516 C698.5809,618.0516 673.1934,629.4016 648.8559,636.4516 C624.9559,643.3641 554.1934,630.3641 537.6059,648.9016 C512.4434,677.0516 524.1532,715.2241 539.6032,745.7116" fill="none" id="AbuseCh-to-abuse.ch APIs" style="stroke:#2FA4E7;stroke-width:3.75;"/><polygon fill="#2FA4E7" points="542.9934,752.4016,542.368,740.1064,540.1682,746.8266,533.448,744.6267,542.9934,752.4016" style="stroke:#2FA4E7;stroke-width:3.75;"/><text fill="#343A40" font-family="'Verdana'" font-size="15" lengthAdjust="spacing" textLength="48.1714" x="545.1059" y="670.3249">HTTPS</text></g><!--link CrowdSec to Normalizer--><g class="link" data-entity-1="ent0008" data-entity-2="ent0017" data-link-type="dependency" data-source-line="66" id="lnk47"><path d="M1114.3434,607.0016 C1133.0434,618.0516 1151.5434,631.9766 1165.1059,648.9016 C1189.1684,678.9641 1198.911,715.1639 1203.811,744.8889" fill="none" id="CrowdSec-to-Normalizer" style="stroke:#2FA4E7;stroke-width:3.75;"/><polygon fill="#2FA4E7" points="1205.0309,752.2891,1208.1345,740.3756,1204.0144,746.1223,1198.2677,742.0021,1205.0309,752.2891" style="stroke:#2FA4E7;stroke-width:3.75;"/><text fill="#343A40" font-family="'Verdana'" font-size="15" lengthAdjust="spacing" textLength="81.9067" x="1190.7809" y="670.3249">normalizes</text></g><!--link MISP to Normalizer--><g class="link" data-entity-1="ent0009" data-entity-2="ent0017" data-link-type="dependency" data-source-line="67" id="lnk48"><path d="M1301.6684,606.6516 C1312.2309,627.9891 1321.1059,656.2016 1311.3559,680.1516 C1309.4684,684.7891 1276.6615,717.9381 1247.4615,746.9756" fill="none" id="MISP-to-Normalizer" style="stroke:#2FA4E7;stroke-width:3.75;"/><polygon fill="#2FA4E7" points="1242.1434,752.2641,1253.6462,747.8767,1246.5752,747.857,1246.5949,740.786,1242.1434,752.2641" style="stroke:#2FA4E7;stroke-width:3.75;"/><text fill="#343A40" font-family="'Verdana'" font-size="15" lengthAdjust="spacing" textLength="81.9067" x="1323.0684" y="670.3249">normalizes</text></g><!--link Bazaar to Normalizer--><g class="link" data-entity-1="ent0010" data-entity-2="ent0017" data-link-type="dependency" data-source-line="68" id="lnk49"><path d="M295.0934,606.9266 C325.6184,632.3391 371.7184,665.5516 418.8559,680.1516 C489.7059,702.1141 1016.3559,665.6141 1086.3559,690.1516 C1122.1684,702.7141 1150.3113,725.0282 1173.1988,747.2407" fill="none" id="Bazaar-to-Normalizer" style="stroke:#2FA4E7;stroke-width:3.75;"/><polygon fill="#2FA4E7" points="1178.5809,752.4641,1173.99,741.041,1174.0959,748.1113,1167.0256,748.2171,1178.5809,752.4641" style="stroke:#2FA4E7;stroke-width:3.75;"/><text fill="#343A40" font-family="'Verdana'" font-size="15" lengthAdjust="spacing" textLength="81.9067" x="426.3559" y="670.3249">normalizes</text></g><!--link MWDB to Normalizer--><g class="link" data-entity-1="ent0011" data-entity-2="ent0017" data-link-type="dependency" data-source-line="69" id="lnk50"><path d="M561.0809,606.7641 C587.3559,632.0891 627.4934,665.2516 670.1059,680.1516 C713.7809,695.4266 1042.7684,674.6516 1086.3559,690.1516 C1121.8559,702.7891 1149.7577,724.7949 1172.6577,746.8824" fill="none" id="MWDB-to-Normalizer" style="stroke:#2FA4E7;stroke-width:3.75;"/><polygon fill="#2FA4E7" points="1178.0559,752.0891,1173.4297,740.6803,1173.5574,747.7502,1166.4875,747.8779,1178.0559,752.0891" style="stroke:#2FA4E7;stroke-width:3.75;"/><text fill="#343A40" font-family="'Verdana'" font-size="15" lengthAdjust="spacing" textLength="81.9067" x="677.6059" y="670.3249">normalizes</text></g><!--link AbuseCh to Normalizer--><g class="link" data-entity-1="ent0012" data-entity-2="ent0017" data-link-type="dependency" data-source-line="70" id="lnk51"><path d="M815.0184,606.9641 C847.7184,635.0016 893.2809,671.9891 915.1059,680.1516 C986.5184,706.8766 1014.9684,663.3766 1086.3559,690.1516 C1121.6309,703.3891 1149.53,725.3738 1172.4925,747.2863" fill="none" id="AbuseCh-to-Normalizer" style="stroke:#2FA4E7;stroke-width:3.75;"/><polygon fill="#2FA4E7" points="1177.9184,752.4641,1173.2314,741.0801,1173.3968,748.1492,1166.3277,748.3146,1177.9184,752.4641" style="stroke:#2FA4E7;stroke-width:3.75;"/><text fill="#343A40" font-family="'Verdana'" font-size="15" lengthAdjust="spacing" textLength="81.9067" x="922.6059" y="670.3249">normalizes</text></g><!--link Normalizer to Postgres--><g class="link" data-entity-1="ent0017" data-entity-2="ent0025" data-link-type="dependency" data-source-line="72" id="lnk52"><path d="M1242.4934,820.4891 C1270.5434,846.8766 1312.2934,883.9266 1352.6059,911.2891 C1374.5184,926.1641 1393.3132,936.8041 1416.0507,948.3041" fill="none" id="Normalizer-to-Postgres" style="stroke:#2FA4E7;stroke-width:3.75;"/><polygon fill="#2FA4E7" points="1422.7434,951.6891,1414.961,942.1498,1417.1662,948.8683,1410.4478,951.0734,1422.7434,951.6891" style="stroke:#2FA4E7;stroke-width:3.75;"/><text fill="#343A40" font-family="'Verdana'" font-size="15" lengthAdjust="spacing" textLength="58.4106" x="1360.1059" y="901.4624">persists</text></g><!--link QueryEngine to Postgres--><g class="link" data-entity-1="ent0014" data-entity-2="ent0025" data-link-type="dependency" data-source-line="73" id="lnk53"><path d="M1609.5934,820.6016 C1589.4684,837.1891 1565.9684,858.3516 1547.6059,880.0391 C1529.8059,901.0641 1517.178,921.105 1505.6905,941.655" fill="none" id="QueryEngine-to-Postgres" style="stroke:#2FA4E7;stroke-width:3.75;"/><polygon fill="#2FA4E7" points="1502.0309,948.2016,1511.8846,940.8214,1505.0805,942.7461,1503.1559,935.942,1502.0309,948.2016" style="stroke:#2FA4E7;stroke-width:3.75;"/><text fill="#343A40" font-family="'Verdana'" font-size="15" lengthAdjust="spacing" textLength="29.6851" x="1555.1059" y="901.4624">SQL</text></g><!--link ExportEngine to Postgres--><g class="link" data-entity-1="ent0015" data-entity-2="ent0025" data-link-type="dependency" data-source-line="74" id="lnk54"><path d="M1818.5059,820.5141 C1799.9184,833.4891 1777.6809,847.8766 1756.3559,858.8516 C1732.6059,871.0766 1724.7184,869.6641 1700.1059,880.0391 C1648.0809,901.9766 1596.9196,925.9724 1554.3196,946.5849" fill="none" id="ExportEngine-to-Postgres" style="stroke:#2FA4E7;stroke-width:3.75;"/><polygon fill="#2FA4E7" points="1547.5684,949.8516,1559.873,949.4524,1553.1944,947.1293,1555.5175,940.4508,1547.5684,949.8516" style="stroke:#2FA4E7;stroke-width:3.75;"/><text fill="#343A40" font-family="'Verdana'" font-size="15" lengthAdjust="spacing" textLength="29.6851" x="1707.6059" y="901.4624">SQL</text></g><!--link Correlation to Postgres--><g class="link" data-entity-1="ent0016" data-entity-2="ent0025" data-link-type="dependency" data-source-line="75" id="lnk55"><path d="M1427.4809,820.4891 C1429.1809,845.9016 1433.4184,881.6391 1443.8559,911.2891 C1448.3684,924.1141 1451.4384,930.7839 1458.4134,942.0714" fill="none" id="Correlation-to-Postgres" style="stroke:#2FA4E7;stroke-width:3.75;"/><polygon fill="#2FA4E7" points="1462.3559,948.4516,1460.6955,936.253,1459.0705,943.1348,1452.1887,941.5097,1462.3559,948.4516" style="stroke:#2FA4E7;stroke-width:3.75;"/><text fill="#343A40" font-family="'Verdana'" font-size="15" lengthAdjust="spacing" textLength="29.6851" x="1451.3559" y="901.4624">SQL</text></g><!--link API to Redis--><g class="link" data-entity-1="ent0003" data-entity-2="ent0026" data-link-type="dependency" data-source-line="77" id="lnk56"><path d="M2189.8559,607.0141 C2215.4559,618.3391 2245.4184,629.8266 2273.8559,636.4516 C2366.1559,657.9516 3060.2309,621.0641 3125.1059,690.1516 C3176.4184,744.8141 3175.5059,803.3516 3125.1059,858.8516 C3043.9559,948.2016 2183.2666,973.6717 1935.6666,979.1967" fill="none" id="API-to-Redis" style="stroke:#2FA4E7;stroke-width:3.75;"/><polygon fill="#2FA4E7" points="1928.1684,979.3641,1939.5272,984.1118,1934.4169,979.2246,1939.3041,974.1143,1928.1684,979.3641" style="stroke:#2FA4E7;stroke-width:3.75;"/><text fill="#343A40" font-family="'Verdana'" font-size="15" lengthAdjust="spacing" textLength="52.2363" x="3170.7559" y="792.1874">caches</text></g><!--link QueryEngine to Redis--><g class="link" data-entity-1="ent0014" data-entity-2="ent0026" data-link-type="dependency" data-source-line="78" id="lnk57"><path d="M1687.7309,820.2641 C1714.6684,845.2391 1752.7934,880.5141 1786.3559,911.2891 C1801.7809,925.4391 1813.4919,936.0962 1827.6794,948.9837" fill="none" id="QueryEngine-to-Redis" style="stroke:#2FA4E7;stroke-width:3.75;"/><polygon fill="#2FA4E7" points="1833.2309,954.0266,1828.2655,942.7613,1828.6046,949.8242,1821.5417,950.1633,1833.2309,954.0266" style="stroke:#2FA4E7;stroke-width:3.75;"/><text fill="#343A40" font-family="'Verdana'" font-size="15" lengthAdjust="spacing" textLength="52.2363" x="1793.8559" y="901.4624">caches</text></g><!--link ExportEngine to Redis--><g class="link" data-entity-1="ent0015" data-entity-2="ent0026" data-link-type="dependency" data-source-line="79" id="lnk58"><path d="M1862.6059,820.3766 C1862.6059,858.0266 1862.6059,911.5891 1862.6059,946.4766" fill="none" id="ExportEngine-to-Redis" style="stroke:#2FA4E7;stroke-width:3.75;"/><polygon fill="#2FA4E7" points="1862.6059,953.9766,1867.6059,942.7266,1862.6059,947.7266,1857.6059,942.7266,1862.6059,953.9766" style="stroke:#2FA4E7;stroke-width:3.75;"/><text fill="#343A40" font-family="'Verdana'" font-size="15" lengthAdjust="spacing" textLength="52.2363" x="1870.1059" y="901.4624">caches</text></g><!--link ExportEngine to GMN59--><g class="link" data-entity-1="ent0015" data-entity-2="ent0060" data-link-type="association" data-source-line="82" id="lnk61"><path d="M1892.6184,752.2141 C1921.3809,722.2641 1967.7934,680.8391 2018.2309,663.3016 C2091.5684,637.8016 2641.9684,643.3016 2716.9809,663.3016 C2766.3309,676.4641 2816.1184,703.9891 2855.2809,729.6766" fill="none" id="ExportEngine-GMN59" style="stroke:#2FA4E7;stroke-width:3.75;stroke-dasharray:8.75,8.75;"/></g><!--link QueryEngine to GMN62--><g class="link" data-entity-1="ent0014" data-entity-2="ent0063" data-link-type="association" data-source-line="90" id="lnk64"><path d="M1675.3809,752.3766 C1697.6059,722.5391 1734.4184,681.1891 1778.2309,663.3016 C1847.1559,635.1641 2377.8684,638.9891 2448.2309,663.3016 C2501.2434,681.6141 2549.9809,726.0391 2578.6309,756.2016" fill="none" id="QueryEngine-GMN62" style="stroke:#2FA4E7;stroke-width:3.75;stroke-dasharray:8.75,8.75;"/></g><!--link Worker to GMN65--><g class="link" data-entity-1="ent0018" data-entity-2="ent0066" data-link-type="association" data-source-line="95" id="lnk67"><path d="M1046.0309,381.9266 C1139.3559,398.8016 1277.7434,429.2266 1391.3559,476.4891 C1428.2559,491.8391 1466.9184,514.3641 1497.1309,533.6266" fill="none" id="Worker-GMN65" style="stroke:#2FA4E7;stroke-width:3.75;stroke-dasharray:8.75,8.75;"/></g><?plantuml-src TLPDRziu4BtpLypcabt0Rj2zBE13WSPDKVSZTQCMEQJ1Wg8c4ckQr99KOcMn_ts7b6JHYfs3Gyvx73xE1wdVV8LR186sKSZrt3HUIOsCES4LmkjNVp8lFOrMNvUGeNsK0c4EIxEjZKRjuPtafULRncekDhn4EBl57DxMjPA2Usdq6VpBWFxktgvNy9ctQE-1Ew1PPmxq7wjee-6FtfgXQApqRR9YCFM4LWluQ6YhOYlrJ_sxHM_R2y6rG7LHeETIkJ_YGc954lilKVaUiQ1ZQ8t26-lsAfVMF1MqrOX57uEv8trPPUi98PXwaAidRl6IFtDk9wpEsFDktrrEdP2f3rRUE7mbgWaXcfVLmKdMrWXqJkfoVuXl3TeMhdH9gOpheg6RTuohNMsiJocT9UKiZRMeOX9JOcBkUDV6RhcIptsUnccGUNT9Eajh6bt0hR6RdjGD6HFAD0MSNUqyMirLA8iZkI3hVHBvbNO-vFd-MC0JRWZmEEL3ICCUzq5RmJtFkGinDCwN5hDldy-2kdxgcAF0no3VO27fw5nK61bnpkvky14jEQ0SxDgV-fg2jEk244QCdG_ves0v5eqmdxy94c017xv_Nr-4doo1OXCSWe4Te7rJB82EulRs9Bi4_KCpcQ1fOWd6E1tXDCiBu9I4zZbPFJGFOLi2ItJWGklzChbZh1CxdaZgBey9a3ZWyJ_ley6w6kX439bUWBUoB2ceAHopVXpgitvYNQY0ur3VIIdAzYe2uR3w-eHaB4g9-64f3eIBZzdNQzQhwdWlodDq5lHrfA5MzzWWCCA7jRld72eU6uy8UfYuKV8fGgBsf8z1wIb2AlSKXoL0u0rjHgoQ4Y0TbMLQonCETISxAEOZU5hDH-1zMNVzl00HElhbhXFunQuJd6dZ4QYEAW_cONgLllwhRpfu2EVtRa76ELMkauBAR-Td8DpZ37uvesUmswe8lvSMdxXIYx3Aov9x95w5ObCRQhCPr5mPhho9x6nrzMK1ZbvasbFDW5lXWfmPk5erUXD9QmfCaE3e5b3SUIaS4h4YlrRcjEf15gZeNaEwhCEHfWSxV4O-oPnkXBcI6uoNJakIw38CpzkJz1NShAy17xbgkhTYuZGttfjjyDg_1G0P7Q-Wxv02yXRENJyx1oLposqx-2MHzFNXKOiMN5E7o1B4oNtt-lzjaUGuJtugijBtJ3bk_Zy0?></g></svg>