<?xml version="1.0" encoding="us-ascii" standalone="no"?><svg xmlns="http://www.w3.org/2000/svg" xmlns:xlink="http://www.w3.org/1999/xlink" contentStyleType="text/css" height="1342.7083px" preserveAspectRatio="none" style="width:2909px;height:1342px;" version="1.1" viewBox="0 0 2909 1342" width="2909.375px" zoomAndPan="magnify"><defs/><g><rect fill="none" height="51.2916" id="_title" rx="4.1667" ry="4.1667" style="stroke:#BABDBF;stroke-width:1.0416666666666667;" width="586.4583" x="1157.0313" y="20.8333"/><text fill="#2FA4E7" font-family="Verdana" font-size="20.8333" font-weight="bold" lengthAdjust="spacing" textLength="563.5417" x="1168.4896" y="54.5625">IOC Threat Intelligence Service - Deployment Diagram</text><!--cluster DockerHost--><g id="cluster_DockerHost"><polygon fill="none" points="27.0833,100.25,37.5,89.8333,1981.25,89.8333,1981.25,1133.5833,1970.8333,1144,27.0833,1144,27.0833,100.25" style="stroke:#2FA4E7;stroke-width:1.0416666666666667;"/><line style="stroke:#2FA4E7;stroke-width:1.0416666666666667;" x1="1970.8333" x2="1981.25" y1="100.25" y2="89.8333"/><line style="stroke:#2FA4E7;stroke-width:1.0416666666666667;" x1="27.0833" x2="1970.8333" y1="100.25" y2="100.25"/><line style="stroke:#2FA4E7;stroke-width:1.0416666666666667;" x1="1970.8333" x2="1970.8333" y1="100.25" y2="1144"/><text fill="#343A40" font-family="Verdana" font-size="12.5" font-weight="bold" lengthAdjust="spacing" textLength="73.9583" x="963.0208" y="121.9459">Docker Host</text></g><!--cluster Nginx--><g id="cluster_Nginx"><polygon fill="none" points="1277.0833,169,1287.5,158.5833,1478.125,158.5833,1478.125,342.9583,1467.7083,353.375,1277.0833,353.375,1277.0833,169" style="stroke:#2FA4E7;stroke-width:1.0416666666666667;"/><line style="stroke:#2FA4E7;stroke-width:1.0416666666666667;" x1="1467.7083" x2="1478.125" y1="169" y2="158.5833"/><line style="stroke:#2FA4E7;stroke-width:1.0416666666666667;" x1="1277.0833" x2="1467.7083" y1="169" y2="169"/><line style="stroke:#2FA4E7;stroke-width:1.0416666666666667;" x1="1467.7083" x2="1467.7083" y1="169" y2="353.375"/><text fill="#343A40" font-family="Verdana" font-size="12.5" font-style="italic" lengthAdjust="spacing" textLength="65.625" x="1340.625" y="190.6959">&#171;container&#187;</text><text fill="#343A40" font-family="Verdana" font-size="12.5" font-weight="bold" lengthAdjust="spacing" textLength="72.9167" x="1336.9792" y="218.1377">Nginx Edge</text></g><!--cluster App--><g id="cluster_App"><polygon fill="none" points="60.4167,405.4583,70.8333,395.0416,825,395.0416,825,735.6666,814.5833,746.0833,60.4167,746.0833,60.4167,405.4583" style="stroke:#2FA4E7;stroke-width:1.0416666666666667;"/><line style="stroke:#2FA4E7;stroke-width:1.0416666666666667;" x1="814.5833" x2="825" y1="405.4583" y2="395.0416"/><line style="stroke:#2FA4E7;stroke-width:1.0416666666666667;" x1="60.4167" x2="814.5833" y1="405.4583" y2="405.4583"/><line style="stroke:#2FA4E7;stroke-width:1.0416666666666667;" x1="814.5833" x2="814.5833" y1="405.4583" y2="746.0833"/><text fill="#343A40" font-family="Verdana" font-size="12.5" font-style="italic" lengthAdjust="spacing" textLength="65.625" x="405.7292" y="427.1542">&#171;container&#187;</text><text fill="#343A40" font-family="Verdana" font-size="12.5" font-weight="bold" lengthAdjust="spacing" textLength="60.4167" x="408.3333" y="454.596">Flask App</text></g><!--cluster Worker--><g id="cluster_Worker"><polygon fill="none" points="1121.875,587.2291,1132.2917,576.8125,1564.5833,576.8125,1564.5833,969,1554.1667,979.4166,1121.875,979.4166,1121.875,587.2291" style="stroke:#2FA4E7;stroke-width:1.0416666666666667;"/><line style="stroke:#2FA4E7;stroke-width:1.0416666666666667;" x1="1554.1667" x2="1564.5833" y1="587.2291" y2="576.8125"/><line style="stroke:#2FA4E7;stroke-width:1.0416666666666667;" x1="1121.875" x2="1554.1667" y1="587.2291" y2="587.2291"/><line style="stroke:#2FA4E7;stroke-width:1.0416666666666667;" x1="1554.1667" x2="1554.1667" y1="587.2291" y2="979.4166"/><text fill="#343A40" font-family="Verdana" font-size="12.5" font-style="italic" lengthAdjust="spacing" textLength="65.625" x="1306.25" y="608.9251">&#171;container&#187;</text><text fill="#343A40" font-family="Verdana" font-size="12.5" font-weight="bold" lengthAdjust="spacing" textLength="122.9167" x="1277.6042" y="636.3669">Background Worker</text></g><!--cluster Postgres--><g id="cluster_Postgres"><path d="M723.9583,819 C723.9583,808.5833 902.0833,808.5833 902.0833,808.5833 C902.0833,808.5833 1080.2083,808.5833 1080.2083,819 L1080.2083,1100.25 C1080.2083,1110.6666 902.0833,1110.6666 902.0833,1110.6666 C902.0833,1110.6666 723.9583,1110.6666 723.9583,1100.25 L723.9583,819 " fill="none" style="stroke:#2FA4E7;stroke-width:1.0416666666666667;"/><path d="M723.9583,819 C723.9583,829.4166 902.0833,829.4166 902.0833,829.4166 C902.0833,829.4166 1080.2083,829.4166 1080.2083,819 " fill="none" style="stroke:#2FA4E7;stroke-width:1.0416666666666667;"/><text fill="#2FA4E7" font-family="Verdana" font-size="12.5" font-style="italic" lengthAdjust="spacing" textLength="65.625" x="869.2708" y="850.0709">&#171;container&#187;</text><text fill="#2FA4E7" font-family="Verdana" font-size="12.5" font-weight="bold" lengthAdjust="spacing" textLength="90.625" x="856.7708" y="877.5127">PostgreSQL 16</text></g><!--cluster Redis--><g id="cluster_Redis"><rect fill="none" height="286.4583" rx="36.4583" ry="36.4583" style="stroke:#2FA4E7;stroke-width:1.0416666666666667;" width="341.6667" x="1606.25" y="824.2083"/><text fill="#DD5600" font-family="Verdana" font-size="12.5" font-style="italic" lengthAdjust="spacing" textLength="65.625" x="1744.2708" y="847.9876">&#171;container&#187;</text><text fill="#DD5600" font-family="Verdana" font-size="12.5" font-weight="bold" lengthAdjust="spacing" textLength="44.7917" x="1754.6875" y="877.5127">Redis 7</text></g><!--cluster Migrate--><g id="cluster_Migrate"><polygon fill="none" points="866.6667,587.2291,877.0833,576.8125,1080.2083,576.8125,1080.2083,726.8125,1069.7917,737.2291,866.6667,737.2291,866.6667,587.2291" style="stroke:#2FA4E7;stroke-width:1.0416666666666667;"/><line style="stroke:#2FA4E7;stroke-width:1.0416666666666667;" x1="1069.7917" x2="1080.2083" y1="587.2291" y2="576.8125"/><line style="stroke:#2FA4E7;stroke-width:1.0416666666666667;" x1="866.6667" x2="1069.7917" y1="587.2291" y2="587.2291"/><line style="stroke:#2FA4E7;stroke-width:1.0416666666666667;" x1="1069.7917" x2="1069.7917" y1="587.2291" y2="737.2291"/><text fill="#343A40" font-family="Verdana" font-size="12.5" font-style="italic" lengthAdjust="spacing" textLength="65.625" x="936.4583" y="608.9251">&#171;container&#187;</text><text fill="#343A40" font-family="Verdana" font-size="12.5" font-weight="bold" lengthAdjust="spacing" textLength="96.875" x="920.8333" y="636.3669">Migrate Service</text></g><!--cluster External--><g id="cluster_External"><path d="M2034.2176,853.8491 C2046.3553,832.7655 2069.695,826.7925 2082.9321,852.7097 C2096.884,830.9568 2115.3832,826.2486 2131.0847,850.894 C2147.3538,828.9297 2162.2811,827.6409 2180.4107,848.7641 C2193.6484,830.577 2214.1373,825.8134 2226.1938,850.0392 C2236.9508,825.9076 2254.5212,828.7783 2269.1136,846.0646 C2281.467,822.1933 2303.5952,820.1209 2316.1218,845.9006 C2329.3878,823.4363 2349.4394,823.8362 2364.5718,843.7676 C2375.2982,816.65 2400.0008,820.0641 2414.6225,839.5876 C2435.9256,818.0981 2452.0223,823.2292 2465.9403,847.8134 C2476.472,823.515 2497.5734,822.1592 2511.4803,844.5191 C2526.8612,825.5665 2549.5272,826.5347 2559.6196,850.4569 C2572.7459,832.5011 2585.2851,826.9519 2601.4429,847.1322 C2621.7266,826.5652 2638.2184,829.7066 2650.2638,855.7595 C2664.4442,830.7143 2690.2087,831.2239 2702.0833,858.0625 C2706.4685,855.9654 2709.4919,857.6318 2708.9971,862.743 C2735.9687,878.5203 2740.1158,904.3204 2708.7094,919.8034 C2739.32,936.7159 2741.5096,961.5056 2715.248,984.1933 C2740.2282,1004.2747 2746.778,1023.5799 2715.9216,1044.2872 C2736.7931,1072.9147 2732.0656,1100.9247 2694.7917,1111.1875 C2698.302,1111.8626 2700.0907,1113.1484 2698.1373,1116.9795 C2683.5025,1144.1572 2665.3157,1140.3508 2648.0624,1119.7222 C2633.8591,1139.2633 2616.0463,1140.9041 2601.2092,1120.465 C2585.5184,1142.2613 2564.8597,1139.4599 2553.0083,1116.3444 C2540.2634,1135.9886 2525.2247,1142.5472 2509.3209,1119.5834 C2496.9005,1148.0019 2479.4945,1148.4989 2459.6406,1126.9784 C2446.7836,1145.4839 2423.1744,1148.0078 2412.2755,1124.7574 C2398.355,1147.9934 2383.826,1148.4435 2369.0066,1125.6014 C2355.688,1148.3422 2335.4475,1153.1868 2320.1264,1127.628 C2299.6464,1147.3806 2284.3375,1146.3696 2271.0715,1119.9617 C2258.8771,1142.4399 2235.1891,1147.9291 2220.2463,1122.9022 C2207.6442,1143.562 2191.5258,1142.598 2177.9954,1123.8987 C2161.0819,1145.1875 2143.1371,1147.4608 2128.4992,1121.5141 C2114.6847,1145.5074 2093.9796,1140.8274 2080.4653,1121.1836 C2057.9328,1143.2922 2028.7283,1137.4489 2022.9167,1103.8958 C2027.6927,1101.7064 2029.9227,1104.1983 2029.6496,1108.8587 C1992.8212,1096.2481 1989.3971,1066.4461 2020.8347,1044.4873 C1996.2179,1030.0473 1992.7783,1004.9943 2019.7231,989.5117 C1988.0294,965.8826 1995.5667,942.8271 2025.2906,924.4541 C1994.9216,899.7875 1995.6911,871.1069 2030.2083,850.7708 C2032.5865,849.9757 2034.7015,850.9166 2034.2176,853.8491 " fill="none" style="stroke:#2FA4E7;stroke-width:1.0416666666666667;"/><text fill="#343A40" font-family="Verdana" font-size="12.5" font-weight="bold" lengthAdjust="spacing" textLength="83.3333" x="2320.8333" y="874.5501">External APIs</text></g><!--entity TLSEdge--><g id="elem_TLSEdge"><rect fill="none" height="82.3254" rx="4.1667" ry="4.1667" style="stroke:#2FA4E7;stroke-width:1.0416666666666667;" width="131.25" x="1321.875" y="246.0833"/><text fill="#2FA4E7" font-family="Verdana" font-size="12.5" lengthAdjust="spacing" textLength="91.6667" x="1337.5" y="275.0709">TLS 1.2+/HTTP2</text><text fill="#2FA4E7" font-family="Verdana" font-size="12.5" lengthAdjust="spacing" textLength="75" x="1337.5" y="292.096">Rate Limiting</text><text fill="#2FA4E7" font-family="Verdana" font-size="12.5" lengthAdjust="spacing" textLength="100" x="1337.5" y="309.1211">Security Headers</text></g><!--entity Gunicorn--><g id="elem_Gunicorn"><rect fill="none" height="48.2751" rx="4.1667" ry="4.1667" style="stroke:#2FA4E7;stroke-width:1.0416666666666667;" width="119.7917" x="85.9375" y="482.5416"/><text fill="#2FA4E7" font-family="Verdana" font-size="12.5" lengthAdjust="spacing" textLength="88.5417" x="101.5625" y="511.5292">Gunicorn WSGI</text></g><!--entity Flask--><g id="elem_Flask"><rect fill="none" height="48.2751" rx="4.1667" ry="4.1667" style="stroke:#2FA4E7;stroke-width:1.0416666666666667;" width="154.1667" x="242.7083" y="482.5416"/><text fill="#2FA4E7" font-family="Verdana" font-size="12.5" lengthAdjust="spacing" textLength="122.9167" x="258.3333" y="511.5292">Flask App + Admin UI</text></g><!--entity JobCtrl--><g id="elem_JobCtrl"><rect fill="none" height="65.3002" rx="4.1667" ry="4.1667" style="stroke:#2FA4E7;stroke-width:1.0416666666666667;" width="152.0833" x="269.7917" y="655.4583"/><text fill="#2FA4E7" font-family="Verdana" font-size="12.5" lengthAdjust="spacing" textLength="93.75" x="285.4167" y="684.4459">Sync Job Control</text><text fill="#2FA4E7" font-family="Verdana" font-size="12.5" lengthAdjust="spacing" textLength="120.8333" x="285.4167" y="701.471">(retry/cancel/details)</text></g><!--entity ProxyTest--><g id="elem_ProxyTest"><rect fill="none" height="48.2751" rx="4.1667" ry="4.1667" style="stroke:#2FA4E7;stroke-width:1.0416666666666667;" width="131.25" x="433.3333" y="482.5416"/><text fill="#2FA4E7" font-family="Verdana" font-size="12.5" lengthAdjust="spacing" textLength="100" x="448.9583" y="511.5292">Proxy Test Action</text></g><!--entity SentinelJob--><g id="elem_SentinelJob"><rect fill="none" height="48.2751" rx="4.1667" ry="4.1667" style="stroke:#2FA4E7;stroke-width:1.0416666666666667;" width="179.1667" x="601.0417" y="482.5416"/><text fill="#2FA4E7" font-family="Verdana" font-size="12.5" lengthAdjust="spacing" textLength="147.9167" x="616.6667" y="511.5292">Sentinel Graph Export Job</text></g><!--entity Metrics--><g id="elem_Metrics"><rect fill="none" height="48.2751" rx="4.1667" ry="4.1667" style="stroke:#2FA4E7;stroke-width:1.0416666666666667;" width="148.9583" x="458.8542" y="664.3125"/><text fill="#2FA4E7" font-family="Verdana" font-size="12.5" lengthAdjust="spacing" textLength="117.7083" x="474.4792" y="693.3001">Prometheus Metrics</text></g><!--entity Scheduler--><g id="elem_Scheduler"><rect fill="none" height="48.2751" rx="4.1667" ry="4.1667" style="stroke:#2FA4E7;stroke-width:1.0416666666666667;" width="130.2083" x="1150.5208" y="664.3125"/><text fill="#2FA4E7" font-family="Verdana" font-size="12.5" lengthAdjust="spacing" textLength="98.9583" x="1166.1458" y="693.3001">Schedule Service</text></g><!--entity Processor--><g id="elem_Processor"><rect fill="none" height="48.2751" rx="4.1667" ry="4.1667" style="stroke:#2FA4E7;stroke-width:1.0416666666666667;" width="161.4583" x="1317.1875" y="664.3125"/><text fill="#2FA4E7" font-family="Verdana" font-size="12.5" lengthAdjust="spacing" textLength="130.2083" x="1332.8125" y="693.3001">Sync Queue Processor</text></g><!--entity DepRefresh--><g id="elem_DepRefresh"><rect fill="none" height="48.2751" rx="4.1667" ry="4.1667" style="stroke:#2FA4E7;stroke-width:1.0416666666666667;" width="144.7917" x="1147.3958" y="906.5"/><text fill="#2FA4E7" font-family="Verdana" font-size="12.5" lengthAdjust="spacing" textLength="113.5417" x="1163.0208" y="935.4876">Dep Health Refresh</text></g><!--entity CorrRefresh--><g id="elem_CorrRefresh"><rect fill="none" height="48.2751" rx="4.1667" ry="4.1667" style="stroke:#2FA4E7;stroke-width:1.0416666666666667;" width="202.0833" x="1329.1667" y="906.5"/><text fill="#2FA4E7" font-family="Verdana" font-size="12.5" lengthAdjust="spacing" textLength="170.8333" x="1344.7917" y="935.4876">Correlation Snapshot Refresh</text></g><!--entity IndicatorsDB--><g id="elem_IndicatorsDB"><rect fill="none" height="48.2751" rx="4.1667" ry="4.1667" style="stroke:#2FA4E7;stroke-width:1.0416666666666667;" width="110.4167" x="748.9583" y="906.5"/><text fill="#2FA4E7" font-family="Verdana" font-size="12.5" lengthAdjust="spacing" textLength="79.1667" x="764.5833" y="935.4876">Indicators DB</text></g><!--entity Trgm--><g id="elem_Trgm"><rect fill="none" height="48.2751" rx="4.1667" ry="4.1667" style="stroke:#2FA4E7;stroke-width:1.0416666666666667;" width="138.5417" x="896.3542" y="906.5"/><text fill="#2FA4E7" font-family="Verdana" font-size="12.5" lengthAdjust="spacing" textLength="107.2917" x="911.9792" y="935.4876">pg_trgm extension</text></g><!--entity JSONB--><g id="elem_JSONB"><rect fill="none" height="48.2751" rx="4.1667" ry="4.1667" style="stroke:#2FA4E7;stroke-width:1.0416666666666667;" width="120.8333" x="748.9583" y="1037.75"/><text fill="#2FA4E7" font-family="Verdana" font-size="12.5" lengthAdjust="spacing" textLength="89.5833" x="764.5833" y="1066.7376">JSONB columns</text></g><!--entity RateLimit--><g id="elem_RateLimit"><rect fill="none" height="48.2751" rx="4.1667" ry="4.1667" style="stroke:#2FA4E7;stroke-width:1.0416666666666667;" width="128.125" x="1651.5625" y="906.5"/><text fill="#2FA4E7" font-family="Verdana" font-size="12.5" lengthAdjust="spacing" textLength="96.875" x="1667.1875" y="935.4876">Rate Limit Cache</text></g><!--entity QueryCache--><g id="elem_QueryCache"><rect fill="none" height="48.2751" rx="4.1667" ry="4.1667" style="stroke:#2FA4E7;stroke-width:1.0416666666666667;" width="106.25" x="1816.6667" y="906.5"/><text fill="#2FA4E7" font-family="Verdana" font-size="12.5" lengthAdjust="spacing" textLength="75" x="1832.2917" y="935.4876">Query Cache</text></g><!--entity ExportCache--><g id="elem_ExportCache"><rect fill="none" height="48.2751" rx="4.1667" ry="4.1667" style="stroke:#2FA4E7;stroke-width:1.0416666666666667;" width="108.3333" x="1661.4583" y="1037.75"/><text fill="#2FA4E7" font-family="Verdana" font-size="12.5" lengthAdjust="spacing" textLength="77.0833" x="1677.0833" y="1066.7376">Export Cache</text></g><!--entity Alembic--><g id="elem_Alembic"><rect fill="none" height="48.2751" rx="4.1667" ry="4.1667" style="stroke:#2FA4E7;stroke-width:1.0416666666666667;" width="143.75" x="911.4583" y="664.3125"/><text fill="#2FA4E7" font-family="Verdana" font-size="12.5" lengthAdjust="spacing" textLength="112.5" x="927.0833" y="693.3001">Alembic Migrations</text></g><!--entity CrowdSec--><g id="elem_CrowdSec"><rect fill="none" height="48.2751" rx="4.1667" ry="4.1667" style="stroke:#2FA4E7;stroke-width:1.0416666666666667;" width="112.5" x="2260.4167" y="906.5"/><text fill="#2FA4E7" font-family="Verdana" font-size="12.5" lengthAdjust="spacing" textLength="81.25" x="2276.0417" y="935.4876">CrowdSec API</text></g><!--entity MISP--><g id="elem_MISP"><rect fill="none" height="48.2751" rx="4.1667" ry="4.1667" style="stroke:#2FA4E7;stroke-width:1.0416666666666667;" width="114.5833" x="2409.375" y="906.5"/><text fill="#2FA4E7" font-family="Verdana" font-size="12.5" lengthAdjust="spacing" textLength="83.3333" x="2425" y="935.4876">MISP Instance</text></g><!--entity Bazaar--><g id="elem_Bazaar"><rect fill="none" height="48.2751" rx="4.1667" ry="4.1667" style="stroke:#2FA4E7;stroke-width:1.0416666666666667;" width="123.9583" x="2560.9375" y="906.5"/><text fill="#2FA4E7" font-family="Verdana" font-size="12.5" lengthAdjust="spacing" textLength="92.7083" x="2576.5625" y="935.4876">MalwareBazaar</text></g><!--entity MWDB--><g id="elem_MWDB"><rect fill="none" height="48.2751" rx="4.1667" ry="4.1667" style="stroke:#2FA4E7;stroke-width:1.0416666666666667;" width="71.875" x="2280.7292" y="1037.75"/><text fill="#2FA4E7" font-family="Verdana" font-size="12.5" lengthAdjust="spacing" textLength="40.625" x="2296.3542" y="1066.7376">MWDB</text></g><!--entity AbuseCh--><g id="elem_AbuseCh"><rect fill="none" height="65.3002" rx="4.1667" ry="4.1667" style="stroke:#2FA4E7;stroke-width:1.0416666666666667;" width="173.9583" x="2389.0625" y="1028.8958"/><text fill="#2FA4E7" font-family="Verdana" font-size="12.5" lengthAdjust="spacing" textLength="52.0833" x="2404.6875" y="1057.8834">abuse.ch</text><text fill="#2FA4E7" font-family="Verdana" font-size="12.5" lengthAdjust="spacing" textLength="142.7083" x="2404.6875" y="1074.9085">ThreatFox, URLhaus, etc.</text></g><!--entity GraphAPI--><g id="elem_GraphAPI"><rect fill="none" height="65.3002" rx="4.1667" ry="4.1667" style="stroke:#2FA4E7;stroke-width:1.0416666666666667;" width="163.5417" x="2059.8958" y="897.6458"/><text fill="#2FA4E7" font-family="Verdana" font-size="12.5" lengthAdjust="spacing" textLength="94.7917" x="2075.5208" y="926.6334">Microsoft Graph</text><text fill="#2FA4E7" font-family="Verdana" font-size="12.5" lengthAdjust="spacing" textLength="132.2917" x="2075.5208" y="943.6585">Threat Intelligence API</text></g><g id="elem_GMN43"><path d="M1998.4375,247.125 L1998.4375,327.7255 A4.1667,4.1667 0 0 0 2002.6042,331.8921 L2139.0625,331.8921 A4.1667,4.1667 0 0 0 2143.2292,327.7255 L2143.2292,253.375 L2132.8125,242.9583 L2002.6042,242.9583 A4.1667,4.1667 0 0 0 1998.4375,247.125 " fill="none" style="stroke:#033C73;stroke-width:1.0416666666666667;"/><path d="M2132.8125,242.9583 L2132.8125,251.2916 A2.0833,2.0833 0 0 0 2134.8958,253.375 L2143.2292,253.375 L2132.8125,242.9583 " fill="none" style="stroke:#033C73;stroke-width:1.0416666666666667;"/><ellipse cx="2015.625" cy="262.5876" fill="#033C73" rx="2.6042" ry="2.6042" style="stroke:#033C73;stroke-width:0.0;"/><text fill="#033C73" font-family="Verdana" font-size="12.5" lengthAdjust="spacing" textLength="48.9583" x="2022.3958" y="266.7376">TLS 1.2+</text><ellipse cx="2015.625" cy="279.6127" fill="#033C73" rx="2.6042" ry="2.6042" style="stroke:#033C73;stroke-width:0.0;"/><text fill="#033C73" font-family="Verdana" font-size="12.5" lengthAdjust="spacing" textLength="42.7083" x="2022.3958" y="283.7627">HTTP/2</text><ellipse cx="2015.625" cy="296.6378" fill="#033C73" rx="2.6042" ry="2.6042" style="stroke:#033C73;stroke-width:0.0;"/><text fill="#033C73" font-family="Verdana" font-size="12.5" lengthAdjust="spacing" textLength="100" x="2022.3958" y="300.7878">Security Headers</text><ellipse cx="2015.625" cy="313.663" fill="#033C73" rx="2.6042" ry="2.6042" style="stroke:#033C73;stroke-width:0.0;"/><text fill="#033C73" font-family="Verdana" font-size="12.5" lengthAdjust="spacing" textLength="75" x="2022.3958" y="317.8129">Rate Limiting</text></g><g id="elem_GMN46"><path d="M2735.9375,898.6875 L2735.9375,962.2628 A4.1667,4.1667 0 0 0 2740.1042,966.4295 L2893.2292,966.4295 A4.1667,4.1667 0 0 0 2897.3958,962.2628 L2897.3958,904.9375 L2886.9792,894.5208 L2740.1042,894.5208 A4.1667,4.1667 0 0 0 2735.9375,898.6875 " fill="none" style="stroke:#033C73;stroke-width:1.0416666666666667;"/><path d="M2886.9792,894.5208 L2886.9792,902.8541 A2.0833,2.0833 0 0 0 2889.0625,904.9375 L2897.3958,904.9375 L2886.9792,894.5208 " fill="none" style="stroke:#033C73;stroke-width:1.0416666666666667;"/><ellipse cx="2753.125" cy="914.1501" fill="#033C73" rx="2.6042" ry="2.6042" style="stroke:#033C73;stroke-width:0.0;"/><text fill="#033C73" font-family="Verdana" font-size="12.5" lengthAdjust="spacing" textLength="116.6667" x="2759.8958" y="918.3001">JSONB for metadata</text><ellipse cx="2753.125" cy="931.1752" fill="#033C73" rx="2.6042" ry="2.6042" style="stroke:#033C73;stroke-width:0.0;"/><text fill="#033C73" font-family="Verdana" font-size="12.5" lengthAdjust="spacing" textLength="110.4167" x="2759.8958" y="935.3252">pg_trgm for search</text><ellipse cx="2753.125" cy="948.2003" fill="#033C73" rx="2.6042" ry="2.6042" style="stroke:#033C73;stroke-width:0.0;"/><text fill="#033C73" font-family="Verdana" font-size="12.5" lengthAdjust="spacing" textLength="111.4583" x="2759.8958" y="952.3503">Connection pooling</text></g><g id="elem_GMN49"><path d="M2323.9583,630.9791 L2323.9583,745.6299 A4.1667,4.1667 0 0 0 2328.125,749.7965 L2557.2917,749.7965 A4.1667,4.1667 0 0 0 2561.4583,745.6299 L2561.4583,637.2291 L2551.0417,626.8125 L2328.125,626.8125 A4.1667,4.1667 0 0 0 2323.9583,630.9791 " fill="none" style="stroke:#033C73;stroke-width:1.0416666666666667;"/><path d="M2551.0417,626.8125 L2551.0417,635.1458 A2.0833,2.0833 0 0 0 2553.125,637.2291 L2561.4583,637.2291 L2551.0417,626.8125 " fill="none" style="stroke:#033C73;stroke-width:1.0416666666666667;"/><ellipse cx="2341.1458" cy="646.4418" fill="#033C73" rx="2.6042" ry="2.6042" style="stroke:#033C73;stroke-width:0.0;"/><text fill="#033C73" font-family="Verdana" font-size="12.5" lengthAdjust="spacing" textLength="116.6667" x="2347.9167" y="650.5917">Scheduled sync jobs</text><ellipse cx="2341.1458" cy="663.4669" fill="#033C73" rx="2.6042" ry="2.6042" style="stroke:#033C73;stroke-width:0.0;"/><text fill="#033C73" font-family="Verdana" font-size="12.5" lengthAdjust="spacing" textLength="128.125" x="2347.9167" y="667.6169">Per-feed idempotency</text><ellipse cx="2341.1458" cy="680.492" fill="#033C73" rx="2.6042" ry="2.6042" style="stroke:#033C73;stroke-width:0.0;"/><text fill="#033C73" font-family="Verdana" font-size="12.5" lengthAdjust="spacing" textLength="103.125" x="2347.9167" y="684.642">Retry with backoff</text><ellipse cx="2341.1458" cy="697.5171" fill="#033C73" rx="2.6042" ry="2.6042" style="stroke:#033C73;stroke-width:0.0;"/><text fill="#033C73" font-family="Verdana" font-size="12.5" lengthAdjust="spacing" textLength="150" x="2347.9167" y="701.6671">cancel_requested support</text><ellipse cx="2341.1458" cy="714.5422" fill="#033C73" rx="2.6042" ry="2.6042" style="stroke:#033C73;stroke-width:0.0;"/><text fill="#033C73" font-family="Verdana" font-size="12.5" lengthAdjust="spacing" textLength="166.6667" x="2347.9167" y="718.6922">periodic dependency refresh</text><ellipse cx="2341.1458" cy="731.5674" fill="#033C73" rx="2.6042" ry="2.6042" style="stroke:#033C73;stroke-width:0.0;"/><text fill="#033C73" font-family="Verdana" font-size="12.5" lengthAdjust="spacing" textLength="192.7083" x="2347.9167" y="735.7173">proxy bootstrap from DB settings</text></g><g id="elem_GMN52"><path d="M1997.9167,597.125 L1997.9167,779.8762 A4.1667,4.1667 0 0 0 2002.0833,784.0428 L2283.3333,784.0428 A4.1667,4.1667 0 0 0 2287.5,779.8762 L2287.5,603.375 L2277.0833,592.9583 L2002.0833,592.9583 A4.1667,4.1667 0 0 0 1997.9167,597.125 " fill="none" style="stroke:#033C73;stroke-width:1.0416666666666667;"/><path d="M2277.0833,592.9583 L2277.0833,601.2916 A2.0833,2.0833 0 0 0 2279.1667,603.375 L2287.5,603.375 L2277.0833,592.9583 " fill="none" style="stroke:#033C73;stroke-width:1.0416666666666667;"/><text fill="#033C73" font-family="Verdana" font-size="12.5" lengthAdjust="spacing" textLength="195.8333" x="2009.375" y="616.7376">Docker Compose exposes service</text><text fill="#033C73" font-family="Verdana" font-size="12.5" lengthAdjust="spacing" textLength="207.2917" x="2009.375" y="633.7627">on host port 7003 -&gt; container 8080</text><text fill="#033C73" font-family="Verdana" font-size="12.5" lengthAdjust="spacing" textLength="145.8333" x="2009.375" y="650.7878">Outbound proxy controls:</text><text fill="#033C73" font-family="Verdana" font-size="12.5" lengthAdjust="spacing" textLength="162.5" x="2009.375" y="667.8129">HTTP(S)_PROXY, NO_PROXY,</text><text fill="#033C73" font-family="Verdana" font-size="12.5" lengthAdjust="spacing" textLength="142.7083" x="2009.375" y="684.838">REQUESTS_CA_BUNDLE,</text><text fill="#033C73" font-family="Verdana" font-size="12.5" lengthAdjust="spacing" textLength="164.5833" x="2009.375" y="701.8632">REQUESTS_SKIP_TLS_VERIFY</text><text fill="#033C73" font-family="Verdana" font-size="12.5" lengthAdjust="spacing" textLength="248.9583" x="2009.375" y="718.8883">(also configurable from Admin DB settings:</text><text fill="#033C73" font-family="Verdana" font-size="12.5" lengthAdjust="spacing" textLength="254.1667" x="2012.5" y="735.9134">proxy.ca_bundle_path / proxy.skip_tls_verify)</text><text fill="#033C73" font-family="Verdana" font-size="12.5" lengthAdjust="spacing" textLength="111.4583" x="2009.375" y="752.9385">per-feed overrides:</text><text fill="#033C73" font-family="Verdana" font-size="12.5" lengthAdjust="spacing" textLength="170.8333" x="2009.375" y="769.9636">FEED_PROXY_URL_&lt;SOURCE&gt;</text></g><!--link Nginx to App--><g id="link_Nginx_App"><path d="M1276.5961,287.75 C1276.3243,287.75 1276.0465,287.75 1275.763,287.75 C1274.6286,287.75 1273.4009,287.75 1272.0832,287.75 C1269.4478,287.75 1266.4527,287.75 1263.1257,287.75 C1249.8179,287.75 1231.2008,287.75 1209.0632,287.75 C1164.7878,287.75 1106.4297,287.75 1048.2969,287.75 C932.0313,287.75 816.6667,287.75 816.6667,287.75 C816.6667,287.75 816.6667,339.0729 816.6667,392 C816.6667,392.827 816.6667,387.4043 816.6667,388.2319 " fill="none" id="Nginx-to-App" style="stroke:#2FA4E7;stroke-width:3.125;"/><polygon fill="#2FA4E7" points="816.6667,394.4819,820.8333,385.1069,816.6667,389.2736,812.5,385.1069,816.6667,394.4819" style="stroke:#2FA4E7;stroke-width:3.125;"/><text fill="#343A40" font-family="Verdana" font-size="12.5" lengthAdjust="spacing" textLength="73.9583" x="861.7292" y="278.1959">HTTP/HTTPS</text></g><!--link App to Postgres--><g id="link_App_Postgres"><path d="M825.1225,506.5 C825.3082,506.5 825.4968,506.5 825.6881,506.5 C827.2185,506.5 828.9255,506.5 830.7952,506.5 C838.274,506.5 848.3553,506.5 860.1429,506.5 C883.7181,506.5 914.1185,506.5 944.1745,506.5 C1004.2865,506.5 1063.0208,506.5 1063.0208,506.5 C1063.0208,506.5 1063.0208,612.4896 1063.0208,718.4791 C1063.0208,744.9765 1063.0208,771.4739 1063.0208,796.3152 C1063.0208,799.4204 1063.0208,802.4997 1063.0208,805.5499 C1063.0208,806.3124 1063.0208,800.8231 1063.0208,801.582 " fill="none" id="App-to-Postgres" style="stroke:#2FA4E7;stroke-width:3.125;"/><polygon fill="#2FA4E7" points="1063.0208,807.832,1067.1875,798.457,1063.0208,802.6237,1058.8542,798.457,1063.0208,807.832" style="stroke:#2FA4E7;stroke-width:3.125;"/><text fill="#343A40" font-family="Verdana" font-size="12.5" lengthAdjust="spacing" textLength="72.9167" x="1069.2708" y="590.1855">SQLAlchemy</text></g><!--link App to Redis--><g id="link_App_Redis"><path d="M825.8027,714.8333 C826.1526,714.8333 826.5122,714.8333 826.8812,714.8333 C827.6192,714.8333 828.3951,714.8333 829.2083,714.8333 C830.8345,714.8333 832.6097,714.8333 834.5281,714.8333 C838.365,714.8333 842.7753,714.8333 847.7147,714.8333 C867.4726,714.8333 895.6981,714.8333 929.5687,714.8333 C997.3099,714.8333 1087.6315,714.8333 1177.9531,714.8333 C1358.5964,714.8333 1539.2396,714.8333 1539.2396,714.8333 C1539.2396,714.8333 1539.2396,930.4583 1539.2396,930.4583 C1539.2396,930.4583 1556.3516,930.4583 1574.2656,930.4583 C1583.2227,930.4583 1592.3802,930.4583 1599.6995,930.4583 C1601.5294,930.4583 1603.2443,930.4583 1604.8125,930.4583 C1605.2046,930.4583 1605.5875,930.4583 1605.9607,930.4583 C1606.054,930.4583 1599.8967,930.4583 1599.9888,930.4583 " fill="none" id="App-to-Redis" style="stroke:#2FA4E7;stroke-width:3.125;"/><polygon fill="#2FA4E7" points="1606.2388,930.4583,1596.8638,926.2916,1601.0304,930.4583,1596.8638,934.625,1606.2388,930.4583" style="stroke:#2FA4E7;stroke-width:3.125;"/><text fill="#343A40" font-family="Verdana" font-size="12.5" lengthAdjust="spacing" textLength="46.875" x="1166.2083" y="734.4459">redis-py</text></g><!--link ProxyTest to External--><g id="link_ProxyTest_External"><path d="M446.0938,530.5937 C446.0938,624.4896 446.0938,960.6666 446.0938,960.6666 C446.0938,960.6666 840.2995,960.6666 1234.5052,960.6666 C1431.6081,960.6666 1628.7109,960.6666 1776.5381,960.6666 C1850.4517,960.6666 1912.0463,960.6666 1955.1626,960.6666 C1976.7207,960.6666 1993.6592,960.6666 2005.2082,960.6666 C2008.0955,960.6666 2010.6459,960.6666 2012.8474,960.6666 C2013.3978,960.6666 2007.6763,960.6666 2008.1829,960.6666 " fill="none" id="ProxyTest-to-External" style="stroke:#2FA4E7;stroke-width:3.125;"/><polygon fill="#2FA4E7" points="2014.4329,960.6666,2005.0579,956.5,2009.2246,960.6666,2005.0579,964.8333,2014.4329,960.6666" style="stroke:#2FA4E7;stroke-width:3.125;"/><text fill="#343A40" font-family="Verdana" font-size="12.5" lengthAdjust="spacing" textLength="81.25" x="946.6979" y="980.2792">HTTPS checks</text></g><!--link SentinelJob to GraphAPI--><g id="link_SentinelJob_GraphAPI"><path d="M769.7917,530.6666 C769.7917,616.6041 769.7917,902.3333 769.7917,902.3333 C769.7917,902.3333 1757.2292,902.3333 2053.1979,902.3333 " fill="none" id="SentinelJob-to-GraphAPI" style="stroke:#2FA4E7;stroke-width:3.125;"/><polygon fill="#2FA4E7" points="2059.4479,902.3333,2050.0729,898.1666,2054.2396,902.3333,2050.0729,906.5,2059.4479,902.3333" style="stroke:#2FA4E7;stroke-width:3.125;"/><text fill="#343A40" font-family="Verdana" font-size="12.5" lengthAdjust="spacing" textLength="71.875" x="1150.6667" y="892.7792">HTTPS/JSON</text></g><!--link Worker to Postgres--><g id="link_Worker_Postgres"><path d="M1121.1833,660.6666 C1118.8146,660.6666 1116.7997,660.6666 1115.1661,660.6666 C1111.8988,660.6666 1110.1563,660.6666 1110.1563,660.6666 C1110.1563,660.6666 1110.1563,930.4583 1110.1563,930.4583 C1110.1563,930.4583 1101.7448,930.4583 1092.8073,930.4583 C1090.5729,930.4583 1088.3057,930.4583 1086.1287,930.4583 C1085.0403,930.4583 1083.9744,930.4583 1082.9465,930.4583 C1082.4326,930.4583 1081.9281,930.4583 1081.4351,930.4583 C1081.1886,930.4583 1080.9449,930.4583 1080.7043,930.4583 C1080.5841,930.4583 1086.7146,930.4583 1086.5959,930.4583 " fill="none" id="Worker-to-Postgres" style="stroke:#2FA4E7;stroke-width:3.125;"/><polygon fill="#2FA4E7" points="1080.3459,930.4583,1089.7209,934.625,1085.5542,930.4583,1089.7209,926.2916,1080.3459,930.4583" style="stroke:#2FA4E7;stroke-width:3.125;"/><text fill="#343A40" font-family="Verdana" font-size="12.5" lengthAdjust="spacing" textLength="72.9167" x="1113.6771" y="651.1126">SQLAlchemy</text></g><!--link Worker to Redis--><g id="link_Worker_Redis"><path d="M1564.6793,688.7916 C1564.7597,688.7916 1564.8405,688.7916 1564.9217,688.7916 C1565.5718,688.7916 1566.2493,688.7916 1566.951,688.7916 C1572.5648,688.7916 1579.7285,688.7916 1586.7852,688.7916 C1600.8984,688.7916 1614.5833,688.7916 1614.5833,688.7916 C1614.5833,688.7916 1614.5833,745.4922 1614.5833,803.9635 C1614.5833,807.618 1614.5833,811.2794 1614.5833,814.9342 C1614.5833,816.7617 1614.5833,818.5875 1614.5833,820.41 C1614.5833,821.3213 1614.5833,815.9817 1614.5833,816.8911 " fill="none" id="Worker-to-Redis" style="stroke:#2FA4E7;stroke-width:3.125;"/><polygon fill="#2FA4E7" points="1614.5833,823.1411,1618.75,813.7661,1614.5833,817.9328,1610.4167,813.7661,1614.5833,823.1411" style="stroke:#2FA4E7;stroke-width:3.125;"/><text fill="#343A40" font-family="Verdana" font-size="12.5" lengthAdjust="spacing" textLength="46.875" x="1561.4583" y="770.6438">redis-py</text></g><!--link Worker to External--><g id="link_Worker_External"><path d="M1565.1556,857.5416 C1565.4301,857.5416 1565.7106,857.5416 1565.997,857.5416 C1566.5698,857.5416 1567.1661,857.5416 1567.7856,857.5416 C1570.2637,857.5416 1573.112,857.5416 1576.3021,857.5416 C1589.0625,857.5416 1607.2917,857.5416 1629.1667,857.5416 C1672.9167,857.5416 1731.25,857.5416 1789.5833,857.5416 C1847.9167,857.5416 1906.25,857.5416 1950,857.5416 C1971.875,857.5416 1990.1042,857.5416 2002.8646,857.5416 C2006.0547,857.5416 2008.903,857.5416 2011.381,857.5416 C2012.0005,857.5416 2012.5969,857.5416 2013.1697,857.5416 C2013.4561,857.5416 2013.7366,857.5416 2014.0111,857.5416 C2014.1484,857.5416 2008.0341,857.5416 2008.1684,857.5416 " fill="none" id="Worker-to-External" style="stroke:#2FA4E7;stroke-width:3.125;"/><polygon fill="#2FA4E7" points="2014.4184,857.5416,2005.0434,853.375,2009.2101,857.5416,2005.0434,861.7083,2014.4184,857.5416" style="stroke:#2FA4E7;stroke-width:3.125;"/><text fill="#343A40" font-family="Verdana" font-size="12.5" lengthAdjust="spacing" textLength="71.875" x="1663.2917" y="877.1542">HTTPS/JSON</text></g><!--link Migrate to Postgres--><g id="link_Migrate_Postgres"><path d="M1071.875,737.3956 C1071.875,741.2018 1071.875,745.5017 1071.875,750.2013 C1071.875,759.6005 1071.875,770.5985 1071.875,782.4444 C1071.875,788.3673 1071.875,794.5022 1071.875,800.7552 C1071.875,802.3185 1071.875,803.8891 1071.875,805.4657 C1071.875,806.254 1071.875,807.0437 1071.875,807.8348 C1071.875,808.0325 1071.875,801.9804 1071.875,802.1783 " fill="none" id="Migrate-to-Postgres" style="stroke:#2FA4E7;stroke-width:3.125;"/><polygon fill="#2FA4E7" points="1071.875,808.4283,1076.0417,799.0533,1071.875,803.2199,1067.7083,799.0533,1071.875,808.4283" style="stroke:#2FA4E7;stroke-width:3.125;"/><text fill="#343A40" font-family="Verdana" font-size="12.5" lengthAdjust="spacing" textLength="56.25" x="1001.375" y="738.6126">DDL/DML</text></g><!--link Nginx to GMN43--><g id="link_Nginx_GMN43"><path d="M1479.5647,224.2083 C1480.9091,224.2083 1482.2577,224.2083 1483.6105,224.2083 C1489.0215,224.2083 1494.4984,224.2083 1500.0352,224.2083 C1511.1089,224.2083 1522.4223,224.2083 1533.9274,224.2083 C1579.9479,224.2083 1629.0365,224.2083 1678.125,224.2083 C1874.4792,224.2083 2070.8333,224.2083 2070.8333,224.2083 C2070.8333,224.2083 2070.8333,232.3437 2070.8333,242.7708 " fill="none" id="Nginx-GMN43" style="stroke:#2FA4E7;stroke-width:3.125;stroke-dasharray:7.0,7.0;"/></g><!--link Postgres to GMN46--><g id="link_Postgres_GMN46"><path d="M1081.2625,998.1666 C1081.823,998.1666 1082.4079,998.1666 1083.0169,998.1666 C1085.4529,998.1666 1088.275,998.1666 1091.4698,998.1666 C1104.2491,998.1666 1122.9919,998.1666 1146.8465,998.1666 C1194.5557,998.1666 1262.7116,998.1666 1344.4987,998.1666 C1508.0729,998.1666 1726.1719,998.1666 1944.2708,998.1666 C2380.4688,998.1666 2816.6667,998.1666 2816.6667,998.1666 C2816.6667,998.1666 2816.6667,982.7916 2816.6667,966.6875 " fill="none" id="Postgres-GMN46" style="stroke:#2FA4E7;stroke-width:3.125;stroke-dasharray:7.0,7.0;"/></g><!--link Worker to GMN49--><g id="link_Worker_GMN49"><path d="M1565.4587,821.0833 C1565.9706,821.0833 1566.4925,821.0833 1567.0243,821.0833 C1571.2788,821.0833 1576.169,821.0833 1581.6461,821.0833 C1603.5544,821.0833 1634.8521,821.0833 1672.4092,821.0833 C1747.5234,821.0833 1847.6758,821.0833 1947.8281,821.0833 C2148.1328,821.0833 2348.4375,821.0833 2348.4375,821.0833 C2348.4375,821.0833 2348.4375,784.6979 2348.4375,750.0104 " fill="none" id="Worker-GMN49" style="stroke:#2FA4E7;stroke-width:3.125;stroke-dasharray:7.0,7.0;"/></g><!--link App to GMN52--><g id="link_App_GMN52"><path d="M826.7318,624.2083 C829.3915,624.2083 832.2231,624.2083 835.2214,624.2083 C859.2076,624.2083 893.8614,624.2083 936.5321,624.2083 C1021.8734,624.2083 1139.2819,624.2083 1267.5508,624.2083 C1524.0885,624.2083 1824.0677,624.2083 1997.8333,624.2083 " fill="none" id="App-GMN52" style="stroke:#2FA4E7;stroke-width:3.125;stroke-dasharray:7.0,7.0;"/></g><rect fill="none" height="148.1997" id="_legend" rx="4.1667" ry="4.1667" style="stroke:#BABDBF;stroke-width:1.0416666666666667;" width="210.4167" x="2669.2708" y="1171.0833"/><text fill="#343A40" font-family="Verdana" font-size="14.5833" font-weight="bold" lengthAdjust="spacing" textLength="38.5417" x="2690.1042" y="1205.4228">Color</text><text fill="#343A40" font-family="Verdana" font-size="14.5833" font-weight="bold" lengthAdjust="spacing" textLength="62.5" x="2747.3958" y="1205.4228">Meaning</text><rect fill="#ADD8E6" height="30.2791" style="stroke:none;stroke-width:1.0416666666666667;" width="57.2917" x="2680.7292" y="1214.9041"/><text fill="#343A40" font-family="Verdana" font-size="14.5833" lengthAdjust="spacing" textLength="4.1667" x="2685.9375" y="1235.7019">&#160;</text><text fill="#343A40" font-family="Verdana" font-size="14.5833" lengthAdjust="spacing" textLength="68.75" x="2747.3958" y="1235.7019">Container</text><rect fill="#90EE90" height="30.2791" style="stroke:none;stroke-width:1.0416666666666667;" width="57.2917" x="2680.7292" y="1245.1831"/><text fill="#343A40" font-family="Verdana" font-size="14.5833" lengthAdjust="spacing" textLength="4.1667" x="2685.9375" y="1265.981">&#160;</text><text fill="#343A40" font-family="Verdana" font-size="14.5833" lengthAdjust="spacing" textLength="111.4583" x="2747.3958" y="1265.981">External Service</text><rect fill="#FFFFE0" height="30.2791" style="stroke:none;stroke-width:1.0416666666666667;" width="57.2917" x="2680.7292" y="1275.4622"/><text fill="#343A40" font-family="Verdana" font-size="14.5833" lengthAdjust="spacing" textLength="4.1667" x="2685.9375" y="1296.2601">&#160;</text><text fill="#343A40" font-family="Verdana" font-size="14.5833" lengthAdjust="spacing" textLength="65.625" x="2747.3958" y="1296.2601">Database</text><line style="stroke:#343A40;stroke-width:1.0416666666666667;" x1="2680.7292" x2="2868.2292" y1="1184.625" y2="1184.625"/><line style="stroke:#343A40;stroke-width:1.0416666666666667;" x1="2680.7292" x2="2868.2292" y1="1214.9041" y2="1214.9041"/><line style="stroke:#343A40;stroke-width:1.0416666666666667;" x1="2680.7292" x2="2868.2292" y1="1245.1831" y2="1245.1831"/><line style="stroke:#343A40;stroke-width:1.0416666666666667;" x1="2680.7292" x2="2868.2292" y1="1275.4622" y2="1275.4622"/><line style="stroke:#343A40;stroke-width:1.0416666666666667;" x1="2680.7292" x2="2868.2292" y1="1305.7413" y2="1305.7413"/><line style="stroke:#343A40;stroke-width:1.0416666666666667;" x1="2680.7292" x2="2680.7292" y1="1184.625" y2="1305.7413"/><line style="stroke:#343A40;stroke-width:1.0416666666666667;" x1="2738.0208" x2="2738.0208" y1="1184.625" y2="1305.7413"/><line style="stroke:#343A40;stroke-width:1.0416666666666667;" x1="2868.2292" x2="2868.2292" y1="1184.625" y2="1305.7413"/><!--SRC=[VLPjSzis3FwkNu5b7vQkpKkxkxMNotBdjoJkdDYnd7MvPgUZALZIGfCQIJNnblxtWQHasUuoVx18u0480k13VcTpN29mr9L09WzKPKKXCJ8FXIoPPalWQbagYTB6TYKGD7BBP2Os8Sx2hae4fMskeiWMbf33SGzckKPcOIWj2b5aA3b2ZFfBGTy3w6Cfr6f9lg5Vi8nSHP5KAS9UN_47r72fZDq3PY3CtHJ-YO1-_YzWhxD2Fi4WpT13m_Jqb2jf6GMcpyvg6_VxF1l5yFRmtUkZozbiykvUJfb561NBmXOokvSnyaeNTWMNo5BKvW_dacoSU-_aw-xovuAP1-YKfL-TlY-lVL79WYijuLDyCVIU6qcBMRk3rz19buM4sm3rYXONhoI7ZseEFLfBAt4lzpLQlJhYZ98iZbAa28HvvMq9rxDQjDOJhPvMC4FAPuVRGaaFyr8dt5Y6YaCR4N2XMPd3uAca6Zj_tg3HqdpBznAfhIe3LnHHmKCIw_5_9x7B-4EcLILJ-AGqbTedCmnVpcVCSqofRvkM2Z7LGhsJgviAAtHRv6YCqis6mwp5Ka-wsWkRmnGN6atkaIIkfosqfxH6mLpw89QiDBcoMqOEi6criUsKMJPdXhO-eQREDCOt8tZxizzsBJ4lRtmequ8pgpG5rlLBjP9-jyMLMM9rjWHyiYXDK-OPYLhCntXytQLJBggb39Noajs03Vbc6SKxnRGmyDv76iOlXjcUBUWnAeltxeHUrkAeD7gr0V5pFsqnTUUre21eKT_qr5L1Z6BNpU43RcGlXjmHk9mNl0PIna9AQd6zqDSeua9LAUmDAB5QCW6ToT3iXR1gIN3wkQVLOqgiuX2XAMf1K5yDumaLprXtQiCv8KcjO-AHQUoolnaB_Hg6jVPJNNet228shmmUylnU1juzLqzlu7OwobbbtW1QVXWsus2zl7PJSAsCMjXmmXlJRSfkOlSGchWC_E2OHw9d3nC5rZquEFFKTGAENJt5nf4JECMwhK-0chqZg73BrLeRMkc4xXVw7fIhQ4r6NhrEQt0T0rdp1nDjC937DH4sk2FNp55D92z7iG7u9f0DtMuKmNlJL3lk-_tHKVzgv39rhImQkje8f8iijw0MuPwY6lm8pPNa9pvnx_nmzoxomgtxAa8YJESssd7UXE5DmWbVA0t4oymnZnStvE0K1fdckHUtLOLIAV5_guJCX5Xhrat1EBBzKyt3sXFK1miaSP4YlIE8XlWgxCDTLl1O4C_EYVpLOk75uVPADFvLKUcTkwfqvpn4ZBfGn7EGOaanELzKfePVIUzljRbIrbZg0rZGJKG4IRkpBbjcToDpPIqXQ2VKXUIXVdNqt8k7g1cVtCUGkISG0b1ESlS6yLJq_lZu9w2Ihva4FXn_E2RKkB9pVvM5U7YueCq9gLnrz-DNoMGw_ltk3LoFwn6ffeERsq4yYvDU9-dUNlT7Worf_Ejmab2d9ByDfiFpErBjCs6KyxueiagpETs3ViFXrR2nRRTmYEMGisHEaGbCIaQPFwh5z9Gh4ojCyeKol5Yz8eEoAPmYcQRgUJVdWq4_X9mGhoIdyVXssXkSRIHMOEOclaV8uFaNIgUW3gF15JqmAHvuTd8u_NxaC5rHuHbDU-iiRgalDA9q-lNHQvwFMx0xuYhrw73zvc9zTa65QA9_0G00]--></g></svg>