<?plantuml 1.2026.2?><svg xmlns="http://www.w3.org/2000/svg" xmlns:xlink="http://www.w3.org/1999/xlink" contentStyleType="text/css" data-diagram-type="STATE" height="1120.8333px" preserveAspectRatio="none" style="width:933px;height:1120px;" version="1.1" viewBox="0 0 933 1120" width="933.3333px" zoomAndPan="magnify"><title>SyncJob Lifecycle State Machine</title><defs/><g><g class="title" data-source-line="3"><rect fill="none" height="47.168" rx="4.1667" ry="4.1667" style="stroke:#BABDBF;stroke-width:1.0417;" width="401.7619" x="261.2184" y="20.8333"/><text fill="#2FA4E7" font-family="'Verdana'" font-size="20.8333" font-weight="bold" lengthAdjust="spacing" textLength="378.8452" x="272.6767" y="51.6296">SyncJob Lifecycle State Machine</text></g><rect fill="none" height="169.3848" rx="4.1667" ry="4.1667" style="stroke:#2FA4E7;stroke-width:1.0417;" width="94.9132" x="495.0938" y="195.0846"/><line style="stroke:#2FA4E7;stroke-width:1.0417;" x1="495.0938" x2="590.007" y1="229.2562" y2="229.2562"/><text fill="#BABDBF" font-family="'Verdana'" font-size="11.4583" lengthAdjust="spacing" textLength="43.1702" x="520.9653" y="216.1372">queued</text><g class="entity" data-qualified-name="queued.waiting" id="ent0003"><rect fill="none" height="55.0049" rx="4.1667" ry="4.1667" style="stroke:#2FA4E7;stroke-width:1.0417;" width="73.0382" x="507.5938" y="299.0479"/><line style="stroke:#2FA4E7;stroke-width:1.0417;" x1="507.5938" x2="580.632" y1="333.2194" y2="333.2194"/><text fill="#BABDBF" font-family="'Verdana'" font-size="11.4583" lengthAdjust="spacing" textLength="41.7882" x="523.2188" y="320.1004">waiting</text></g><g class="start_entity" data-qualified-name="queued..start.queued" data-source-line="8" id="ent0004"><ellipse cx="544.1146" cy="251.1312" fill="#033C73" rx="10.4167" ry="10.4167" style="stroke:#2683B9;stroke-width:1.0417;"/></g><!--link *start*queued to waiting--><g class="link" data-entity-1="ent0004" data-entity-2="ent0003" data-link-type="dependency" data-source-line="8" id="lnk5"><path d="M544.1146,262.0583 C544.1146,271.4437 544.1146,279.7145 544.1146,292.5062" fill="none" id="*start*queued-to-waiting" style="stroke:#2FA4E7;stroke-width:3.125;"/><polygon fill="#2FA4E7" points="544.1146,298.7562,548.2813,289.3812,544.1146,293.5479,539.9479,289.3812,544.1146,298.7562" style="stroke:#2FA4E7;stroke-width:3.125;"/></g><rect fill="none" height="169.3848" rx="4.1667" ry="4.1667" style="stroke:#2FA4E7;stroke-width:1.0417;" width="115.1276" x="272.4896" y="453.0117"/><line style="stroke:#2FA4E7;stroke-width:1.0417;" x1="272.4896" x2="387.6171" y1="487.1833" y2="487.1833"/><text fill="#BABDBF" font-family="'Verdana'" font-size="11.4583" lengthAdjust="spacing" textLength="44.2164" x="307.9452" y="474.0643">running</text><g class="entity" data-qualified-name="running.processing" id="ent0005"><rect fill="none" height="55.0049" rx="4.1667" ry="4.1667" style="stroke:#2FA4E7;stroke-width:1.0417;" width="93.2526" x="284.9896" y="556.9749"/><line style="stroke:#2FA4E7;stroke-width:1.0417;" x1="284.9896" x2="378.2421" y1="591.1465" y2="591.1465"/><text fill="#BABDBF" font-family="'Verdana'" font-size="11.4583" lengthAdjust="spacing" textLength="62.0026" x="300.6146" y="578.0275">processing</text></g><g class="start_entity" data-qualified-name="running..start.running" data-source-line="16" id="ent0009"><ellipse cx="331.6146" cy="509.0583" fill="#033C73" rx="10.4167" ry="10.4167" style="stroke:#2683B9;stroke-width:1.0417;"/></g><!--link *start*running to processing--><g class="link" data-entity-1="ent0009" data-entity-2="ent0005" data-link-type="dependency" data-source-line="16" id="lnk10"><path d="M331.6146,519.9854 C331.6146,529.3708 331.6146,537.6416 331.6146,550.4333" fill="none" id="*start*running-to-processing" style="stroke:#2FA4E7;stroke-width:3.125;"/><polygon fill="#2FA4E7" points="331.6146,556.6833,335.7813,547.3083,331.6146,551.4749,327.4479,547.3083,331.6146,556.6833" style="stroke:#2FA4E7;stroke-width:3.125;"/></g><rect fill="none" height="169.3848" rx="4.1667" ry="4.1667" style="stroke:#2FA4E7;stroke-width:1.0417;" width="132.2266" x="457.6875" y="710.9388"/><line style="stroke:#2FA4E7;stroke-width:1.0417;" x1="457.6875" x2="589.9141" y1="745.1104" y2="745.1104"/><text fill="#BABDBF" font-family="'Verdana'" font-size="11.4583" lengthAdjust="spacing" textLength="100.9766" x="473.3125" y="731.9914">cancel_requested</text><g class="entity" data-qualified-name="cancel_requested.draining" id="ent0007"><rect fill="none" height="55.0049" rx="4.1667" ry="4.1667" style="stroke:#2FA4E7;stroke-width:1.0417;" width="78.4205" x="470.1875" y="814.902"/><line style="stroke:#2FA4E7;stroke-width:1.0417;" x1="470.1875" x2="548.608" y1="849.0736" y2="849.0736"/><text fill="#BABDBF" font-family="'Verdana'" font-size="11.4583" lengthAdjust="spacing" textLength="47.1705" x="485.8125" y="835.9546">draining</text></g><g class="start_entity" data-qualified-name="cancel_requested..start.cancel_requested" data-source-line="27" id="ent0016"><ellipse cx="509.3958" cy="766.9854" fill="#033C73" rx="10.4167" ry="10.4167" style="stroke:#2683B9;stroke-width:1.0417;"/></g><!--link *start*cancel_requested to draining--><g class="link" data-entity-1="ent0016" data-entity-2="ent0007" data-link-type="dependency" data-source-line="27" id="lnk17"><path d="M509.3958,777.9124 C509.3958,787.2979 509.3958,795.5687 509.3958,808.3604" fill="none" id="*start*cancel_requested-to-draining" style="stroke:#2FA4E7;stroke-width:3.125;"/><polygon fill="#2FA4E7" points="509.3958,814.6104,513.5625,805.2354,509.3958,809.402,505.2292,805.2354,509.3958,814.6104" style="stroke:#2FA4E7;stroke-width:3.125;"/></g><g class="start_entity" data-qualified-name=".start." data-source-line="5" id="ent0002"><ellipse cx="542.5521" cy="96.1263" fill="#033C73" rx="10.4167" ry="10.4167" style="stroke:#2683B9;stroke-width:1.0417;"/></g><g class="entity" data-qualified-name="cancelled" id="ent0007"><rect fill="none" height="55.0049" rx="4.1667" ry="4.1667" style="stroke:#2FA4E7;stroke-width:1.0417;" width="85.8729" x="541.2813" y="968.8659"/><line style="stroke:#2FA4E7;stroke-width:1.0417;" x1="541.2813" x2="627.1542" y1="1003.0374" y2="1003.0374"/><text fill="#BABDBF" font-family="'Verdana'" font-size="11.4583" lengthAdjust="spacing" textLength="54.6229" x="556.9063" y="989.9184">cancelled</text></g><g class="entity" data-qualified-name="success" id="ent0011"><rect fill="none" height="55.0049" rx="4.1667" ry="4.1667" style="stroke:#2FA4E7;stroke-width:1.0417;" width="76.0707" x="143.0521" y="768.1263"/><line style="stroke:#2FA4E7;stroke-width:1.0417;" x1="143.0521" x2="219.1227" y1="802.2979" y2="802.2979"/><text fill="#BABDBF" font-family="'Verdana'" font-size="11.4583" lengthAdjust="spacing" textLength="44.8207" x="158.6771" y="789.1789">success</text></g><g class="entity" data-qualified-name="failed" id="ent0013"><rect fill="none" height="55.0049" rx="4.1667" ry="4.1667" style="stroke:#2FA4E7;stroke-width:1.0417;" width="62.9954" x="43.3438" y="768.1263"/><line style="stroke:#2FA4E7;stroke-width:1.0417;" x1="43.3438" x2="106.3392" y1="802.2979" y2="802.2979"/><text fill="#BABDBF" font-family="'Verdana'" font-size="11.4583" lengthAdjust="spacing" textLength="31.7454" x="58.9688" y="789.1789">failed</text></g><g class="end_entity" data-qualified-name=".end." data-source-line="36" id="ent0021"><ellipse cx="181.0938" cy="1098.8659" fill="none" rx="11.4583" ry="11.4583" style="stroke:#033C73;stroke-width:1.0417;"/><ellipse cx="181.0938" cy="1098.8659" fill="none" rx="6.25" ry="6.25" style="stroke:#033C73;stroke-width:1.0417;"/></g><g class="entity" data-qualified-name="GMN2" data-source-line="42" id="ent0003"><path d="M626.7708,251.6992 L626.7708,275.6055 L590.4063,279.7721 L626.7708,283.9388 L626.7708,307.8516 A4.1667,4.1667 0 0 0 630.9375,312.0182 L787.4947,312.0182 A4.1667,4.1667 0 0 0 791.6614,307.8516 L791.6614,257.9492 L781.2447,247.5326 L630.9375,247.5326 A4.1667,4.1667 0 0 0 626.7708,251.6992" fill="none" style="stroke:#033C73;stroke-width:1.0417;"/><path d="M781.2447,247.5326 L781.2447,255.8659 A2.0833,2.0833 0 0 0 783.328,257.9492 L791.6614,257.9492 L781.2447,247.5326" fill="none" style="stroke:#033C73;stroke-width:1.0417;"/><text fill="#033C73" font-family="'Verdana'" font-size="12.5" lengthAdjust="spacing" textLength="132.5989" x="638.2292" y="269.552">Jobs are created with</text><text fill="#033C73" font-family="'Verdana'" font-size="12.5" lengthAdjust="spacing" textLength="126.7395" x="638.2292" y="284.1028">idempotency_key to</text><text fill="#033C73" font-family="'Verdana'" font-size="12.5" lengthAdjust="spacing" textLength="117.0227" x="638.2292" y="298.6536">prevent duplicates</text></g><g class="entity" data-qualified-name="GMN5" data-source-line="48" id="ent0006"><path d="M423.7188,509.6263 L423.7188,533.5326 L387.8021,537.6992 L423.7188,541.8659 L423.7188,565.7786 A4.1667,4.1667 0 0 0 427.8854,569.9453 L588.4648,569.9453 A4.1667,4.1667 0 0 0 592.6315,565.7786 L592.6315,515.8763 L582.2148,505.4596 L427.8854,505.4596 A4.1667,4.1667 0 0 0 423.7188,509.6263" fill="none" style="stroke:#033C73;stroke-width:1.0417;"/><path d="M582.2148,505.4596 L582.2148,513.793 A2.0833,2.0833 0 0 0 584.2982,515.8763 L592.6315,515.8763 L582.2148,505.4596" fill="none" style="stroke:#033C73;stroke-width:1.0417;"/><text fill="#033C73" font-family="'Verdana'" font-size="12.5" lengthAdjust="spacing" textLength="136.6211" x="435.1771" y="527.4791">Advisory lock ensures</text><text fill="#033C73" font-family="'Verdana'" font-size="12.5" lengthAdjust="spacing" textLength="125.4639" x="435.1771" y="542.0299">only one worker per</text><text fill="#033C73" font-family="'Verdana'" font-size="12.5" lengthAdjust="spacing" textLength="88.0981" x="435.1771" y="556.5806">feed at a time</text></g><g class="entity" data-qualified-name="GMN8" data-source-line="54" id="ent0009"><path d="M255.3229,767.5534 L255.3229,791.4596 L219.4896,795.6263 L255.3229,799.793 L255.3229,823.7057 A4.1667,4.1667 0 0 0 259.4896,827.8724 L417.2736,827.8724 A4.1667,4.1667 0 0 0 421.4403,823.7057 L421.4403,773.8034 L411.0236,763.3867 L259.4896,763.3867 A4.1667,4.1667 0 0 0 255.3229,767.5534" fill="none" style="stroke:#033C73;stroke-width:1.0417;"/><path d="M411.0236,763.3867 L411.0236,771.7201 A2.0833,2.0833 0 0 0 413.1069,773.8034 L421.4403,773.8034 L411.0236,763.3867" fill="none" style="stroke:#033C73;stroke-width:1.0417;"/><text fill="#033C73" font-family="'Verdana'" font-size="12.5" lengthAdjust="spacing" textLength="96.0693" x="266.7813" y="785.4062">Result contains</text><text fill="#033C73" font-family="'Verdana'" font-size="12.5" lengthAdjust="spacing" textLength="133.8257" x="266.7813" y="799.9569">counts and metadata</text><text fill="#033C73" font-family="'Verdana'" font-size="12.5" lengthAdjust="spacing" textLength="89.3982" x="266.7813" y="814.5077">for monitoring</text></g><!--link *start* to queued--><g class="link" data-entity-1="ent0002" data-entity-2="ent0002" data-link-type="dependency" data-source-line="5" id="lnk3"><path d="M542.5521,106.9284 C542.5521,123.793 542.5521,153.6888 542.5521,188.5013" fill="none" id="*start*-to-queued" style="stroke:#2FA4E7;stroke-width:3.125;"/><polygon fill="#2FA4E7" points="542.5521,194.7513,546.7188,185.3763,542.5521,189.543,538.3854,185.3763,542.5521,194.7513" style="stroke:#2FA4E7;stroke-width:3.125;"/><text fill="#343A40" font-family="'Verdana'" font-size="12.5" lengthAdjust="spacing" textLength="54.7729" x="548.8021" y="155.6458">enqueue</text></g><!--link queued to running--><g class="link" data-entity-1="ent0002" data-entity-2="ent0004" data-link-type="dependency" data-source-line="12" id="lnk6"><path d="M494.6146,330.4492 C475.9583,350.3451 454.6771,373.7201 436.3021,395.7201 C420.0833,415.1159 407.0593,431.6604 391.7363,451.9416" fill="none" id="queued-to-running" style="stroke:#2FA4E7;stroke-width:3.125;"/><polygon fill="#2FA4E7" points="387.9688,456.9284,396.9446,451.96,391.1084,452.7728,390.2956,446.9365,387.9688,456.9284" style="stroke:#2FA4E7;stroke-width:3.125;"/><text fill="#343A40" font-family="'Verdana'" font-size="12.5" lengthAdjust="spacing" textLength="172.699" x="442.5521" y="413.5728">start (idempotency passed)</text></g><!--link queued to cancelled--><g class="link" data-entity-1="ent0002" data-entity-2="ent0007" data-link-type="dependency" data-source-line="13" id="lnk8"><path d="M590.3438,347.918 C595.9896,353.8867 601.9583,359.5221 608.1771,364.4701 C633.7813,384.8346 650.9792,373.3242 674.8438,395.7201 C770.2292,485.1888 784.0104,526.9596 816.5104,653.6471 C847.2292,773.3971 827.5625,774.668 674.8438,937.6159 C661.4479,951.8971 649.1778,961.0078 633.0215,970.5183" fill="none" id="queued-to-cancelled" style="stroke:#2FA4E7;stroke-width:3.125;"/><polygon fill="#2FA4E7" points="627.6354,973.6888,637.8283,972.5237,632.1238,971.0467,633.6009,965.3422,627.6354,973.6888" style="stroke:#2FA4E7;stroke-width:3.125;"/><text fill="#343A40" font-family="'Verdana'" font-size="12.5" lengthAdjust="spacing" textLength="85.907" x="828.9167" y="671.4999">admin_cancel</text></g><!--link cancelled to queued--><g class="link" data-entity-1="ent0007" data-entity-2="ent0002" data-link-type="dependency" data-source-line="34" id="lnk20"><path d="M608.25,968.4284 C614.9583,959.293 621.3646,948.5951 624.8438,937.6159 C643.0208,880.2096 643.25,453.043 624.8438,395.7201 C620.8854,383.3971 609.9513,366.7149 594.0763,345.4858" fill="none" id="cancelled-to-queued" style="stroke:#2FA4E7;stroke-width:3.125;"/><polygon fill="#2FA4E7" points="590.3333,340.4805,592.6109,350.4837,593.4524,344.6516,599.2846,345.4931,590.3333,340.4805" style="stroke:#2FA4E7;stroke-width:3.125;"/><text fill="#343A40" font-family="'Verdana'" font-size="12.5" lengthAdjust="spacing" textLength="155.9326" x="644.8125" y="671.4999">admin_retry (new job_id)</text></g><!--link running to success--><g class="link" data-entity-1="ent0004" data-entity-2="ent0011" data-link-type="dependency" data-source-line="20" id="lnk12"><path d="M271.9896,609.5326 C261.5521,623.7201 251.25,638.8346 242.5521,653.6471 C220.375,691.3971 203.5708,732.7565 192.7791,761.8294" fill="none" id="running-to-success" style="stroke:#2FA4E7;stroke-width:3.125;"/><polygon fill="#2FA4E7" points="190.6042,767.6888,197.7728,760.3497,192.4166,762.806,189.9604,757.4498,190.6042,767.6888" style="stroke:#2FA4E7;stroke-width:3.125;"/><text fill="#343A40" font-family="'Verdana'" font-size="12.5" lengthAdjust="spacing" textLength="150.6165" x="248.8021" y="671.4999">complete (update stats)</text></g><!--link running to failed--><g class="link" data-entity-1="ent0004" data-entity-2="ent0013" data-link-type="dependency" data-source-line="22" id="lnk14"><path d="M272.1146,600.4284 C263.3021,608.3138 254.0104,615.8867 244.6354,622.3971 C217.75,641.0534 204.3958,634.3451 177.9688,653.6471 C149.9271,674.1263 145.6667,683.1471 124.8438,710.9388 C111.3438,728.9388 101.404,745.3468 92.0602,762.2114" fill="none" id="running-to-failed" style="stroke:#2FA4E7;stroke-width:3.125;"/><polygon fill="#2FA4E7" points="89.0313,767.6784,97.2193,761.4972,91.5554,763.1226,89.93,757.4586,89.0313,767.6784" style="stroke:#2FA4E7;stroke-width:3.125;"/><text fill="#343A40" font-family="'Verdana'" font-size="12.5" lengthAdjust="spacing" textLength="30.7556" x="184.2188" y="671.4999">error</text></g><!--link running to cancel_requested--><g class="link" data-entity-1="ent0004" data-entity-2="ent0006" data-link-type="dependency" data-source-line="24" id="lnk15"><path d="M387.9167,615.1576 C410.6667,645.1992 433.0807,674.8002 456.362,705.5398" fill="none" id="running-to-cancel_requested" style="stroke:#2FA4E7;stroke-width:3.125;"/><polygon fill="#2FA4E7" points="460.1354,710.5221,457.7968,700.533,456.9909,706.3702,451.1537,705.5643,460.1354,710.5221" style="stroke:#2FA4E7;stroke-width:3.125;"/><text fill="#343A40" font-family="'Verdana'" font-size="12.5" lengthAdjust="spacing" textLength="139.9475" x="438.9792" y="671.4999">admin_cancel_request</text></g><!--link cancel_requested to cancelled--><g class="link" data-entity-1="ent0006" data-entity-2="ent0007" data-link-type="dependency" data-source-line="31" id="lnk18"><path d="M507.4271,880.7617 C507.0521,900.1055 509.5625,920.1263 517.5521,937.6159 C523.0208,949.5846 527.612,955.9388 537.5704,964.5326" fill="none" id="cancel_requested-to-cancelled" style="stroke:#2FA4E7;stroke-width:3.125;"/><polygon fill="#2FA4E7" points="542.3021,968.6159,537.9267,959.3364,538.359,965.2131,532.4823,965.6454,542.3021,968.6159" style="stroke:#2FA4E7;stroke-width:3.125;"/><text fill="#343A40" font-family="'Verdana'" font-size="12.5" lengthAdjust="spacing" textLength="91.394" x="523.8021" y="929.427">finalize_cancel</text></g><!--link failed to queued--><g class="link" data-entity-1="ent0013" data-entity-2="ent0002" data-link-type="dependency" data-source-line="33" id="lnk19"><path d="M66.7083,767.9492 C49.5521,706.0117 16.6667,550.1992 86.3021,453.0117 C182.8229,318.293 392.2636,289.3307 488.4303,282.9661" fill="none" id="failed-to-queued" style="stroke:#2FA4E7;stroke-width:3.125;"/><polygon fill="#2FA4E7" points="494.6667,282.5534,485.037,279.0149,489.4697,282.8973,485.5873,287.3301,494.6667,282.5534" style="stroke:#2FA4E7;stroke-width:3.125;"/><text fill="#343A40" font-family="'Verdana'" font-size="12.5" lengthAdjust="spacing" textLength="155.9326" x="92.5521" y="542.5312">admin_retry (new job_id)</text></g><!--link success to *end*--><g class="link" data-entity-1="ent0011" data-entity-2="ent0021" data-link-type="dependency" data-source-line="36" id="lnk22"><path d="M181.0938,823.3971 C181.0938,886.8763 181.0938,1038.3451 181.0938,1080.8659" fill="none" id="success-to-*end*" style="stroke:#2FA4E7;stroke-width:3.125;"/><polygon fill="#2FA4E7" points="181.0938,1087.1159,185.2604,1077.7409,181.0938,1081.9076,176.9271,1077.7409,181.0938,1087.1159" style="stroke:#2FA4E7;stroke-width:3.125;"/></g><!--link failed to *end*--><g class="link" data-entity-1="ent0013" data-entity-2="ent0021" data-link-type="dependency" data-source-line="38" id="lnk23"><path d="M84.2708,823.3971 C106.7708,887.168 160.7433,1040.1387 175.4412,1081.7949" fill="none" id="failed-to-*end*" style="stroke:#2FA4E7;stroke-width:3.125;"/><polygon fill="#2FA4E7" points="177.5208,1087.6888,178.3307,1077.4616,175.7878,1082.7772,170.4722,1080.2344,177.5208,1087.6888" style="stroke:#2FA4E7;stroke-width:3.125;"/></g><!--link cancelled to *end*--><g class="link" data-entity-1="ent0007" data-entity-2="ent0021" data-link-type="dependency" data-source-line="39" id="lnk24"><path d="M541.0729,1008.1471 C450.0833,1030.8138 248.7834,1080.9592 198.3563,1093.5217" fill="none" id="cancelled-to-*end*" style="stroke:#2FA4E7;stroke-width:3.125;"/><polygon fill="#2FA4E7" points="192.2917,1095.0326,202.3959,1096.8094,197.3455,1093.7735,200.3814,1088.7232,192.2917,1095.0326" style="stroke:#2FA4E7;stroke-width:3.125;"/></g><?plantuml-src ZLBBRjmm3BpxAzZRfi3-G0y5UWtQItiCWeKYqLbsPSgXg2pSelyUoe_jAei2zS6mHpFK3CaFUiG1mQEKY8xtgMWangvJqeZmOs9_dvxWA_Ne9ryHTOhmpVdZJ7lu-0Zx_MTuALWmm2T0dZ-xBi_45V_TWJqR-Un8YPzdRA5jo9-kMnML9uNPKAjgB57OKS1XJ8hi9nXTpXZkhldUiSSOPnyk3CI71TdCRFLQDwCaZpctXgv0yxG9ApqNNq_i2f-6CQAHTsKCLLIb-QwbzuuMGoYIf3rRt1q4BKFM6zlRmMR_Xjxc2EA8snGNo3BSgDzth2TsaNxXfMchzMQyYpz1bGbsZ6VucPuEP6FuM-d_-DtMnqgt2CrrzRyjE3CurI7Iyr4XzUiTbjOMD8CJQv2WgydEf4V3hxRbSC89D1au2huYAuGoHl96pnroW5hw_GNhg4pq9RnIJXOX9d-o5Sz5J0UGE4xsilrDSaA14SNG7is3Kt2WDE0_owyDCC5tp2MgxHEhpQiYFXLM2sNI0TNPThbQE0aCYKcJL5-Nmcy0?></g></svg>