<?plantuml 1.2026.2?><svg xmlns="http://www.w3.org/2000/svg" xmlns:xlink="http://www.w3.org/1999/xlink" contentStyleType="text/css" data-diagram-type="ACTIVITY" height="2098.9583px" preserveAspectRatio="none" style="width:605px;height:2098px;" version="1.1" viewBox="0 0 605 2098" width="605.2083px" zoomAndPan="magnify"><title>IOC Service - Indicator Ingestion Workflow</title><defs/><g><g class="title" data-source-line="3"><rect fill="none" height="47.168" rx="4.1667" ry="4.1667" style="stroke:#BABDBF;stroke-width:1.0417;" width="522.2351" x="40.2766" y="20.8333"/><text fill="#2FA4E7" font-family="'Verdana'" font-size="20.8333" font-weight="bold" lengthAdjust="spacing" textLength="499.3184" x="51.7349" y="51.6296">IOC Service - Indicator Ingestion Workflow</text></g><ellipse cx="186.0952" cy="89.8763" fill="#033C73" rx="10.4167" ry="10.4167" style="stroke:#2683B9;stroke-width:1.0417;"/><rect fill="none" height="37.4674" rx="4.1667" ry="4.1667" style="stroke:#2FA4E7;stroke-width:1.0417;" width="170.872" x="100.6592" y="121.1263"/><text fill="#2FA4E7" font-family="'Verdana'" font-size="12.5" lengthAdjust="spacing" textLength="147.9553" x="112.1175" y="144.1874">Scheduler triggers sync</text><rect fill="none" height="37.4674" rx="4.1667" ry="4.1667" style="stroke:#2FA4E7;stroke-width:1.0417;" width="173.2829" x="99.4537" y="179.4271"/><text fill="#2FA4E7" font-family="'Verdana'" font-size="12.5" lengthAdjust="spacing" textLength="150.3662" x="110.9121" y="202.4882">Check idempotency key</text><rect fill="none" height="37.4674" rx="4.1667" ry="4.1667" style="stroke:#2FA4E7;stroke-width:1.0417;" width="111.3322" x="130.4291" y="293.9616"/><text fill="#2FA4E7" font-family="'Verdana'" font-size="12.5" lengthAdjust="spacing" textLength="88.4155" x="141.8874" y="317.0227">Skip duplicate</text><ellipse cx="186.0952" cy="371.5495" fill="none" rx="11.4583" ry="11.4583" style="stroke:#2683B9;stroke-width:1.0417;"/><ellipse cx="186.0952" cy="371.5495" fill="none" rx="6.25" ry="6.25" style="stroke:#2683B9;stroke-width:1.0417;"/><polygon fill="none" points="147.7051,237.7279,224.4853,237.7279,236.9853,250.2279,224.4853,262.7279,147.7051,262.7279,135.2051,250.2279,147.7051,237.7279" style="stroke:#BABDBF;stroke-width:1.0417;"/><text fill="#343A40" font-family="'Verdana'" font-size="12.5" lengthAdjust="spacing" textLength="21.8384" x="195.4702" y="279.539">Yes</text><text fill="#BABDBF" font-family="'Verdana'" font-size="12.5" lengthAdjust="spacing" textLength="66.3635" x="152.9134" y="254.5553">Job exists?</text><text fill="#343A40" font-family="'Verdana'" font-size="12.5" lengthAdjust="spacing" textLength="16.9983" x="242.1936" y="242.0715">No</text><rect fill="none" height="37.4674" rx="4.1667" ry="4.1667" style="stroke:#2FA4E7;stroke-width:1.0417;" width="162.4919" x="104.8492" y="426.7578"/><text fill="#2FA4E7" font-family="'Verdana'" font-size="12.5" lengthAdjust="spacing" textLength="139.5752" x="116.3076" y="449.8189">Create SyncJob record</text><rect fill="none" height="37.4674" rx="4.1667" ry="4.1667" style="stroke:#2FA4E7;stroke-width:1.0417;" width="147.1232" x="112.5336" y="485.0586"/><text fill="#2FA4E7" font-family="'Verdana'" font-size="12.5" lengthAdjust="spacing" textLength="124.2065" x="123.9919" y="508.1197">Mark job as running</text><rect fill="none" height="37.4674" rx="4.1667" ry="4.1667" style="stroke:#2FA4E7;stroke-width:1.0417;" width="156.84" x="107.6752" y="543.3594"/><text fill="#2FA4E7" font-family="'Verdana'" font-size="12.5" lengthAdjust="spacing" textLength="133.9233" x="119.1335" y="566.4205">Acquire advisory lock</text><rect fill="none" height="401.3997" rx="4.1667" ry="4.1667" style="stroke:#2FA4E7;stroke-width:1.0417;" width="212.8255" x="85.9324" y="591.2435"/><path d="M221.1456,591.2435 L221.1456,608.9193 L210.729,619.3359 L85.9324,619.3359" fill="none" style="stroke:#2FA4E7;stroke-width:1.0417;"/><text fill="#2FA4E7" font-family="'Verdana'" font-size="12.5" lengthAdjust="spacing" textLength="114.3799" x="94.2657" y="609.0963">External API Fetch</text><rect fill="none" height="37.4674" rx="4.1667" ry="4.1667" style="stroke:#2FA4E7;stroke-width:1.0417;" width="170.4264" x="100.882" y="637.0443"/><text fill="#2FA4E7" font-family="'Verdana'" font-size="12.5" lengthAdjust="spacing" textLength="147.5098" x="112.3403" y="660.1054">Fetch from external API</text><rect fill="none" height="37.4674" rx="4.1667" ry="4.1667" style="stroke:#2FA4E7;stroke-width:1.0417;" width="80.1921" x="145.9991" y="751.5788"/><text fill="#2FA4E7" font-family="'Verdana'" font-size="12.5" lengthAdjust="spacing" textLength="57.2754" x="157.4575" y="774.6399">Log error</text><rect fill="none" height="37.4674" rx="4.1667" ry="4.1667" style="stroke:#2FA4E7;stroke-width:1.0417;" width="133.5185" x="119.3359" y="809.8796"/><text fill="#2FA4E7" font-family="'Verdana'" font-size="12.5" lengthAdjust="spacing" textLength="110.6018" x="130.7943" y="832.9407">Mark job as failed</text><rect fill="none" height="37.4674" rx="4.1667" ry="4.1667" style="stroke:#2FA4E7;stroke-width:1.0417;" width="158.6589" x="106.7657" y="876.0091"/><text fill="#2FA4E7" font-family="'Verdana'" font-size="12.5" lengthAdjust="spacing" textLength="135.7422" x="118.2241" y="899.0702">Release advisory lock</text><ellipse cx="186.0952" cy="945.7682" fill="none" rx="11.4583" ry="11.4583" style="stroke:#2683B9;stroke-width:1.0417;"/><ellipse cx="186.0952" cy="945.7682" fill="none" rx="6.25" ry="6.25" style="stroke:#2683B9;stroke-width:1.0417;"/><polygon fill="none" points="125.9491,695.3451,246.2413,695.3451,258.7413,707.8451,246.2413,720.3451,125.9491,720.3451,113.4491,707.8451,125.9491,695.3451" style="stroke:#BABDBF;stroke-width:1.0417;"/><text fill="#343A40" font-family="'Verdana'" font-size="12.5" lengthAdjust="spacing" textLength="16.9983" x="195.4702" y="737.1562">No</text><text fill="#BABDBF" font-family="'Verdana'" font-size="12.5" lengthAdjust="spacing" textLength="109.8755" x="131.1574" y="712.1724">Fetch successful?</text><text fill="#343A40" font-family="'Verdana'" font-size="12.5" lengthAdjust="spacing" textLength="21.8384" x="263.9496" y="699.6887">Yes</text><rect fill="none" height="614.858" rx="4.1667" ry="4.1667" style="stroke:#2FA4E7;stroke-width:1.0417;" width="582.9966" x="11.4583" y="1003.0599"/><path d="M99.5341,1003.0599 L99.5341,1020.7357 L89.1174,1031.1523 L11.4583,1031.1523" fill="none" style="stroke:#2FA4E7;stroke-width:1.0417;"/><text fill="#2FA4E7" font-family="'Verdana'" font-size="12.5" lengthAdjust="spacing" textLength="67.2424" x="19.7917" y="1020.9127">Processing</text><rect fill="none" height="37.4674" rx="4.1667" ry="4.1667" style="stroke:#2FA4E7;stroke-width:1.0417;" width="153.2633" x="109.4635" y="1048.8607"/><text fill="#2FA4E7" font-family="'Verdana'" font-size="12.5" lengthAdjust="spacing" textLength="130.3467" x="120.9218" y="1071.9218">Parse JSON response</text><rect fill="none" height="37.4674" rx="4.1667" ry="4.1667" style="stroke:#2FA4E7;stroke-width:1.0417;" width="124.2045" x="123.9929" y="1171.3684"/><text fill="#2FA4E7" font-family="'Verdana'" font-size="12.5" lengthAdjust="spacing" textLength="101.2878" x="135.4513" y="1194.4295">Normalize value</text><rect fill="none" height="37.4674" rx="4.1667" ry="4.1667" style="stroke:#2FA4E7;stroke-width:1.0417;" width="290.9403" x="40.625" y="1229.6692"/><text fill="#2FA4E7" font-family="'Verdana'" font-size="12.5" lengthAdjust="spacing" textLength="268.0237" x="52.0833" y="1252.7303">Determine type (ip/domain/url/hash/email)</text><path d="M266.4429,1289.0116 L266.4429,1302.537 L245.6095,1306.7037 L266.4429,1310.8704 L266.4429,1324.3958 A0,0 0 0 0 266.4429,1324.3958 L482.6213,1324.3958 A0,0 0 0 0 482.6213,1324.3958 L482.6213,1299.4283 L472.2046,1289.0116 L266.4429,1289.0116 A0,0 0 0 0 266.4429,1289.0116" fill="none" style="stroke:#033C73;stroke-width:1.0417;"/><path d="M472.2046,1289.0116 L472.2046,1299.4283 L482.6213,1299.4283 L472.2046,1289.0116" fill="none" style="stroke:#033C73;stroke-width:1.0417;"/><text fill="#033C73" font-family="'Verdana'" font-size="12.5" lengthAdjust="spacing" textLength="183.8867" x="277.9012" y="1311.0311">CrowdSec always TLP:AMBER</text><rect fill="none" height="37.4674" rx="4.1667" ry="4.1667" style="stroke:#2FA4E7;stroke-width:1.0417;" width="119.0287" x="126.5808" y="1287.97"/><text fill="#2FA4E7" font-family="'Verdana'" font-size="12.5" lengthAdjust="spacing" textLength="96.1121" x="138.0391" y="1311.0311">Apply TLP rules</text><rect fill="none" height="37.4674" rx="4.1667" ry="4.1667" style="stroke:#2FA4E7;stroke-width:1.0417;" width="153.6967" x="109.2468" y="1346.2708"/><text fill="#2FA4E7" font-family="'Verdana'" font-size="12.5" lengthAdjust="spacing" textLength="130.78" x="120.7052" y="1369.3319">Calculate confidence</text><rect fill="none" height="37.4674" rx="4.1667" ry="4.1667" style="stroke:#2FA4E7;stroke-width:1.0417;" width="89.1886" x="141.5009" y="1404.5715"/><text fill="#2FA4E7" font-family="'Verdana'" font-size="12.5" lengthAdjust="spacing" textLength="66.272" x="152.9592" y="1427.6326">Apply tags</text><rect fill="none" height="130.0456" rx="4.1667" ry="4.1667" style="stroke:#2FA4E7;stroke-width:1.0417;" width="454.9866" x="110.3017" y="1452.4556"/><path d="M236.0789,1452.4556 L236.0789,1470.1314 L225.6622,1480.5481 L110.3017,1480.5481" fill="none" style="stroke:#2FA4E7;stroke-width:1.0417;"/><text fill="#2FA4E7" font-family="'Verdana'" font-size="12.5" lengthAdjust="spacing" textLength="104.9438" x="118.6351" y="1470.3084">Database Upsert</text><path d="M272.3053,1490.9648 L272.3053,1526.3163 L251.472,1530.483 L272.3053,1534.6497 L272.3053,1570.0012 A0,0 0 0 0 272.3053,1570.0012 L554.8716,1570.0012 A0,0 0 0 0 554.8716,1570.0012 L554.8716,1501.3814 L544.455,1490.9648 L272.3053,1490.9648 A0,0 0 0 0 272.3053,1490.9648" fill="none" style="stroke:#033C73;stroke-width:1.0417;"/><path d="M544.455,1490.9648 L544.455,1501.3814 L554.8716,1501.3814 L544.455,1490.9648" fill="none" style="stroke:#033C73;stroke-width:1.0417;"/><text fill="#033C73" font-family="'Verdana'" font-size="12.5" lengthAdjust="spacing" textLength="250.2747" x="283.7636" y="1512.9842">ON CONFLICT (value, source, source_id)</text><text fill="#033C73" font-family="'Verdana'" font-size="12.5" lengthAdjust="spacing" textLength="101.2756" x="283.7636" y="1527.535">DO UPDATE SET</text><text fill="#033C73" font-family="'Verdana'" font-size="12.5" lengthAdjust="spacing" textLength="122.3083" x="291.7104" y="1542.0858">last_seen = NOW(),</text><text fill="#033C73" font-family="'Verdana'" font-size="12.5" lengthAdjust="spacing" textLength="106.0181" x="291.7104" y="1556.6366">is_active = TRUE</text><rect fill="none" height="37.4674" rx="4.1667" ry="4.1667" style="stroke:#2FA4E7;stroke-width:1.0417;" width="130.7536" x="120.7184" y="1511.7493"/><text fill="#2FA4E7" font-family="'Verdana'" font-size="12.5" lengthAdjust="spacing" textLength="107.8369" x="132.1767" y="1534.8104">UPSERT indicator</text><polygon fill="none" points="124.3408,1107.1615,247.8495,1107.1615,260.3495,1119.6615,247.8495,1132.1615,124.3408,1132.1615,111.8408,1119.6615,124.3408,1107.1615" style="stroke:#BABDBF;stroke-width:1.0417;"/><text fill="#343A40" font-family="'Verdana'" font-size="12.5" lengthAdjust="spacing" textLength="32.6538" x="195.4702" y="1148.9726">more</text><text fill="#BABDBF" font-family="'Verdana'" font-size="12.5" lengthAdjust="spacing" textLength="113.092" x="129.5492" y="1123.9889">For each indicator</text><text fill="#343A40" font-family="'Verdana'" font-size="12.5" lengthAdjust="spacing" textLength="31.1951" x="75.4374" y="1111.5051">done</text><rect fill="none" height="115.4948" rx="4.1667" ry="4.1667" style="stroke:#2FA4E7;stroke-width:1.0417;" width="409.9731" x="71.5413" y="1628.3346"/><path d="M143.7052,1628.3346 L143.7052,1646.0103 L133.2886,1656.427 L71.5413,1656.427" fill="none" style="stroke:#2FA4E7;stroke-width:1.0417;"/><text fill="#2FA4E7" font-family="'Verdana'" font-size="12.5" lengthAdjust="spacing" textLength="51.3306" x="79.8747" y="1646.1873">Cleanup</text><path d="M311.0657,1666.8437 L311.0657,1694.9198 L290.2323,1699.0865 L311.0657,1703.2532 L311.0657,1731.3293 A0,0 0 0 0 311.0657,1731.3293 L471.0978,1731.3293 A0,0 0 0 0 471.0978,1731.3293 L471.0978,1677.2603 L460.6812,1666.8437 L311.0657,1666.8437 A0,0 0 0 0 311.0657,1666.8437" fill="none" style="stroke:#033C73;stroke-width:1.0417;"/><path d="M460.6812,1666.8437 L460.6812,1677.2603 L471.0978,1677.2603 L460.6812,1666.8437" fill="none" style="stroke:#033C73;stroke-width:1.0417;"/><text fill="#033C73" font-family="'Verdana'" font-size="12.5" lengthAdjust="spacing" textLength="127.7405" x="322.524" y="1688.8631">Set is_active=FALSE</text><text fill="#033C73" font-family="'Verdana'" font-size="12.5" lengthAdjust="spacing" textLength="122.5098" x="322.524" y="1703.4139">for indicators not in</text><text fill="#033C73" font-family="'Verdana'" font-size="12.5" lengthAdjust="spacing" textLength="81.3477" x="322.524" y="1717.9647">current fetch</text><rect fill="none" height="37.4674" rx="4.1667" ry="4.1667" style="stroke:#2FA4E7;stroke-width:1.0417;" width="208.2743" x="81.958" y="1680.3528"/><text fill="#2FA4E7" font-family="'Verdana'" font-size="12.5" lengthAdjust="spacing" textLength="185.3577" x="93.4163" y="1703.4139">Deactivate missing indicators</text><rect fill="none" height="115.4948" rx="4.1667" ry="4.1667" style="stroke:#2FA4E7;stroke-width:1.0417;" width="319.7876" x="107.372" y="1754.246"/><path d="M185.3465,1754.246 L185.3465,1771.9218 L174.9298,1782.3385 L107.372,1782.3385" fill="none" style="stroke:#2FA4E7;stroke-width:1.0417;"/><text fill="#2FA4E7" font-family="'Verdana'" font-size="12.5" lengthAdjust="spacing" textLength="57.1411" x="115.7054" y="1772.0988">Statistics</text><path d="M275.235,1792.7551 L275.235,1820.8313 L254.4017,1824.998 L275.235,1829.1646 L275.235,1857.2408 A0,0 0 0 0 275.235,1857.2408 L416.743,1857.2408 A0,0 0 0 0 416.743,1857.2408 L416.743,1803.1718 L406.3263,1792.7551 L275.235,1792.7551 A0,0 0 0 0 275.235,1792.7551" fill="none" style="stroke:#033C73;stroke-width:1.0417;"/><path d="M406.3263,1792.7551 L406.3263,1803.1718 L416.743,1803.1718 L406.3263,1792.7551" fill="none" style="stroke:#033C73;stroke-width:1.0417;"/><text fill="#033C73" font-family="'Verdana'" font-size="12.5" lengthAdjust="spacing" textLength="94.9951" x="286.6933" y="1814.7746">Update counts,</text><text fill="#033C73" font-family="'Verdana'" font-size="12.5" lengthAdjust="spacing" textLength="109.2163" x="286.6933" y="1829.3254">last_fetch_status,</text><text fill="#033C73" font-family="'Verdana'" font-size="12.5" lengthAdjust="spacing" textLength="60.5835" x="286.6933" y="1843.8761">metadata</text><rect fill="none" height="37.4674" rx="4.1667" ry="4.1667" style="stroke:#2FA4E7;stroke-width:1.0417;" width="136.613" x="117.7887" y="1806.2642"/><text fill="#2FA4E7" font-family="'Verdana'" font-size="12.5" lengthAdjust="spacing" textLength="113.6963" x="129.247" y="1829.3254">Update feed_stats</text><rect fill="none" height="37.4674" rx="4.1667" ry="4.1667" style="stroke:#2FA4E7;stroke-width:1.0417;" width="147.7824" x="112.204" y="1890.5741"/><text fill="#2FA4E7" font-family="'Verdana'" font-size="12.5" lengthAdjust="spacing" textLength="124.8657" x="123.6623" y="1913.6353">Mark job as success</text><rect fill="none" height="37.4674" rx="4.1667" ry="4.1667" style="stroke:#2FA4E7;stroke-width:1.0417;" width="158.6589" x="106.7657" y="1948.8749"/><text fill="#2FA4E7" font-family="'Verdana'" font-size="12.5" lengthAdjust="spacing" textLength="135.7422" x="118.2241" y="1971.936">Release advisory lock</text><rect fill="none" height="37.4674" rx="4.1667" ry="4.1667" style="stroke:#2FA4E7;stroke-width:1.0417;" width="119.1752" x="126.5076" y="2007.1757"/><text fill="#2FA4E7" font-family="'Verdana'" font-size="12.5" lengthAdjust="spacing" textLength="96.2585" x="137.9659" y="2030.2368">Log completion</text><ellipse cx="186.0952" cy="2076.9348" fill="none" rx="11.4583" ry="11.4583" style="stroke:#2683B9;stroke-width:1.0417;"/><ellipse cx="186.0952" cy="2076.9348" fill="none" rx="6.25" ry="6.25" style="stroke:#2683B9;stroke-width:1.0417;"/><line style="stroke:#2FA4E7;stroke-width:3.125;" x1="186.0952" x2="186.0952" y1="100.293" y2="121.1263"/><polygon fill="#2FA4E7" points="181.9285,110.7096,186.0952,121.1263,190.2618,110.7096,186.0952,114.8763" style="stroke:#2FA4E7;stroke-width:1.0417;"/><line style="stroke:#2FA4E7;stroke-width:3.125;" x1="186.0952" x2="186.0952" y1="158.5938" y2="179.4271"/><polygon fill="#2FA4E7" points="181.9285,169.0104,186.0952,179.4271,190.2618,169.0104,186.0952,173.1771" style="stroke:#2FA4E7;stroke-width:1.0417;"/><line style="stroke:#2FA4E7;stroke-width:3.125;" x1="186.0952" x2="186.0952" y1="331.429" y2="360.0911"/><polygon fill="#2FA4E7" points="181.9285,349.6745,186.0952,360.0911,190.2618,349.6745,186.0952,353.8411" style="stroke:#2FA4E7;stroke-width:1.0417;"/><line style="stroke:#2FA4E7;stroke-width:3.125;" x1="186.0952" x2="186.0952" y1="262.7279" y2="293.9616"/><polygon fill="#2FA4E7" points="181.9285,283.5449,186.0952,293.9616,190.2618,283.5449,186.0952,287.7116" style="stroke:#2FA4E7;stroke-width:1.0417;"/><line style="stroke:#2FA4E7;stroke-width:3.125;" x1="236.9853" x2="252.1779" y1="250.2279" y2="250.2279"/><polygon fill="#2FA4E7" points="248.0113,328.8411,252.1779,339.2578,256.3446,328.8411,252.1779,333.0078" style="stroke:#2FA4E7;stroke-width:3.125;"/><line style="stroke:#2FA4E7;stroke-width:3.125;" x1="252.1779" x2="252.1779" y1="250.2279" y2="405.9245"/><line style="stroke:#2FA4E7;stroke-width:3.125;" x1="252.1779" x2="186.0952" y1="405.9245" y2="405.9245"/><line style="stroke:#2FA4E7;stroke-width:3.125;" x1="186.0952" x2="186.0952" y1="405.9245" y2="426.7578"/><polygon fill="#2FA4E7" points="181.9285,416.3411,186.0952,426.7578,190.2618,416.3411,186.0952,420.5078" style="stroke:#2FA4E7;stroke-width:1.0417;"/><line style="stroke:#2FA4E7;stroke-width:3.125;" x1="186.0952" x2="186.0952" y1="216.8945" y2="237.7279"/><polygon fill="#2FA4E7" points="181.9285,227.3112,186.0952,237.7279,190.2618,227.3112,186.0952,231.4779" style="stroke:#2FA4E7;stroke-width:1.0417;"/><line style="stroke:#2FA4E7;stroke-width:3.125;" x1="186.0952" x2="186.0952" y1="464.2253" y2="485.0586"/><polygon fill="#2FA4E7" points="181.9285,474.6419,186.0952,485.0586,190.2618,474.6419,186.0952,478.8086" style="stroke:#2FA4E7;stroke-width:1.0417;"/><line style="stroke:#2FA4E7;stroke-width:3.125;" x1="186.0952" x2="186.0952" y1="522.526" y2="543.3594"/><polygon fill="#2FA4E7" points="181.9285,532.9427,186.0952,543.3594,190.2618,532.9427,186.0952,537.1094" style="stroke:#2FA4E7;stroke-width:1.0417;"/><line style="stroke:#2FA4E7;stroke-width:3.125;" x1="186.0952" x2="186.0952" y1="789.0462" y2="809.8796"/><polygon fill="#2FA4E7" points="181.9285,799.4629,186.0952,809.8796,190.2618,799.4629,186.0952,803.6296" style="stroke:#2FA4E7;stroke-width:1.0417;"/><line style="stroke:#2FA4E7;stroke-width:3.125;" x1="186.0952" x2="186.0952" y1="847.347" y2="876.0091"/><polygon fill="#2FA4E7" points="181.9285,865.5924,186.0952,876.0091,190.2618,865.5924,186.0952,869.7591" style="stroke:#2FA4E7;stroke-width:1.0417;"/><line style="stroke:#2FA4E7;stroke-width:3.125;" x1="186.0952" x2="186.0952" y1="913.4766" y2="934.3099"/><polygon fill="#2FA4E7" points="181.9285,923.8932,186.0952,934.3099,190.2618,923.8932,186.0952,928.0599" style="stroke:#2FA4E7;stroke-width:1.0417;"/><line style="stroke:#2FA4E7;stroke-width:3.125;" x1="186.0952" x2="186.0952" y1="720.3451" y2="751.5788"/><polygon fill="#2FA4E7" points="181.9285,741.1621,186.0952,751.5788,190.2618,741.1621,186.0952,745.3288" style="stroke:#2FA4E7;stroke-width:1.0417;"/><line style="stroke:#2FA4E7;stroke-width:3.125;" x1="258.7413" x2="275.8413" y1="707.8451" y2="707.8451"/><polygon fill="#2FA4E7" points="271.6746,844.7591,275.8413,855.1758,280.0079,844.7591,275.8413,848.9258" style="stroke:#2FA4E7;stroke-width:3.125;"/><line style="stroke:#2FA4E7;stroke-width:3.125;" x1="275.8413" x2="275.8413" y1="707.8451" y2="980.1432"/><line style="stroke:#2FA4E7;stroke-width:3.125;" x1="275.8413" x2="186.0952" y1="980.1432" y2="980.1432"/><line style="stroke:#2FA4E7;stroke-width:3.125;" x1="186.0952" x2="186.0952" y1="980.1432" y2="1048.8607"/><polygon fill="#2FA4E7" points="181.9285,1038.444,186.0952,1048.8607,190.2618,1038.444,186.0952,1042.6107" style="stroke:#2FA4E7;stroke-width:1.0417;"/><line style="stroke:#2FA4E7;stroke-width:3.125;" x1="186.0952" x2="186.0952" y1="674.5117" y2="695.3451"/><polygon fill="#2FA4E7" points="181.9285,684.9284,186.0952,695.3451,190.2618,684.9284,186.0952,689.0951" style="stroke:#2FA4E7;stroke-width:1.0417;"/><line style="stroke:#2FA4E7;stroke-width:3.125;" x1="186.0952" x2="186.0952" y1="580.8268" y2="637.0443"/><polygon fill="#2FA4E7" points="181.9285,626.6276,186.0952,637.0443,190.2618,626.6276,186.0952,630.7943" style="stroke:#2FA4E7;stroke-width:1.0417;"/><line style="stroke:#2FA4E7;stroke-width:3.125;" x1="186.0952" x2="186.0952" y1="1208.8359" y2="1229.6692"/><polygon fill="#2FA4E7" points="181.9285,1219.2525,186.0952,1229.6692,190.2618,1219.2525,186.0952,1223.4192" style="stroke:#2FA4E7;stroke-width:1.0417;"/><line style="stroke:#2FA4E7;stroke-width:3.125;" x1="186.0952" x2="186.0952" y1="1267.1366" y2="1287.97"/><polygon fill="#2FA4E7" points="181.9285,1277.5533,186.0952,1287.97,190.2618,1277.5533,186.0952,1281.72" style="stroke:#2FA4E7;stroke-width:1.0417;"/><line style="stroke:#2FA4E7;stroke-width:3.125;" x1="186.0952" x2="186.0952" y1="1325.4374" y2="1346.2708"/><polygon fill="#2FA4E7" points="181.9285,1335.8541,186.0952,1346.2708,190.2618,1335.8541,186.0952,1340.0208" style="stroke:#2FA4E7;stroke-width:1.0417;"/><line style="stroke:#2FA4E7;stroke-width:3.125;" x1="186.0952" x2="186.0952" y1="1383.7382" y2="1404.5715"/><polygon fill="#2FA4E7" points="181.9285,1394.1549,186.0952,1404.5715,190.2618,1394.1549,186.0952,1398.3215" style="stroke:#2FA4E7;stroke-width:1.0417;"/><line style="stroke:#2FA4E7;stroke-width:3.125;" x1="186.0952" x2="186.0952" y1="1442.039" y2="1511.7493"/><polygon fill="#2FA4E7" points="181.9285,1501.3326,186.0952,1511.7493,190.2618,1501.3326,186.0952,1505.4993" style="stroke:#2FA4E7;stroke-width:1.0417;"/><line style="stroke:#2FA4E7;stroke-width:3.125;" x1="186.0952" x2="186.0952" y1="1132.1615" y2="1171.3684"/><polygon fill="#2FA4E7" points="181.9285,1160.9517,186.0952,1171.3684,190.2618,1160.9517,186.0952,1165.1184" style="stroke:#2FA4E7;stroke-width:1.0417;"/><line style="stroke:#2FA4E7;stroke-width:3.125;" x1="186.0952" x2="186.0952" y1="1549.2167" y2="1592.9179"/><line style="stroke:#2FA4E7;stroke-width:3.125;" x1="186.0952" x2="577.7883" y1="1592.9179" y2="1592.9179"/><polygon fill="#2FA4E7" points="573.6216,1367.5761,577.7883,1357.1594,581.955,1367.5761,577.7883,1363.4094" style="stroke:#2FA4E7;stroke-width:3.125;"/><line style="stroke:#2FA4E7;stroke-width:3.125;" x1="577.7883" x2="577.7883" y1="1119.6615" y2="1592.9179"/><line style="stroke:#2FA4E7;stroke-width:3.125;" x1="577.7883" x2="260.3495" y1="1119.6615" y2="1119.6615"/><polygon fill="#2FA4E7" points="270.7662,1115.4948,260.3495,1119.6615,270.7662,1123.8281,266.5995,1119.6615" style="stroke:#2FA4E7;stroke-width:1.0417;"/><line style="stroke:#2FA4E7;stroke-width:3.125;" x1="111.8408" x2="28.125" y1="1119.6615" y2="1119.6615"/><polygon fill="#2FA4E7" points="23.9583,1358.2011,28.125,1368.6178,32.2917,1358.2011,28.125,1362.3678" style="stroke:#2FA4E7;stroke-width:3.125;"/><line style="stroke:#2FA4E7;stroke-width:3.125;" x1="28.125" x2="28.125" y1="1119.6615" y2="1610.6262"/><line style="stroke:#2FA4E7;stroke-width:3.125;" x1="28.125" x2="186.0952" y1="1610.6262" y2="1610.6262"/><line style="stroke:#2FA4E7;stroke-width:3.125;" x1="186.0952" x2="186.0952" y1="1610.6262" y2="1680.3528"/><polygon fill="#2FA4E7" points="181.9285,1669.9361,186.0952,1680.3528,190.2618,1669.9361,186.0952,1674.1028" style="stroke:#2FA4E7;stroke-width:1.0417;"/><line style="stroke:#2FA4E7;stroke-width:3.125;" x1="186.0952" x2="186.0952" y1="1086.3281" y2="1107.1615"/><polygon fill="#2FA4E7" points="181.9285,1096.7448,186.0952,1107.1615,190.2618,1096.7448,186.0952,1100.9115" style="stroke:#2FA4E7;stroke-width:1.0417;"/><line style="stroke:#2FA4E7;stroke-width:3.125;" x1="186.0952" x2="186.0952" y1="1717.8202" y2="1806.2642"/><polygon fill="#2FA4E7" points="181.9285,1795.8476,186.0952,1806.2642,190.2618,1795.8476,186.0952,1800.0142" style="stroke:#2FA4E7;stroke-width:1.0417;"/><line style="stroke:#2FA4E7;stroke-width:3.125;" x1="186.0952" x2="186.0952" y1="1843.7317" y2="1890.5741"/><polygon fill="#2FA4E7" points="181.9285,1880.1575,186.0952,1890.5741,190.2618,1880.1575,186.0952,1884.3241" style="stroke:#2FA4E7;stroke-width:1.0417;"/><line style="stroke:#2FA4E7;stroke-width:3.125;" x1="186.0952" x2="186.0952" y1="1928.0416" y2="1948.8749"/><polygon fill="#2FA4E7" points="181.9285,1938.4583,186.0952,1948.8749,190.2618,1938.4583,186.0952,1942.6249" style="stroke:#2FA4E7;stroke-width:1.0417;"/><line style="stroke:#2FA4E7;stroke-width:3.125;" x1="186.0952" x2="186.0952" y1="1986.3424" y2="2007.1757"/><polygon fill="#2FA4E7" points="181.9285,1996.759,186.0952,2007.1757,190.2618,1996.759,186.0952,2000.9257" style="stroke:#2FA4E7;stroke-width:1.0417;"/><line style="stroke:#2FA4E7;stroke-width:3.125;" x1="186.0952" x2="186.0952" y1="2044.6431" y2="2065.4765"/><polygon fill="#2FA4E7" points="181.9285,2055.0598,186.0952,2065.4765,190.2618,2055.0598,186.0952,2059.2265" style="stroke:#2FA4E7;stroke-width:1.0417;"/><?plantuml-src TLHDRnen4BtlhvZc158Zxg2eea0a8WA81KKz8SSxoxfuxQq_8BJAV-_OWLqGu0DWpupdlUV7V7C5bWWSZPV8rAFsJWg5IUA4amZZsG1ID3l14HvXh3B1cTE6VctGEg4Ll6cppQNU9ubrpBWawQQym8nkC-2Cs6pGMB07nNiK6XJ8jo0oB2ljKF43RF500P53wqM_0tu8w-oFDX0g1QrVQDi9qEgcMr51vYiP-cCl7bgdgmIbHMXDTJj10fU77WOf1L9g6QuqoBN9UadtbPaj_AOJPi5ufOJQ14Xz_iSBWy2odR3Q741glgL0HMH4PFWm-d1e59FGdu_X6Hql7k3V5wwuWzpeah0tMLy0uqUWzfLbFUTeRUxbDS661XnNTw8tWCPeqslEpZdaJ4ZCpe8Bf1UqLqnEyIXNx1M5-hoWE3SwO2DDQcfpPkYobtGs9GrjfPN5CrhxWheJC_82CY8dJjPeWx3GAhN1CovJRKecnL-47PCUpq0FaLGhoN7W3XLTAAfEfaicLCSRsIcOBJf8MzbkQfhYVbN90omdSmZkjKsA8dS1cQzmzL5O0wFtMOeScDopWmsLtVxhpz6YpY9jOl6DPWCckPV1Mbohd3oiEDu7vTZ6teYUIJvaZhs7zrfL5eqxwLxVivgdeyMo4RPt4Rx3C2nwiC5i-ZmP3vRGYdf_1wkzuVNtMcJjgxBX35RpONyvWdIql8e2I6RTsYBPzWccixTM-_kD967NZ3knGqfQBbQZYvGhSJzFVZowATEAN7Ffp44OIxwgRJd4s22yGocYOnk9ZehVq2P5rs1xUkvFqWPQJXvkhWZLjAsZt1k3oa4U_iF91OrBeAbZZgQNuBR6kggoW3D7pDOq7TrzVCTChhrojX4sQXuxntf_5YhHCQfXLv0kXiHnvj3ukpCTufZXkgma1XgzCCPfJlm7?></g></svg>