<?xml version="1.0" encoding="us-ascii" standalone="no"?><svg xmlns="http://www.w3.org/2000/svg" xmlns:xlink="http://www.w3.org/1999/xlink" contentStyleType="text/css" height="2278.125px" preserveAspectRatio="none" style="width:1170px;height:2278px;" version="1.1" viewBox="0 0 1170 2278" width="1170.8333px" zoomAndPan="magnify"><defs/><g><rect fill="none" height="51.2916" id="_title" rx="4.1667" ry="4.1667" style="stroke:#BABDBF;stroke-width:1.0416666666666667;" width="484.375" x="341.9271" y="20.8333"/><text fill="#2FA4E7" font-family="Verdana" font-size="20.8333" font-weight="bold" lengthAdjust="spacing" textLength="461.4583" x="353.3854" y="54.5625">IOC Service - Feed Synchronization Sequence</text><rect fill="none" height="288.9675" style="stroke:#BABDBF;stroke-width:1.0416666666666667;" width="10.4167" x="544.2708" y="317.3088"/><rect fill="none" height="746.3602" style="stroke:#BABDBF;stroke-width:1.0416666666666667;" width="10.4167" x="758.8542" y="696.5765"/><rect fill="none" height="42.0251" style="stroke:#BABDBF;stroke-width:1.0416666666666667;" width="10.4167" x="948.4375" y="879.2603"/><rect fill="none" height="31.25" style="stroke:#BABDBF;stroke-width:1.0416666666666667;" width="10.4167" x="1090.625" y="1179.6862"/><rect fill="none" height="42.0251" style="stroke:#BABDBF;stroke-width:1.0416666666666667;" width="10.4167" x="1090.625" y="1316.8614"/><rect fill="none" height="210.484" rx="4.1667" ry="4.1667" style="stroke:#2FA4E7;stroke-width:1.0416666666666667;" width="421.875" x="265.1042" y="388.5006"/><rect fill="none" height="225.7506" rx="4.1667" ry="4.1667" style="stroke:#2FA4E7;stroke-width:1.0416666666666667;" width="484.375" x="664.0625" y="993.5189"/><rect fill="none" height="238.9675" rx="4.1667" ry="4.1667" style="stroke:#2FA4E7;stroke-width:1.0416666666666667;" width="883.3333" x="265.1042" y="1557.1953"/><rect fill="none" height="167.4173" rx="4.1667" ry="4.1667" style="stroke:#2FA4E7;stroke-width:1.0416666666666667;" width="685.9375" x="462.5" y="1993.43"/><line style="stroke:#BABDBF;stroke-width:1.0416666666666667;stroke-dasharray:5.0,5.0;" x1="54.1667" x2="54.1667" y1="174.5668" y2="2178.5556"/><line style="stroke:#BABDBF;stroke-width:1.0416666666666667;stroke-dasharray:5.0,5.0;" x1="313.0208" x2="313.0208" y1="174.5668" y2="2178.5556"/><line style="stroke:#BABDBF;stroke-width:1.0416666666666667;stroke-dasharray:5.0,5.0;" x1="548.9583" x2="548.9583" y1="174.5668" y2="2178.5556"/><line style="stroke:#BABDBF;stroke-width:1.0416666666666667;stroke-dasharray:5.0,5.0;" x1="764.0625" x2="764.0625" y1="174.5668" y2="2178.5556"/><line style="stroke:#BABDBF;stroke-width:1.0416666666666667;stroke-dasharray:5.0,5.0;" x1="953.6458" x2="953.6458" y1="174.5668" y2="2178.5556"/><line style="stroke:#BABDBF;stroke-width:1.0416666666666667;stroke-dasharray:5.0,5.0;" x1="1095.3125" x2="1095.3125" y1="174.5668" y2="2178.5556"/><text fill="#2FA4E7" font-family="Verdana" font-size="12.5" lengthAdjust="spacing" textLength="61.4583" x="20.8333" y="165.6959">Admin/API</text><ellipse cx="54.6875" cy="92.9583" fill="none" rx="8.3333" ry="8.3333" style="stroke:#2FA4E7;stroke-width:1.0416666666666667;"/><path d="M54.6875,101.2916 L54.6875,129.4166 M41.1458,109.625 L68.2292,109.625 M54.6875,129.4166 L41.1458,145.0416 M54.6875,129.4166 L68.2292,145.0416 " fill="none" style="stroke:#2FA4E7;stroke-width:1.0416666666666667;"/><text fill="#2FA4E7" font-family="Verdana" font-size="12.5" lengthAdjust="spacing" textLength="61.4583" x="20.8333" y="2196.0848">Admin/API</text><ellipse cx="54.6875" cy="2214.3307" fill="none" rx="8.3333" ry="8.3333" style="stroke:#2FA4E7;stroke-width:1.0416666666666667;"/><path d="M54.6875,2222.664 L54.6875,2250.789 M41.1458,2230.9974 L68.2292,2230.9974 M54.6875,2250.789 L41.1458,2266.414 M54.6875,2250.789 L68.2292,2266.414 " fill="none" style="stroke:#2FA4E7;stroke-width:1.0416666666666667;"/><text fill="#2FA4E7" font-family="Verdana" font-size="12.5" lengthAdjust="spacing" textLength="58.3333" x="280.7292" y="165.6959">Scheduler</text><ellipse cx="313.0208" cy="92.9583" fill="none" rx="8.3333" ry="8.3333" style="stroke:#2FA4E7;stroke-width:1.0416666666666667;"/><path d="M313.0208,101.2916 L313.0208,129.4166 M299.4792,109.625 L326.5625,109.625 M313.0208,129.4166 L299.4792,145.0416 M313.0208,129.4166 L326.5625,145.0416 " fill="none" style="stroke:#2FA4E7;stroke-width:1.0416666666666667;"/><text fill="#2FA4E7" font-family="Verdana" font-size="12.5" lengthAdjust="spacing" textLength="58.3333" x="280.7292" y="2196.0848">Scheduler</text><ellipse cx="313.0208" cy="2214.3307" fill="none" rx="8.3333" ry="8.3333" style="stroke:#2FA4E7;stroke-width:1.0416666666666667;"/><path d="M313.0208,2222.664 L313.0208,2250.789 M299.4792,2230.9974 L326.5625,2230.9974 M313.0208,2250.789 L299.4792,2266.414 M313.0208,2250.789 L326.5625,2266.414 " fill="none" style="stroke:#2FA4E7;stroke-width:1.0416666666666667;"/><rect fill="none" height="59.0502" rx="4.1667" ry="4.1667" style="stroke:#2FA4E7;stroke-width:1.0416666666666667;" width="69.7917" x="514.5833" y="114.4749"/><text fill="#2FA4E7" font-family="Verdana" font-size="12.5" lengthAdjust="spacing" textLength="44.7917" x="527.0833" y="140.3374">SyncJob</text><text fill="#2FA4E7" font-family="Verdana" font-size="12.5" lengthAdjust="spacing" textLength="32.2917" x="533.3333" y="157.3626">Table</text><rect fill="none" height="59.0502" rx="4.1667" ry="4.1667" style="stroke:#2FA4E7;stroke-width:1.0416666666666667;" width="69.7917" x="514.5833" y="2177.5139"/><text fill="#2FA4E7" font-family="Verdana" font-size="12.5" lengthAdjust="spacing" textLength="44.7917" x="527.0833" y="2203.3765">SyncJob</text><text fill="#2FA4E7" font-family="Verdana" font-size="12.5" lengthAdjust="spacing" textLength="32.2917" x="533.3333" y="2220.4016">Table</text><rect fill="none" height="42.0251" rx="4.1667" ry="4.1667" style="stroke:#2FA4E7;stroke-width:1.0416666666666667;" width="95.8333" x="716.1458" y="131.5"/><text fill="#2FA4E7" font-family="Verdana" font-size="12.5" lengthAdjust="spacing" textLength="70.8333" x="728.6458" y="157.3626">FeedService</text><rect fill="none" height="42.0251" rx="4.1667" ry="4.1667" style="stroke:#2FA4E7;stroke-width:1.0416666666666667;" width="95.8333" x="716.1458" y="2177.5139"/><text fill="#2FA4E7" font-family="Verdana" font-size="12.5" lengthAdjust="spacing" textLength="70.8333" x="728.6458" y="2203.3765">FeedService</text><rect fill="none" height="42.0251" rx="4.1667" ry="4.1667" style="stroke:#2FA4E7;stroke-width:1.0416666666666667;" width="95.8333" x="905.7292" y="131.5"/><text fill="#2FA4E7" font-family="Verdana" font-size="12.5" lengthAdjust="spacing" textLength="70.8333" x="918.2292" y="157.3626">External API</text><rect fill="none" height="42.0251" rx="4.1667" ry="4.1667" style="stroke:#2FA4E7;stroke-width:1.0416666666666667;" width="95.8333" x="905.7292" y="2177.5139"/><text fill="#2FA4E7" font-family="Verdana" font-size="12.5" lengthAdjust="spacing" textLength="70.8333" x="918.2292" y="2203.3765">External API</text><text fill="#2FA4E7" font-family="Verdana" font-size="12.5" lengthAdjust="spacing" textLength="67.7083" x="1058.8542" y="165.6959">PostgreSQL</text><path d="M1077.0833,109.625 C1077.0833,99.2083 1095.8333,99.2083 1095.8333,99.2083 C1095.8333,99.2083 1114.5833,99.2083 1114.5833,109.625 L1114.5833,136.7083 C1114.5833,147.125 1095.8333,147.125 1095.8333,147.125 C1095.8333,147.125 1077.0833,147.125 1077.0833,136.7083 L1077.0833,109.625 " fill="none" style="stroke:#2FA4E7;stroke-width:1.5625;"/><path d="M1077.0833,109.625 C1077.0833,120.0416 1095.8333,120.0416 1095.8333,120.0416 C1095.8333,120.0416 1114.5833,120.0416 1114.5833,109.625 " fill="none" style="stroke:#2FA4E7;stroke-width:1.5625;"/><text fill="#2FA4E7" font-family="Verdana" font-size="12.5" lengthAdjust="spacing" textLength="67.7083" x="1058.8542" y="2196.0848">PostgreSQL</text><path d="M1077.0833,2215.3724 C1077.0833,2204.9557 1095.8333,2204.9557 1095.8333,2204.9557 C1095.8333,2204.9557 1114.5833,2204.9557 1114.5833,2215.3724 L1114.5833,2242.4557 C1114.5833,2252.8724 1095.8333,2252.8724 1095.8333,2252.8724 C1095.8333,2252.8724 1077.0833,2252.8724 1077.0833,2242.4557 L1077.0833,2215.3724 " fill="none" style="stroke:#2FA4E7;stroke-width:1.5625;"/><path d="M1077.0833,2215.3724 C1077.0833,2225.789 1095.8333,2225.789 1095.8333,2225.789 C1095.8333,2225.789 1114.5833,2225.789 1114.5833,2215.3724 " fill="none" style="stroke:#2FA4E7;stroke-width:1.5625;"/><rect fill="none" height="288.9675" style="stroke:#BABDBF;stroke-width:1.0416666666666667;" width="10.4167" x="544.2708" y="317.3088"/><rect fill="none" height="746.3602" style="stroke:#BABDBF;stroke-width:1.0416666666666667;" width="10.4167" x="758.8542" y="696.5765"/><rect fill="none" height="42.0251" style="stroke:#BABDBF;stroke-width:1.0416666666666667;" width="10.4167" x="948.4375" y="879.2603"/><rect fill="none" height="31.25" style="stroke:#BABDBF;stroke-width:1.0416666666666667;" width="10.4167" x="1090.625" y="1179.6862"/><rect fill="none" height="42.0251" style="stroke:#BABDBF;stroke-width:1.0416666666666667;" width="10.4167" x="1090.625" y="1316.8614"/><rect fill="#F8F9FA" height="3.125" rx="4.1667" ry="4.1667" style="stroke:#F8F9FA;stroke-width:1.0416666666666667;" width="1148.4375" x="10.4167" y="212.246"/><line style="stroke:#868E96;stroke-width:1.0416666666666667;" x1="10.4167" x2="1158.8542" y1="212.246" y2="212.246"/><line style="stroke:#868E96;stroke-width:1.0416666666666667;" x1="10.4167" x2="1158.8542" y1="215.371" y2="215.371"/><rect fill="#F8F9FA" height="35.7751" rx="4.1667" ry="4.1667" style="stroke:#868E96;stroke-width:2.0833333333333335;" width="152.0833" x="508.5938" y="195.4001"/><text fill="#343A40" font-family="Verdana" font-size="12.5" font-weight="bold" lengthAdjust="spacing" textLength="123.9583" x="520.0521" y="218.1377">Idempotency Check</text><polygon fill="#2FA4E7" points="300.5208,271.117,310.9375,275.2837,300.5208,279.4503,304.6875,275.2837" style="stroke:#2FA4E7;stroke-width:1.0416666666666667;"/><line style="stroke:#2FA4E7;stroke-width:3.125;" x1="54.6875" x2="306.7708" y1="275.2837" y2="275.2837"/><text fill="#343A40" font-family="Verdana" font-size="12.5" lengthAdjust="spacing" textLength="176.0417" x="67.1875" y="264.3295">POST /admin/sync or /api/sync</text><polygon fill="#2FA4E7" points="531.7708,313.1421,542.1875,317.3088,531.7708,321.4755,535.9375,317.3088" style="stroke:#2FA4E7;stroke-width:1.0416666666666667;"/><line style="stroke:#2FA4E7;stroke-width:3.125;" x1="313.0208" x2="538.0208" y1="317.3088" y2="317.3088"/><text fill="#343A40" font-family="Verdana" font-size="12.5" lengthAdjust="spacing" textLength="201.0417" x="325.5208" y="306.3546">enqueue_sync_job(feed_id, trigger)</text><line style="stroke:#2FA4E7;stroke-width:3.125;" x1="554.6875" x2="598.4375" y1="359.3339" y2="359.3339"/><line style="stroke:#2FA4E7;stroke-width:3.125;" x1="598.4375" x2="598.4375" y1="359.3339" y2="372.8756"/><line style="stroke:#2FA4E7;stroke-width:3.125;" x1="555.7292" x2="598.4375" y1="372.8756" y2="372.8756"/><polygon fill="#2FA4E7" points="566.1458,368.7089,555.7292,372.8756,566.1458,377.0422,561.9792,372.8756" style="stroke:#2FA4E7;stroke-width:1.0416666666666667;"/><text fill="#343A40" font-family="Verdana" font-size="12.5" lengthAdjust="spacing" textLength="179.1667" x="567.1875" y="348.3797">Check existing queued/running</text><path d="M269.2708,388.5006 L339.0625,388.5006 L339.0625,407.609 L328.6458,418.0257 L265.1042,418.0257 L265.1042,392.6672 A4.1667,4.1667 0 0 1 269.2708,388.5006 " fill="#E9ECEF" style="stroke:#868E96;stroke-width:1.0416666666666667;"/><rect fill="none" height="210.484" rx="4.1667" ry="4.1667" style="stroke:#2FA4E7;stroke-width:1.0416666666666667;" width="421.875" x="265.1042" y="388.5006"/><text fill="#033C73" font-family="Verdana" font-size="12.5" font-weight="bold" lengthAdjust="spacing" textLength="16.6667" x="285.9375" y="408.1132">alt</text><text fill="#343A40" font-family="Verdana" font-size="12.5" font-weight="bold" lengthAdjust="spacing" textLength="117.7083" x="359.8958" y="409.1548">[Job already exists]</text><polygon fill="#2FA4E7" points="324.4792,459.3676,314.0625,463.5343,324.4792,467.7009,320.3125,463.5343" style="stroke:#2FA4E7;stroke-width:1.0416666666666667;"/><line style="stroke:#2FA4E7;stroke-width:3.125;stroke-dasharray:2.0,2.0;" x1="318.2292" x2="543.2292" y1="463.5343" y2="463.5343"/><text fill="#343A40" font-family="Verdana" font-size="12.5" lengthAdjust="spacing" textLength="107.2917" x="335.9375" y="452.5801">Return existing job</text><line style="stroke:#2FA4E7;stroke-width:1.0416666666666667;stroke-dasharray:2.0,2.0;" x1="265.1042" x2="686.9792" y1="472.9093" y2="472.9093"/><text fill="#343A40" font-family="Verdana" font-size="12.5" font-weight="bold" lengthAdjust="spacing" textLength="59.375" x="275.5208" y="491.4802">[New job]</text><line style="stroke:#2FA4E7;stroke-width:3.125;" x1="554.6875" x2="598.4375" y1="535.0845" y2="535.0845"/><line style="stroke:#2FA4E7;stroke-width:3.125;" x1="598.4375" x2="598.4375" y1="535.0845" y2="548.6262"/><line style="stroke:#2FA4E7;stroke-width:3.125;" x1="555.7292" x2="598.4375" y1="548.6262" y2="548.6262"/><polygon fill="#2FA4E7" points="566.1458,544.4595,555.7292,548.6262,566.1458,552.7928,561.9792,548.6262" style="stroke:#2FA4E7;stroke-width:1.0416666666666667;"/><text fill="#343A40" font-family="Verdana" font-size="12.5" lengthAdjust="spacing" textLength="102.0833" x="567.1875" y="524.1303">Create job record</text><polygon fill="#2FA4E7" points="324.4792,586.4846,314.0625,590.6513,324.4792,594.818,320.3125,590.6513" style="stroke:#2FA4E7;stroke-width:1.0416666666666667;"/><line style="stroke:#2FA4E7;stroke-width:3.125;stroke-dasharray:2.0,2.0;" x1="318.2292" x2="543.2292" y1="590.6513" y2="590.6513"/><text fill="#343A40" font-family="Verdana" font-size="12.5" lengthAdjust="spacing" textLength="86.4583" x="335.9375" y="579.6971">Return new job</text><rect fill="#F8F9FA" height="3.125" rx="4.1667" ry="4.1667" style="stroke:#F8F9FA;stroke-width:1.0416666666666667;" width="1148.4375" x="10.4167" y="633.5388"/><line style="stroke:#868E96;stroke-width:1.0416666666666667;" x1="10.4167" x2="1158.8542" y1="633.5388" y2="633.5388"/><line style="stroke:#868E96;stroke-width:1.0416666666666667;" x1="10.4167" x2="1158.8542" y1="636.6638" y2="636.6638"/><rect fill="#F8F9FA" height="35.7751" rx="4.1667" ry="4.1667" style="stroke:#868E96;stroke-width:2.0833333333333335;" width="109.375" x="529.9479" y="616.693"/><text fill="#343A40" font-family="Verdana" font-size="12.5" font-weight="bold" lengthAdjust="spacing" textLength="81.25" x="541.4063" y="639.4305">Execute Sync</text><polygon fill="#2FA4E7" points="746.3542,692.4099,756.7708,696.5765,746.3542,700.7432,750.5208,696.5765" style="stroke:#2FA4E7;stroke-width:1.0416666666666667;"/><line style="stroke:#2FA4E7;stroke-width:3.125;" x1="313.0208" x2="752.6042" y1="696.5765" y2="696.5765"/><text fill="#343A40" font-family="Verdana" font-size="12.5" lengthAdjust="spacing" textLength="126.0417" x="325.5208" y="685.6223">execute_sync_job(job)</text><polygon fill="#2FA4E7" points="560.9375,734.435,550.5208,738.6016,560.9375,742.7683,556.7708,738.6016" style="stroke:#2FA4E7;stroke-width:1.0416666666666667;"/><line style="stroke:#2FA4E7;stroke-width:3.125;" x1="554.6875" x2="757.8125" y1="738.6016" y2="738.6016"/><text fill="#343A40" font-family="Verdana" font-size="12.5" lengthAdjust="spacing" textLength="88.5417" x="572.3958" y="727.6474">mark_running()</text><polygon fill="#2FA4E7" points="1083.3333,776.4601,1093.75,780.6268,1083.3333,784.7934,1087.5,780.6268" style="stroke:#2FA4E7;stroke-width:1.0416666666666667;"/><line style="stroke:#2FA4E7;stroke-width:3.125;" x1="769.2708" x2="1089.5833" y1="780.6268" y2="780.6268"/><text fill="#343A40" font-family="Verdana" font-size="12.5" lengthAdjust="spacing" textLength="134.375" x="781.7708" y="769.6726">Create FeedRun record</text><rect fill="#F8F9FA" height="3.125" rx="4.1667" ry="4.1667" style="stroke:#F8F9FA;stroke-width:1.0416666666666667;" width="1148.4375" x="10.4167" y="816.2227"/><line style="stroke:#868E96;stroke-width:1.0416666666666667;" x1="10.4167" x2="1158.8542" y1="816.2227" y2="816.2227"/><line style="stroke:#868E96;stroke-width:1.0416666666666667;" x1="10.4167" x2="1158.8542" y1="819.3477" y2="819.3477"/><rect fill="#F8F9FA" height="35.7751" rx="4.1667" ry="4.1667" style="stroke:#868E96;stroke-width:2.0833333333333335;" width="176.0417" x="496.6146" y="799.3768"/><text fill="#343A40" font-family="Verdana" font-size="12.5" font-weight="bold" lengthAdjust="spacing" textLength="147.9167" x="508.0729" y="822.1144">Fetch from External API</text><polygon fill="#2FA4E7" points="935.9375,875.0937,946.3542,879.2603,935.9375,883.427,940.1042,879.2603" style="stroke:#2FA4E7;stroke-width:1.0416666666666667;"/><line style="stroke:#2FA4E7;stroke-width:3.125;" x1="769.2708" x2="942.1875" y1="879.2603" y2="879.2603"/><text fill="#343A40" font-family="Verdana" font-size="12.5" lengthAdjust="spacing" textLength="144.7917" x="781.7708" y="868.3061">fetch_indicators(params)</text><polygon fill="#2FA4E7" points="780.7292,917.1188,770.3125,921.2855,780.7292,925.4521,776.5625,921.2855" style="stroke:#2FA4E7;stroke-width:1.0416666666666667;"/><line style="stroke:#2FA4E7;stroke-width:3.125;stroke-dasharray:2.0,2.0;" x1="774.4792" x2="952.6042" y1="921.2855" y2="921.2855"/><text fill="#343A40" font-family="Verdana" font-size="12.5" lengthAdjust="spacing" textLength="86.4583" x="792.1875" y="910.3313">indicators_json</text><rect fill="#F8F9FA" height="3.125" rx="4.1667" ry="4.1667" style="stroke:#F8F9FA;stroke-width:1.0416666666666667;" width="1148.4375" x="10.4167" y="956.8813"/><line style="stroke:#868E96;stroke-width:1.0416666666666667;" x1="10.4167" x2="1158.8542" y1="956.8813" y2="956.8813"/><line style="stroke:#868E96;stroke-width:1.0416666666666667;" x1="10.4167" x2="1158.8542" y1="960.0063" y2="960.0063"/><rect fill="#F8F9FA" height="35.7751" rx="4.1667" ry="4.1667" style="stroke:#868E96;stroke-width:2.0833333333333335;" width="141.6667" x="513.8021" y="940.0355"/><text fill="#343A40" font-family="Verdana" font-size="12.5" font-weight="bold" lengthAdjust="spacing" textLength="113.5417" x="525.2604" y="962.773">Process Indicators</text><path d="M668.2292,993.5189 L748.4375,993.5189 L748.4375,1012.6274 L738.0208,1023.044 L664.0625,1023.044 L664.0625,997.6856 A4.1667,4.1667 0 0 1 668.2292,993.5189 " fill="#E9ECEF" style="stroke:#868E96;stroke-width:1.0416666666666667;"/><rect fill="none" height="225.7506" rx="4.1667" ry="4.1667" style="stroke:#2FA4E7;stroke-width:1.0416666666666667;" width="484.375" x="664.0625" y="993.5189"/><text fill="#033C73" font-family="Verdana" font-size="12.5" font-weight="bold" lengthAdjust="spacing" textLength="27.0833" x="684.8958" y="1013.1315">loop</text><text fill="#343A40" font-family="Verdana" font-size="12.5" font-weight="bold" lengthAdjust="spacing" textLength="119.7917" x="769.2708" y="1014.1732">[For each indicator]</text><line style="stroke:#2FA4E7;stroke-width:3.125;" x1="769.2708" x2="813.0208" y1="1068.5526" y2="1068.5526"/><line style="stroke:#2FA4E7;stroke-width:3.125;" x1="813.0208" x2="813.0208" y1="1068.5526" y2="1082.0943"/><line style="stroke:#2FA4E7;stroke-width:3.125;" x1="770.3125" x2="813.0208" y1="1082.0943" y2="1082.0943"/><polygon fill="#2FA4E7" points="780.7292,1077.9276,770.3125,1082.0943,780.7292,1086.2609,776.5625,1082.0943" style="stroke:#2FA4E7;stroke-width:1.0416666666666667;"/><text fill="#343A40" font-family="Verdana" font-size="12.5" lengthAdjust="spacing" textLength="119.7917" x="781.7708" y="1057.5984">Parse and normalize</text><line style="stroke:#2FA4E7;stroke-width:3.125;" x1="769.2708" x2="813.0208" y1="1124.1194" y2="1124.1194"/><line style="stroke:#2FA4E7;stroke-width:3.125;" x1="813.0208" x2="813.0208" y1="1124.1194" y2="1137.661"/><line style="stroke:#2FA4E7;stroke-width:3.125;" x1="770.3125" x2="813.0208" y1="1137.661" y2="1137.661"/><polygon fill="#2FA4E7" points="780.7292,1133.4944,770.3125,1137.661,780.7292,1141.8277,776.5625,1137.661" style="stroke:#2FA4E7;stroke-width:1.0416666666666667;"/><text fill="#343A40" font-family="Verdana" font-size="12.5" lengthAdjust="spacing" textLength="88.5417" x="781.7708" y="1113.1652">Apply TLP rules</text><polygon fill="#2FA4E7" points="1078.125,1175.5195,1088.5417,1179.6862,1078.125,1183.8528,1082.2917,1179.6862" style="stroke:#2FA4E7;stroke-width:1.0416666666666667;"/><line style="stroke:#2FA4E7;stroke-width:3.125;" x1="769.2708" x2="1084.375" y1="1179.6862" y2="1179.6862"/><text fill="#343A40" font-family="Verdana" font-size="12.5" lengthAdjust="spacing" textLength="100" x="781.7708" y="1168.732">UPSERT indicator</text><rect fill="#F8F9FA" height="3.125" rx="4.1667" ry="4.1667" style="stroke:#F8F9FA;stroke-width:1.0416666666666667;" width="1148.4375" x="10.4167" y="1253.8237"/><line style="stroke:#868E96;stroke-width:1.0416666666666667;" x1="10.4167" x2="1158.8542" y1="1253.8237" y2="1253.8237"/><line style="stroke:#868E96;stroke-width:1.0416666666666667;" x1="10.4167" x2="1158.8542" y1="1256.9487" y2="1256.9487"/><rect fill="#F8F9FA" height="35.7751" rx="4.1667" ry="4.1667" style="stroke:#868E96;stroke-width:2.0833333333333335;" width="108.3333" x="530.4688" y="1236.9778"/><text fill="#343A40" font-family="Verdana" font-size="12.5" font-weight="bold" lengthAdjust="spacing" textLength="80.2083" x="541.9271" y="1259.7154">Update Stats</text><polygon fill="#2FA4E7" points="1078.125,1312.6947,1088.5417,1316.8614,1078.125,1321.0281,1082.2917,1316.8614" style="stroke:#2FA4E7;stroke-width:1.0416666666666667;"/><line style="stroke:#2FA4E7;stroke-width:3.125;" x1="769.2708" x2="1084.375" y1="1316.8614" y2="1316.8614"/><text fill="#343A40" font-family="Verdana" font-size="12.5" lengthAdjust="spacing" textLength="105.2083" x="781.7708" y="1305.9072">Update feed_stats</text><polygon fill="#2FA4E7" points="780.7292,1354.7199,770.3125,1358.8865,780.7292,1363.0532,776.5625,1358.8865" style="stroke:#2FA4E7;stroke-width:1.0416666666666667;"/><line style="stroke:#2FA4E7;stroke-width:3.125;stroke-dasharray:2.0,2.0;" x1="774.4792" x2="1094.7917" y1="1358.8865" y2="1358.8865"/><text fill="#343A40" font-family="Verdana" font-size="12.5" lengthAdjust="spacing" textLength="16.6667" x="792.1875" y="1347.9323">OK</text><polygon fill="#2FA4E7" points="560.9375,1396.745,550.5208,1400.9116,560.9375,1405.0783,556.7708,1400.9116" style="stroke:#2FA4E7;stroke-width:1.0416666666666667;"/><line style="stroke:#2FA4E7;stroke-width:3.125;" x1="554.6875" x2="757.8125" y1="1400.9116" y2="1400.9116"/><text fill="#343A40" font-family="Verdana" font-size="12.5" lengthAdjust="spacing" textLength="122.9167" x="572.3958" y="1389.9574">mark_success(result)</text><polygon fill="#2FA4E7" points="1083.3333,1438.7701,1093.75,1442.9368,1083.3333,1447.1034,1087.5,1442.9368" style="stroke:#2FA4E7;stroke-width:1.0416666666666667;"/><line style="stroke:#2FA4E7;stroke-width:3.125;" x1="764.0625" x2="1089.5833" y1="1442.9368" y2="1442.9368"/><text fill="#343A40" font-family="Verdana" font-size="12.5" lengthAdjust="spacing" textLength="134.375" x="776.5625" y="1431.9826">Update FeedRun status</text><rect fill="#F8F9FA" height="3.125" rx="4.1667" ry="4.1667" style="stroke:#F8F9FA;stroke-width:1.0416666666666667;" width="1148.4375" x="10.4167" y="1478.5327"/><line style="stroke:#868E96;stroke-width:1.0416666666666667;" x1="10.4167" x2="1158.8542" y1="1478.5327" y2="1478.5327"/><line style="stroke:#868E96;stroke-width:1.0416666666666667;" x1="10.4167" x2="1158.8542" y1="1481.6577" y2="1481.6577"/><rect fill="#F8F9FA" height="35.7751" rx="4.1667" ry="4.1667" style="stroke:#868E96;stroke-width:2.0833333333333335;" width="125" x="522.1354" y="1461.6868"/><text fill="#343A40" font-family="Verdana" font-size="12.5" font-weight="bold" lengthAdjust="spacing" textLength="96.875" x="533.5938" y="1484.4244">Admin Controls</text><polygon fill="#2FA4E7" points="300.5208,1537.4037,310.9375,1541.5703,300.5208,1545.737,304.6875,1541.5703" style="stroke:#2FA4E7;stroke-width:1.0416666666666667;"/><line style="stroke:#2FA4E7;stroke-width:3.125;" x1="54.6875" x2="306.7708" y1="1541.5703" y2="1541.5703"/><text fill="#343A40" font-family="Verdana" font-size="12.5" lengthAdjust="spacing" textLength="222.9167" x="67.1875" y="1530.6161">POST /admin/sync-jobs/{job_id}/cancel</text><path d="M269.2708,1557.1953 L339.0625,1557.1953 L339.0625,1576.3038 L328.6458,1586.7205 L265.1042,1586.7205 L265.1042,1561.362 A4.1667,4.1667 0 0 1 269.2708,1557.1953 " fill="#E9ECEF" style="stroke:#868E96;stroke-width:1.0416666666666667;"/><rect fill="none" height="238.9675" rx="4.1667" ry="4.1667" style="stroke:#2FA4E7;stroke-width:1.0416666666666667;" width="883.3333" x="265.1042" y="1557.1953"/><text fill="#033C73" font-family="Verdana" font-size="12.5" font-weight="bold" lengthAdjust="spacing" textLength="16.6667" x="285.9375" y="1576.8079">alt</text><text fill="#343A40" font-family="Verdana" font-size="12.5" font-weight="bold" lengthAdjust="spacing" textLength="102.0833" x="359.8958" y="1577.8496">[status=queued]</text><polygon fill="#2FA4E7" points="536.9792,1628.0624,547.3958,1632.229,536.9792,1636.3957,541.1458,1632.229" style="stroke:#2FA4E7;stroke-width:1.0416666666666667;"/><line style="stroke:#2FA4E7;stroke-width:3.125;" x1="313.0208" x2="543.2292" y1="1632.229" y2="1632.229"/><text fill="#343A40" font-family="Verdana" font-size="12.5" lengthAdjust="spacing" textLength="118.75" x="325.5208" y="1621.2748">set status=cancelled</text><polygon fill="#2FA4E7" points="1083.3333,1670.0875,1093.75,1674.2541,1083.3333,1678.4208,1087.5,1674.2541" style="stroke:#2FA4E7;stroke-width:1.0416666666666667;"/><line style="stroke:#2FA4E7;stroke-width:3.125;" x1="313.0208" x2="1089.5833" y1="1674.2541" y2="1674.2541"/><text fill="#343A40" font-family="Verdana" font-size="12.5" lengthAdjust="spacing" textLength="157.2917" x="325.5208" y="1663.2999">update FeedRun(cancelled)</text><line style="stroke:#2FA4E7;stroke-width:1.0416666666666667;stroke-dasharray:2.0,2.0;" x1="265.1042" x2="1148.4375" y1="1683.6291" y2="1683.6291"/><text fill="#343A40" font-family="Verdana" font-size="12.5" font-weight="bold" lengthAdjust="spacing" textLength="105.2083" x="275.5208" y="1702.2001">[status=running]</text><polygon fill="#2FA4E7" points="536.9792,1741.6377,547.3958,1745.8044,536.9792,1749.971,541.1458,1745.8044" style="stroke:#2FA4E7;stroke-width:1.0416666666666667;"/><line style="stroke:#2FA4E7;stroke-width:3.125;" x1="313.0208" x2="543.2292" y1="1745.8044" y2="1745.8044"/><text fill="#343A40" font-family="Verdana" font-size="12.5" lengthAdjust="spacing" textLength="165.625" x="325.5208" y="1734.8502">set status=cancel_requested</text><polygon fill="#2FA4E7" points="1083.3333,1783.6628,1093.75,1787.8295,1083.3333,1791.9962,1087.5,1787.8295" style="stroke:#2FA4E7;stroke-width:1.0416666666666667;"/><line style="stroke:#2FA4E7;stroke-width:3.125;" x1="313.0208" x2="1089.5833" y1="1787.8295" y2="1787.8295"/><text fill="#343A40" font-family="Verdana" font-size="12.5" lengthAdjust="spacing" textLength="214.5833" x="325.5208" y="1776.8753">mark run with cancel_requested note</text><polygon fill="#2FA4E7" points="300.5208,1832.9796,310.9375,1837.1463,300.5208,1841.313,304.6875,1837.1463" style="stroke:#2FA4E7;stroke-width:1.0416666666666667;"/><line style="stroke:#2FA4E7;stroke-width:3.125;" x1="54.6875" x2="306.7708" y1="1837.1463" y2="1837.1463"/><text fill="#343A40" font-family="Verdana" font-size="12.5" lengthAdjust="spacing" textLength="213.5417" x="67.1875" y="1826.1921">POST /admin/sync-jobs/{job_id}/retry</text><polygon fill="#2FA4E7" points="536.9792,1875.0047,547.3958,1879.1714,536.9792,1883.3381,541.1458,1879.1714" style="stroke:#2FA4E7;stroke-width:1.0416666666666667;"/><line style="stroke:#2FA4E7;stroke-width:3.125;" x1="313.0208" x2="543.2292" y1="1879.1714" y2="1879.1714"/><text fill="#343A40" font-family="Verdana" font-size="12.5" lengthAdjust="spacing" textLength="168.75" x="325.5208" y="1868.2172">create new job(trigger=retry)</text><polygon fill="#2FA4E7" points="66.1458,1917.0299,55.7292,1921.1965,66.1458,1925.3632,61.9792,1921.1965" style="stroke:#2FA4E7;stroke-width:1.0416666666666667;"/><line style="stroke:#2FA4E7;stroke-width:3.125;stroke-dasharray:2.0,2.0;" x1="59.8958" x2="311.9792" y1="1921.1965" y2="1921.1965"/><text fill="#343A40" font-family="Verdana" font-size="12.5" lengthAdjust="spacing" textLength="136.4583" x="77.6042" y="1910.2423">redirect with new job_id</text><rect fill="#F8F9FA" height="3.125" rx="4.1667" ry="4.1667" style="stroke:#F8F9FA;stroke-width:1.0416666666666667;" width="1148.4375" x="10.4167" y="1956.7924"/><line style="stroke:#868E96;stroke-width:1.0416666666666667;" x1="10.4167" x2="1158.8542" y1="1956.7924" y2="1956.7924"/><line style="stroke:#868E96;stroke-width:1.0416666666666667;" x1="10.4167" x2="1158.8542" y1="1959.9174" y2="1959.9174"/><rect fill="#F8F9FA" height="35.7751" rx="4.1667" ry="4.1667" style="stroke:#868E96;stroke-width:2.0833333333333335;" width="119.7917" x="524.7396" y="1939.9465"/><text fill="#343A40" font-family="Verdana" font-size="12.5" font-weight="bold" lengthAdjust="spacing" textLength="91.6667" x="536.1979" y="1962.6841">Error Handling</text><path d="M466.6667,1993.43 L536.4583,1993.43 L536.4583,2012.5384 L526.0417,2022.9551 L462.5,2022.9551 L462.5,1997.5966 A4.1667,4.1667 0 0 1 466.6667,1993.43 " fill="#E9ECEF" style="stroke:#868E96;stroke-width:1.0416666666666667;"/><rect fill="none" height="167.4173" rx="4.1667" ry="4.1667" style="stroke:#2FA4E7;stroke-width:1.0416666666666667;" width="685.9375" x="462.5" y="1993.43"/><text fill="#033C73" font-family="Verdana" font-size="12.5" font-weight="bold" lengthAdjust="spacing" textLength="16.6667" x="483.3333" y="2013.0426">alt</text><text fill="#343A40" font-family="Verdana" font-size="12.5" font-weight="bold" lengthAdjust="spacing" textLength="72.9167" x="557.2917" y="2014.0842">[Fetch fails]</text><line style="stroke:#2FA4E7;stroke-width:2.0833333333333335;" x1="934.8958" x2="945.3125" y1="2063.2553" y2="2073.672"/><line style="stroke:#2FA4E7;stroke-width:2.0833333333333335;" x1="934.8958" x2="945.3125" y1="2073.672" y2="2063.2553"/><line style="stroke:#2FA4E7;stroke-width:3.125;" x1="764.0625" x2="940.1042" y1="2068.4637" y2="2068.4637"/><text fill="#343A40" font-family="Verdana" font-size="12.5" lengthAdjust="spacing" textLength="82.2917" x="776.5625" y="2057.5095">Timeout/Error</text><polygon fill="#2FA4E7" points="560.9375,2106.3221,550.5208,2110.4888,560.9375,2114.6555,556.7708,2110.4888" style="stroke:#2FA4E7;stroke-width:1.0416666666666667;"/><line style="stroke:#2FA4E7;stroke-width:3.125;" x1="554.6875" x2="763.0208" y1="2110.4888" y2="2110.4888"/><text fill="#343A40" font-family="Verdana" font-size="12.5" lengthAdjust="spacing" textLength="106.25" x="572.3958" y="2099.5346">mark_failed(error)</text><polygon fill="#2FA4E7" points="1083.3333,2148.3472,1093.75,2152.5139,1083.3333,2156.6806,1087.5,2152.5139" style="stroke:#2FA4E7;stroke-width:1.0416666666666667;"/><line style="stroke:#2FA4E7;stroke-width:3.125;" x1="764.0625" x2="1089.5833" y1="2152.5139" y2="2152.5139"/><text fill="#343A40" font-family="Verdana" font-size="12.5" lengthAdjust="spacing" textLength="120.8333" x="776.5625" y="2141.5597">Log error in FeedRun</text><!--SRC=[dLN1RXen4BtxAwQSG2hY7ebA2KbKsgYXWTmg8MDFm8dNtjhU15BrtpksbsMNb2fgf8Ji-itCc-StmuUmmG91eAiqSZEqLT3A86D11OqmlPt07Dsp4WX3k4QKCDyPiN7Mg5SUb3Lq_BD28oY4Ys0TzCvbeSpeV3Rj0VSmqGfDgC_cOeEI2ZbMSXUKK2Kt0NenvHUx-c4MVAKnXTMlkhXOlsQJGVd_BkXg6z0Phc7FW3wPv86lk4VepQmFQuVpxpVfyFA2iV4OfXABqWRgOmUJ3Oed68zPfWx3JmVUS0Qps_a2HZmrwOabK5yZNghqm0x869QRe20q95A5ouXPFjfL_u5QMIhv4O9JwpMwGLH8FVE0JUlxw4wYJ0wtoWTbrf2oof6hZA57ndM0YEFQ8PUxZFCCwAV9TjJE7ORAcKD68iTGarBVy2KzT88xLAW6qIKCE1JMoVVKCNLMD98nYM-QZfTnjKLHrU_YFNGrhTr8ccROGLFwRSjOcuCr_csJBxXxMjQozGTjpEN5eRTekBlAxFkBvAunY0qyE5j0ssc9vo59V7C63n6xL4OgmSd-laz6vOLlaOpUZDXXfxD3nFBHMzCHAaP47ZDd1NeFqmORAMXhIxWcHrB0vf0dtqnBXwRKZ3kwQsua6EiAhjKhdWQVbwNUmU9c1d5R-6DWKkv-Dh-wMnoLRjZJkCNdLZ_q9dc1MhelPRgum8C_qZEdpkTfT7m4iNOMWdHLlFtAkdN-uGHVYQXctw6lT1YSAhttGwnU-Qw1ztQZHj86X8armLdjtxzAXkHWF_f5Vsar_1u9JcjLfw7E1STvt4d24sl6OmFDmVejElLJTVhfD-11dlqwntwjlB_UqiLl0nzEb8rQatSClAYmWUCGic30x8R_qijXSBjJ6rZaYQxtJxzUk-CKCsW7KLHT_OpcNYgQ_P3vrh5KAwyfvsZGFjFiwBWuwPRZJTNxWIjzF1_RUYiiL87qDJjAyM-6hUlBc0Tb7oDqyDTvkx5hICSqSllxJ1h-0G00]--></g></svg>