<?xml version="1.0" encoding="us-ascii" standalone="no"?><svg xmlns="http://www.w3.org/2000/svg" xmlns:xlink="http://www.w3.org/1999/xlink" contentStyleType="text/css" height="2019.7917px" preserveAspectRatio="none" style="width:783px;height:2019px;" version="1.1" viewBox="0 0 783 2019" width="783.3333px" zoomAndPan="magnify"><defs/><g><rect fill="none" height="51.2916" id="_title" rx="4.1667" ry="4.1667" style="stroke:#BABDBF;stroke-width:1.0416666666666667;" width="551.0417" x="111.7188" y="20.8333"/><text fill="#2FA4E7" font-family="Verdana" font-size="20.8333" font-weight="bold" lengthAdjust="spacing" textLength="528.125" x="123.1771" y="54.5625">IOC Threat Intelligence Service - Use Case Diagram</text><!--cluster IOC Service--><g id="cluster_IOC Service"><rect fill="none" height="1433.3333" rx="4.1667" ry="4.1667" style="stroke:#2FA4E7;stroke-width:2.0833333333333335;" width="608.8542" x="163.5417" y="447.125"/><text fill="#2FA4E7" font-family="Verdana" font-size="12.5" font-weight="bold" lengthAdjust="spacing" textLength="71.875" x="432.0313" y="467.7792">IOC Service</text></g><!--cluster Core Functions--><g id="cluster_Core Functions"><path d="M200.5208,502.3333 L301.5625,502.3333 A6.25,6.25 0 0 1 305.7292,506.5 L313.0208,536.0251 L408.8542,536.0251 A4.1667,4.1667 0 0 1 413.0208,540.1918 L413.0208,851.2916 A4.1667,4.1667 0 0 1 408.8542,855.4583 L200.5208,855.4583 A4.1667,4.1667 0 0 1 196.3542,851.2916 L196.3542,506.5 A4.1667,4.1667 0 0 1 200.5208,502.3333 " fill="none" style="stroke:#2FA4E7;stroke-width:2.0833333333333335;"/><line style="stroke:#2FA4E7;stroke-width:2.0833333333333335;" x1="196.3542" x2="313.0208" y1="536.0251" y2="536.0251"/><text fill="#2FA4E7" font-family="Verdana" font-size="12.5" font-weight="bold" lengthAdjust="spacing" textLength="92.7083" x="205.7292" y="522.9876">Core Functions</text></g><!--cluster Feed Management--><g id="cluster_Feed Management"><path d="M192.7083,880.4583 L317.7083,880.4583 A6.25,6.25 0 0 1 321.875,884.625 L329.1667,914.1501 L742.1875,914.1501 A4.1667,4.1667 0 0 1 746.3542,918.3168 L746.3542,1473.1666 A4.1667,4.1667 0 0 1 742.1875,1477.3333 L192.7083,1477.3333 A4.1667,4.1667 0 0 1 188.5417,1473.1666 L188.5417,884.625 A4.1667,4.1667 0 0 1 192.7083,880.4583 " fill="none" style="stroke:#2FA4E7;stroke-width:2.0833333333333335;"/><line style="stroke:#2FA4E7;stroke-width:2.0833333333333335;" x1="188.5417" x2="329.1667" y1="914.1501" y2="914.1501"/><text fill="#2FA4E7" font-family="Verdana" font-size="12.5" font-weight="bold" lengthAdjust="spacing" textLength="116.6667" x="197.9167" y="901.1126">Feed Management</text></g><!--cluster Integration--><g id="cluster_Integration"><path d="M545.3125,1502.3333 L625.5208,1502.3333 A6.25,6.25 0 0 1 629.6875,1506.5 L636.9792,1536.0251 L743.2292,1536.0251 A4.1667,4.1667 0 0 1 747.3958,1540.1918 L747.3958,1851.2916 A4.1667,4.1667 0 0 1 743.2292,1855.4583 L545.3125,1855.4583 A4.1667,4.1667 0 0 1 541.1458,1851.2916 L541.1458,1506.5 A4.1667,4.1667 0 0 1 545.3125,1502.3333 " fill="none" style="stroke:#2FA4E7;stroke-width:2.0833333333333335;"/><line style="stroke:#2FA4E7;stroke-width:2.0833333333333335;" x1="541.1458" x2="636.9792" y1="1536.0251" y2="1536.0251"/><text fill="#2FA4E7" font-family="Verdana" font-size="12.5" font-weight="bold" lengthAdjust="spacing" textLength="71.875" x="550.5208" y="1522.9876">Integration</text></g><g id="elem_UC1"><ellipse cx="304.5342" cy="816.0084" fill="none" rx="91.5133" ry="22.5293" style="stroke:#2FA4E7;stroke-width:2.0833333333333335;"/><text fill="#2FA4E7" font-family="Verdana" font-size="12.5" lengthAdjust="spacing" textLength="102.0833" x="253.4925" y="818.7751">Search Indicators</text></g><g id="elem_UC2"><ellipse cx="304.9223" cy="572.2584" fill="none" rx="67.9431" ry="22.5293" style="stroke:#2FA4E7;stroke-width:2.0833333333333335;"/><text fill="#2FA4E7" font-family="Verdana" font-size="12.5" lengthAdjust="spacing" textLength="68.75" x="270.5473" y="575.0251">Export IOCs</text></g><g id="elem_UC3"><ellipse cx="304.5342" cy="653.5084" fill="none" rx="91.5133" ry="22.5293" style="stroke:#2FA4E7;stroke-width:2.0833333333333335;"/><text fill="#2FA4E7" font-family="Verdana" font-size="12.5" lengthAdjust="spacing" textLength="102.0833" x="253.4925" y="656.2751">View Correlations</text></g><g id="elem_UC4"><ellipse cx="304.5865" cy="734.7584" fill="none" rx="86.3574" ry="22.5293" style="stroke:#2FA4E7;stroke-width:2.0833333333333335;"/><text fill="#2FA4E7" font-family="Verdana" font-size="12.5" lengthAdjust="spacing" textLength="94.7917" x="257.1907" y="737.5251">View Dashboard</text></g><g id="elem_UC5"><ellipse cx="304.5865" cy="1194.1334" fill="none" rx="86.3574" ry="22.5293" style="stroke:#2FA4E7;stroke-width:2.0833333333333335;"/><text fill="#2FA4E7" font-family="Verdana" font-size="12.5" lengthAdjust="spacing" textLength="94.7917" x="257.1907" y="1196.9001">Configure Feeds</text></g><g id="elem_UC6"><ellipse cx="304.7436" cy="1275.3834" fill="none" rx="70.8894" ry="22.5293" style="stroke:#2FA4E7;stroke-width:2.0833333333333335;"/><text fill="#2FA4E7" font-family="Verdana" font-size="12.5" lengthAdjust="spacing" textLength="72.9167" x="268.2852" y="1278.1501">Trigger Sync</text></g><g id="elem_UC7"><ellipse cx="304.6325" cy="1356.6334" fill="none" rx="59.8409" ry="22.5293" style="stroke:#2FA4E7;stroke-width:2.0833333333333335;"/><text fill="#2FA4E7" font-family="Verdana" font-size="12.5" lengthAdjust="spacing" textLength="57.2917" x="275.9867" y="1359.4001">View Logs</text></g><g id="elem_UC8"><ellipse cx="644.475" cy="1031.6334" fill="none" rx="85.6208" ry="22.5293" style="stroke:#2FA4E7;stroke-width:2.0833333333333335;"/><text fill="#2FA4E7" font-family="Verdana" font-size="12.5" lengthAdjust="spacing" textLength="93.75" x="597.6" y="1034.4001">Test Connection</text></g><g id="elem_UC9"><ellipse cx="304.5061" cy="950.3834" fill="none" rx="57.6311" ry="22.5293" style="stroke:#2FA4E7;stroke-width:2.0833333333333335;"/><text fill="#2FA4E7" font-family="Verdana" font-size="12.5" lengthAdjust="spacing" textLength="54.1667" x="277.4228" y="953.1501">Add Feed</text></g><g id="elem_UC10"><ellipse cx="304.8112" cy="1031.6334" fill="none" rx="56.8946" ry="22.5293" style="stroke:#2FA4E7;stroke-width:2.0833333333333335;"/><text fill="#2FA4E7" font-family="Verdana" font-size="12.5" lengthAdjust="spacing" textLength="53.125" x="278.2487" y="1034.4001">Edit Feed</text></g><g id="elem_UC11"><ellipse cx="304.6542" cy="1112.8834" fill="none" rx="72.3625" ry="22.5293" style="stroke:#2FA4E7;stroke-width:2.0833333333333335;"/><text fill="#2FA4E7" font-family="Verdana" font-size="12.5" lengthAdjust="spacing" textLength="75" x="267.1542" y="1115.6501">Disable Feed</text></g><g id="elem_UC12"><ellipse cx="304.8239" cy="1437.8834" fill="none" rx="99.6156" ry="22.5293" style="stroke:#2FA4E7;stroke-width:2.0833333333333335;"/><text fill="#2FA4E7" font-family="Verdana" font-size="12.5" lengthAdjust="spacing" textLength="113.5417" x="248.0531" y="1440.6501">Configure Schedule</text></g><g id="elem_UC13"><ellipse cx="644.0588" cy="1816.0084" fill="none" rx="75.3088" ry="22.5293" style="stroke:#2FA4E7;stroke-width:2.0833333333333335;"/><text fill="#2FA4E7" font-family="Verdana" font-size="12.5" lengthAdjust="spacing" textLength="79.1667" x="604.4755" y="1818.7751">Ingest via API</text></g><g id="elem_UC14"><ellipse cx="644.2592" cy="1653.5084" fill="none" rx="84.8842" ry="22.5293" style="stroke:#2FA4E7;stroke-width:2.0833333333333335;"/><text fill="#2FA4E7" font-family="Verdana" font-size="12.5" lengthAdjust="spacing" textLength="92.7083" x="597.9051" y="1656.2751">Monitor Metrics</text></g><g id="elem_UC15"><ellipse cx="644.3422" cy="1734.7584" fill="none" rx="62.0506" ry="22.5293" style="stroke:#2FA4E7;stroke-width:2.0833333333333335;"/><text fill="#2FA4E7" font-family="Verdana" font-size="12.5" lengthAdjust="spacing" textLength="60.4167" x="614.1339" y="1737.5251">API Export</text></g><g id="elem_UC16"><ellipse cx="644.1699" cy="1572.2584" fill="none" rx="86.3574" ry="22.5293" style="stroke:#2FA4E7;stroke-width:2.0833333333333335;"/><text fill="#2FA4E7" font-family="Verdana" font-size="12.5" lengthAdjust="spacing" textLength="94.7917" x="596.774" y="1575.0251">Auto-sync Feeds</text></g><!--entity Analyst--><g id="elem_Analyst"><ellipse cx="63.0208" cy="659.1041" fill="none" rx="8.3333" ry="8.3333" style="stroke:#2FA4E7;stroke-width:1.0416666666666667;"/><path d="M63.0208,667.4375 L63.0208,695.5625 M49.4792,675.7708 L76.5625,675.7708 M63.0208,695.5625 L49.4792,711.1875 M63.0208,695.5625 L76.5625,711.1875 " fill="none" style="stroke:#2FA4E7;stroke-width:1.0416666666666667;"/><text fill="#2FA4E7" font-family="Verdana" font-size="12.5" lengthAdjust="spacing" textLength="92.7083" x="16.6667" y="731.8417">Security Analyst</text></g><!--entity Admin--><g id="elem_Admin"><ellipse cx="63.0208" cy="1158.0625" fill="none" rx="8.3333" ry="8.3333" style="stroke:#2FA4E7;stroke-width:1.0416666666666667;"/><path d="M63.0208,1166.3958 L63.0208,1194.5208 M49.4792,1174.7291 L76.5625,1174.7291 M63.0208,1194.5208 L49.4792,1210.1458 M63.0208,1194.5208 L76.5625,1210.1458 " fill="none" style="stroke:#2FA4E7;stroke-width:1.0416666666666667;"/><text fill="#2FA4E7" font-family="Verdana" font-size="12.5" lengthAdjust="spacing" textLength="80.2083" x="22.9167" y="1230.8001">Administrator</text></g><!--entity External--><g id="elem_External"><ellipse cx="304.6875" cy="1933.9418" fill="none" rx="8.3333" ry="8.3333" style="stroke:#2FA4E7;stroke-width:1.0416666666666667;"/><path d="M304.6875,1942.2751 L304.6875,1970.4001 M291.1458,1950.6084 L318.2292,1950.6084 M304.6875,1970.4001 L291.1458,1986.0251 M304.6875,1970.4001 L318.2292,1986.0251 " fill="none" style="stroke:#2FA4E7;stroke-width:1.0416666666666667;"/><text fill="#2FA4E7" font-family="Verdana" font-size="12.5" lengthAdjust="spacing" textLength="93.75" x="257.8125" y="2006.6794">External System</text><text fill="#2FA4E7" font-family="Verdana" font-size="12.5" font-style="italic" lengthAdjust="spacing" textLength="75" x="267.1875" y="1915.6959">&#171;automated&#187;</text></g><g id="elem_GMN43"><path d="M533.3333,94 L533.3333,191.6256 A4.1667,4.1667 0 0 0 537.5,195.7922 L751.0417,195.7922 A4.1667,4.1667 0 0 0 755.2083,191.6256 L755.2083,100.25 L744.7917,89.8333 L537.5,89.8333 A4.1667,4.1667 0 0 0 533.3333,94 " fill="none" style="stroke:#033C73;stroke-width:1.0416666666666667;"/><path d="M744.7917,89.8333 L744.7917,98.1666 A2.0833,2.0833 0 0 0 746.875,100.25 L755.2083,100.25 L744.7917,89.8333 " fill="none" style="stroke:#033C73;stroke-width:1.0416666666666667;"/><text fill="#033C73" font-family="Verdana" font-size="12.5" lengthAdjust="spacing" textLength="107.2917" x="544.7917" y="113.6126">17 export formats:</text><text fill="#033C73" font-family="Verdana" font-size="12.5" lengthAdjust="spacing" textLength="125" x="544.7917" y="130.6377">- TXT, CSV, JSON, XML</text><text fill="#033C73" font-family="Verdana" font-size="12.5" lengthAdjust="spacing" textLength="189.5833" x="544.7917" y="147.6628">- FortiGate, Palo Alto, Checkpoint</text><text fill="#033C73" font-family="Verdana" font-size="12.5" lengthAdjust="spacing" textLength="154.1667" x="544.7917" y="164.6879">- Sentinel, ArcSight, Splunk</text><text fill="#033C73" font-family="Verdana" font-size="12.5" lengthAdjust="spacing" textLength="160.4167" x="544.7917" y="181.713">- Elasticsearch, Fidelis, Cribl</text></g><g id="elem_GMN46"><path d="M555.2083,237.2291 L555.2083,317.8296 A4.1667,4.1667 0 0 0 559.375,321.9963 L729.1667,321.9963 A4.1667,4.1667 0 0 0 733.3333,317.8296 L733.3333,243.4791 L722.9167,233.0625 L559.375,233.0625 A4.1667,4.1667 0 0 0 555.2083,237.2291 " fill="none" style="stroke:#033C73;stroke-width:1.0416666666666667;"/><path d="M722.9167,233.0625 L722.9167,241.3958 A2.0833,2.0833 0 0 0 725,243.4791 L733.3333,243.4791 L722.9167,233.0625 " fill="none" style="stroke:#033C73;stroke-width:1.0416666666666667;"/><text fill="#033C73" font-family="Verdana" font-size="12.5" lengthAdjust="spacing" textLength="109.375" x="566.6667" y="256.8417">Kibana-like search:</text><text fill="#033C73" font-family="Verdana" font-size="12.5" lengthAdjust="spacing" textLength="109.375" x="566.6667" y="273.8669">- Field:value syntax</text><text fill="#033C73" font-family="Verdana" font-size="12.5" lengthAdjust="spacing" textLength="145.8333" x="566.6667" y="290.892">- AND/OR/NOT operators</text><text fill="#033C73" font-family="Verdana" font-size="12.5" lengthAdjust="spacing" textLength="106.25" x="566.6667" y="307.9171">- Wildcard support</text></g><g id="elem_GMN49"><path d="M556.7708,362.2291 L556.7708,425.8045 A4.1667,4.1667 0 0 0 560.9375,429.9712 L727.6042,429.9712 A4.1667,4.1667 0 0 0 731.7708,425.8045 L731.7708,368.4791 L721.3542,358.0625 L560.9375,358.0625 A4.1667,4.1667 0 0 0 556.7708,362.2291 " fill="none" style="stroke:#033C73;stroke-width:1.0416666666666667;"/><path d="M721.3542,358.0625 L721.3542,366.3958 A2.0833,2.0833 0 0 0 723.4375,368.4791 L731.7708,368.4791 L721.3542,358.0625 " fill="none" style="stroke:#033C73;stroke-width:1.0416666666666667;"/><text fill="#033C73" font-family="Verdana" font-size="12.5" lengthAdjust="spacing" textLength="142.7083" x="568.2292" y="381.8417">Background worker runs</text><text fill="#033C73" font-family="Verdana" font-size="12.5" lengthAdjust="spacing" textLength="115.625" x="568.2292" y="398.8669">scheduled sync jobs</text><text fill="#033C73" font-family="Verdana" font-size="12.5" lengthAdjust="spacing" textLength="102.0833" x="568.2292" y="415.892">with idempotency</text></g><!--link Analyst to UC1--><g id="link_Analyst_UC1"><path d="M107.8021,740.7083 C121.9271,753.3854 138.3229,766.1458 155.2083,775.25 C178.2604,787.6771 199.3546,795.0204 224.0942,801.2287 " fill="none" id="Analyst-to-UC1" style="stroke:#2FA4E7;stroke-width:3.125;"/><polygon fill="#2FA4E7" points="230.1563,802.75,222.0774,796.4267,225.1046,801.4823,220.049,804.5095,230.1563,802.75" style="stroke:#2FA4E7;stroke-width:3.125;"/></g><!--link Analyst to UC2--><g id="link_Analyst_UC2"><path d="M106.25,649.4479 C120.6667,636.0208 137.625,622.375 155.2083,612.75 C182.3958,597.875 209.3249,589.4866 237.3145,583.2887 " fill="none" id="Analyst-to-UC2" style="stroke:#2FA4E7;stroke-width:3.125;"/><polygon fill="#2FA4E7" points="243.4167,581.9375,233.3626,579.8962,238.3315,583.0635,235.1642,588.0325,243.4167,581.9375" style="stroke:#2FA4E7;stroke-width:3.125;"/></g><!--link Analyst to UC3--><g id="link_Analyst_UC3"><path d="M114.875,686.2083 C148.1146,680.4271 185.9465,673.8411 223.1027,667.3828 " fill="none" id="Analyst-to-UC3" style="stroke:#2FA4E7;stroke-width:3.125;"/><polygon fill="#2FA4E7" points="229.2604,666.3125,219.3104,663.8128,224.129,667.2044,220.7374,672.023,229.2604,666.3125" style="stroke:#2FA4E7;stroke-width:3.125;"/></g><!--link Analyst to UC4--><g id="link_Analyst_UC4"><path d="M114.875,703.4375 C148.6667,709.0208 187.396,715.4191 224.9273,721.6171 " fill="none" id="Analyst-to-UC4" style="stroke:#2FA4E7;stroke-width:3.125;"/><polygon fill="#2FA4E7" points="231.0938,722.6354,222.5229,716.9969,225.955,721.7868,221.1651,725.2189,231.0938,722.6354" style="stroke:#2FA4E7;stroke-width:3.125;"/></g><!--link Admin to UC5--><g id="link_Admin_UC5"><path d="M108.5625,1194 C139.2813,1194 174.8646,1194 211.9063,1194 " fill="none" id="Admin-to-UC5" style="stroke:#2FA4E7;stroke-width:3.125;"/><polygon fill="#2FA4E7" points="218.1563,1194,208.7813,1189.8333,212.9479,1194,208.7813,1198.1666,218.1563,1194" style="stroke:#2FA4E7;stroke-width:3.125;"/></g><!--link Admin to UC6--><g id="link_Admin_UC6"><path d="M108.4792,1215.4271 C123.1667,1222.0625 139.7083,1229.0833 155.2083,1234.625 C185.1458,1245.3229 213.2663,1253.3113 241.2768,1260.4467 " fill="none" id="Admin-to-UC6" style="stroke:#2FA4E7;stroke-width:3.125;"/><polygon fill="#2FA4E7" points="247.3333,1261.9896,239.277,1255.6376,242.2862,1260.7038,237.2199,1263.713,247.3333,1261.9896" style="stroke:#2FA4E7;stroke-width:3.125;"/></g><!--link Admin to UC7--><g id="link_Admin_UC7"><path d="M87.9375,1239.4583 C103.7604,1265.4166 126.8229,1296.5416 155.2083,1315.875 C182.375,1334.375 211.5547,1343.3289 240.9297,1348.8289 " fill="none" id="Admin-to-UC7" style="stroke:#2FA4E7;stroke-width:3.125;"/><polygon fill="#2FA4E7" points="247.0729,1349.9791,238.6249,1344.1583,241.9535,1349.0206,237.0912,1352.3493,247.0729,1349.9791" style="stroke:#2FA4E7;stroke-width:3.125;"/></g><!--link Admin to UC8--><g id="link_Admin_UC8"><path d="M63.4479,1239.4896 C65.3438,1304.8021 79.7188,1423.2916 155.2083,1478.375 C250.7604,1548.0937 305.5833,1502.6562 421.3542,1478.375 C459.6979,1470.3333 475.5521,1471.7916 502.0833,1442.9583 C609.9896,1325.7083 635.3771,1128.4463 641.1479,1060.5296 " fill="none" id="Admin-to-UC8" style="stroke:#2FA4E7;stroke-width:3.125;"/><polygon fill="#2FA4E7" points="641.6771,1054.3021,636.7316,1063.2906,641.2361,1059.4917,645.0351,1063.9962,641.6771,1054.3021" style="stroke:#2FA4E7;stroke-width:3.125;"/></g><!--link Admin to UC9--><g id="link_Admin_UC9"><path d="M72.6667,1148.4271 C83.7813,1102.125 107.6458,1031.6041 155.2083,990.875 C180.7813,968.9791 210.9587,959.7461 241.2921,955.0586 " fill="none" id="Admin-to-UC9" style="stroke:#2FA4E7;stroke-width:3.125;"/><polygon fill="#2FA4E7" points="247.4688,954.1041,237.5674,951.4181,242.3215,954.8996,238.8401,959.6537,247.4688,954.1041" style="stroke:#2FA4E7;stroke-width:3.125;"/></g><!--link Admin to UC10--><g id="link_Admin_UC10"><path d="M87.9375,1148.5416 C103.7604,1122.5833 126.8229,1091.4583 155.2083,1072.125 C183.25,1053.0208 213.8485,1043.9802 243.7652,1038.6052 " fill="none" id="Admin-to-UC10" style="stroke:#2FA4E7;stroke-width:3.125;"/><polygon fill="#2FA4E7" points="249.9167,1037.5,239.9526,1035.0568,244.7904,1038.421,241.4262,1043.2588,249.9167,1037.5" style="stroke:#2FA4E7;stroke-width:3.125;"/></g><!--link Admin to UC11--><g id="link_Admin_UC11"><path d="M108.4792,1172.5729 C123.1667,1165.9375 139.7083,1158.9166 155.2083,1153.375 C184.8958,1142.7604 212.6941,1134.8477 240.5691,1127.7331 " fill="none" id="Admin-to-UC11" style="stroke:#2FA4E7;stroke-width:3.125;"/><polygon fill="#2FA4E7" points="246.625,1126.1875,236.5108,1124.4687,241.5784,1127.4755,238.5716,1132.5432,246.625,1126.1875" style="stroke:#2FA4E7;stroke-width:3.125;"/></g><!--link External to UC13--><g id="link_External_UC13"><path d="M356.9896,1935.1458 C423.1875,1907.5625 531.5119,1862.4244 593.7932,1836.4765 " fill="none" id="External-to-UC13" style="stroke:#2FA4E7;stroke-width:3.125;"/><polygon fill="#2FA4E7" points="599.5625,1834.0729,589.3061,1833.8321,594.7547,1836.0759,592.511,1841.5246,599.5625,1834.0729" style="stroke:#2FA4E7;stroke-width:3.125;"/></g><!--link External to UC14--><g id="link_External_UC14"><path d="M342.1146,1896.8958 C381.75,1836.9375 450.6146,1746.1041 532.8125,1694 C548.7708,1683.8854 561.7245,1677.8612 579.2766,1671.632 " fill="none" id="External-to-UC14" style="stroke:#2FA4E7;stroke-width:3.125;"/><polygon fill="#2FA4E7" points="585.1667,1669.5416,574.938,1668.7505,580.2583,1671.2836,577.7251,1676.6039,585.1667,1669.5416" style="stroke:#2FA4E7;stroke-width:3.125;"/></g><!--link External to UC15--><g id="link_External_UC15"><path d="M356.8229,1907.7083 C400.7083,1867.8646 467.1146,1812.2708 532.8125,1775.25 C552.3021,1764.2708 569.3897,1757.2459 589.3585,1750.5167 " fill="none" id="External-to-UC15" style="stroke:#2FA4E7;stroke-width:3.125;"/><polygon fill="#2FA4E7" points="595.2813,1748.5208,585.0665,1747.5661,590.3456,1750.184,587.7277,1755.4631,595.2813,1748.5208" style="stroke:#2FA4E7;stroke-width:3.125;"/></g><!--link External to UC16--><g id="link_External_UC16"><path d="M328.1458,1896.7916 C360.7396,1818.5833 428.8958,1683.1666 532.8125,1612.75 C548.1146,1602.3854 560.5106,1596.3747 577.7606,1590.208 " fill="none" id="External-to-UC16" style="stroke:#2FA4E7;stroke-width:3.125;"/><polygon fill="#2FA4E7" points="583.6458,1588.1041,573.4154,1587.3365,578.7415,1589.8574,576.2206,1595.1835,583.6458,1588.1041" style="stroke:#2FA4E7;stroke-width:3.125;"/></g><!--link UC9 to UC8--><g id="link_UC9_UC8"><path d="M354.0833,961.8958 C413.6875,976.2396 509.0278,999.1932 574.5278,1014.964 " fill="none" id="UC9-to-UC8" style="stroke:#2FA4E7;stroke-width:3.125;stroke-dasharray:7.0,7.0;"/><polygon fill="#2FA4E7" points="580.6042,1016.4271,572.465,1010.1816,575.5405,1015.2079,570.5143,1018.2834,580.6042,1016.4271" style="stroke:#2FA4E7;stroke-width:3.125;"/><text fill="#343A40" font-family="Verdana" font-size="12.5" lengthAdjust="spacing" textLength="54.1667" x="441.6667" y="975.0709">&#171;include&#187;</text></g><!--link UC10 to UC8--><g id="link_UC10_UC8"><path d="M361.5833,1032.0416 C384.4688,1032.25 411.2083,1032.4479 435.4167,1032.5416 C476.0104,1032.7083 514.8022,1032.5622 552.5522,1032.3122 " fill="none" id="UC10-to-UC8" style="stroke:#2FA4E7;stroke-width:3.125;stroke-dasharray:7.0,7.0;"/><polygon fill="#2FA4E7" points="558.8021,1032.2708,549.3997,1028.1663,553.5939,1032.3053,549.4549,1036.4995,558.8021,1032.2708" style="stroke:#2FA4E7;stroke-width:3.125;"/><text fill="#343A40" font-family="Verdana" font-size="12.5" lengthAdjust="spacing" textLength="52.0833" x="442.7083" y="1022.9876">&#171;extend&#187;</text></g><!--link UC6 to UC16--><g id="link_UC6_UC16"><path d="M363.6667,1287.8229 C383.3125,1294.0312 404.5313,1303.0208 421.3542,1315.875 C490.6563,1368.8021 474.4792,1412.5208 532.8125,1477.3333 C557.9896,1505.3125 586.3273,1529.0091 609.744,1547.1237 " fill="none" id="UC6-to-UC16" style="stroke:#2FA4E7;stroke-width:3.125;stroke-dasharray:7.0,7.0;"/><polygon fill="#2FA4E7" points="614.6875,1550.9479,609.8217,1541.916,610.5679,1547.7611,604.7228,1548.5073,614.6875,1550.9479" style="stroke:#2FA4E7;stroke-width:3.125;"/><text fill="#343A40" font-family="Verdana" font-size="12.5" lengthAdjust="spacing" textLength="54.1667" x="441.6667" y="1319.8626">&#171;include&#187;</text></g><!--link UC2 to GMN43--><g id="link_UC2_GMN43"><path d="M309.2188,549.7604 C319.125,493.0416 352.2708,341.5729 435.4167,250.25 C462,221.0521 498.375,198.5521 533.2708,181.8854 " fill="none" id="UC2-GMN43" style="stroke:#2FA4E7;stroke-width:3.125;stroke-dasharray:7.0,7.0;"/></g><!--link UC1 to GMN46--><g id="link_UC1_GMN46"><path d="M378.2292,802.4687 C394.25,796.4687 409.8542,787.8021 421.3542,775.25 C556.3125,627.9687 411.4167,498.4791 532.8125,339.8333 C539.1042,331.6146 546.8021,324.3021 555.1875,317.8437 " fill="none" id="UC1-GMN46" style="stroke:#2FA4E7;stroke-width:3.125;stroke-dasharray:7.0,7.0;"/></g><!--link UC16 to GMN49--><g id="link_UC16_GMN49"><path d="M594.2917,1553.7396 C554.5417,1536.1354 501.6458,1505.3646 477.0833,1459.1041 C421.8229,1355.0416 459.3021,1045.375 477.0833,928.8958 C506.6667,735.0937 593.2604,514.9896 628.7917,430.0521 " fill="none" id="UC16-GMN49" style="stroke:#2FA4E7;stroke-width:3.125;stroke-dasharray:7.0,7.0;"/></g><!--SRC=[VLLBSzem4BxxLsovz099oOCy9fCP2g536o1JaxHN8I-sYf0OIKx2TFBVkv9jMcDI7mox-sbVsltymMMuHk1eSebCTNJkf50OHKuuYJ2U3M2U6MGEnigXb295nH5YDC-2VZlmQ146Z5v3mLB3rb4aSUd0QJ0YpHmamY1tGgieOjnf0wqOUMw4sq9VCRcrhWNCLlyhJ3zP2oMiCup40k0rbVdkrQ6X4n3J6Lm7m4vtSyDofzVCON9x6qK-F5Cf5TForPIPj-1t1FI4ruRn5Ki9CD06OPIhaB2jCFx9BN9V9MNF3C-e6udWFZaRWZyEkatetUj66-TxM85Ecg0dWIz0SGrALaODqDDte4DciuLc9YbnPm7tTg2O4M824wP8MADo1wiPQBKKQUwh9dGL-xm9dDDjfcYeuOgNgDux6Txhj79qSS0HMaVrAbLCHGcyR0BxIHAIAX5N1_gR2FSlfFkfYHaAonOIQx3k__eGymmJseKAVF9kV_r2qCGNLHpexLYbljPdmQ3_CAxy7RZNYLR2Z_K4dH5yDr1d1thoC8PYgYhGWQlgq_HtBDrJxKwxlRAGjoZwMAqRxAOk4niRLTfEvpPCT5q-sPDFz-IpuDYlQTqjzQtG5h3pcjIhIHSrwR8cNTKakkkQsFN1zsXXhxgTjJnosj2SDJJd3KtF1nehBlC4zm9GZd1q53A7Qw8XKQ28X7o-DHEILvK4IwyqT7jxXoZEL3kC5BrACjNBaaIw5u05koor8QgprwJimFpdl0s3-AaDN-FPj0q_9_T1FoAa-4ACs8O79ZNqfTC4p92lDbee5q0naGHHlsn3t_3Onsj3l96vMWNpdMJMqNW6_cl3I2GeXIKlHYnaHDM0JpHgfEktxPjO40zrf5WX50wAV4S2PNBzp6HE-grox3Me-zFXyUpxyNGs1xt1y0smmV13o8GJzu7DDxxw_R0BxOZvoxX-u3_JigP6vmHxqMP516PovNtPSiqJ29loIo-yzaMu3AYmzOQyARxzw_yF]--></g></svg>