<?plantuml 1.2026.2?><svg xmlns="http://www.w3.org/2000/svg" xmlns:xlink="http://www.w3.org/1999/xlink" contentStyleType="text/css" data-diagram-type="CLASS" height="946.875px" preserveAspectRatio="none" style="width:2745px;height:946px;" version="1.1" viewBox="0 0 2745 946" width="2745.8333px" zoomAndPan="magnify"><title>IOC Threat Intelligence Service - Service Layer</title><defs><linearGradient id="gaymvcy44w60k0" x1="50%" x2="50%" y1="0%" y2="100%"><stop offset="0%" stop-color="#2FA4E7"/><stop offset="100%" stop-color="#2683B9"/></linearGradient></defs><g><g class="title" data-source-line="4"><rect fill="none" height="47.168" rx="4.1667" ry="4.1667" style="stroke:#BABDBF;stroke-width:1.0417;" width="570.2799" x="1083.3597" y="20.8333"/><text fill="#2FA4E7" font-family="'Verdana'" font-size="20.8333" font-weight="bold" lengthAdjust="spacing" textLength="547.3633" x="1094.8181" y="51.6296">IOC Threat Intelligence Service - Service Layer</text></g><!--class BaseService--><g class="entity" data-qualified-name="BaseService" data-source-line="6" id="ent0002"><rect fill="none" height="169.6126" rx="4.1667" ry="4.1667" style="stroke:#2FA4E7;stroke-width:1.0417;" width="302.6779" x="550.7917" y="86.7513"/><rect fill="url(#gaymvcy44w60k0)" height="34.1715" rx="4.1667" ry="4.1667" style="stroke:url(#gaymvcy44w60k0);stroke-width:1.0417;" width="302.6779" x="550.7917" y="86.7513"/><rect fill="url(#gaymvcy44w60k0)" height="4.1667" style="stroke:url(#gaymvcy44w60k0);stroke-width:1.0417;" width="302.6779" x="550.7917" y="116.7562"/><rect fill="none" height="169.6126" rx="4.1667" ry="4.1667" style="stroke:#2FA4E7;stroke-width:1.0417;" width="302.6779" x="550.7917" y="86.7513"/><ellipse cx="657.6309" cy="103.8371" fill="#8FB961" rx="10.4167" ry="10.4167" style="stroke:#FFFFFF;stroke-width:1.0417;"/><path d="M657.224,100.7935 L656.3777,104.5207 L658.0866,104.5207 L657.224,100.7935 Z M656.1335,99.1496 L658.3308,99.1496 L660.7885,108.2642 L658.9818,108.2642 L658.4284,106.0181 L656.0196,106.0181 L655.4662,108.2642 L653.6596,108.2642 L656.1335,99.1496 Z " fill="#2FA4E7"/><text fill="#343A40" font-family="'Verdana'" font-size="11.4583" font-style="italic" lengthAdjust="spacing" textLength="70.2494" x="682.6309" y="107.8039">BaseService</text><line style="stroke:#2FA4E7;stroke-width:1.0417;" x1="551.8333" x2="852.4279" y1="120.9229" y2="120.9229"/><text fill="#343A40" font-family="'Verdana'" font-size="11.4583" lengthAdjust="spacing" textLength="88.9308" x="562.25" y="140.9337">#config: Config</text><text fill="#343A40" font-family="'Verdana'" font-size="11.4583" lengthAdjust="spacing" textLength="93.306" x="562.25" y="164.6886">#logger: Logger</text><line style="stroke:#2FA4E7;stroke-width:1.0417;" x1="551.8333" x2="852.4279" y1="176.766" y2="176.766"/><text fill="#343A40" font-family="'Verdana'" font-size="11.4583" lengthAdjust="spacing" textLength="138.9099" x="562.25" y="196.7768">+__init__(config: Config)</text><text fill="#343A40" font-family="'Verdana'" font-size="11.4583" lengthAdjust="spacing" textLength="216.2984" x="562.25" y="220.5317">+update_indicators(): Dict &#171;abstract&#187;</text><text fill="#343A40" font-family="'Verdana'" font-size="11.4583" lengthAdjust="spacing" textLength="279.7613" x="562.25" y="244.2866">+test_connection(): Tuple&lt;bool, str&gt; &#171;abstract&#187;</text></g><!--class CrowdSecService--><g class="entity" data-qualified-name="CrowdSecService" data-source-line="15" id="ent0003"><rect fill="none" height="145.8577" rx="4.1667" ry="4.1667" style="stroke:#2FA4E7;stroke-width:1.0417;" width="250.0971" x="17.7083" y="390.1367"/><rect fill="url(#gaymvcy44w60k0)" height="34.1715" rx="4.1667" ry="4.1667" style="stroke:url(#gaymvcy44w60k0);stroke-width:1.0417;" width="250.0971" x="17.7083" y="390.1367"/><rect fill="url(#gaymvcy44w60k0)" height="4.1667" style="stroke:url(#gaymvcy44w60k0);stroke-width:1.0417;" width="250.0971" x="17.7083" y="420.1416"/><rect fill="none" height="145.8577" rx="4.1667" ry="4.1667" style="stroke:#2FA4E7;stroke-width:1.0417;" width="250.0971" x="17.7083" y="390.1367"/><ellipse cx="83.7133" cy="407.2225" fill="#EDF0F2" rx="10.4167" ry="10.4167" style="stroke:#BABDBF;stroke-width:1.0417;"/><path d="M85.6176,411.6496 Q85.1944,411.8612 84.7224,411.9751 Q84.2504,412.089 83.7458,412.089 Q81.8904,412.089 80.9138,410.8846 Q79.9535,409.6639 79.9535,407.369 Q79.9535,405.0578 80.9138,403.8534 Q81.8904,402.6326 83.7458,402.6326 Q84.2504,402.6326 84.7224,402.7466 Q85.2107,402.8442 85.6176,403.0721 L85.6176,405.0741 Q85.1618,404.6509 84.7224,404.4556 Q84.2829,404.244 83.8272,404.244 Q82.8344,404.244 82.3298,405.0415 Q81.8253,405.8228 81.8253,407.369 Q81.8253,408.8989 82.3298,409.6802 Q82.8344,410.4614 83.8272,410.4614 Q84.2829,410.4614 84.7224,410.2661 Q85.1618,410.0708 85.6176,409.6476 L85.6176,411.6496 Z " fill="#2FA4E7"/><text fill="#343A40" font-family="'Verdana'" font-size="11.4583" lengthAdjust="spacing" textLength="99.3373" x="108.7133" y="411.1893">CrowdSecService</text><line style="stroke:#2FA4E7;stroke-width:1.0417;" x1="18.75" x2="266.7638" y1="424.3083" y2="424.3083"/><line style="stroke:#2FA4E7;stroke-width:1.0417;" x1="18.75" x2="266.7638" y1="432.6416" y2="432.6416"/><text fill="#343A40" font-family="'Verdana'" font-size="11.4583" lengthAdjust="spacing" textLength="227.1805" x="29.1667" y="452.6525">+update_crowdsec_list(list_id: str): Dict</text><text fill="#343A40" font-family="'Verdana'" font-size="11.4583" lengthAdjust="spacing" textLength="196.5764" x="29.1667" y="476.4074">+update_all_crowdsec_lists(): Dict</text><text fill="#343A40" font-family="'Verdana'" font-size="11.4583" lengthAdjust="spacing" textLength="216.3823" x="29.1667" y="500.1623">-_fetch_list(api_key, list_id): List&lt;str&gt;</text><text fill="#343A40" font-family="'Verdana'" font-size="11.4583" lengthAdjust="spacing" textLength="203.6708" x="29.1667" y="523.9171">-_deactivate_missing(db, incoming)</text></g><!--class MISPService--><g class="entity" data-qualified-name="MISPService" data-source-line="22" id="ent0004"><rect fill="none" height="145.8577" rx="4.1667" ry="4.1667" style="stroke:#2FA4E7;stroke-width:1.0417;" width="227.4546" x="304.0313" y="390.1367"/><rect fill="url(#gaymvcy44w60k0)" height="34.1715" rx="4.1667" ry="4.1667" style="stroke:url(#gaymvcy44w60k0);stroke-width:1.0417;" width="227.4546" x="304.0313" y="390.1367"/><rect fill="url(#gaymvcy44w60k0)" height="4.1667" style="stroke:url(#gaymvcy44w60k0);stroke-width:1.0417;" width="227.4546" x="304.0313" y="420.1416"/><rect fill="none" height="145.8577" rx="4.1667" ry="4.1667" style="stroke:#2FA4E7;stroke-width:1.0417;" width="227.4546" x="304.0313" y="390.1367"/><ellipse cx="373.4854" cy="407.2225" fill="#EDF0F2" rx="10.4167" ry="10.4167" style="stroke:#BABDBF;stroke-width:1.0417;"/><path d="M375.3897,411.6496 Q374.9666,411.8612 374.4946,411.9751 Q374.0226,412.089 373.518,412.089 Q371.6625,412.089 370.686,410.8846 Q369.7257,409.6639 369.7257,407.369 Q369.7257,405.0578 370.686,403.8534 Q371.6625,402.6326 373.518,402.6326 Q374.0226,402.6326 374.4946,402.7466 Q374.9828,402.8442 375.3897,403.0721 L375.3897,405.0741 Q374.934,404.6509 374.4946,404.4556 Q374.0551,404.244 373.5994,404.244 Q372.6065,404.244 372.102,405.0415 Q371.5974,405.8228 371.5974,407.369 Q371.5974,408.8989 372.102,409.6802 Q372.6065,410.4614 373.5994,410.4614 Q374.0551,410.4614 374.4946,410.2661 Q374.934,410.0708 375.3897,409.6476 L375.3897,411.6496 Z " fill="#2FA4E7"/><text fill="#343A40" font-family="'Verdana'" font-size="11.4583" lengthAdjust="spacing" textLength="69.7962" x="398.4854" y="411.1893">MISPService</text><line style="stroke:#2FA4E7;stroke-width:1.0417;" x1="305.0729" x2="530.4442" y1="424.3083" y2="424.3083"/><line style="stroke:#2FA4E7;stroke-width:1.0417;" x1="305.0729" x2="530.4442" y1="432.6416" y2="432.6416"/><text fill="#343A40" font-family="'Verdana'" font-size="11.4583" lengthAdjust="spacing" textLength="184.6705" x="315.4896" y="452.6525">+update_misp_indicators(): Dict</text><text fill="#343A40" font-family="'Verdana'" font-size="11.4583" lengthAdjust="spacing" textLength="167.455" x="315.4896" y="476.4074">-_search_misp(days: int): List</text><text fill="#343A40" font-family="'Verdana'" font-size="11.4583" lengthAdjust="spacing" textLength="204.538" x="315.4896" y="500.1623">-_normalize_event(event): Indicator</text><text fill="#343A40" font-family="'Verdana'" font-size="11.4583" lengthAdjust="spacing" textLength="104.921" x="315.4896" y="523.9171">-_apply_tlp_rules()</text></g><!--class MalwareBazaarService--><g class="entity" data-qualified-name="MalwareBazaarService" data-source-line="29" id="ent0005"><rect fill="none" height="122.1029" rx="4.1667" ry="4.1667" style="stroke:#2FA4E7;stroke-width:1.0417;" width="268.5827" x="567.8438" y="402.0117"/><rect fill="url(#gaymvcy44w60k0)" height="34.1715" rx="4.1667" ry="4.1667" style="stroke:url(#gaymvcy44w60k0);stroke-width:1.0417;" width="268.5827" x="567.8438" y="402.0117"/><rect fill="url(#gaymvcy44w60k0)" height="4.1667" style="stroke:url(#gaymvcy44w60k0);stroke-width:1.0417;" width="268.5827" x="567.8438" y="432.0166"/><rect fill="none" height="122.1029" rx="4.1667" ry="4.1667" style="stroke:#2FA4E7;stroke-width:1.0417;" width="268.5827" x="567.8438" y="402.0117"/><ellipse cx="627.6384" cy="419.0975" fill="#EDF0F2" rx="10.4167" ry="10.4167" style="stroke:#BABDBF;stroke-width:1.0417;"/><path d="M629.5427,423.5246 Q629.1195,423.7362 628.6475,423.8501 Q628.1755,423.964 627.6709,423.964 Q625.8155,423.964 624.8389,422.7596 Q623.8786,421.5389 623.8786,419.244 Q623.8786,416.9328 624.8389,415.7284 Q625.8155,414.5076 627.6709,414.5076 Q628.1755,414.5076 628.6475,414.6216 Q629.1358,414.7192 629.5427,414.9471 L629.5427,416.9491 Q629.0869,416.5259 628.6475,416.3306 Q628.208,416.119 627.7523,416.119 Q626.7595,416.119 626.2549,416.9165 Q625.7503,417.6978 625.7503,419.244 Q625.7503,420.7739 626.2549,421.5552 Q626.7595,422.3364 627.7523,422.3364 Q628.208,422.3364 628.6475,422.1411 Q629.0869,421.9458 629.5427,421.5226 L629.5427,423.5246 Z " fill="#2FA4E7"/><text fill="#343A40" font-family="'Verdana'" font-size="11.4583" lengthAdjust="spacing" textLength="130.2434" x="652.6384" y="423.0643">MalwareBazaarService</text><line style="stroke:#2FA4E7;stroke-width:1.0417;" x1="568.8854" x2="835.3847" y1="436.1833" y2="436.1833"/><line style="stroke:#2FA4E7;stroke-width:1.0417;" x1="568.8854" x2="835.3847" y1="444.5166" y2="444.5166"/><text fill="#343A40" font-family="'Verdana'" font-size="11.4583" lengthAdjust="spacing" textLength="245.666" x="579.3021" y="464.5275">+update_malwarebazaar_indicators(): Dict</text><text fill="#343A40" font-family="'Verdana'" font-size="11.4583" lengthAdjust="spacing" textLength="212.41" x="579.3021" y="488.2824">-_fetch_by_tags(tags: List&lt;str&gt;): List</text><text fill="#343A40" font-family="'Verdana'" font-size="11.4583" lengthAdjust="spacing" textLength="163.947" x="579.3021" y="512.0373">-_fetch_by_date(since: Date)</text></g><!--class MWDBService--><g class="entity" data-qualified-name="MWDBService" data-source-line="35" id="ent0006"><rect fill="none" height="145.8577" rx="4.1667" ry="4.1667" style="stroke:#2FA4E7;stroke-width:1.0417;" width="264.0844" x="873.2188" y="390.1367"/><rect fill="url(#gaymvcy44w60k0)" height="34.1715" rx="4.1667" ry="4.1667" style="stroke:url(#gaymvcy44w60k0);stroke-width:1.0417;" width="264.0844" x="873.2188" y="390.1367"/><rect fill="url(#gaymvcy44w60k0)" height="4.1667" style="stroke:url(#gaymvcy44w60k0);stroke-width:1.0417;" width="264.0844" x="873.2188" y="420.1416"/><rect fill="none" height="145.8577" rx="4.1667" ry="4.1667" style="stroke:#2FA4E7;stroke-width:1.0417;" width="264.0844" x="873.2188" y="390.1367"/><ellipse cx="955.7622" cy="407.2225" fill="#EDF0F2" rx="10.4167" ry="10.4167" style="stroke:#BABDBF;stroke-width:1.0417;"/><path d="M957.6665,411.6496 Q957.2433,411.8612 956.7713,411.9751 Q956.2993,412.089 955.7947,412.089 Q953.9393,412.089 952.9627,410.8846 Q952.0024,409.6639 952.0024,407.369 Q952.0024,405.0578 952.9627,403.8534 Q953.9393,402.6326 955.7947,402.6326 Q956.2993,402.6326 956.7713,402.7466 Q957.2596,402.8442 957.6665,403.0721 L957.6665,405.0741 Q957.2108,404.6509 956.7713,404.4556 Q956.3318,404.244 955.8761,404.244 Q954.8833,404.244 954.3787,405.0415 Q953.8742,405.8228 953.8742,407.369 Q953.8742,408.8989 954.3787,409.6802 Q954.8833,410.4614 955.8761,410.4614 Q956.3318,410.4614 956.7713,410.2661 Q957.2108,410.0708 957.6665,409.6476 L957.6665,411.6496 Z " fill="#2FA4E7"/><text fill="#343A40" font-family="'Verdana'" font-size="11.4583" lengthAdjust="spacing" textLength="80.2475" x="980.7622" y="411.1893">MWDBService</text><line style="stroke:#2FA4E7;stroke-width:1.0417;" x1="874.2604" x2="1136.2615" y1="424.3083" y2="424.3083"/><line style="stroke:#2FA4E7;stroke-width:1.0417;" x1="874.2604" x2="1136.2615" y1="432.6416" y2="432.6416"/><text fill="#343A40" font-family="'Verdana'" font-size="11.4583" lengthAdjust="spacing" textLength="192.1621" x="884.6771" y="452.6525">+update_mwdb_indicators(): Dict</text><text fill="#343A40" font-family="'Verdana'" font-size="11.4583" lengthAdjust="spacing" textLength="241.1677" x="884.6771" y="476.4074">+fetch_mwdb_organizations(): List&lt;Dict&gt;</text><text fill="#343A40" font-family="'Verdana'" font-size="11.4583" lengthAdjust="spacing" textLength="180.5191" x="884.6771" y="500.1623">+test_mwdb_connection(): Dict</text><text fill="#343A40" font-family="'Verdana'" font-size="11.4583" lengthAdjust="spacing" textLength="120.2733" x="884.6771" y="523.9171">-_query_with_filters()</text></g><!--class AbuseChService--><g class="entity" data-qualified-name="AbuseChService" data-source-line="42" id="ent0007"><rect fill="none" height="193.3675" rx="4.1667" ry="4.1667" style="stroke:#2FA4E7;stroke-width:1.0417;" width="228.1372" x="1173.4792" y="366.3763"/><rect fill="url(#gaymvcy44w60k0)" height="34.1715" rx="4.1667" ry="4.1667" style="stroke:url(#gaymvcy44w60k0);stroke-width:1.0417;" width="228.1372" x="1173.4792" y="366.3763"/><rect fill="url(#gaymvcy44w60k0)" height="4.1667" style="stroke:url(#gaymvcy44w60k0);stroke-width:1.0417;" width="228.1372" x="1173.4792" y="396.3812"/><rect fill="none" height="193.3675" rx="4.1667" ry="4.1667" style="stroke:#2FA4E7;stroke-width:1.0417;" width="228.1372" x="1173.4792" y="366.3763"/><ellipse cx="1231.6708" cy="383.4621" fill="#EDF0F2" rx="10.4167" ry="10.4167" style="stroke:#BABDBF;stroke-width:1.0417;"/><path d="M1233.5751,387.8892 Q1233.152,388.1007 1232.68,388.2147 Q1232.208,388.3286 1231.7034,388.3286 Q1229.8479,388.3286 1228.8714,387.1242 Q1227.9111,385.9035 1227.9111,383.6086 Q1227.9111,381.2974 1228.8714,380.0929 Q1229.8479,378.8722 1231.7034,378.8722 Q1232.208,378.8722 1232.68,378.9862 Q1233.1682,379.0838 1233.5751,379.3117 L1233.5751,381.3136 Q1233.1194,380.8905 1232.68,380.6951 Q1232.2405,380.4836 1231.7848,380.4836 Q1230.7919,380.4836 1230.2874,381.2811 Q1229.7828,382.0623 1229.7828,383.6086 Q1229.7828,385.1385 1230.2874,385.9198 Q1230.7919,386.701 1231.7848,386.701 Q1232.2405,386.701 1232.68,386.5057 Q1233.1194,386.3104 1233.5751,385.8872 L1233.5751,387.8892 Z " fill="#2FA4E7"/><text fill="#343A40" font-family="'Verdana'" font-size="11.4583" lengthAdjust="spacing" textLength="93.0038" x="1256.6708" y="387.4289">AbuseChService</text><line style="stroke:#2FA4E7;stroke-width:1.0417;" x1="1174.5208" x2="1400.5747" y1="400.5479" y2="400.5479"/><line style="stroke:#2FA4E7;stroke-width:1.0417;" x1="1174.5208" x2="1400.5747" y1="408.8812" y2="408.8812"/><text fill="#343A40" font-family="'Verdana'" font-size="11.4583" lengthAdjust="spacing" textLength="205.2205" x="1184.9375" y="428.8921">+update_abusech_indicators(): Dict</text><text fill="#343A40" font-family="'Verdana'" font-size="11.4583" lengthAdjust="spacing" textLength="183.283" x="1184.9375" y="452.647">+fetch_threatfox(days: int): List</text><text fill="#343A40" font-family="'Verdana'" font-size="11.4583" lengthAdjust="spacing" textLength="123.6135" x="1184.9375" y="476.4018">+fetch_urlhaus(): List</text><text fill="#343A40" font-family="'Verdana'" font-size="11.4583" lengthAdjust="spacing" textLength="154.2399" x="1184.9375" y="500.1567">+fetch_feodotracker(): List</text><text fill="#343A40" font-family="'Verdana'" font-size="11.4583" lengthAdjust="spacing" textLength="120.4748" x="1184.9375" y="523.9116">+fetch_yaraify(): List</text><text fill="#343A40" font-family="'Verdana'" font-size="11.4583" lengthAdjust="spacing" textLength="125.6948" x="1184.9375" y="547.6665">-_parse_ioc_data(raw)</text></g><!--class CorrelationService--><g class="entity" data-qualified-name="CorrelationService" data-source-line="51" id="ent0008"><rect fill="none" height="145.8577" rx="4.1667" ry="4.1667" style="stroke:#2FA4E7;stroke-width:1.0417;" width="225.4517" x="1140.4479" y="98.6367"/><rect fill="url(#gaymvcy44w60k0)" height="34.1715" rx="4.1667" ry="4.1667" style="stroke:url(#gaymvcy44w60k0);stroke-width:1.0417;" width="225.4517" x="1140.4479" y="98.6367"/><rect fill="url(#gaymvcy44w60k0)" height="4.1667" style="stroke:url(#gaymvcy44w60k0);stroke-width:1.0417;" width="225.4517" x="1140.4479" y="128.6416"/><rect fill="none" height="145.8577" rx="4.1667" ry="4.1667" style="stroke:#2FA4E7;stroke-width:1.0417;" width="225.4517" x="1140.4479" y="98.6367"/><ellipse cx="1190.8068" cy="115.7225" fill="#EDF0F2" rx="10.4167" ry="10.4167" style="stroke:#BABDBF;stroke-width:1.0417;"/><path d="M1192.711,120.1496 Q1192.2879,120.3612 1191.8159,120.4751 Q1191.3439,120.589 1190.8393,120.589 Q1188.9838,120.589 1188.0073,119.3846 Q1187.047,118.1639 1187.047,115.869 Q1187.047,113.5578 1188.0073,112.3534 Q1188.9838,111.1326 1190.8393,111.1326 Q1191.3439,111.1326 1191.8159,111.2466 Q1192.3041,111.3442 1192.711,111.5721 L1192.711,113.5741 Q1192.2553,113.1509 1191.8159,112.9556 Q1191.3764,112.744 1190.9207,112.744 Q1189.9278,112.744 1189.4233,113.5415 Q1188.9187,114.3228 1188.9187,115.869 Q1188.9187,117.3989 1189.4233,118.1802 Q1189.9278,118.9614 1190.9207,118.9614 Q1191.3764,118.9614 1191.8159,118.7661 Q1192.2553,118.5708 1192.711,118.1476 L1192.711,120.1496 Z " fill="#2FA4E7"/><text fill="#343A40" font-family="'Verdana'" font-size="11.4583" lengthAdjust="spacing" textLength="105.984" x="1215.8068" y="119.6893">CorrelationService</text><line style="stroke:#2FA4E7;stroke-width:1.0417;" x1="1141.4896" x2="1364.8579" y1="132.8083" y2="132.8083"/><line style="stroke:#2FA4E7;stroke-width:1.0417;" x1="1141.4896" x2="1364.8579" y1="141.1416" y2="141.1416"/><text fill="#343A40" font-family="'Verdana'" font-size="11.4583" lengthAdjust="spacing" textLength="200.4313" x="1151.9063" y="161.1525">+query_correlations(limit: int): List</text><text fill="#343A40" font-family="'Verdana'" font-size="11.4583" lengthAdjust="spacing" textLength="190.9536" x="1151.9063" y="184.9074">+refresh_correlation_snapshots()</text><text fill="#343A40" font-family="'Verdana'" font-size="11.4583" lengthAdjust="spacing" textLength="202.535" x="1151.9063" y="208.6623">+find_cross_source_matches(): List</text><text fill="#343A40" font-family="'Verdana'" font-size="11.4583" lengthAdjust="spacing" textLength="129.2196" x="1151.9063" y="232.4171">-_calculate_similarity()</text></g><!--class ExportService--><g class="entity" data-qualified-name="ExportService" data-source-line="58" id="ent0009"><rect fill="none" height="288.387" rx="4.1667" ry="4.1667" style="stroke:#2FA4E7;stroke-width:1.0417;" width="266.6356" x="1437.5625" y="318.8659"/><rect fill="url(#gaymvcy44w60k0)" height="34.1715" rx="4.1667" ry="4.1667" style="stroke:url(#gaymvcy44w60k0);stroke-width:1.0417;" width="266.6356" x="1437.5625" y="318.8659"/><rect fill="url(#gaymvcy44w60k0)" height="4.1667" style="stroke:url(#gaymvcy44w60k0);stroke-width:1.0417;" width="266.6356" x="1437.5625" y="348.8708"/><rect fill="none" height="288.387" rx="4.1667" ry="4.1667" style="stroke:#2FA4E7;stroke-width:1.0417;" width="266.6356" x="1437.5625" y="318.8659"/><ellipse cx="1521.5774" cy="335.9517" fill="#EDF0F2" rx="10.4167" ry="10.4167" style="stroke:#BABDBF;stroke-width:1.0417;"/><path d="M1523.4817,340.3787 Q1523.0585,340.5903 1522.5865,340.7043 Q1522.1145,340.8182 1521.6099,340.8182 Q1519.7545,340.8182 1518.7779,339.6138 Q1517.8176,338.3931 1517.8176,336.0981 Q1517.8176,333.7869 1518.7779,332.5825 Q1519.7545,331.3618 1521.6099,331.3618 Q1522.1145,331.3618 1522.5865,331.4757 Q1523.0748,331.5734 1523.4817,331.8013 L1523.4817,333.8032 Q1523.026,333.38 1522.5865,333.1847 Q1522.1471,332.9731 1521.6913,332.9731 Q1520.6985,332.9731 1520.1939,333.7707 Q1519.6894,334.5519 1519.6894,336.0981 Q1519.6894,337.6281 1520.1939,338.4093 Q1520.6985,339.1906 1521.6913,339.1906 Q1522.1471,339.1906 1522.5865,338.9953 Q1523.026,338.8 1523.4817,338.3768 L1523.4817,340.3787 Z " fill="#2FA4E7"/><text fill="#343A40" font-family="'Verdana'" font-size="11.4583" lengthAdjust="spacing" textLength="79.8559" x="1546.5774" y="339.9184">ExportService</text><line style="stroke:#2FA4E7;stroke-width:1.0417;" x1="1438.6042" x2="1703.1565" y1="353.0374" y2="353.0374"/><text fill="#343A40" font-family="'Verdana'" font-size="11.4583" lengthAdjust="spacing" textLength="183.9712" x="1449.0208" y="373.0483">+export_txt(indicators: List): str</text><text fill="#343A40" font-family="'Verdana'" font-size="11.4583" lengthAdjust="spacing" textLength="187.2554" x="1449.0208" y="396.8032">+export_csv(indicators: List): str</text><text fill="#343A40" font-family="'Verdana'" font-size="11.4583" lengthAdjust="spacing" textLength="191.6306" x="1449.0208" y="420.5581">+export_json(indicators: List): str</text><text fill="#343A40" font-family="'Verdana'" font-size="11.4583" lengthAdjust="spacing" textLength="188.6317" x="1449.0208" y="444.313">+export_stix(indicators: List): str</text><text fill="#343A40" font-family="'Verdana'" font-size="11.4583" lengthAdjust="spacing" textLength="185.5881" x="1449.0208" y="468.0679">+export_cef(indicators: List): str</text><text fill="#343A40" font-family="'Verdana'" font-size="11.4583" lengthAdjust="spacing" textLength="217.4733" x="1449.0208" y="491.8227">+export_fortigate(indicators: List): str</text><text fill="#343A40" font-family="'Verdana'" font-size="11.4583" lengthAdjust="spacing" textLength="205.7912" x="1449.0208" y="515.5776">+export_splunk(indicators: List): str</text><text fill="#343A40" font-family="'Verdana'" font-size="11.4583" lengthAdjust="spacing" textLength="243.719" x="1449.0208" y="539.3325">+export_elasticsearch(indicators: List): str</text><line style="stroke:#2FA4E7;stroke-width:1.0417;" x1="1438.6042" x2="1703.1565" y1="551.4098" y2="551.4098"/><text fill="#343A40" font-family="'Verdana'" font-size="11.4583" lengthAdjust="spacing" textLength="193.8182" x="1449.0208" y="571.4207">-_get_formatter(fmt: str): Callable</text><text fill="#343A40" font-family="'Verdana'" font-size="11.4583" lengthAdjust="spacing" textLength="213.2044" x="1449.0208" y="595.1756">-_severity_from_confidence(conf): str</text></g><!--class QueryParser--><g class="entity" data-qualified-name="QueryParser" data-source-line="72" id="ent0010"><rect fill="none" height="193.3675" rx="4.1667" ry="4.1667" style="stroke:#2FA4E7;stroke-width:1.0417;" width="293.8604" x="2062.4896" y="366.3763"/><rect fill="url(#gaymvcy44w60k0)" height="34.1715" rx="4.1667" ry="4.1667" style="stroke:url(#gaymvcy44w60k0);stroke-width:1.0417;" width="293.8604" x="2062.4896" y="366.3763"/><rect fill="url(#gaymvcy44w60k0)" height="4.1667" style="stroke:url(#gaymvcy44w60k0);stroke-width:1.0417;" width="293.8604" x="2062.4896" y="396.3812"/><rect fill="none" height="193.3675" rx="4.1667" ry="4.1667" style="stroke:#2FA4E7;stroke-width:1.0417;" width="293.8604" x="2062.4896" y="366.3763"/><ellipse cx="2164.4473" cy="383.4621" fill="#EDF0F2" rx="10.4167" ry="10.4167" style="stroke:#BABDBF;stroke-width:1.0417;"/><path d="M2166.3516,387.8892 Q2165.9284,388.1007 2165.4564,388.2147 Q2164.9844,388.3286 2164.4798,388.3286 Q2162.6244,388.3286 2161.6478,387.1242 Q2160.6875,385.9035 2160.6875,383.6086 Q2160.6875,381.2974 2161.6478,380.0929 Q2162.6244,378.8722 2164.4798,378.8722 Q2164.9844,378.8722 2165.4564,378.9862 Q2165.9447,379.0838 2166.3516,379.3117 L2166.3516,381.3136 Q2165.8959,380.8905 2165.4564,380.6951 Q2165.0169,380.4836 2164.5612,380.4836 Q2163.5684,380.4836 2163.0638,381.2811 Q2162.5593,382.0623 2162.5593,383.6086 Q2162.5593,385.1385 2163.0638,385.9198 Q2163.5684,386.701 2164.5612,386.701 Q2165.0169,386.701 2165.4564,386.5057 Q2165.8959,386.3104 2166.3516,385.8872 L2166.3516,387.8892 Z " fill="#2FA4E7"/><text fill="#343A40" font-family="'Verdana'" font-size="11.4583" lengthAdjust="spacing" textLength="71.195" x="2189.4473" y="387.4289">QueryParser</text><line style="stroke:#2FA4E7;stroke-width:1.0417;" x1="2063.5313" x2="2355.3083" y1="400.5479" y2="400.5479"/><text fill="#343A40" font-family="'Verdana'" font-size="11.4583" lengthAdjust="spacing" textLength="270.9437" x="2073.9479" y="420.5587">+parse_kibana_query(query: str): List&lt;Token&gt;</text><text fill="#343A40" font-family="'Verdana'" font-size="11.4583" lengthAdjust="spacing" textLength="206.0094" x="2073.9479" y="444.3136">+parse_term(field, op, value): Term</text><text fill="#343A40" font-family="'Verdana'" font-size="11.4583" lengthAdjust="spacing" textLength="181.2968" x="2073.9479" y="468.0685">+tokenize(input: str): List&lt;str&gt;</text><text fill="#343A40" font-family="'Verdana'" font-size="11.4583" lengthAdjust="spacing" textLength="215.6158" x="2073.9479" y="491.8234">+rpn_to_filter(rpn): SQLAlchemyFilter</text><line style="stroke:#2FA4E7;stroke-width:1.0417;" x1="2063.5313" x2="2355.3083" y1="503.9007" y2="503.9007"/><text fill="#343A40" font-family="'Verdana'" font-size="11.4583" lengthAdjust="spacing" textLength="138.7085" x="2073.9479" y="523.9116">-_shunting_yard(tokens)</text><text fill="#343A40" font-family="'Verdana'" font-size="11.4583" lengthAdjust="spacing" textLength="157.3339" x="2073.9479" y="547.6665">-_apply_operator(op, stack)</text></g><!--class Config--><g class="entity" data-qualified-name="Config" data-source-line="82" id="ent0011"><rect fill="none" height="264.6322" rx="4.1667" ry="4.1667" style="stroke:#2FA4E7;stroke-width:1.0417;" width="230.1514" x="890.1771" y="669.7513"/><rect fill="url(#gaymvcy44w60k0)" height="34.1715" rx="4.1667" ry="4.1667" style="stroke:url(#gaymvcy44w60k0);stroke-width:1.0417;" width="230.1514" x="890.1771" y="669.7513"/><rect fill="url(#gaymvcy44w60k0)" height="4.1667" style="stroke:url(#gaymvcy44w60k0);stroke-width:1.0417;" width="230.1514" x="890.1771" y="699.7562"/><rect fill="none" height="264.6322" rx="4.1667" ry="4.1667" style="stroke:#2FA4E7;stroke-width:1.0417;" width="230.1514" x="890.1771" y="669.7513"/><ellipse cx="977.4958" cy="686.8371" fill="#EDF0F2" rx="10.4167" ry="10.4167" style="stroke:#BABDBF;stroke-width:1.0417;"/><path d="M979.4001,691.2642 Q978.9769,691.4757 978.5049,691.5897 Q978.0329,691.7036 977.5283,691.7036 Q975.6728,691.7036 974.6963,690.4992 Q973.736,689.2785 973.736,686.9836 Q973.736,684.6724 974.6963,683.4679 Q975.6728,682.2472 977.5283,682.2472 Q978.0329,682.2472 978.5049,682.3612 Q978.9932,682.4588 979.4001,682.6867 L979.4001,684.6886 Q978.9443,684.2655 978.5049,684.0701 Q978.0654,683.8586 977.6097,683.8586 Q976.6169,683.8586 976.1123,684.6561 Q975.6077,685.4373 975.6077,686.9836 Q975.6077,688.5135 976.1123,689.2948 Q976.6169,690.076 977.6097,690.076 Q978.0654,690.076 978.5049,689.8807 Q978.9443,689.6854 979.4001,689.2622 L979.4001,691.2642 Z " fill="#2FA4E7"/><text fill="#343A40" font-family="'Verdana'" font-size="11.4583" lengthAdjust="spacing" textLength="36.764" x="1002.4958" y="690.8039">Config</text><line style="stroke:#2FA4E7;stroke-width:1.0417;" x1="891.2188" x2="1119.2868" y1="703.9229" y2="703.9229"/><text fill="#343A40" font-family="'Verdana'" font-size="11.4583" lengthAdjust="spacing" textLength="104.4734" x="901.6354" y="723.9337">+SECRET_KEY: str</text><text fill="#343A40" font-family="'Verdana'" font-size="11.4583" lengthAdjust="spacing" textLength="122.4497" x="901.6354" y="747.6886">+DATABASE_URL: str</text><text fill="#343A40" font-family="'Verdana'" font-size="11.4583" lengthAdjust="spacing" textLength="95.4152" x="901.6354" y="771.4435">+REDIS_URL: str</text><text fill="#343A40" font-family="'Verdana'" font-size="11.4583" lengthAdjust="spacing" textLength="97.849" x="901.6354" y="795.1984">+CACHE_TTL: int</text><text fill="#343A40" font-family="'Verdana'" font-size="11.4583" lengthAdjust="spacing" textLength="207.2347" x="901.6354" y="818.9533">+REQUESTS_PER_SECOND_MAX: int</text><text fill="#343A40" font-family="'Verdana'" font-size="11.4583" lengthAdjust="spacing" textLength="88.1866" x="901.6354" y="842.7082">+MISP_URL: str</text><text fill="#343A40" font-family="'Verdana'" font-size="11.4583" lengthAdjust="spacing" textLength="111.0641" x="901.6354" y="866.463">+MISP_API_KEY: str</text><text fill="#343A40" font-family="'Verdana'" font-size="11.4583" lengthAdjust="spacing" textLength="151.2634" x="901.6354" y="890.2179">+CROWDSEC_API_KEY: str</text><line style="stroke:#2FA4E7;stroke-width:1.0417;" x1="891.2188" x2="1119.2868" y1="902.2952" y2="902.2952"/><text fill="#343A40" font-family="'Verdana'" font-size="11.4583" lengthAdjust="spacing" textLength="125.9521" x="901.6354" y="922.3061">+get_setting(key): str</text></g><g class="entity" data-qualified-name="GMN24" data-source-line="112" id="ent0025"><path d="M889.5625,150.7617 L889.5625,167.3971 L853.8438,171.5638 L889.5625,175.7305 L889.5625,192.3633 A4.1667,4.1667 0 0 0 893.7292,196.5299 L1100.1277,196.5299 A4.1667,4.1667 0 0 0 1104.2944,192.3633 L1104.2944,157.0117 L1093.8777,146.5951 L893.7292,146.5951 A4.1667,4.1667 0 0 0 889.5625,150.7617" fill="none" style="stroke:#033C73;stroke-width:1.0417;"/><path d="M1093.8777,146.5951 L1093.8777,154.9284 A2.0833,2.0833 0 0 0 1095.961,157.0117 L1104.2944,157.0117 L1093.8777,146.5951" fill="none" style="stroke:#033C73;stroke-width:1.0417;"/><text fill="#033C73" font-family="'Verdana'" font-size="12.5" lengthAdjust="spacing" textLength="175.9705" x="901.0208" y="168.6145">Abstract base class defining</text><text fill="#033C73" font-family="'Verdana'" font-size="12.5" lengthAdjust="spacing" textLength="182.4402" x="901.0208" y="183.1653">interface for all feed services</text></g><g class="entity" data-qualified-name="GMN27" data-source-line="117" id="ent0028"><path d="M1740.4896,420.4388 L1740.4896,458.8971 L1704.5521,463.0638 L1740.4896,467.2305 L1740.4896,505.6927 A4.1667,4.1667 0 0 0 1744.6563,509.8594 L2022.118,509.8594 A4.1667,4.1667 0 0 0 2026.2847,505.6927 L2026.2847,426.6888 L2015.868,416.2721 L1744.6563,416.2721 A4.1667,4.1667 0 0 0 1740.4896,420.4388" fill="none" style="stroke:#033C73;stroke-width:1.0417;"/><path d="M2015.868,416.2721 L2015.868,424.6055 A2.0833,2.0833 0 0 0 2017.9513,426.6888 L2026.2847,426.6888 L2015.868,416.2721" fill="none" style="stroke:#033C73;stroke-width:1.0417;"/><text fill="#033C73" font-family="'Verdana'" font-size="12.5" lengthAdjust="spacing" textLength="184.8022" x="1751.9479" y="438.2916">17 export formats supported:</text><text fill="#033C73" font-family="'Verdana'" font-size="12.5" lengthAdjust="spacing" textLength="160.1868" x="1751.9479" y="452.8424">- Basic: txt, csv, json, xml</text><text fill="#033C73" font-family="'Verdana'" font-size="12.5" lengthAdjust="spacing" textLength="253.5034" x="1751.9479" y="467.3931">- Firewall: fortigate, checkpoint, paloalto</text><text fill="#033C73" font-family="'Verdana'" font-size="12.5" lengthAdjust="spacing" textLength="203.8696" x="1751.9479" y="481.9439">- SIEM: sentinel, arcsight, splunk</text><text fill="#033C73" font-family="'Verdana'" font-size="12.5" lengthAdjust="spacing" textLength="238.2385" x="1751.9479" y="496.4947">- Platforms: elasticsearch, cribl, fidelis</text></g><g class="entity" data-qualified-name="GMN30" data-source-line="125" id="ent0031"><path d="M2393.3125,427.7096 L2393.3125,458.8971 L2356.7604,463.0638 L2393.3125,467.2305 L2393.3125,498.4128 A4.1667,4.1667 0 0 0 2397.4792,502.5794 L2729.7078,502.5794 A4.1667,4.1667 0 0 0 2733.8744,498.4128 L2733.8744,433.9596 L2723.4578,423.543 L2397.4792,423.543 A4.1667,4.1667 0 0 0 2393.3125,427.7096" fill="none" style="stroke:#033C73;stroke-width:1.0417;"/><path d="M2723.4578,423.543 L2723.4578,431.8763 A2.0833,2.0833 0 0 0 2725.5411,433.9596 L2733.8744,433.9596 L2723.4578,423.543" fill="none" style="stroke:#033C73;stroke-width:1.0417;"/><text fill="#033C73" font-family="'Verdana'" font-size="12.5" lengthAdjust="spacing" textLength="159.2651" x="2404.7708" y="445.5624">Kibana-like query syntax:</text><text fill="#033C73" font-family="'Verdana'" font-size="12.5" lengthAdjust="spacing" textLength="167.9016" x="2404.7708" y="460.1132">- Operators: AND, OR, NOT</text><text fill="#033C73" font-family="'Verdana'" font-size="12.5" lengthAdjust="spacing" textLength="308.2703" x="2404.7708" y="474.664">- Fields: value, type, confidence, tlp, tags, source</text><text fill="#033C73" font-family="'Verdana'" font-size="12.5" lengthAdjust="spacing" textLength="98.8586" x="2404.7708" y="489.2148">- Wildcards: *, ?</text></g><!--reverse link BaseService to CrowdSecService--><g class="link" data-entity-1="ent0002" data-entity-2="ent0003" data-link-type="extension" data-source-line="96" id="lnk12"><path codeLine="96" d="M532.6361,213.1767 C450.157,236.7079 366.7083,267.6784 285.4688,318.8659 C255.1771,337.9492 226.375,364.5534 202.6771,389.6471" fill="none" id="BaseService-backto-CrowdSecService" style="stroke:#2FA4E7;stroke-width:3.125;"/><polygon fill="none" points="550.6667,208.0326,530.9214,207.1665,534.3508,219.1868,550.6667,208.0326" style="stroke:#2FA4E7;stroke-width:3.125;"/></g><!--reverse link BaseService to MISPService--><g class="link" data-entity-1="ent0002" data-entity-2="ent0004" data-link-type="extension" data-source-line="97" id="lnk13"><path codeLine="97" d="M599.3202,269.8338 C578.4869,289.938 570.0521,298.4596 550.0521,318.8659 C527.7813,341.5846 504.0313,366.918 482.8854,389.8867" fill="none" id="BaseService-backto-MISPService" style="stroke:#2FA4E7;stroke-width:3.125;"/><polygon fill="none" points="612.8125,256.8138,594.9802,265.3364,603.6602,274.3313,612.8125,256.8138" style="stroke:#2FA4E7;stroke-width:3.125;"/></g><!--reverse link BaseService to MalwareBazaarService--><g class="link" data-entity-1="ent0002" data-entity-2="ent0005" data-link-type="extension" data-source-line="98" id="lnk14"><path codeLine="98" d="M702.1354,275.4492 C702.1354,321.8451 702.1354,359.6471 702.1354,401.6367" fill="none" id="BaseService-backto-MalwareBazaarService" style="stroke:#2FA4E7;stroke-width:3.125;"/><polygon fill="none" points="702.1354,256.6992,695.8854,275.4492,708.3854,275.4492,702.1354,256.6992" style="stroke:#2FA4E7;stroke-width:3.125;"/></g><!--reverse link BaseService to MWDBService--><g class="link" data-entity-1="ent0002" data-entity-2="ent0006" data-link-type="extension" data-source-line="99" id="lnk15"><path codeLine="99" d="M803.7785,269.6489 C847.9973,311.8781 887.4688,349.5534 929.7917,389.9701" fill="none" id="BaseService-backto-MWDBService" style="stroke:#2FA4E7;stroke-width:3.125;"/><polygon fill="none" points="790.2188,256.6992,799.462,274.1688,808.0951,265.129,790.2188,256.6992" style="stroke:#2FA4E7;stroke-width:3.125;"/></g><!--reverse link BaseService to AbuseChService--><g class="link" data-entity-1="ent0002" data-entity-2="ent0007" data-link-type="extension" data-source-line="100" id="lnk16"><path codeLine="100" d="M871.077,256.7834 C993.1291,299.7626 1042.9896,254.5013 1155.2604,318.8659 C1176.6875,331.1576 1196.6563,348.0742 1214.25,365.9805" fill="none" id="BaseService-backto-AbuseChService" style="stroke:#2FA4E7;stroke-width:3.125;"/><polygon fill="none" points="853.625,249.9284,868.792,262.6007,873.362,250.9661,853.625,249.9284" style="stroke:#2FA4E7;stroke-width:3.125;"/></g><!--link CrowdSecService to Config--><g class="link" data-entity-1="ent0003" data-entity-2="ent0011" data-link-type="dependency" data-source-line="103" id="lnk17"><path codeLine="103" d="M200.5417,536.2305 C224.4063,561.9076 253.8854,588.9596 285.4688,607.2513 C479.7604,719.7826 735.1179,767.9624 883.5138,787.8583" fill="none" id="CrowdSecService-to-Config" style="stroke:#2FA4E7;stroke-width:3.125;stroke-dasharray:7.2917,7.2917;"/><polygon fill="#2FA4E7" points="889.7083,788.6888,880.9702,783.3133,884.5462,787.9967,879.8628,791.5727,889.7083,788.6888" style="stroke:#2FA4E7;stroke-width:3.125;"/></g><!--link MISPService to Config--><g class="link" data-entity-1="ent0004" data-entity-2="ent0011" data-link-type="dependency" data-source-line="104" id="lnk18"><path codeLine="104" d="M473.7917,536.3451 C495.6146,561.1367 522.1042,587.5742 550.0521,607.2513 C655.3854,681.4388 787.6275,733.2608 883.9921,765.0733" fill="none" id="MISPService-to-Config" style="stroke:#2FA4E7;stroke-width:3.125;stroke-dasharray:7.2917,7.2917;"/><polygon fill="#2FA4E7" points="889.9271,767.0326,882.3308,760.137,884.9813,765.3998,879.7185,768.0503,889.9271,767.0326" style="stroke:#2FA4E7;stroke-width:3.125;"/></g><!--link MalwareBazaarService to Config--><g class="link" data-entity-1="ent0005" data-entity-2="ent0011" data-link-type="dependency" data-source-line="105" id="lnk19"><path codeLine="105" d="M756.3229,524.3346 C793.3646,565.5117 839.6741,616.9798 885.5075,667.9277" fill="none" id="MalwareBazaarService-to-Config" style="stroke:#2FA4E7;stroke-width:3.125;stroke-dasharray:7.2917,7.2917;"/><polygon fill="#2FA4E7" points="889.6875,672.5742,886.5151,662.8178,886.2041,668.7021,880.3198,668.3912,889.6875,672.5742" style="stroke:#2FA4E7;stroke-width:3.125;"/></g><!--link MWDBService to Config--><g class="link" data-entity-1="ent0006" data-entity-2="ent0011" data-link-type="dependency" data-source-line="106" id="lnk20"><path codeLine="106" d="M1005.2604,536.3867 C1005.2604,575.1471 1005.2604,617.8867 1005.2604,663.1471" fill="none" id="MWDBService-to-Config" style="stroke:#2FA4E7;stroke-width:3.125;stroke-dasharray:7.2917,7.2917;"/><polygon fill="#2FA4E7" points="1005.2604,669.3971,1009.4271,660.0221,1005.2604,664.1888,1001.0938,660.0221,1005.2604,669.3971" style="stroke:#2FA4E7;stroke-width:3.125;"/></g><!--link AbuseChService to Config--><g class="link" data-entity-1="ent0007" data-entity-2="ent0011" data-link-type="dependency" data-source-line="107" id="lnk21"><path codeLine="107" d="M1207.0313,560.1992 C1178.5938,594.1471 1150.1176,628.1268 1119.6384,664.5122" fill="none" id="AbuseChService-to-Config" style="stroke:#2FA4E7;stroke-width:3.125;stroke-dasharray:7.2917,7.2917;"/><polygon fill="#2FA4E7" points="1115.625,669.3034,1124.8392,664.7923,1118.9695,665.3108,1118.451,659.4411,1115.625,669.3034" style="stroke:#2FA4E7;stroke-width:3.125;"/></g><!--link ExportService to Config--><g class="link" data-entity-1="ent0009" data-entity-2="ent0011" data-link-type="dependency" data-source-line="108" id="lnk22"><path codeLine="108" d="M1437.2396,594.7305 C1431.4792,599.0951 1425.6667,603.293 1419.8438,607.2513 C1325.6042,671.4284 1212.5579,722.2341 1126.2975,756.5258" fill="none" id="ExportService-to-Config" style="stroke:#2FA4E7;stroke-width:3.125;stroke-dasharray:7.2917,7.2917;"/><polygon fill="#2FA4E7" points="1120.4896,758.8346,1130.7407,759.2433,1125.3295,756.9106,1127.6622,751.4994,1120.4896,758.8346" style="stroke:#2FA4E7;stroke-width:3.125;"/></g><!--link QueryParser to Config--><g class="link" data-entity-1="ent0010" data-entity-2="ent0011" data-link-type="dependency" data-source-line="109" id="lnk23"><path codeLine="109" d="M2115.9583,560.168 C2094.1354,578.1888 2069.9063,595.1471 2044.8438,607.2513 C1734.0625,757.4076 1325.3288,791.2849 1126.7976,798.8266" fill="none" id="QueryParser-to-Config" style="stroke:#2FA4E7;stroke-width:3.125;stroke-dasharray:7.2917,7.2917;"/><polygon fill="#2FA4E7" points="1120.5521,799.0638,1130.0785,802.8716,1125.7567,798.8661,1129.7622,794.5443,1120.5521,799.0638" style="stroke:#2FA4E7;stroke-width:3.125;"/></g><?plantuml-src ZLPDR-Cs4BthLx3eeKeZBzfJ0ID8uTXUr5WdJcmlqfu8MXfPh2bH9Ib_PDl_tY4bsPJZBEo397CUPnx9cJVymMIG0ub1LG9OqPEL4Ro0G6zuKJB5SX8BflN06CLNbO59B8i5VmFoIn0ORWIGoMn8bfa2PiYaC204NqCH0rc0sd9yzuvVKtO05GHifOrYiQazamUceKLy2mZ-ViGOAL_toT2zwp4XrsjGVJ9rRpVMwxdNBQMyu8RIi3llfhPMPS8C82JXCJDIwV2cJqOSuz_TjLJkxski0MqeUYaWDbmM5hciIW5tAob5H11ytvtrNn3KgnWgkKiM47TNqWQFhLL3J0NN9hGFofE-zTTmwQ2P4DqPHyhricaA9ivgNwpaT0E7Y3HE4JZ5hpjBjK4dW5pvrdhEkTQyM8V9AYAyY6MEVsvEYtYSB9ulBm0dbXUsi8cWWIaaP45XmWwwZyvDmwI155BbJ63YKDX2OKBtHCYazTdWM5cA0pMYf3OXCP37ZeaTK_30tXXJ7z2i8Ii7-PXllNyhZCFMEhGFRzUwl8zGwp_4pOi1NU6tJ-nrzF01drso-eZ6RUtQGQHQiuA_CPjq3kNOMAYVc0xQpKvlKVzKe0vqnqr6KouCgCxc3LQLXc5scIQpHkJoVQR65NagzvVFk45LIcIiEYx2DwKW4sahPmFgals0UiFJGzWz0LGXZUKhOti4B5HivorhA9K2uVRjR6drTiGdkyQwoxbvprj1ga1dFfRgWfKwaxRo6eQuDxOejQPQLYgskOQSGP-nZPc8As4tLMCqmHGt1_ySnljIAdF65TmWDNiJdewWTdlZLA83Y_Ns6jZV6bFa2fmsV7zLM4YlWQNuu6jRBDV4BaLLRAv1ui4WqRXMckzDQ9f2Zwx1aS5Zmbe8qzoqUZj4VMKh0KVnse8z9PegcLFNGXBRm5mtQHmVZ-_5PjMppKZL7bwTdnk-OWMhYp1qppQSA-Mbt41nxqz0KdcOSX19H6GPaIqJ5TX-W-DDpTivg9Yush8o7NT7TRzLPK6DR2e-n7y8MRnC1m9pCpzyTiFTVT5PLHZKVLjkIUY2w9kE-ieIbDtSqFBI1kkrKt6sjxQBNuo7y_6IVXd_vHtPQB0SF0mMO_frFlM6v-FHP74sDXmC_nZJvNBgohB5lNmTBvOB-ZoUKmmmUnhHny6V7iBsgJD7RcZmF3cZCfpFNaVeuxsflJpODD5Wx8w4s4XF1_uJzgRCPWR3P0ZyMyhTlxtUUSD_3_2QwGNZXLvs0NLgBE-DNKMtV4TGGc5pbuCEpYyadpxTj_SflytxmvVwgs_tsfmtVDPPF4jNwpo3NqNUS5180qJnTMQ8JFsB8HxLeBqrhd2ukJecWBAC1uTcp0rGASCuMFC4Avoa00dHzNmTuCOGw_uyI8SZ-ldrDr8h3gcrGnDTbVO_97qqzomh7lS9QdL4K8aZOdKs8ljSEFDdhc27uVlaA8I8oo3Ub18vHgHaGZ9Xf4Cl9kD7J3Ym1GbumKHnqvOPbfrJHWTw5hRhgXorhgE2w1Vlv3ZB2XPU_pvSexVTwF2BKwgUu1iWJgY8FXI6xUlbpPhQns23fr54PlE8FCsMpTfGhT3Wf2eYvb3QjHq54qS42eQzJY5_roJTj5SkaXYr1cV-797VJpJ_1m00?></g></svg>