<?xml version="1.0" encoding="us-ascii" standalone="no"?><svg xmlns="http://www.w3.org/2000/svg" xmlns:xlink="http://www.w3.org/1999/xlink" contentStyleType="text/css" height="1115.625px" preserveAspectRatio="none" style="width:3118px;height:1115px;" version="1.1" viewBox="0 0 3118 1115" width="3118.75px" zoomAndPan="magnify"><defs><linearGradient id="g1id6goug8deeo0" x1="50%" x2="50%" y1="0%" y2="100%"><stop offset="0%" stop-color="#2FA4E7"/><stop offset="100%" stop-color="#2683B9"/></linearGradient></defs><g><rect fill="none" height="51.2916" id="_title" rx="4.1667" ry="4.1667" style="stroke:#BABDBF;stroke-width:1.0416666666666667;" width="498.9583" x="1305.4688" y="20.8333"/><text fill="#2FA4E7" font-family="Verdana" font-size="20.8333" font-weight="bold" lengthAdjust="spacing" textLength="476.0417" x="1316.9271" y="54.5625">IOC Threat Intelligence Service - Service Layer</text><!--class BaseService--><g id="elem_BaseService"><rect codeLine="6" fill="none" height="183.2201" id="BaseService" rx="4.1667" ry="4.1667" style="stroke:#2FA4E7;stroke-width:1.0416666666666667;" width="275" x="523.4375" y="90.875"/><rect fill="url(#g1id6goug8deeo0)" height="36.4395" rx="4.1667" ry="4.1667" style="stroke:url(#g1id6goug8deeo0);stroke-width:1.0416666666666667;" width="275" x="523.4375" y="90.875"/><rect fill="url(#g1id6goug8deeo0)" height="4.1667" style="stroke:url(#g1id6goug8deeo0);stroke-width:1.0416666666666667;" width="275" x="523.4375" y="123.1478"/><rect codeLine="6" fill="none" height="183.2201" id="BaseService" rx="4.1667" ry="4.1667" style="stroke:#2FA4E7;stroke-width:1.0416666666666667;" width="275" x="523.4375" y="90.875"/><ellipse cx="622.3958" cy="109.0947" fill="none" rx="10.4167" ry="10.4167" style="stroke:#2683B9;stroke-width:1.0416666666666667;"/><path d="M621.9889,106.0511 L621.1426,109.7783 L622.8516,109.7783 L621.9889,106.0511 Z M620.8984,104.4072 L623.0957,104.4072 L625.5534,113.5218 L623.7467,113.5218 L623.1934,111.2757 L620.7845,111.2757 L620.2311,113.5218 L618.4245,113.5218 L620.8984,104.4072 Z " fill="#2FA4E7"/><text fill="#343A40" font-family="Verdana" font-size="11.4583" font-style="italic" lengthAdjust="spacing" textLength="58.3333" x="647.3958" y="113.5405">BaseService</text><line style="stroke:#2FA4E7;stroke-width:1.0416666666666667;" x1="524.4792" x2="797.3958" y1="127.3144" y2="127.3144"/><text fill="#343A40" font-family="Verdana" font-size="11.4583" lengthAdjust="spacing" textLength="84.375" x="534.8958" y="148.9383">#config: Config</text><text fill="#343A40" font-family="Verdana" font-size="11.4583" lengthAdjust="spacing" textLength="89.5833" x="534.8958" y="174.9611">#logger: Logger</text><line style="stroke:#2FA4E7;stroke-width:1.0416666666666667;" x1="524.4792" x2="797.3958" y1="187.6934" y2="187.6934"/><text fill="#343A40" font-family="Verdana" font-size="11.4583" lengthAdjust="spacing" textLength="128.125" x="534.8958" y="209.3172">+__init__(config: Config)</text><text fill="#343A40" font-family="Verdana" font-size="11.4583" lengthAdjust="spacing" textLength="196.875" x="534.8958" y="235.34">+update_indicators(): Dict &#171;abstract&#187;</text><text fill="#343A40" font-family="Verdana" font-size="11.4583" lengthAdjust="spacing" textLength="252.0833" x="534.8958" y="261.3628">+test_connection(): Tuple&lt;bool, str&gt; &#171;abstract&#187;</text></g><!--class CrowdSecService--><g id="elem_CrowdSecService"><rect codeLine="15" fill="none" height="157.1973" id="CrowdSecService" rx="4.1667" ry="4.1667" style="stroke:#2FA4E7;stroke-width:1.0416666666666667;" width="230.2083" x="17.7083" y="414.8333"/><rect fill="url(#g1id6goug8deeo0)" height="36.4395" rx="4.1667" ry="4.1667" style="stroke:url(#g1id6goug8deeo0);stroke-width:1.0416666666666667;" width="230.2083" x="17.7083" y="414.8333"/><rect fill="url(#g1id6goug8deeo0)" height="4.1667" style="stroke:url(#g1id6goug8deeo0);stroke-width:1.0416666666666667;" width="230.2083" x="17.7083" y="447.1061"/><rect codeLine="15" fill="none" height="157.1973" id="CrowdSecService" rx="4.1667" ry="4.1667" style="stroke:#2FA4E7;stroke-width:1.0416666666666667;" width="230.2083" x="17.7083" y="414.8333"/><ellipse cx="77.0833" cy="433.053" fill="none" rx="10.4167" ry="10.4167" style="stroke:#2683B9;stroke-width:1.0416666666666667;"/><path d="M78.9876,437.4801 Q78.5645,437.6917 78.0924,437.8056 Q77.6204,437.9196 77.1159,437.9196 Q75.2604,437.9196 74.2839,436.7151 Q73.3236,435.4944 73.3236,433.1995 Q73.3236,430.8883 74.2839,429.6839 Q75.2604,428.4632 77.1159,428.4632 Q77.6204,428.4632 78.0924,428.5771 Q78.5807,428.6748 78.9876,428.9026 L78.9876,430.9046 Q78.5319,430.4814 78.0924,430.2861 Q77.653,430.0745 77.1973,430.0745 Q76.2044,430.0745 75.6999,430.8721 Q75.1953,431.6533 75.1953,433.1995 Q75.1953,434.7295 75.6999,435.5107 Q76.2044,436.292 77.1973,436.292 Q77.653,436.292 78.0924,436.0967 Q78.5319,435.9013 78.9876,435.4782 L78.9876,437.4801 Z " fill="#2FA4E7"/><text fill="#343A40" font-family="Verdana" font-size="11.4583" lengthAdjust="spacing" textLength="92.7083" x="102.0833" y="437.4988">CrowdSecService</text><line style="stroke:#2FA4E7;stroke-width:1.0416666666666667;" x1="18.75" x2="246.875" y1="451.2728" y2="451.2728"/><line style="stroke:#2FA4E7;stroke-width:1.0416666666666667;" x1="18.75" x2="246.875" y1="459.6061" y2="459.6061"/><text fill="#343A40" font-family="Verdana" font-size="11.4583" lengthAdjust="spacing" textLength="207.2917" x="29.1667" y="481.23">+update_crowdsec_list(list_id: str): Dict</text><text fill="#343A40" font-family="Verdana" font-size="11.4583" lengthAdjust="spacing" textLength="178.125" x="29.1667" y="507.2528">+update_all_crowdsec_lists(): Dict</text><text fill="#343A40" font-family="Verdana" font-size="11.4583" lengthAdjust="spacing" textLength="193.75" x="29.1667" y="533.2756">-_fetch_list(api_key, list_id): List&lt;str&gt;</text><text fill="#343A40" font-family="Verdana" font-size="11.4583" lengthAdjust="spacing" textLength="189.5833" x="29.1667" y="559.2984">-_deactivate_missing(db, incoming)</text></g><!--class MISPService--><g id="elem_MISPService"><rect codeLine="22" fill="none" height="157.1973" id="MISPService" rx="4.1667" ry="4.1667" style="stroke:#2FA4E7;stroke-width:1.0416666666666667;" width="214.5833" x="284.8958" y="414.8333"/><rect fill="url(#g1id6goug8deeo0)" height="36.4395" rx="4.1667" ry="4.1667" style="stroke:url(#g1id6goug8deeo0);stroke-width:1.0416666666666667;" width="214.5833" x="284.8958" y="414.8333"/><rect fill="url(#g1id6goug8deeo0)" height="4.1667" style="stroke:url(#g1id6goug8deeo0);stroke-width:1.0416666666666667;" width="214.5833" x="284.8958" y="447.1061"/><rect codeLine="22" fill="none" height="157.1973" id="MISPService" rx="4.1667" ry="4.1667" style="stroke:#2FA4E7;stroke-width:1.0416666666666667;" width="214.5833" x="284.8958" y="414.8333"/><ellipse cx="349.4792" cy="433.053" fill="none" rx="10.4167" ry="10.4167" style="stroke:#2683B9;stroke-width:1.0416666666666667;"/><path d="M351.3835,437.4801 Q350.9603,437.6917 350.4883,437.8056 Q350.0163,437.9196 349.5117,437.9196 Q347.6563,437.9196 346.6797,436.7151 Q345.7194,435.4944 345.7194,433.1995 Q345.7194,430.8883 346.6797,429.6839 Q347.6563,428.4632 349.5117,428.4632 Q350.0163,428.4632 350.4883,428.5771 Q350.9766,428.6748 351.3835,428.9026 L351.3835,430.9046 Q350.9277,430.4814 350.4883,430.2861 Q350.0488,430.0745 349.5931,430.0745 Q348.6003,430.0745 348.0957,430.8721 Q347.5911,431.6533 347.5911,433.1995 Q347.5911,434.7295 348.0957,435.5107 Q348.6003,436.292 349.5931,436.292 Q350.0488,436.292 350.4883,436.0967 Q350.9277,435.9013 351.3835,435.4782 L351.3835,437.4801 Z " fill="#2FA4E7"/><text fill="#343A40" font-family="Verdana" font-size="11.4583" lengthAdjust="spacing" textLength="66.6667" x="374.4792" y="437.4988">MISPService</text><line style="stroke:#2FA4E7;stroke-width:1.0416666666666667;" x1="285.9375" x2="498.4375" y1="451.2728" y2="451.2728"/><line style="stroke:#2FA4E7;stroke-width:1.0416666666666667;" x1="285.9375" x2="498.4375" y1="459.6061" y2="459.6061"/><text fill="#343A40" font-family="Verdana" font-size="11.4583" lengthAdjust="spacing" textLength="168.75" x="296.3542" y="481.23">+update_misp_indicators(): Dict</text><text fill="#343A40" font-family="Verdana" font-size="11.4583" lengthAdjust="spacing" textLength="153.125" x="296.3542" y="507.2528">-_search_misp(days: int): List</text><text fill="#343A40" font-family="Verdana" font-size="11.4583" lengthAdjust="spacing" textLength="191.6667" x="296.3542" y="533.2756">-_normalize_event(event): Indicator</text><text fill="#343A40" font-family="Verdana" font-size="11.4583" lengthAdjust="spacing" textLength="97.9167" x="296.3542" y="559.2984">-_apply_tlp_rules()</text></g><!--class MalwareBazaarService--><g id="elem_MalwareBazaarService"><rect codeLine="29" fill="none" height="131.1745" id="MalwareBazaarService" rx="4.1667" ry="4.1667" style="stroke:#2FA4E7;stroke-width:1.0416666666666667;" width="248.9583" x="536.4583" y="427.8541"/><rect fill="url(#g1id6goug8deeo0)" height="36.4395" rx="4.1667" ry="4.1667" style="stroke:url(#g1id6goug8deeo0);stroke-width:1.0416666666666667;" width="248.9583" x="536.4583" y="427.8541"/><rect fill="url(#g1id6goug8deeo0)" height="4.1667" style="stroke:url(#g1id6goug8deeo0);stroke-width:1.0416666666666667;" width="248.9583" x="536.4583" y="460.1269"/><rect codeLine="29" fill="none" height="131.1745" id="MalwareBazaarService" rx="4.1667" ry="4.1667" style="stroke:#2FA4E7;stroke-width:1.0416666666666667;" width="248.9583" x="536.4583" y="427.8541"/><ellipse cx="590.625" cy="446.0739" fill="none" rx="10.4167" ry="10.4167" style="stroke:#2683B9;stroke-width:1.0416666666666667;"/><path d="M592.5293,450.501 Q592.1061,450.7125 591.6341,450.8265 Q591.1621,450.9404 590.6576,450.9404 Q588.8021,450.9404 587.8255,449.736 Q586.8652,448.5153 586.8652,446.2204 Q586.8652,443.9092 587.8255,442.7047 Q588.8021,441.484 590.6576,441.484 Q591.1621,441.484 591.6341,441.598 Q592.1224,441.6956 592.5293,441.9235 L592.5293,443.9254 Q592.0736,443.5023 591.6341,443.3069 Q591.1947,443.0954 590.7389,443.0954 Q589.7461,443.0954 589.2415,443.8929 Q588.737,444.6741 588.737,446.2204 Q588.737,447.7503 589.2415,448.5316 Q589.7461,449.3128 590.7389,449.3128 Q591.1947,449.3128 591.6341,449.1175 Q592.0736,448.9222 592.5293,448.499 L592.5293,450.501 Z " fill="#2FA4E7"/><text fill="#343A40" font-family="Verdana" font-size="11.4583" lengthAdjust="spacing" textLength="121.875" x="615.625" y="450.5197">MalwareBazaarService</text><line style="stroke:#2FA4E7;stroke-width:1.0416666666666667;" x1="537.5" x2="784.375" y1="464.2936" y2="464.2936"/><line style="stroke:#2FA4E7;stroke-width:1.0416666666666667;" x1="537.5" x2="784.375" y1="472.6269" y2="472.6269"/><text fill="#343A40" font-family="Verdana" font-size="11.4583" lengthAdjust="spacing" textLength="226.0417" x="547.9167" y="494.2508">+update_malwarebazaar_indicators(): Dict</text><text fill="#343A40" font-family="Verdana" font-size="11.4583" lengthAdjust="spacing" textLength="189.5833" x="547.9167" y="520.2736">-_fetch_by_tags(tags: List&lt;str&gt;): List</text><text fill="#343A40" font-family="Verdana" font-size="11.4583" lengthAdjust="spacing" textLength="148.9583" x="547.9167" y="546.2964">-_fetch_by_date(since: Date)</text></g><!--class MWDBService--><g id="elem_MWDBService"><rect codeLine="35" fill="none" height="157.1973" id="MWDBService" rx="4.1667" ry="4.1667" style="stroke:#2FA4E7;stroke-width:1.0416666666666667;" width="240.625" x="821.875" y="414.8333"/><rect fill="url(#g1id6goug8deeo0)" height="36.4395" rx="4.1667" ry="4.1667" style="stroke:url(#g1id6goug8deeo0);stroke-width:1.0416666666666667;" width="240.625" x="821.875" y="414.8333"/><rect fill="url(#g1id6goug8deeo0)" height="4.1667" style="stroke:url(#g1id6goug8deeo0);stroke-width:1.0416666666666667;" width="240.625" x="821.875" y="447.1061"/><rect codeLine="35" fill="none" height="157.1973" id="MWDBService" rx="4.1667" ry="4.1667" style="stroke:#2FA4E7;stroke-width:1.0416666666666667;" width="240.625" x="821.875" y="414.8333"/><ellipse cx="895.3125" cy="433.053" fill="none" rx="10.4167" ry="10.4167" style="stroke:#2683B9;stroke-width:1.0416666666666667;"/><path d="M897.2168,437.4801 Q896.7936,437.6917 896.3216,437.8056 Q895.8496,437.9196 895.3451,437.9196 Q893.4896,437.9196 892.513,436.7151 Q891.5527,435.4944 891.5527,433.1995 Q891.5527,430.8883 892.513,429.6839 Q893.4896,428.4632 895.3451,428.4632 Q895.8496,428.4632 896.3216,428.5771 Q896.8099,428.6748 897.2168,428.9026 L897.2168,430.9046 Q896.7611,430.4814 896.3216,430.2861 Q895.8822,430.0745 895.4264,430.0745 Q894.4336,430.0745 893.929,430.8721 Q893.4245,431.6533 893.4245,433.1995 Q893.4245,434.7295 893.929,435.5107 Q894.4336,436.292 895.4264,436.292 Q895.8822,436.292 896.3216,436.0967 Q896.7611,435.9013 897.2168,435.4782 L897.2168,437.4801 Z " fill="#2FA4E7"/><text fill="#343A40" font-family="Verdana" font-size="11.4583" lengthAdjust="spacing" textLength="75" x="920.3125" y="437.4988">MWDBService</text><line style="stroke:#2FA4E7;stroke-width:1.0416666666666667;" x1="822.9167" x2="1061.4583" y1="451.2728" y2="451.2728"/><line style="stroke:#2FA4E7;stroke-width:1.0416666666666667;" x1="822.9167" x2="1061.4583" y1="459.6061" y2="459.6061"/><text fill="#343A40" font-family="Verdana" font-size="11.4583" lengthAdjust="spacing" textLength="177.0833" x="833.3333" y="481.23">+update_mwdb_indicators(): Dict</text><text fill="#343A40" font-family="Verdana" font-size="11.4583" lengthAdjust="spacing" textLength="217.7083" x="833.3333" y="507.2528">+fetch_mwdb_organizations(): List&lt;Dict&gt;</text><text fill="#343A40" font-family="Verdana" font-size="11.4583" lengthAdjust="spacing" textLength="164.5833" x="833.3333" y="533.2756">+test_mwdb_connection(): Dict</text><text fill="#343A40" font-family="Verdana" font-size="11.4583" lengthAdjust="spacing" textLength="113.5417" x="833.3333" y="559.2984">-_query_with_filters()</text></g><!--class AbuseChService--><g id="elem_AbuseChService"><rect codeLine="42" fill="none" height="209.2429" id="AbuseChService" rx="4.1667" ry="4.1667" style="stroke:#2FA4E7;stroke-width:1.0416666666666667;" width="210.4167" x="1099.4792" y="388.7916"/><rect fill="url(#g1id6goug8deeo0)" height="36.4395" rx="4.1667" ry="4.1667" style="stroke:url(#g1id6goug8deeo0);stroke-width:1.0416666666666667;" width="210.4167" x="1099.4792" y="388.7916"/><rect fill="url(#g1id6goug8deeo0)" height="4.1667" style="stroke:url(#g1id6goug8deeo0);stroke-width:1.0416666666666667;" width="210.4167" x="1099.4792" y="421.0644"/><rect codeLine="42" fill="none" height="209.2429" id="AbuseChService" rx="4.1667" ry="4.1667" style="stroke:#2FA4E7;stroke-width:1.0416666666666667;" width="210.4167" x="1099.4792" y="388.7916"/><ellipse cx="1152.0833" cy="407.0114" fill="none" rx="10.4167" ry="10.4167" style="stroke:#2683B9;stroke-width:1.0416666666666667;"/><path d="M1153.9876,411.4385 Q1153.5645,411.65 1153.0924,411.764 Q1152.6204,411.8779 1152.1159,411.8779 Q1150.2604,411.8779 1149.2839,410.6735 Q1148.3236,409.4528 1148.3236,407.1579 Q1148.3236,404.8467 1149.2839,403.6422 Q1150.2604,402.4215 1152.1159,402.4215 Q1152.6204,402.4215 1153.0924,402.5355 Q1153.5807,402.6331 1153.9876,402.861 L1153.9876,404.8629 Q1153.5319,404.4398 1153.0924,404.2444 Q1152.653,404.0329 1152.1973,404.0329 Q1151.2044,404.0329 1150.6999,404.8304 Q1150.1953,405.6116 1150.1953,407.1579 Q1150.1953,408.6878 1150.6999,409.4691 Q1151.2044,410.2503 1152.1973,410.2503 Q1152.653,410.2503 1153.0924,410.055 Q1153.5319,409.8597 1153.9876,409.4365 L1153.9876,411.4385 Z " fill="#2FA4E7"/><text fill="#343A40" font-family="Verdana" font-size="11.4583" lengthAdjust="spacing" textLength="86.4583" x="1177.0833" y="411.4572">AbuseChService</text><line style="stroke:#2FA4E7;stroke-width:1.0416666666666667;" x1="1100.5208" x2="1308.8542" y1="425.2311" y2="425.2311"/><line style="stroke:#2FA4E7;stroke-width:1.0416666666666667;" x1="1100.5208" x2="1308.8542" y1="433.5644" y2="433.5644"/><text fill="#343A40" font-family="Verdana" font-size="11.4583" lengthAdjust="spacing" textLength="187.5" x="1110.9375" y="455.1883">+update_abusech_indicators(): Dict</text><text fill="#343A40" font-family="Verdana" font-size="11.4583" lengthAdjust="spacing" textLength="166.6667" x="1110.9375" y="481.2111">+fetch_threatfox(days: int): List</text><text fill="#343A40" font-family="Verdana" font-size="11.4583" lengthAdjust="spacing" textLength="111.4583" x="1110.9375" y="507.2339">+fetch_urlhaus(): List</text><text fill="#343A40" font-family="Verdana" font-size="11.4583" lengthAdjust="spacing" textLength="140.625" x="1110.9375" y="533.2567">+fetch_feodotracker(): List</text><text fill="#343A40" font-family="Verdana" font-size="11.4583" lengthAdjust="spacing" textLength="107.2917" x="1110.9375" y="559.2795">+fetch_yaraify(): List</text><text fill="#343A40" font-family="Verdana" font-size="11.4583" lengthAdjust="spacing" textLength="116.6667" x="1110.9375" y="585.3023">-_parse_ioc_data(raw)</text></g><!--class SentinelGraphService--><g id="elem_SentinelGraphService"><rect codeLine="51" fill="none" height="131.1745" id="SentinelGraphService" rx="4.1667" ry="4.1667" style="stroke:#2FA4E7;stroke-width:1.0416666666666667;" width="213.5417" x="2579.1667" y="427.8541"/><rect fill="url(#g1id6goug8deeo0)" height="36.4395" rx="4.1667" ry="4.1667" style="stroke:url(#g1id6goug8deeo0);stroke-width:1.0416666666666667;" width="213.5417" x="2579.1667" y="427.8541"/><rect fill="url(#g1id6goug8deeo0)" height="4.1667" style="stroke:url(#g1id6goug8deeo0);stroke-width:1.0416666666666667;" width="213.5417" x="2579.1667" y="460.1269"/><rect codeLine="51" fill="none" height="131.1745" id="SentinelGraphService" rx="4.1667" ry="4.1667" style="stroke:#2FA4E7;stroke-width:1.0416666666666667;" width="213.5417" x="2579.1667" y="427.8541"/><ellipse cx="2618.5938" cy="446.0739" fill="none" rx="10.4167" ry="10.4167" style="stroke:#2683B9;stroke-width:1.0416666666666667;"/><path d="M2620.498,450.501 Q2620.0749,450.7125 2619.6029,450.8265 Q2619.1309,450.9404 2618.6263,450.9404 Q2616.7708,450.9404 2615.7943,449.736 Q2614.834,448.5153 2614.834,446.2204 Q2614.834,443.9092 2615.7943,442.7047 Q2616.7708,441.484 2618.6263,441.484 Q2619.1309,441.484 2619.6029,441.598 Q2620.0911,441.6956 2620.498,441.9235 L2620.498,443.9254 Q2620.0423,443.5023 2619.6029,443.3069 Q2619.1634,443.0954 2618.7077,443.0954 Q2617.7148,443.0954 2617.2103,443.8929 Q2616.7057,444.6741 2616.7057,446.2204 Q2616.7057,447.7503 2617.2103,448.5316 Q2617.7148,449.3128 2618.7077,449.3128 Q2619.1634,449.3128 2619.6029,449.1175 Q2620.0423,448.9222 2620.498,448.499 L2620.498,450.501 Z " fill="#2FA4E7"/><text fill="#343A40" font-family="Verdana" font-size="11.4583" lengthAdjust="spacing" textLength="116.6667" x="2642.8646" y="450.5197">SentinelGraphService</text><line style="stroke:#2FA4E7;stroke-width:1.0416666666666667;" x1="2580.2083" x2="2791.6667" y1="464.2936" y2="464.2936"/><line style="stroke:#2FA4E7;stroke-width:1.0416666666666667;" x1="2580.2083" x2="2791.6667" y1="472.6269" y2="472.6269"/><text fill="#343A40" font-family="Verdana" font-size="11.4583" lengthAdjust="spacing" textLength="151.0417" x="2590.625" y="494.2508">+graph_access_token(...): str</text><text fill="#343A40" font-family="Verdana" font-size="11.4583" lengthAdjust="spacing" textLength="182.2917" x="2590.625" y="520.2736">+build_graph_indicator(row): Dict</text><text fill="#343A40" font-family="Verdana" font-size="11.4583" lengthAdjust="spacing" textLength="190.625" x="2590.625" y="546.2964">+push_indicators_to_graph(...): Dict</text></g><!--class ProxyDiagnosticsService--><g id="elem_ProxyDiagnosticsService"><rect codeLine="57" fill="none" height="131.1745" id="ProxyDiagnosticsService" rx="4.1667" ry="4.1667" style="stroke:#2FA4E7;stroke-width:1.0416666666666667;" width="277.0833" x="2829.6875" y="427.8541"/><rect fill="url(#g1id6goug8deeo0)" height="36.4395" rx="4.1667" ry="4.1667" style="stroke:url(#g1id6goug8deeo0);stroke-width:1.0416666666666667;" width="277.0833" x="2829.6875" y="427.8541"/><rect fill="url(#g1id6goug8deeo0)" height="4.1667" style="stroke:url(#g1id6goug8deeo0);stroke-width:1.0416666666666667;" width="277.0833" x="2829.6875" y="460.1269"/><rect codeLine="57" fill="none" height="131.1745" id="ProxyDiagnosticsService" rx="4.1667" ry="4.1667" style="stroke:#2FA4E7;stroke-width:1.0416666666666667;" width="277.0833" x="2829.6875" y="427.8541"/><ellipse cx="2892.1875" cy="446.0739" fill="none" rx="10.4167" ry="10.4167" style="stroke:#2683B9;stroke-width:1.0416666666666667;"/><path d="M2894.0918,450.501 Q2893.6686,450.7125 2893.1966,450.8265 Q2892.7246,450.9404 2892.2201,450.9404 Q2890.3646,450.9404 2889.388,449.736 Q2888.4277,448.5153 2888.4277,446.2204 Q2888.4277,443.9092 2889.388,442.7047 Q2890.3646,441.484 2892.2201,441.484 Q2892.7246,441.484 2893.1966,441.598 Q2893.6849,441.6956 2894.0918,441.9235 L2894.0918,443.9254 Q2893.6361,443.5023 2893.1966,443.3069 Q2892.7572,443.0954 2892.3014,443.0954 Q2891.3086,443.0954 2890.804,443.8929 Q2890.2995,444.6741 2890.2995,446.2204 Q2890.2995,447.7503 2890.804,448.5316 Q2891.3086,449.3128 2892.3014,449.3128 Q2892.7572,449.3128 2893.1966,449.1175 Q2893.6361,448.9222 2894.0918,448.499 L2894.0918,450.501 Z " fill="#2FA4E7"/><text fill="#343A40" font-family="Verdana" font-size="11.4583" lengthAdjust="spacing" textLength="133.3333" x="2917.1875" y="450.5197">ProxyDiagnosticsService</text><line style="stroke:#2FA4E7;stroke-width:1.0416666666666667;" x1="2830.7292" x2="3105.7292" y1="464.2936" y2="464.2936"/><line style="stroke:#2FA4E7;stroke-width:1.0416666666666667;" x1="2830.7292" x2="3105.7292" y1="472.6269" y2="472.6269"/><text fill="#343A40" font-family="Verdana" font-size="11.4583" lengthAdjust="spacing" textLength="153.125" x="2841.1458" y="494.2508">+run_proxy_test(): List&lt;Dict&gt;</text><text fill="#343A40" font-family="Verdana" font-size="11.4583" lengthAdjust="spacing" textLength="187.5" x="2841.1458" y="520.2736">+extract_title_from_html(body): str</text><text fill="#343A40" font-family="Verdana" font-size="11.4583" lengthAdjust="spacing" textLength="254.1667" x="2841.1458" y="546.2964">+proxy_test_expected_match(target, title): bool</text></g><!--class CorrelationService--><g id="elem_CorrelationService"><rect codeLine="63" fill="none" height="157.1973" id="CorrelationService" rx="4.1667" ry="4.1667" style="stroke:#2FA4E7;stroke-width:1.0416666666666667;" width="208.3333" x="1073.4375" y="103.8958"/><rect fill="url(#g1id6goug8deeo0)" height="36.4395" rx="4.1667" ry="4.1667" style="stroke:url(#g1id6goug8deeo0);stroke-width:1.0416666666666667;" width="208.3333" x="1073.4375" y="103.8958"/><rect fill="url(#g1id6goug8deeo0)" height="4.1667" style="stroke:url(#g1id6goug8deeo0);stroke-width:1.0416666666666667;" width="208.3333" x="1073.4375" y="136.1686"/><rect codeLine="63" fill="none" height="157.1973" id="CorrelationService" rx="4.1667" ry="4.1667" style="stroke:#2FA4E7;stroke-width:1.0416666666666667;" width="208.3333" x="1073.4375" y="103.8958"/><ellipse cx="1117.7083" cy="122.1155" fill="none" rx="10.4167" ry="10.4167" style="stroke:#2683B9;stroke-width:1.0416666666666667;"/><path d="M1119.6126,126.5426 Q1119.1895,126.7542 1118.7174,126.8681 Q1118.2454,126.9821 1117.7409,126.9821 Q1115.8854,126.9821 1114.9089,125.7776 Q1113.9486,124.5569 1113.9486,122.262 Q1113.9486,119.9508 1114.9089,118.7464 Q1115.8854,117.5257 1117.7409,117.5257 Q1118.2454,117.5257 1118.7174,117.6396 Q1119.2057,117.7373 1119.6126,117.9651 L1119.6126,119.9671 Q1119.1569,119.5439 1118.7174,119.3486 Q1118.278,119.137 1117.8223,119.137 Q1116.8294,119.137 1116.3249,119.9346 Q1115.8203,120.7158 1115.8203,122.262 Q1115.8203,123.792 1116.3249,124.5732 Q1116.8294,125.3545 1117.8223,125.3545 Q1118.278,125.3545 1118.7174,125.1592 Q1119.1569,124.9638 1119.6126,124.5407 L1119.6126,126.5426 Z " fill="#2FA4E7"/><text fill="#343A40" font-family="Verdana" font-size="11.4583" lengthAdjust="spacing" textLength="101.0417" x="1142.7083" y="126.5613">CorrelationService</text><line style="stroke:#2FA4E7;stroke-width:1.0416666666666667;" x1="1074.4792" x2="1280.7292" y1="140.3353" y2="140.3353"/><line style="stroke:#2FA4E7;stroke-width:1.0416666666666667;" x1="1074.4792" x2="1280.7292" y1="148.6686" y2="148.6686"/><text fill="#343A40" font-family="Verdana" font-size="11.4583" lengthAdjust="spacing" textLength="185.4167" x="1084.8958" y="170.2925">+query_correlations(limit: int): List</text><text fill="#343A40" font-family="Verdana" font-size="11.4583" lengthAdjust="spacing" textLength="178.125" x="1084.8958" y="196.3153">+refresh_correlation_snapshots()</text><text fill="#343A40" font-family="Verdana" font-size="11.4583" lengthAdjust="spacing" textLength="184.375" x="1084.8958" y="222.3381">+find_cross_source_matches(): List</text><text fill="#343A40" font-family="Verdana" font-size="11.4583" lengthAdjust="spacing" textLength="117.7083" x="1084.8958" y="248.3609">-_calculate_similarity()</text></g><!--class ExportService--><g id="elem_ExportService"><rect codeLine="70" fill="none" height="313.3341" id="ExportService" rx="4.1667" ry="4.1667" style="stroke:#2FA4E7;stroke-width:1.0416666666666667;" width="245.8333" x="1346.3542" y="336.7083"/><rect fill="url(#g1id6goug8deeo0)" height="36.4395" rx="4.1667" ry="4.1667" style="stroke:url(#g1id6goug8deeo0);stroke-width:1.0416666666666667;" width="245.8333" x="1346.3542" y="336.7083"/><rect fill="url(#g1id6goug8deeo0)" height="4.1667" style="stroke:url(#g1id6goug8deeo0);stroke-width:1.0416666666666667;" width="245.8333" x="1346.3542" y="368.9811"/><rect codeLine="70" fill="none" height="313.3341" id="ExportService" rx="4.1667" ry="4.1667" style="stroke:#2FA4E7;stroke-width:1.0416666666666667;" width="245.8333" x="1346.3542" y="336.7083"/><ellipse cx="1422.3958" cy="354.928" fill="none" rx="10.4167" ry="10.4167" style="stroke:#2683B9;stroke-width:1.0416666666666667;"/><path d="M1424.3001,359.3551 Q1423.877,359.5667 1423.4049,359.6806 Q1422.9329,359.7946 1422.4284,359.7946 Q1420.5729,359.7946 1419.5964,358.5901 Q1418.6361,357.3694 1418.6361,355.0745 Q1418.6361,352.7633 1419.5964,351.5589 Q1420.5729,350.3382 1422.4284,350.3382 Q1422.9329,350.3382 1423.4049,350.4521 Q1423.8932,350.5498 1424.3001,350.7776 L1424.3001,352.7796 Q1423.8444,352.3564 1423.4049,352.1611 Q1422.9655,351.9495 1422.5098,351.9495 Q1421.5169,351.9495 1421.0124,352.7471 Q1420.5078,353.5283 1420.5078,355.0745 Q1420.5078,356.6045 1421.0124,357.3857 Q1421.5169,358.167 1422.5098,358.167 Q1422.9655,358.167 1423.4049,357.9717 Q1423.8444,357.7763 1424.3001,357.3532 L1424.3001,359.3551 Z " fill="#2FA4E7"/><text fill="#343A40" font-family="Verdana" font-size="11.4583" lengthAdjust="spacing" textLength="75" x="1447.3958" y="359.3738">ExportService</text><line style="stroke:#2FA4E7;stroke-width:1.0416666666666667;" x1="1347.3958" x2="1591.1458" y1="373.1478" y2="373.1478"/><text fill="#343A40" font-family="Verdana" font-size="11.4583" lengthAdjust="spacing" textLength="168.75" x="1357.8125" y="394.7716">+export_txt(indicators: List): str</text><text fill="#343A40" font-family="Verdana" font-size="11.4583" lengthAdjust="spacing" textLength="170.8333" x="1357.8125" y="420.7944">+export_csv(indicators: List): str</text><text fill="#343A40" font-family="Verdana" font-size="11.4583" lengthAdjust="spacing" textLength="177.0833" x="1357.8125" y="446.8172">+export_json(indicators: List): str</text><text fill="#343A40" font-family="Verdana" font-size="11.4583" lengthAdjust="spacing" textLength="172.9167" x="1357.8125" y="472.84">+export_stix(indicators: List): str</text><text fill="#343A40" font-family="Verdana" font-size="11.4583" lengthAdjust="spacing" textLength="169.7917" x="1357.8125" y="498.8628">+export_cef(indicators: List): str</text><text fill="#343A40" font-family="Verdana" font-size="11.4583" lengthAdjust="spacing" textLength="202.0833" x="1357.8125" y="524.8856">+export_fortigate(indicators: List): str</text><text fill="#343A40" font-family="Verdana" font-size="11.4583" lengthAdjust="spacing" textLength="190.625" x="1357.8125" y="550.9084">+export_splunk(indicators: List): str</text><text fill="#343A40" font-family="Verdana" font-size="11.4583" lengthAdjust="spacing" textLength="222.9167" x="1357.8125" y="576.9312">+export_elasticsearch(indicators: List): str</text><line style="stroke:#2FA4E7;stroke-width:1.0416666666666667;" x1="1347.3958" x2="1591.1458" y1="589.6635" y2="589.6635"/><text fill="#343A40" font-family="Verdana" font-size="11.4583" lengthAdjust="spacing" textLength="180.2083" x="1357.8125" y="611.2874">-_get_formatter(fmt: str): Callable</text><text fill="#343A40" font-family="Verdana" font-size="11.4583" lengthAdjust="spacing" textLength="200" x="1357.8125" y="637.3102">-_severity_from_confidence(conf): str</text></g><!--class QueryParser--><g id="elem_QueryParser"><rect codeLine="84" fill="none" height="209.2429" id="QueryParser" rx="4.1667" ry="4.1667" style="stroke:#2FA4E7;stroke-width:1.0416666666666667;" width="268.75" x="1927.6042" y="388.7916"/><rect fill="url(#g1id6goug8deeo0)" height="36.4395" rx="4.1667" ry="4.1667" style="stroke:url(#g1id6goug8deeo0);stroke-width:1.0416666666666667;" width="268.75" x="1927.6042" y="388.7916"/><rect fill="url(#g1id6goug8deeo0)" height="4.1667" style="stroke:url(#g1id6goug8deeo0);stroke-width:1.0416666666666667;" width="268.75" x="1927.6042" y="421.0644"/><rect codeLine="84" fill="none" height="209.2429" id="QueryParser" rx="4.1667" ry="4.1667" style="stroke:#2FA4E7;stroke-width:1.0416666666666667;" width="268.75" x="1927.6042" y="388.7916"/><ellipse cx="2017.7083" cy="407.0114" fill="none" rx="10.4167" ry="10.4167" style="stroke:#2683B9;stroke-width:1.0416666666666667;"/><path d="M2019.6126,411.4385 Q2019.1895,411.65 2018.7174,411.764 Q2018.2454,411.8779 2017.7409,411.8779 Q2015.8854,411.8779 2014.9089,410.6735 Q2013.9486,409.4528 2013.9486,407.1579 Q2013.9486,404.8467 2014.9089,403.6422 Q2015.8854,402.4215 2017.7409,402.4215 Q2018.2454,402.4215 2018.7174,402.5355 Q2019.2057,402.6331 2019.6126,402.861 L2019.6126,404.8629 Q2019.1569,404.4398 2018.7174,404.2444 Q2018.278,404.0329 2017.8223,404.0329 Q2016.8294,404.0329 2016.3249,404.8304 Q2015.8203,405.6116 2015.8203,407.1579 Q2015.8203,408.6878 2016.3249,409.4691 Q2016.8294,410.2503 2017.8223,410.2503 Q2018.278,410.2503 2018.7174,410.055 Q2019.1569,409.8597 2019.6126,409.4365 L2019.6126,411.4385 Z " fill="#2FA4E7"/><text fill="#343A40" font-family="Verdana" font-size="11.4583" lengthAdjust="spacing" textLength="69.7917" x="2042.7083" y="411.4572">QueryParser</text><line style="stroke:#2FA4E7;stroke-width:1.0416666666666667;" x1="1928.6458" x2="2195.3125" y1="425.2311" y2="425.2311"/><text fill="#343A40" font-family="Verdana" font-size="11.4583" lengthAdjust="spacing" textLength="245.8333" x="1939.0625" y="446.855">+parse_kibana_query(query: str): List&lt;Token&gt;</text><text fill="#343A40" font-family="Verdana" font-size="11.4583" lengthAdjust="spacing" textLength="188.5417" x="1939.0625" y="472.8778">+parse_term(field, op, value): Term</text><text fill="#343A40" font-family="Verdana" font-size="11.4583" lengthAdjust="spacing" textLength="160.4167" x="1939.0625" y="498.9006">+tokenize(input: str): List&lt;str&gt;</text><text fill="#343A40" font-family="Verdana" font-size="11.4583" lengthAdjust="spacing" textLength="202.0833" x="1939.0625" y="524.9234">+rpn_to_filter(rpn): SQLAlchemyFilter</text><line style="stroke:#2FA4E7;stroke-width:1.0416666666666667;" x1="1928.6458" x2="2195.3125" y1="537.6556" y2="537.6556"/><text fill="#343A40" font-family="Verdana" font-size="11.4583" lengthAdjust="spacing" textLength="131.25" x="1939.0625" y="559.2795">-_shunting_yard(tokens)</text><text fill="#343A40" font-family="Verdana" font-size="11.4583" lengthAdjust="spacing" textLength="147.9167" x="1939.0625" y="585.3023">-_apply_operator(op, stack)</text></g><!--class Config--><g id="elem_Config"><rect codeLine="94" fill="none" height="391.4025" id="Config" rx="4.1667" ry="4.1667" style="stroke:#2FA4E7;stroke-width:1.0416666666666667;" width="213.5417" x="1097.9167" y="712.75"/><rect fill="url(#g1id6goug8deeo0)" height="36.4395" rx="4.1667" ry="4.1667" style="stroke:url(#g1id6goug8deeo0);stroke-width:1.0416666666666667;" width="213.5417" x="1097.9167" y="712.75"/><rect fill="url(#g1id6goug8deeo0)" height="4.1667" style="stroke:url(#g1id6goug8deeo0);stroke-width:1.0416666666666667;" width="213.5417" x="1097.9167" y="745.0228"/><rect codeLine="94" fill="none" height="391.4025" id="Config" rx="4.1667" ry="4.1667" style="stroke:#2FA4E7;stroke-width:1.0416666666666667;" width="213.5417" x="1097.9167" y="712.75"/><ellipse cx="1177.0833" cy="730.9697" fill="none" rx="10.4167" ry="10.4167" style="stroke:#2683B9;stroke-width:1.0416666666666667;"/><path d="M1178.9876,735.3968 Q1178.5645,735.6084 1178.0924,735.7223 Q1177.6204,735.8362 1177.1159,735.8362 Q1175.2604,735.8362 1174.2839,734.6318 Q1173.3236,733.4111 1173.3236,731.1162 Q1173.3236,728.805 1174.2839,727.6006 Q1175.2604,726.3799 1177.1159,726.3799 Q1177.6204,726.3799 1178.0924,726.4938 Q1178.5807,726.5915 1178.9876,726.8193 L1178.9876,728.8213 Q1178.5319,728.3981 1178.0924,728.2028 Q1177.653,727.9912 1177.1973,727.9912 Q1176.2044,727.9912 1175.6999,728.7887 Q1175.1953,729.57 1175.1953,731.1162 Q1175.1953,732.6461 1175.6999,733.4274 Q1176.2044,734.2086 1177.1973,734.2086 Q1177.653,734.2086 1178.0924,734.0133 Q1178.5319,733.818 1178.9876,733.3948 L1178.9876,735.3968 Z " fill="#2FA4E7"/><text fill="#343A40" font-family="Verdana" font-size="11.4583" lengthAdjust="spacing" textLength="36.4583" x="1202.0833" y="735.4155">Config</text><line style="stroke:#2FA4E7;stroke-width:1.0416666666666667;" x1="1098.9583" x2="1310.4167" y1="749.1894" y2="749.1894"/><text fill="#343A40" font-family="Verdana" font-size="11.4583" lengthAdjust="spacing" textLength="91.6667" x="1109.375" y="770.8133">+SECRET_KEY: str</text><text fill="#343A40" font-family="Verdana" font-size="11.4583" lengthAdjust="spacing" textLength="110.4167" x="1109.375" y="796.8361">+DATABASE_URL: str</text><text fill="#343A40" font-family="Verdana" font-size="11.4583" lengthAdjust="spacing" textLength="86.4583" x="1109.375" y="822.8589">+REDIS_URL: str</text><text fill="#343A40" font-family="Verdana" font-size="11.4583" lengthAdjust="spacing" textLength="87.5" x="1109.375" y="848.8817">+CACHE_TTL: int</text><text fill="#343A40" font-family="Verdana" font-size="11.4583" lengthAdjust="spacing" textLength="189.5833" x="1109.375" y="874.9045">+REQUESTS_PER_SECOND_MAX: int</text><text fill="#343A40" font-family="Verdana" font-size="11.4583" lengthAdjust="spacing" textLength="82.2917" x="1109.375" y="900.9273">+MISP_URL: str</text><text fill="#343A40" font-family="Verdana" font-size="11.4583" lengthAdjust="spacing" textLength="104.1667" x="1109.375" y="926.9501">+MISP_API_KEY: str</text><text fill="#343A40" font-family="Verdana" font-size="11.4583" lengthAdjust="spacing" textLength="138.5417" x="1109.375" y="952.9729">+CROWDSEC_API_KEY: str</text><text fill="#343A40" font-family="Verdana" font-size="11.4583" lengthAdjust="spacing" textLength="153.125" x="1109.375" y="978.9957">+REQUESTS_CA_BUNDLE: str</text><text fill="#343A40" font-family="Verdana" font-size="11.4583" lengthAdjust="spacing" textLength="190.625" x="1109.375" y="1005.0185">+REQUESTS_SKIP_TLS_VERIFY: bool</text><text fill="#343A40" font-family="Verdana" font-size="11.4583" lengthAdjust="spacing" textLength="185.4167" x="1109.375" y="1031.0413">+FEED_PROXY_URL_&lt;SOURCE&gt;: str</text><text fill="#343A40" font-family="Verdana" font-size="11.4583" lengthAdjust="spacing" textLength="131.25" x="1109.375" y="1057.0641">+AZURE_SENTINEL_*: str</text><line style="stroke:#2FA4E7;stroke-width:1.0416666666666667;" x1="1098.9583" x2="1310.4167" y1="1069.7964" y2="1069.7964"/><text fill="#343A40" font-family="Verdana" font-size="11.4583" lengthAdjust="spacing" textLength="112.5" x="1109.375" y="1091.4202">+get_setting(key): str</text></g><g id="elem_GMN28"><path d="M835.4167,159.1041 L835.4167,178.375 L798.7083,182.5416 L835.4167,186.7083 L835.4167,205.6544 A4.1667,4.1667 0 0 0 839.5833,209.821 L1032.2917,209.821 A4.1667,4.1667 0 0 0 1036.4583,205.6544 L1036.4583,165.3541 L1026.0417,154.9375 L839.5833,154.9375 A4.1667,4.1667 0 0 0 835.4167,159.1041 " fill="none" style="stroke:#033C73;stroke-width:1.0416666666666667;"/><path d="M1026.0417,154.9375 L1026.0417,163.2708 A2.0833,2.0833 0 0 0 1028.125,165.3541 L1036.4583,165.3541 L1026.0417,154.9375 " fill="none" style="stroke:#033C73;stroke-width:1.0416666666666667;"/><text fill="#033C73" font-family="Verdana" font-size="12.5" lengthAdjust="spacing" textLength="162.5" x="846.875" y="178.7167">Abstract base class defining</text><text fill="#033C73" font-family="Verdana" font-size="12.5" lengthAdjust="spacing" textLength="168.75" x="846.875" y="195.7419">interface for all feed services</text></g><g id="elem_GMN31"><path d="M1628.6458,444.5208 L1628.6458,489.3125 L1592.4479,493.4791 L1628.6458,497.6458 L1628.6458,542.1464 A4.1667,4.1667 0 0 0 1632.8125,546.3131 L1886.9792,546.3131 A4.1667,4.1667 0 0 0 1891.1458,542.1464 L1891.1458,450.7708 L1880.7292,440.3541 L1632.8125,440.3541 A4.1667,4.1667 0 0 0 1628.6458,444.5208 " fill="none" style="stroke:#033C73;stroke-width:1.0416666666666667;"/><path d="M1880.7292,440.3541 L1880.7292,448.6875 A2.0833,2.0833 0 0 0 1882.8125,450.7708 L1891.1458,450.7708 L1880.7292,440.3541 " fill="none" style="stroke:#033C73;stroke-width:1.0416666666666667;"/><text fill="#033C73" font-family="Verdana" font-size="12.5" lengthAdjust="spacing" textLength="169.7917" x="1640.1042" y="464.1334">17 export formats supported:</text><text fill="#033C73" font-family="Verdana" font-size="12.5" lengthAdjust="spacing" textLength="141.6667" x="1640.1042" y="481.1585">- Basic: txt, csv, json, xml</text><text fill="#033C73" font-family="Verdana" font-size="12.5" lengthAdjust="spacing" textLength="230.2083" x="1640.1042" y="498.1836">- Firewall: fortigate, checkpoint, paloalto</text><text fill="#033C73" font-family="Verdana" font-size="12.5" lengthAdjust="spacing" textLength="186.4583" x="1640.1042" y="515.2088">- SIEM: sentinel, arcsight, splunk</text><text fill="#033C73" font-family="Verdana" font-size="12.5" lengthAdjust="spacing" textLength="218.75" x="1640.1042" y="532.2339">- Platforms: elasticsearch, cribl, fidelis</text></g><g id="elem_GMN34"><path d="M2233.3333,453.375 L2233.3333,489.3125 L2196.6667,493.4791 L2233.3333,497.6458 L2233.3333,533.9755 A4.1667,4.1667 0 0 0 2237.5,538.1421 L2538.5417,538.1421 A4.1667,4.1667 0 0 0 2542.7083,533.9755 L2542.7083,459.625 L2532.2917,449.2083 L2237.5,449.2083 A4.1667,4.1667 0 0 0 2233.3333,453.375 " fill="none" style="stroke:#033C73;stroke-width:1.0416666666666667;"/><path d="M2532.2917,449.2083 L2532.2917,457.5416 A2.0833,2.0833 0 0 0 2534.375,459.625 L2542.7083,459.625 L2532.2917,449.2083 " fill="none" style="stroke:#033C73;stroke-width:1.0416666666666667;"/><text fill="#033C73" font-family="Verdana" font-size="12.5" lengthAdjust="spacing" textLength="143.75" x="2244.7917" y="472.9876">Kibana-like query syntax:</text><text fill="#033C73" font-family="Verdana" font-size="12.5" lengthAdjust="spacing" textLength="155.2083" x="2244.7917" y="490.0127">- Operators: AND, OR, NOT</text><text fill="#033C73" font-family="Verdana" font-size="12.5" lengthAdjust="spacing" textLength="277.0833" x="2244.7917" y="507.0378">- Fields: value, type, confidence, tlp, tags, source</text><text fill="#033C73" font-family="Verdana" font-size="12.5" lengthAdjust="spacing" textLength="89.5833" x="2244.7917" y="524.0629">- Wildcards: *, ?</text></g><!--reverse link BaseService to CrowdSecService--><g id="link_BaseService_CrowdSecService"><path codeLine="112" d="M505.0754,224.3066 C425.2525,248.9733 343.5313,281.8854 266.1458,336.7083 C236.2292,357.8958 208.8021,387.25 186.7083,414.7604 " fill="none" id="BaseService-backto-CrowdSecService" style="stroke:#2FA4E7;stroke-width:3.125;"/><polygon fill="none" points="522.9896,218.7708,503.2301,218.3352,506.9207,230.278,522.9896,218.7708" style="stroke:#2FA4E7;stroke-width:3.125;"/></g><!--reverse link BaseService to MISPService--><g id="link_BaseService_MISPService"><path codeLine="113" d="M561.487,288.2862 C542.7474,308.5154 535.9896,316.2708 518.2292,336.7083 C496.5625,361.6562 473.6146,389.5312 453.3229,414.7291 " fill="none" id="BaseService-backto-MISPService" style="stroke:#2FA4E7;stroke-width:3.125;"/><polygon fill="none" points="574.2292,274.5312,556.902,284.0388,566.072,292.5336,574.2292,274.5312" style="stroke:#2FA4E7;stroke-width:3.125;"/></g><!--reverse link BaseService to MalwareBazaarService--><g id="link_BaseService_MalwareBazaarService"><path codeLine="114" d="M660.9375,293.3333 C660.9375,342.4375 660.9375,383.1562 660.9375,427.5521 " fill="none" id="BaseService-backto-MalwareBazaarService" style="stroke:#2FA4E7;stroke-width:3.125;"/><polygon fill="none" points="660.9375,274.5833,654.6875,293.3333,667.1875,293.3333,660.9375,274.5833" style="stroke:#2FA4E7;stroke-width:3.125;"/></g><!--reverse link BaseService to MWDBService--><g id="link_BaseService_MWDBService"><path codeLine="115" d="M758.9508,288.0798 C777.9613,308.5069 785.1771,316.4271 803.6458,336.7083 C826.5521,361.8541 851.3125,389.5312 873.4792,414.4896 " fill="none" id="BaseService-backto-MWDBService" style="stroke:#2FA4E7;stroke-width:3.125;"/><polygon fill="none" points="746.1771,274.3541,754.3756,292.3377,763.5261,283.8219,746.1771,274.3541" style="stroke:#2FA4E7;stroke-width:3.125;"/></g><!--reverse link BaseService to AbuseChService--><g id="link_BaseService_AbuseChService"><path codeLine="116" d="M815.7991,274.093 C821.9657,276.9055 811.0729,271.7708 817.1875,274.2083 C929.0104,318.7708 979.1042,272.1875 1080.7292,336.7083 C1102.1667,350.3229 1121.5208,368.9583 1138.2083,388.6041 " fill="none" id="BaseService-backto-AbuseChService" style="stroke:#2FA4E7;stroke-width:3.125;"/><polygon fill="none" points="798.7396,266.3125,813.2056,279.7795,818.3926,268.4065,798.7396,266.3125" style="stroke:#2FA4E7;stroke-width:3.125;"/></g><!--link CrowdSecService to Config--><g id="link_CrowdSecService_Config"><path codeLine="119" d="M184.3125,572.2604 C206.4792,600.4375 234.5833,630.2396 266.1458,650.25 C534.2083,820.2396 908.0867,878.6448 1091.3992,898.0302 " fill="none" id="CrowdSecService-to-Config" style="stroke:#2FA4E7;stroke-width:3.125;stroke-dasharray:7.0,7.0;"/><polygon fill="#2FA4E7" points="1097.6146,898.6875,1088.7298,893.558,1092.4351,898.1397,1087.8534,901.8451,1097.6146,898.6875" style="stroke:#2FA4E7;stroke-width:3.125;"/></g><!--link MISPService to Config--><g id="link_MISPService_Config"><path codeLine="120" d="M442.2917,572.4583 C463.0833,600 489.1667,629.3021 518.2292,650.25 C699.5625,780.9375 949.0844,852.0126 1091.7094,884.6376 " fill="none" id="MISPService-to-Config" style="stroke:#2FA4E7;stroke-width:3.125;stroke-dasharray:7.0,7.0;"/><polygon fill="#2FA4E7" points="1097.8021,886.0312,1089.5922,879.879,1092.7249,884.8698,1087.734,888.0025,1097.8021,886.0312" style="stroke:#2FA4E7;stroke-width:3.125;"/></g><!--link MalwareBazaarService to Config--><g id="link_MalwareBazaarService_Config"><path codeLine="121" d="M713.4271,559.1041 C739.0313,588.6146 771.2396,622.9687 803.6458,650.25 C896.1979,728.1562 1008.4753,797.9094 1092.3712,846.0657 " fill="none" id="MalwareBazaarService-to-Config" style="stroke:#2FA4E7;stroke-width:3.125;stroke-dasharray:7.0,7.0;"/><polygon fill="#2FA4E7" points="1097.7917,849.1771,1091.7352,840.8963,1093.2746,846.5842,1087.5867,848.1237,1097.7917,849.1771" style="stroke:#2FA4E7;stroke-width:3.125;"/></g><!--link MWDBService to Config--><g id="link_MWDBService_Config"><path codeLine="122" d="M991.5625,572.2083 C1021.5625,619.4062 1057.7102,676.2876 1094.5436,734.2459 " fill="none" id="MWDBService-to-Config" style="stroke:#2FA4E7;stroke-width:3.125;stroke-dasharray:7.0,7.0;"/><polygon fill="#2FA4E7" points="1097.8958,739.5208,1096.384,729.3736,1095.1023,735.125,1089.3508,733.8433,1097.8958,739.5208" style="stroke:#2FA4E7;stroke-width:3.125;"/></g><!--link AbuseChService to Config--><g id="link_AbuseChService_Config"><path codeLine="123" d="M1204.6875,598.2083 C1204.6875,632.9791 1204.6875,666.7187 1204.6875,706.1458 " fill="none" id="AbuseChService-to-Config" style="stroke:#2FA4E7;stroke-width:3.125;stroke-dasharray:7.0,7.0;"/><polygon fill="#2FA4E7" points="1204.6875,712.3958,1208.8542,703.0208,1204.6875,707.1875,1200.5208,703.0208,1204.6875,712.3958" style="stroke:#2FA4E7;stroke-width:3.125;"/></g><!--link SentinelGraphService to Config--><g id="link_SentinelGraphService_Config"><path codeLine="124" d="M2649.375,559.1666 C2627.7708,591.4791 2597.4896,628.2916 2560.9375,650.25 C2348.4375,777.9062 1599.9242,866.6077 1318.0908,896.2015 " fill="none" id="SentinelGraphService-to-Config" style="stroke:#2FA4E7;stroke-width:3.125;stroke-dasharray:7.0,7.0;"/><polygon fill="#2FA4E7" points="1311.875,896.8541,1321.6339,900.019,1317.0549,896.3102,1320.7636,891.7312,1311.875,896.8541" style="stroke:#2FA4E7;stroke-width:3.125;"/></g><!--link ProxyDiagnosticsService to Config--><g id="link_ProxyDiagnosticsService_Config"><path codeLine="125" d="M2919.4479,559.2291 C2891.3542,591.7708 2853.2604,628.7708 2810.9375,650.25 C2545.2396,785.0833 1632.5716,871.9122 1317.7279,898.4643 " fill="none" id="ProxyDiagnosticsService-to-Config" style="stroke:#2FA4E7;stroke-width:3.125;stroke-dasharray:7.0,7.0;"/><polygon fill="#2FA4E7" points="1311.5,898.9896,1321.192,902.3536,1316.6899,898.5519,1320.4917,894.0498,1311.5,898.9896" style="stroke:#2FA4E7;stroke-width:3.125;"/></g><!--link ExportService to Config--><g id="link_ExportService_Config"><path codeLine="126" d="M1369.4271,650.375 C1350.5417,679.8541 1334.0896,705.539 1314.9958,735.3515 " fill="none" id="ExportService-to-Config" style="stroke:#2FA4E7;stroke-width:3.125;stroke-dasharray:7.0,7.0;"/><polygon fill="#2FA4E7" points="1311.625,740.6146,1320.1899,734.9671,1314.434,736.2286,1313.1725,730.4727,1311.625,740.6146" style="stroke:#2FA4E7;stroke-width:3.125;"/></g><!--link QueryParser to Config--><g id="link_QueryParser_Config"><path codeLine="127" d="M1973.3958,598.5521 C1953.8646,617.4896 1932.2708,635.7916 1909.8958,650.25 C1717.0833,774.8021 1461.8584,848.2902 1317.5771,882.9465 " fill="none" id="QueryParser-to-Config" style="stroke:#2FA4E7;stroke-width:3.125;stroke-dasharray:7.0,7.0;"/><polygon fill="#2FA4E7" points="1311.5,884.4062,1321.5889,886.2681,1316.5643,883.1898,1319.6426,878.1652,1311.5,884.4062" style="stroke:#2FA4E7;stroke-width:3.125;"/></g><!--SRC=[ZLTHS-8s47xdLwZJXpeNascVEiDaqd70QPdZ0eT9S-cBHjXheo8iLv8Jk6l_UrUo0PcGc_1WGFgq-bQx-dRzWrd11aWAgXR0ohwiZU0bzFIQbnLJR4DImRIEZ55yMHiOfx9C-5SWF_TwXXi1P3mTaiLA0JDaN1eGWXTGfa0IKCySl_k7NnEs0zNhiQKsYgMciKnkcOOzubkFuET7t2FdnO0CtNSp9cHHW1gGYVjsO_s- -xgab9VSK1fqrrqqitMLCGC8oNZAZ5Gwk1YG4SVzhw_tL6vk6gm1RIXQAI4rN9OMkQWh0TTBAKL847pJNVLVhzTuCLJo9KiWxNgotporinfIAhWsWNrGdWsilPPB1ys4wAuuK6xSfZcOTDNOOXMdQzY5f3MAm0d-khPKMtG6o9K_MyiRhZKlYo1RXeINgTpWdukZ4v_6oUoy0xYmEdE4xGuQc4925XHaRAS7QDoqJ5f8ATM62KmS2izGci0z4JBUssnnhAh4ZXfHKPkGk977ZeaNfk2MVMLClK6pWImTv6s-pVajSHzMwC0-l5FhyZv0hVq03oy5D8M_VMAFezit-BnaoxTeN3Qc7KIgWfNyAxD9vr2EZONwYUcWtUpqdFgd1hMZBzoiQCw50TKvl6XPQnYkpjDaTXAvV9-fSPSybzlpCMvHjH8hLX-SyAToa9cqDsSDwjpy3lM6vxkW6m5K8OtNLwOs12nGxCLpAy4iGhaIlojMdJfNs37AqXIqfaQkeGokhguktBLh4CkQYumsk8Fl0TwyZlTLhVsZGLFDajQQ0nu8pPJSxaQS5QNKXgVwX9EgIrfP2BKHFHTfs3fjeKvSQQxaXgxCHWHBcUryxaSh5BOLPWHacFvuZ9ZFgW0J4cS1brZjyeHAAWN2PTe9joQ1qkEyHgNQSFCwqWfo1NWe7fRgabLw9QrMjJ758xCoXeUlPQrIQEY1FebloaHQ2vk66dSJJ76pypCttbPIcHEku0QfsPhW69d6h7z8BIpLp- -1_QtnKhq3Xu7TlcjRoDy3o_712oilxzcx4dMvVWyI0-Coq6dpznQqPRHFCMii6GmJgaUGRyo-GWsn8h6bW8FSFuEDKfEThkXcjkIx-jiQFeJliysgcRt3QX-yvaQl-PALh96jm3ttsxahiR0NziPVWAGsGSv1P26HLKYUcQXjVYzml5L9kmPh37fRrQPZxb0FBrLLsYlSQ6I0_n2IV9v40dDpixjpmzrpqQlQganX1IeBt2RwebElP0NAQOVbfGqgt8L_usmtidS-YOVpU44_nazUo4RH8hgDafW-p2VUy3mUZPEJiM4q_2EcYyN4NSizxlD3d2mIEeld53UOte_ef-YBXx2L_SIG6ufcunCgm_dqSOGspamTjXb6zFRXVZI9pqqc7ySpkfWazCzuFhvxQlN7OUxYU4Hdy-cN9yk5NYVJX_amll6iH7yzp6DquNunleydzCEhBBsqIQh1s7W4sFWSq-qdx2LMDYyPfcBFxogl_-ttJnkqrm2l-JapUQRtE8CwDWAl9xiLsF8TGGMblJaSTE-qWRowkjdtltvRvW-VwuVyUQyjyOPFEW5lvcmnzURVgcqUf2lMteGl0zvmhvG6YEB5oX2P- -y26Ere_wAmnE7sRI43h2iOUvp6v0QLCzm7HOkWH94S82EwMQzxUBR4cZ_TfCCHxVpoAsaaapJYfuckA_iViW5EzoqhdWu85fkGO2a9YIqK8TbkX9k-umfUSFi1EIWvubQGhYk974DICI6PCDAXat7y2NEsFUgGe3fhomnrmqcx0ys4RRJK1iMw8-De5r_3S9LLNEput_JHEsuq-D59RL_mDH2dj4JlIiEsZNlJLhnmi-X-59BfF2JtqqNh6yejJZYjnPPYLrdV3egF8m8LptRGoDzLURVi4Vkg5CKILtu8oMz7cly3]--></g></svg>