<?plantuml 1.2026.2?><svg xmlns="http://www.w3.org/2000/svg" xmlns:xlink="http://www.w3.org/1999/xlink" contentStyleType="text/css" data-diagram-type="SEQUENCE" height="2155.2083px" preserveAspectRatio="none" style="width:1254px;height:2155px;" version="1.1" viewBox="0 0 1254 2155" width="1254.1667px" zoomAndPan="magnify"><title>IOC Service - Feed Synchronization Sequence</title><defs/><g><rect fill="none" height="47.168" rx="4.1667" ry="4.1667" style="stroke:#BABDBF;stroke-width:1.0417;" width="556.4962" x="347.5235" y="20.8333"/><text fill="#2FA4E7" font-family="'Verdana'" font-size="20.8333" font-weight="bold" lengthAdjust="spacing" textLength="533.5795" x="358.9818" y="51.6296">IOC Service - Feed Synchronization Sequence</text><g><title>SyncJob</title><rect fill="none" height="271.6471" style="stroke:#2683B9;stroke-width:1.0417;" width="10.4167" x="586.7483" y="303.2878"/></g><g><title>FeedService</title><rect fill="none" height="706.7708" style="stroke:#2683B9;stroke-width:1.0417;" width="10.4167" x="827.8269" y="660.2865"/></g><g><title>External API</title><rect fill="none" height="39.5508" style="stroke:#2683B9;stroke-width:1.0417;" width="10.4167" x="1024.8606" y="833.0729"/></g><g><title>PostgreSQL</title><rect fill="none" height="31.25" style="stroke:#2683B9;stroke-width:1.0417;" width="10.4167" x="1171.7428" y="1116.1784"/></g><g><title>PostgreSQL</title><rect fill="none" height="39.5508" style="stroke:#2683B9;stroke-width:1.0417;" width="10.4167" x="1171.7428" y="1248.4049"/></g><rect fill="none" height="195.638" rx="4.1667" ry="4.1667" style="stroke:#2FA4E7;stroke-width:1.0417;" width="460.8429" x="286.1816" y="372.0052"/><rect fill="none" height="213.3789" rx="4.1667" ry="4.1667" style="stroke:#2FA4E7;stroke-width:1.0417;" width="501.651" x="730.1005" y="942.3828"/><rect fill="none" height="221.6471" rx="4.1667" ry="4.1667" style="stroke:#2FA4E7;stroke-width:1.0417;" width="945.5699" x="286.1816" y="1476.3672"/><rect fill="none" height="155.0456" rx="4.1667" ry="4.1667" style="stroke:#2FA4E7;stroke-width:1.0417;" width="729.0761" x="502.6754" y="1885.3841"/><g class="participant-lifeline" data-entity-uid="part1" data-qualified-name="Client" id="part1-lifeline"><g><title>Admin.API</title><rect fill="#000000" fill-opacity="0.00000" height="1890.1693" width="8.3333" x="51.8138" y="167.9688"/><line style="stroke:#BABDBF;stroke-width:1.0417;stroke-dasharray:5.2083,5.2083;" x1="55.2083" x2="55.2083" y1="167.9688" y2="2058.138"/></g></g><g class="participant-lifeline" data-entity-uid="part2" data-qualified-name="Scheduler" id="part2-lifeline"><g><title>Scheduler</title><rect fill="#000000" fill-opacity="0.00000" height="1890.1693" width="8.3333" x="332.0546" y="167.9688"/><line style="stroke:#BABDBF;stroke-width:1.0417;stroke-dasharray:5.2083,5.2083;" x1="336.1816" x2="336.1816" y1="167.9688" y2="2058.138"/></g></g><g class="participant-lifeline" data-entity-uid="part3" data-qualified-name="SyncJob" id="part3-lifeline"><g><title>SyncJob</title><rect fill="#000000" fill-opacity="0.00000" height="1890.1693" width="8.3333" x="587.7899" y="167.9688"/><line style="stroke:#BABDBF;stroke-width:1.0417;stroke-dasharray:5.2083,5.2083;" x1="591.217" x2="591.217" y1="167.9688" y2="2058.138"/></g></g><g class="participant-lifeline" data-entity-uid="part4" data-qualified-name="Service" id="part4-lifeline"><g><title>FeedService</title><rect fill="#000000" fill-opacity="0.00000" height="1890.1693" width="8.3333" x="828.8686" y="167.9688"/><line style="stroke:#BABDBF;stroke-width:1.0417;stroke-dasharray:5.2083,5.2083;" x1="832.1838" x2="832.1838" y1="167.9688" y2="2058.138"/></g></g><g class="participant-lifeline" data-entity-uid="part5" data-qualified-name="API" id="part5-lifeline"><g><title>External API</title><rect fill="#000000" fill-opacity="0.00000" height="1890.1693" width="8.3333" x="1025.9023" y="167.9688"/><line style="stroke:#BABDBF;stroke-width:1.0417;stroke-dasharray:5.2083,5.2083;" x1="1029.6539" x2="1029.6539" y1="167.9688" y2="2058.138"/></g></g><g class="participant-lifeline" data-entity-uid="part6" data-qualified-name="DB" id="part6-lifeline"><g><title>PostgreSQL</title><rect fill="#000000" fill-opacity="0.00000" height="1890.1693" width="8.3333" x="1172.7844" y="167.9688"/><line style="stroke:#BABDBF;stroke-width:1.0417;stroke-dasharray:5.2083,5.2083;" x1="1176.3173" x2="1176.3173" y1="167.9688" y2="2058.138"/></g></g><g class="participant participant-head" data-entity-uid="part1" data-qualified-name="Client" id="part1-head"><text fill="#2FA4E7" font-family="'Verdana'" font-size="12.5" lengthAdjust="spacing" textLength="64.0442" x="20.8333" y="159.8124">Admin/API</text><ellipse cx="55.9804" cy="88.8346" fill="none" rx="8.3333" ry="8.3333" style="stroke:#2FA4E7;stroke-width:1.0417;"/><path d="M55.9804,97.168 L55.9804,125.293 M42.4388,105.5013 L69.5221,105.5013 M55.9804,125.293 L42.4388,140.918 M55.9804,125.293 L69.5221,140.918" fill="none" style="stroke:#2FA4E7;stroke-width:1.0417;"/></g><g class="participant participant-tail" data-entity-uid="part1" data-qualified-name="Client" id="part1-tail"><text fill="#2FA4E7" font-family="'Verdana'" font-size="12.5" lengthAdjust="spacing" textLength="64.0442" x="20.8333" y="2073.9075">Admin/API</text><ellipse cx="55.9804" cy="2091.4388" fill="none" rx="8.3333" ry="8.3333" style="stroke:#2FA4E7;stroke-width:1.0417;"/><path d="M55.9804,2099.7721 L55.9804,2127.8971 M42.4388,2108.1055 L69.5221,2108.1055 M55.9804,2127.8971 L42.4388,2143.5221 M55.9804,2127.8971 L69.5221,2143.5221" fill="none" style="stroke:#2FA4E7;stroke-width:1.0417;"/></g><g class="participant participant-head" data-entity-uid="part2" data-qualified-name="Scheduler" id="part2-head"><text fill="#2FA4E7" font-family="'Verdana'" font-size="12.5" lengthAdjust="spacing" textLength="62.5793" x="301.8066" y="159.8124">Scheduler</text><ellipse cx="336.2213" cy="88.8346" fill="none" rx="8.3333" ry="8.3333" style="stroke:#2FA4E7;stroke-width:1.0417;"/><path d="M336.2213,97.168 L336.2213,125.293 M322.6796,105.5013 L349.763,105.5013 M336.2213,125.293 L322.6796,140.918 M336.2213,125.293 L349.763,140.918" fill="none" style="stroke:#2FA4E7;stroke-width:1.0417;"/></g><g class="participant participant-tail" data-entity-uid="part2" data-qualified-name="Scheduler" id="part2-tail"><text fill="#2FA4E7" font-family="'Verdana'" font-size="12.5" lengthAdjust="spacing" textLength="62.5793" x="301.8066" y="2073.9075">Scheduler</text><ellipse cx="336.2213" cy="2091.4388" fill="none" rx="8.3333" ry="8.3333" style="stroke:#2FA4E7;stroke-width:1.0417;"/><path d="M336.2213,2099.7721 L336.2213,2127.8971 M322.6796,2108.1055 L349.763,2108.1055 M336.2213,2127.8971 L322.6796,2143.5221 M336.2213,2127.8971 L349.763,2143.5221" fill="none" style="stroke:#2FA4E7;stroke-width:1.0417;"/></g><g class="participant participant-head" data-entity-uid="part3" data-qualified-name="SyncJob" id="part3-head"><rect fill="none" height="54.1016" rx="4.1667" ry="4.1667" style="stroke:#2FA4E7;stroke-width:1.0417;" width="74.3958" x="554.7587" y="112.8255"/><text fill="#2FA4E7" font-family="'Verdana'" font-size="12.5" lengthAdjust="spacing" textLength="49.3958" x="567.2587" y="136.9283">SyncJob</text><text fill="#2FA4E7" font-family="'Verdana'" font-size="12.5" lengthAdjust="spacing" textLength="34.3933" x="574.7599" y="151.4791">Table</text></g><g class="participant participant-tail" data-entity-uid="part3" data-qualified-name="SyncJob" id="part3-tail"><rect fill="none" height="54.1016" rx="4.1667" ry="4.1667" style="stroke:#2FA4E7;stroke-width:1.0417;" width="74.3958" x="554.7587" y="2057.0964"/><text fill="#2FA4E7" font-family="'Verdana'" font-size="12.5" lengthAdjust="spacing" textLength="49.3958" x="567.2587" y="2081.1991">SyncJob</text><text fill="#2FA4E7" font-family="'Verdana'" font-size="12.5" lengthAdjust="spacing" textLength="34.3933" x="574.7599" y="2095.7499">Table</text></g><g class="participant participant-head" data-entity-uid="part4" data-qualified-name="Service" id="part4-head"><rect fill="none" height="39.5508" rx="4.1667" ry="4.1667" style="stroke:#2FA4E7;stroke-width:1.0417;" width="101.7029" x="782.1838" y="127.3763"/><text fill="#2FA4E7" font-family="'Verdana'" font-size="12.5" lengthAdjust="spacing" textLength="76.7029" x="794.6838" y="151.4791">FeedService</text></g><g class="participant participant-tail" data-entity-uid="part4" data-qualified-name="Service" id="part4-tail"><rect fill="none" height="39.5508" rx="4.1667" ry="4.1667" style="stroke:#2FA4E7;stroke-width:1.0417;" width="101.7029" x="782.1838" y="2057.0964"/><text fill="#2FA4E7" font-family="'Verdana'" font-size="12.5" lengthAdjust="spacing" textLength="76.7029" x="794.6838" y="2081.1991">FeedService</text></g><g class="participant participant-head" data-entity-uid="part5" data-qualified-name="API" id="part5-head"><rect fill="none" height="39.5508" rx="4.1667" ry="4.1667" style="stroke:#2FA4E7;stroke-width:1.0417;" width="100.8301" x="979.6539" y="127.3763"/><text fill="#2FA4E7" font-family="'Verdana'" font-size="12.5" lengthAdjust="spacing" textLength="75.8301" x="992.1539" y="151.4791">External API</text></g><g class="participant participant-tail" data-entity-uid="part5" data-qualified-name="API" id="part5-tail"><rect fill="none" height="39.5508" rx="4.1667" ry="4.1667" style="stroke:#2FA4E7;stroke-width:1.0417;" width="100.8301" x="979.6539" y="2057.0964"/><text fill="#2FA4E7" font-family="'Verdana'" font-size="12.5" lengthAdjust="spacing" textLength="75.8301" x="992.1539" y="2081.1991">External API</text></g><g class="participant participant-head" data-entity-uid="part6" data-qualified-name="DB" id="part6-head"><text fill="#2FA4E7" font-family="'Verdana'" font-size="12.5" lengthAdjust="spacing" textLength="72.1008" x="1137.7757" y="159.8124">PostgreSQL</text><path d="M1158.2011,105.5013 C1158.2011,95.0846 1176.9511,95.0846 1176.9511,95.0846 C1176.9511,95.0846 1195.7011,95.0846 1195.7011,105.5013 L1195.7011,132.5846 C1195.7011,143.0013 1176.9511,143.0013 1176.9511,143.0013 C1176.9511,143.0013 1158.2011,143.0013 1158.2011,132.5846 L1158.2011,105.5013" fill="none" style="stroke:#2FA4E7;stroke-width:1.0417;"/><path d="M1158.2011,105.5013 C1158.2011,115.918 1176.9511,115.918 1176.9511,115.918 C1176.9511,115.918 1195.7011,115.918 1195.7011,105.5013" fill="none" style="stroke:#2FA4E7;stroke-width:1.0417;"/></g><g class="participant participant-tail" data-entity-uid="part6" data-qualified-name="DB" id="part6-tail"><text fill="#2FA4E7" font-family="'Verdana'" font-size="12.5" lengthAdjust="spacing" textLength="72.1008" x="1137.7757" y="2073.9075">PostgreSQL</text><path d="M1158.2011,2092.4805 C1158.2011,2082.0638 1176.9511,2082.0638 1176.9511,2082.0638 C1176.9511,2082.0638 1195.7011,2082.0638 1195.7011,2092.4805 L1195.7011,2119.5638 C1195.7011,2129.9805 1176.9511,2129.9805 1176.9511,2129.9805 C1176.9511,2129.9805 1158.2011,2129.9805 1158.2011,2119.5638 L1158.2011,2092.4805" fill="none" style="stroke:#2FA4E7;stroke-width:1.0417;"/><path d="M1158.2011,2092.4805 C1158.2011,2102.8971 1176.9511,2102.8971 1176.9511,2102.8971 C1176.9511,2102.8971 1195.7011,2102.8971 1195.7011,2092.4805" fill="none" style="stroke:#2FA4E7;stroke-width:1.0417;"/></g><g><title>SyncJob</title><rect fill="none" height="271.6471" style="stroke:#2683B9;stroke-width:1.0417;" width="10.4167" x="586.7483" y="303.2878"/></g><g><title>FeedService</title><rect fill="none" height="706.7708" style="stroke:#2683B9;stroke-width:1.0417;" width="10.4167" x="827.8269" y="660.2865"/></g><g><title>External API</title><rect fill="none" height="39.5508" style="stroke:#2683B9;stroke-width:1.0417;" width="10.4167" x="1024.8606" y="833.0729"/></g><g><title>PostgreSQL</title><rect fill="none" height="31.25" style="stroke:#2683B9;stroke-width:1.0417;" width="10.4167" x="1171.7428" y="1116.1784"/></g><g><title>PostgreSQL</title><rect fill="none" height="39.5508" style="stroke:#2683B9;stroke-width:1.0417;" width="10.4167" x="1171.7428" y="1248.4049"/></g><rect fill="#F8F9FA" height="3.125" rx="4.1667" ry="4.1667" style="stroke:#F8F9FA;stroke-width:1.0417;" width="1231.7515" x="10.4167" y="204.4108"/><line style="stroke:#868E96;stroke-width:1.0417;" x1="10.4167" x2="1242.1682" y1="204.4108" y2="204.4108"/><line style="stroke:#868E96;stroke-width:1.0417;" x1="10.4167" x2="1242.1682" y1="207.5358" y2="207.5358"/><rect fill="#F8F9FA" height="33.3008" rx="4.1667" ry="4.1667" style="stroke:#868E96;stroke-width:2.0833;" width="167.5232" x="542.5308" y="188.8021"/><text fill="#343A40" font-family="'Verdana'" font-size="12.5" font-weight="bold" lengthAdjust="spacing" textLength="138.1714" x="553.9892" y="209.7799">Idempotency Check</text><g class="message" data-entity-1="part1" data-entity-2="part2" id="msg1"><polygon fill="#2FA4E7" points="323.7213,259.5703,334.138,263.737,323.7213,267.9036,327.888,263.737" style="stroke:#2FA4E7;stroke-width:1.0417;"/><line style="stroke:#2FA4E7;stroke-width:3.125;" x1="55.9804" x2="329.9713" y1="263.737" y2="263.737"/><text fill="#343A40" font-family="'Verdana'" font-size="12.5" lengthAdjust="spacing" textLength="190.1428" x="68.4804" y="253.4973">POST /admin/sync or /api/sync</text></g><g class="message" data-entity-1="part2" data-entity-2="part3" id="msg2"><polygon fill="#2FA4E7" points="574.2483,299.1211,584.6649,303.2878,574.2483,307.4544,578.4149,303.2878" style="stroke:#2FA4E7;stroke-width:1.0417;"/><line style="stroke:#2FA4E7;stroke-width:3.125;" x1="336.2213" x2="580.4983" y1="303.2878" y2="303.2878"/><text fill="#343A40" font-family="'Verdana'" font-size="12.5" lengthAdjust="spacing" textLength="220.3186" x="348.7213" y="293.0481">enqueue_sync_job(feed_id, trigger)</text></g><g class="message" data-entity-1="part3" data-entity-2="part3" id="msg3"><line style="stroke:#2FA4E7;stroke-width:3.125;" x1="597.1649" x2="640.9149" y1="342.8385" y2="342.8385"/><line style="stroke:#2FA4E7;stroke-width:3.125;" x1="640.9149" x2="640.9149" y1="342.8385" y2="356.3802"/><line style="stroke:#2FA4E7;stroke-width:3.125;" x1="598.2066" x2="640.9149" y1="356.3802" y2="356.3802"/><polygon fill="#2FA4E7" points="608.6233,352.2135,598.2066,356.3802,608.6233,360.5469,604.4566,356.3802" style="stroke:#2FA4E7;stroke-width:1.0417;"/><text fill="#343A40" font-family="'Verdana'" font-size="12.5" lengthAdjust="spacing" textLength="195.2454" x="609.6649" y="332.5989">Check existing queued/running</text></g><path d="M290.3483,372.0052 L362.1684,372.0052 L362.1684,388.6393 L351.7517,399.056 L286.1816,399.056 L286.1816,376.1719 A4.1667,4.1667 0 0 1 290.3483,372.0052" fill="#E9ECEF" style="stroke:#868E96;stroke-width:1.0417;"/><rect fill="none" height="195.638" rx="4.1667" ry="4.1667" style="stroke:#2FA4E7;stroke-width:1.0417;" width="460.8429" x="286.1816" y="372.0052"/><text fill="#033C73" font-family="'Verdana'" font-size="12.5" font-weight="bold" lengthAdjust="spacing" textLength="18.6951" x="307.015" y="389.858">alt</text><text fill="#343A40" font-family="'Verdana'" font-size="12.5" font-weight="bold" lengthAdjust="spacing" textLength="136.8896" x="383.0017" y="390.8997">[Job already exists]</text><g class="message" data-entity-1="part3" data-entity-2="part2" id="msg4"><polygon fill="#2FA4E7" points="347.6796,435.4492,337.263,439.6159,347.6796,443.7826,343.513,439.6159" style="stroke:#2FA4E7;stroke-width:1.0417;"/><line style="stroke:#2FA4E7;stroke-width:3.125;stroke-dasharray:2.0833,2.0833;" x1="341.4296" x2="585.7066" y1="439.6159" y2="439.6159"/><text fill="#343A40" font-family="'Verdana'" font-size="12.5" lengthAdjust="spacing" textLength="118.5669" x="359.138" y="429.3762">Return existing job</text></g><line style="stroke:#2FA4E7;stroke-width:1.0417;stroke-dasharray:2.0833,2.0833;" x1="286.1816" x2="747.0245" y1="448.9909" y2="448.9909"/><text fill="#343A40" font-family="'Verdana'" font-size="12.5" font-weight="bold" lengthAdjust="spacing" textLength="68.0847" x="296.5983" y="465.802">[New job]</text><g class="message" data-entity-1="part3" data-entity-2="part3" id="msg5"><line style="stroke:#2FA4E7;stroke-width:3.125;" x1="597.1649" x2="640.9149" y1="506.2174" y2="506.2174"/><line style="stroke:#2FA4E7;stroke-width:3.125;" x1="640.9149" x2="640.9149" y1="506.2174" y2="519.7591"/><line style="stroke:#2FA4E7;stroke-width:3.125;" x1="598.2066" x2="640.9149" y1="519.7591" y2="519.7591"/><polygon fill="#2FA4E7" points="608.6233,515.5924,598.2066,519.7591,608.6233,523.9258,604.4566,519.7591" style="stroke:#2FA4E7;stroke-width:1.0417;"/><text fill="#343A40" font-family="'Verdana'" font-size="12.5" lengthAdjust="spacing" textLength="109.2346" x="609.6649" y="495.9778">Create job record</text></g><g class="message" data-entity-1="part3" data-entity-2="part2" id="msg6"><polygon fill="#2FA4E7" points="347.6796,555.1432,337.263,559.3099,347.6796,563.4766,343.513,559.3099" style="stroke:#2FA4E7;stroke-width:1.0417;"/><line style="stroke:#2FA4E7;stroke-width:3.125;stroke-dasharray:2.0833,2.0833;" x1="341.4296" x2="585.7066" y1="559.3099" y2="559.3099"/><text fill="#343A40" font-family="'Verdana'" font-size="12.5" lengthAdjust="spacing" textLength="95.0989" x="359.138" y="549.0702">Return new job</text></g><rect fill="#F8F9FA" height="3.125" rx="4.1667" ry="4.1667" style="stroke:#F8F9FA;stroke-width:1.0417;" width="1231.7515" x="10.4167" y="600.9603"/><line style="stroke:#868E96;stroke-width:1.0417;" x1="10.4167" x2="1242.1682" y1="600.9603" y2="600.9603"/><line style="stroke:#868E96;stroke-width:1.0417;" x1="10.4167" x2="1242.1682" y1="604.0853" y2="604.0853"/><rect fill="#F8F9FA" height="33.3008" rx="4.1667" ry="4.1667" style="stroke:#868E96;stroke-width:2.0833;" width="123.0042" x="564.7903" y="585.3516"/><text fill="#343A40" font-family="'Verdana'" font-size="12.5" font-weight="bold" lengthAdjust="spacing" textLength="93.6523" x="576.2487" y="606.3293">Execute Sync</text><g class="message" data-entity-1="part2" data-entity-2="part4" id="msg7"><polygon fill="#2FA4E7" points="815.3269,656.1198,825.7436,660.2865,815.3269,664.4531,819.4936,660.2865" style="stroke:#2FA4E7;stroke-width:1.0417;"/><line style="stroke:#2FA4E7;stroke-width:3.125;" x1="336.2213" x2="821.5769" y1="660.2865" y2="660.2865"/><text fill="#343A40" font-family="'Verdana'" font-size="12.5" lengthAdjust="spacing" textLength="139.2334" x="348.7213" y="650.0468">execute_sync_job(job)</text></g><g class="message" data-entity-1="part4" data-entity-2="part3" id="msg8"><polygon fill="#2FA4E7" points="603.4149,695.6706,592.9983,699.8372,603.4149,704.0039,599.2483,699.8372" style="stroke:#2FA4E7;stroke-width:1.0417;"/><line style="stroke:#2FA4E7;stroke-width:3.125;" x1="597.1649" x2="826.7853" y1="699.8372" y2="699.8372"/><text fill="#343A40" font-family="'Verdana'" font-size="12.5" lengthAdjust="spacing" textLength="96.4539" x="614.8733" y="689.5976">mark_running()</text></g><g class="message" data-entity-1="part4" data-entity-2="part6" id="msg9"><polygon fill="#2FA4E7" points="1164.4511,735.2214,1174.8678,739.388,1164.4511,743.5547,1168.6178,739.388" style="stroke:#2FA4E7;stroke-width:1.0417;"/><line style="stroke:#2FA4E7;stroke-width:3.125;" x1="838.2436" x2="1170.7011" y1="739.388" y2="739.388"/><text fill="#343A40" font-family="'Verdana'" font-size="12.5" lengthAdjust="spacing" textLength="145.2148" x="850.7436" y="729.1484">Create FeedRun record</text></g><rect fill="#F8F9FA" height="3.125" rx="4.1667" ry="4.1667" style="stroke:#F8F9FA;stroke-width:1.0417;" width="1231.7515" x="10.4167" y="773.7467"/><line style="stroke:#868E96;stroke-width:1.0417;" x1="10.4167" x2="1242.1682" y1="773.7467" y2="773.7467"/><line style="stroke:#868E96;stroke-width:1.0417;" x1="10.4167" x2="1242.1682" y1="776.8717" y2="776.8717"/><rect fill="#F8F9FA" height="33.3008" rx="4.1667" ry="4.1667" style="stroke:#868E96;stroke-width:2.0833;" width="197.2473" x="527.6688" y="758.138"/><text fill="#343A40" font-family="'Verdana'" font-size="12.5" font-weight="bold" lengthAdjust="spacing" textLength="167.8955" x="539.1271" y="779.1158">Fetch from External API</text><g class="message" data-entity-1="part4" data-entity-2="part5" id="msg10"><polygon fill="#2FA4E7" points="1012.3606,828.9063,1022.7773,833.0729,1012.3606,837.2396,1016.5273,833.0729" style="stroke:#2FA4E7;stroke-width:1.0417;"/><line style="stroke:#2FA4E7;stroke-width:3.125;" x1="838.2436" x2="1018.6106" y1="833.0729" y2="833.0729"/><text fill="#343A40" font-family="'Verdana'" font-size="12.5" lengthAdjust="spacing" textLength="156.4087" x="850.7436" y="822.8333">fetch_indicators(params)</text></g><g class="message" data-entity-1="part5" data-entity-2="part4" id="msg11"><polygon fill="#2FA4E7" points="849.7019,868.457,839.2853,872.6237,849.7019,876.7904,845.5353,872.6237" style="stroke:#2FA4E7;stroke-width:1.0417;"/><line style="stroke:#2FA4E7;stroke-width:3.125;stroke-dasharray:2.0833,2.0833;" x1="843.4519" x2="1029.0273" y1="872.6237" y2="872.6237"/><text fill="#343A40" font-family="'Verdana'" font-size="12.5" lengthAdjust="spacing" textLength="93.3411" x="861.1603" y="862.384">indicators_json</text></g><rect fill="#F8F9FA" height="3.125" rx="4.1667" ry="4.1667" style="stroke:#F8F9FA;stroke-width:1.0417;" width="1231.7515" x="10.4167" y="906.9824"/><line style="stroke:#868E96;stroke-width:1.0417;" x1="10.4167" x2="1242.1682" y1="906.9824" y2="906.9824"/><line style="stroke:#868E96;stroke-width:1.0417;" x1="10.4167" x2="1242.1682" y1="910.1074" y2="910.1074"/><rect fill="#F8F9FA" height="33.3008" rx="4.1667" ry="4.1667" style="stroke:#868E96;stroke-width:2.0833;" width="159.1797" x="546.7026" y="891.3737"/><text fill="#343A40" font-family="'Verdana'" font-size="12.5" font-weight="bold" lengthAdjust="spacing" textLength="129.8279" x="558.1609" y="912.3515">Process Indicators</text><path d="M734.2672,942.3828 L817.7999,942.3828 L817.7999,959.0169 L807.3832,969.4336 L730.1005,969.4336 L730.1005,946.5495 A4.1667,4.1667 0 0 1 734.2672,942.3828" fill="#E9ECEF" style="stroke:#868E96;stroke-width:1.0417;"/><rect fill="none" height="213.3789" rx="4.1667" ry="4.1667" style="stroke:#2FA4E7;stroke-width:1.0417;" width="501.651" x="730.1005" y="942.3828"/><text fill="#033C73" font-family="'Verdana'" font-size="12.5" font-weight="bold" lengthAdjust="spacing" textLength="30.4077" x="750.9338" y="960.2356">loop</text><text fill="#343A40" font-family="'Verdana'" font-size="12.5" font-weight="bold" lengthAdjust="spacing" textLength="139.6301" x="838.6332" y="961.2773">[For each indicator]</text><g class="message" data-entity-1="part4" data-entity-2="part4" id="msg12"><line style="stroke:#2FA4E7;stroke-width:3.125;" x1="838.2436" x2="881.9936" y1="1009.9935" y2="1009.9935"/><line style="stroke:#2FA4E7;stroke-width:3.125;" x1="881.9936" x2="881.9936" y1="1009.9935" y2="1023.5352"/><line style="stroke:#2FA4E7;stroke-width:3.125;" x1="839.2853" x2="881.9936" y1="1023.5352" y2="1023.5352"/><polygon fill="#2FA4E7" points="849.7019,1019.3685,839.2853,1023.5352,849.7019,1027.7018,845.5353,1023.5352" style="stroke:#2FA4E7;stroke-width:1.0417;"/><text fill="#343A40" font-family="'Verdana'" font-size="12.5" lengthAdjust="spacing" textLength="127.7466" x="850.7436" y="999.7538">Parse and normalize</text></g><g class="message" data-entity-1="part4" data-entity-2="part4" id="msg13"><line style="stroke:#2FA4E7;stroke-width:3.125;" x1="838.2436" x2="881.9936" y1="1063.0859" y2="1063.0859"/><line style="stroke:#2FA4E7;stroke-width:3.125;" x1="881.9936" x2="881.9936" y1="1063.0859" y2="1076.6276"/><line style="stroke:#2FA4E7;stroke-width:3.125;" x1="839.2853" x2="881.9936" y1="1076.6276" y2="1076.6276"/><polygon fill="#2FA4E7" points="849.7019,1072.4609,839.2853,1076.6276,849.7019,1080.7943,845.5353,1076.6276" style="stroke:#2FA4E7;stroke-width:1.0417;"/><text fill="#343A40" font-family="'Verdana'" font-size="12.5" lengthAdjust="spacing" textLength="96.1121" x="850.7436" y="1052.8463">Apply TLP rules</text></g><g class="message" data-entity-1="part4" data-entity-2="part6" id="msg14"><polygon fill="#2FA4E7" points="1159.2428,1112.0117,1169.6594,1116.1784,1159.2428,1120.3451,1163.4094,1116.1784" style="stroke:#2FA4E7;stroke-width:1.0417;"/><line style="stroke:#2FA4E7;stroke-width:3.125;" x1="838.2436" x2="1165.4928" y1="1116.1784" y2="1116.1784"/><text fill="#343A40" font-family="'Verdana'" font-size="12.5" lengthAdjust="spacing" textLength="107.8369" x="850.7436" y="1105.9387">UPSERT indicator</text></g><rect fill="#F8F9FA" height="3.125" rx="4.1667" ry="4.1667" style="stroke:#F8F9FA;stroke-width:1.0417;" width="1231.7515" x="10.4167" y="1189.0788"/><line style="stroke:#868E96;stroke-width:1.0417;" x1="10.4167" x2="1242.1682" y1="1189.0788" y2="1189.0788"/><line style="stroke:#868E96;stroke-width:1.0417;" x1="10.4167" x2="1242.1682" y1="1192.2038" y2="1192.2038"/><rect fill="#F8F9FA" height="33.3008" rx="4.1667" ry="4.1667" style="stroke:#868E96;stroke-width:2.0833;" width="121.4661" x="565.5594" y="1173.4701"/><text fill="#343A40" font-family="'Verdana'" font-size="12.5" font-weight="bold" lengthAdjust="spacing" textLength="92.1143" x="577.0177" y="1194.4478">Update Stats</text><g class="message" data-entity-1="part4" data-entity-2="part6" id="msg15"><polygon fill="#2FA4E7" points="1159.2428,1244.2383,1169.6594,1248.4049,1159.2428,1252.5716,1163.4094,1248.4049" style="stroke:#2FA4E7;stroke-width:1.0417;"/><line style="stroke:#2FA4E7;stroke-width:3.125;" x1="838.2436" x2="1165.4928" y1="1248.4049" y2="1248.4049"/><text fill="#343A40" font-family="'Verdana'" font-size="12.5" lengthAdjust="spacing" textLength="113.6963" x="850.7436" y="1238.1653">Update feed_stats</text></g><g class="message" data-entity-1="part6" data-entity-2="part4" id="msg16"><polygon fill="#2FA4E7" points="849.7019,1283.7891,839.2853,1287.9557,849.7019,1292.1224,845.5353,1287.9557" style="stroke:#2FA4E7;stroke-width:1.0417;"/><line style="stroke:#2FA4E7;stroke-width:3.125;stroke-dasharray:2.0833,2.0833;" x1="843.4519" x2="1175.9094" y1="1287.9557" y2="1287.9557"/><text fill="#343A40" font-family="'Verdana'" font-size="12.5" lengthAdjust="spacing" textLength="18.0359" x="861.1603" y="1277.7161">OK</text></g><g class="message" data-entity-1="part4" data-entity-2="part3" id="msg17"><polygon fill="#2FA4E7" points="603.4149,1323.3398,592.9983,1327.5065,603.4149,1331.6732,599.2483,1327.5065" style="stroke:#2FA4E7;stroke-width:1.0417;"/><line style="stroke:#2FA4E7;stroke-width:3.125;" x1="597.1649" x2="826.7853" y1="1327.5065" y2="1327.5065"/><text fill="#343A40" font-family="'Verdana'" font-size="12.5" lengthAdjust="spacing" textLength="132.7515" x="614.8733" y="1317.2668">mark_success(result)</text></g><g class="message" data-entity-1="part4" data-entity-2="part6" id="msg18"><polygon fill="#2FA4E7" points="1164.4511,1362.8906,1174.8678,1367.0573,1164.4511,1371.224,1168.6178,1367.0573" style="stroke:#2FA4E7;stroke-width:1.0417;"/><line style="stroke:#2FA4E7;stroke-width:3.125;" x1="833.0353" x2="1170.7011" y1="1367.0573" y2="1367.0573"/><text fill="#343A40" font-family="'Verdana'" font-size="12.5" lengthAdjust="spacing" textLength="146.6614" x="845.5353" y="1356.8176">Update FeedRun status</text></g><rect fill="#F8F9FA" height="3.125" rx="4.1667" ry="4.1667" style="stroke:#F8F9FA;stroke-width:1.0417;" width="1231.7515" x="10.4167" y="1401.416"/><line style="stroke:#868E96;stroke-width:1.0417;" x1="10.4167" x2="1242.1682" y1="1401.416" y2="1401.416"/><line style="stroke:#868E96;stroke-width:1.0417;" x1="10.4167" x2="1242.1682" y1="1404.541" y2="1404.541"/><rect fill="#F8F9FA" height="33.3008" rx="4.1667" ry="4.1667" style="stroke:#868E96;stroke-width:2.0833;" width="137.6465" x="557.4692" y="1385.8073"/><text fill="#343A40" font-family="'Verdana'" font-size="12.5" font-weight="bold" lengthAdjust="spacing" textLength="108.2947" x="568.9275" y="1406.7851">Admin Controls</text><g class="message" data-entity-1="part1" data-entity-2="part2" id="msg19"><polygon fill="#2FA4E7" points="323.7213,1456.5755,334.138,1460.7422,323.7213,1464.9089,327.888,1460.7422" style="stroke:#2FA4E7;stroke-width:1.0417;"/><line style="stroke:#2FA4E7;stroke-width:3.125;" x1="55.9804" x2="329.9713" y1="1460.7422" y2="1460.7422"/><text fill="#343A40" font-family="'Verdana'" font-size="12.5" lengthAdjust="spacing" textLength="244.8242" x="68.4804" y="1450.5025">POST /admin/sync-jobs/{job_id}/cancel</text></g><path d="M290.3483,1476.3672 L362.1684,1476.3672 L362.1684,1493.0013 L351.7517,1503.418 L286.1816,1503.418 L286.1816,1480.5339 A4.1667,4.1667 0 0 1 290.3483,1476.3672" fill="#E9ECEF" style="stroke:#868E96;stroke-width:1.0417;"/><rect fill="none" height="221.6471" rx="4.1667" ry="4.1667" style="stroke:#2FA4E7;stroke-width:1.0417;" width="945.5699" x="286.1816" y="1476.3672"/><text fill="#033C73" font-family="'Verdana'" font-size="12.5" font-weight="bold" lengthAdjust="spacing" textLength="18.6951" x="307.015" y="1494.22">alt</text><text fill="#343A40" font-family="'Verdana'" font-size="12.5" font-weight="bold" lengthAdjust="spacing" textLength="118.7134" x="383.0017" y="1495.2616">[status=queued]</text><g class="message" data-entity-1="part2" data-entity-2="part3" id="msg20"><polygon fill="#2FA4E7" points="579.4566,1539.8112,589.8733,1543.9779,579.4566,1548.1445,583.6233,1543.9779" style="stroke:#2FA4E7;stroke-width:1.0417;"/><line style="stroke:#2FA4E7;stroke-width:3.125;" x1="336.2213" x2="585.7066" y1="1543.9779" y2="1543.9779"/><text fill="#343A40" font-family="'Verdana'" font-size="12.5" lengthAdjust="spacing" textLength="131.5491" x="348.7213" y="1533.7382">set status=cancelled</text></g><g class="message" data-entity-1="part2" data-entity-2="part6" id="msg21"><polygon fill="#2FA4E7" points="1164.4511,1579.362,1174.8678,1583.5286,1164.4511,1587.6953,1168.6178,1583.5286" style="stroke:#2FA4E7;stroke-width:1.0417;"/><line style="stroke:#2FA4E7;stroke-width:3.125;" x1="336.2213" x2="1170.7011" y1="1583.5286" y2="1583.5286"/><text fill="#343A40" font-family="'Verdana'" font-size="12.5" lengthAdjust="spacing" textLength="172.3938" x="348.7213" y="1573.289">update FeedRun(cancelled)</text></g><line style="stroke:#2FA4E7;stroke-width:1.0417;stroke-dasharray:2.0833,2.0833;" x1="286.1816" x2="1231.7515" y1="1592.9036" y2="1592.9036"/><text fill="#343A40" font-family="'Verdana'" font-size="12.5" font-weight="bold" lengthAdjust="spacing" textLength="121.0571" x="296.5983" y="1609.7148">[status=running]</text><g class="message" data-entity-1="part2" data-entity-2="part3" id="msg22"><polygon fill="#2FA4E7" points="579.4566,1645.9635,589.8733,1650.1302,579.4566,1654.2969,583.6233,1650.1302" style="stroke:#2FA4E7;stroke-width:1.0417;"/><line style="stroke:#2FA4E7;stroke-width:3.125;" x1="336.2213" x2="585.7066" y1="1650.1302" y2="1650.1302"/><text fill="#343A40" font-family="'Verdana'" font-size="12.5" lengthAdjust="spacing" textLength="182.1167" x="348.7213" y="1639.8905">set status=cancel_requested</text></g><g class="message" data-entity-1="part2" data-entity-2="part6" id="msg23"><polygon fill="#2FA4E7" points="1164.4511,1685.5143,1174.8678,1689.681,1164.4511,1693.8477,1168.6178,1689.681" style="stroke:#2FA4E7;stroke-width:1.0417;"/><line style="stroke:#2FA4E7;stroke-width:3.125;" x1="336.2213" x2="1170.7011" y1="1689.681" y2="1689.681"/><text fill="#343A40" font-family="'Verdana'" font-size="12.5" lengthAdjust="spacing" textLength="233.9294" x="348.7213" y="1679.4413">mark run with cancel_requested note</text></g><g class="message" data-entity-1="part1" data-entity-2="part2" id="msg24"><polygon fill="#2FA4E7" points="323.7213,1732.3568,334.138,1736.5234,323.7213,1740.6901,327.888,1736.5234" style="stroke:#2FA4E7;stroke-width:1.0417;"/><line style="stroke:#2FA4E7;stroke-width:3.125;" x1="55.9804" x2="329.9713" y1="1736.5234" y2="1736.5234"/><text fill="#343A40" font-family="'Verdana'" font-size="12.5" lengthAdjust="spacing" textLength="234.6008" x="68.4804" y="1726.2838">POST /admin/sync-jobs/{job_id}/retry</text></g><g class="message" data-entity-1="part2" data-entity-2="part3" id="msg25"><polygon fill="#2FA4E7" points="579.4566,1771.9076,589.8733,1776.0742,579.4566,1780.2409,583.6233,1776.0742" style="stroke:#2FA4E7;stroke-width:1.0417;"/><line style="stroke:#2FA4E7;stroke-width:3.125;" x1="336.2213" x2="585.7066" y1="1776.0742" y2="1776.0742"/><text fill="#343A40" font-family="'Verdana'" font-size="12.5" lengthAdjust="spacing" textLength="185.498" x="348.7213" y="1765.8346">create new job(trigger=retry)</text></g><g class="message" data-entity-1="part2" data-entity-2="part1" id="msg26"><polygon fill="#2FA4E7" points="67.4388,1811.4583,57.0221,1815.625,67.4388,1819.7917,63.2721,1815.625" style="stroke:#2FA4E7;stroke-width:1.0417;"/><line style="stroke:#2FA4E7;stroke-width:3.125;stroke-dasharray:2.0833,2.0833;" x1="61.1888" x2="335.1796" y1="1815.625" y2="1815.625"/><text fill="#343A40" font-family="'Verdana'" font-size="12.5" lengthAdjust="spacing" textLength="149.8291" x="78.8971" y="1805.3853">redirect with new job_id</text></g><rect fill="#F8F9FA" height="3.125" rx="4.1667" ry="4.1667" style="stroke:#F8F9FA;stroke-width:1.0417;" width="1231.7515" x="10.4167" y="1849.9837"/><line style="stroke:#868E96;stroke-width:1.0417;" x1="10.4167" x2="1242.1682" y1="1849.9837" y2="1849.9837"/><line style="stroke:#868E96;stroke-width:1.0417;" x1="10.4167" x2="1242.1682" y1="1853.1087" y2="1853.1087"/><rect fill="#F8F9FA" height="33.3008" rx="4.1667" ry="4.1667" style="stroke:#868E96;stroke-width:2.0833;" width="132.4829" x="560.051" y="1834.375"/><text fill="#343A40" font-family="'Verdana'" font-size="12.5" font-weight="bold" lengthAdjust="spacing" textLength="103.1311" x="571.5093" y="1855.3528">Error Handling</text><path d="M506.842,1885.3841 L578.6621,1885.3841 L578.6621,1902.0182 L568.2454,1912.4349 L502.6754,1912.4349 L502.6754,1889.5508 A4.1667,4.1667 0 0 1 506.842,1885.3841" fill="#E9ECEF" style="stroke:#868E96;stroke-width:1.0417;"/><rect fill="none" height="155.0456" rx="4.1667" ry="4.1667" style="stroke:#2FA4E7;stroke-width:1.0417;" width="729.0761" x="502.6754" y="1885.3841"/><text fill="#033C73" font-family="'Verdana'" font-size="12.5" font-weight="bold" lengthAdjust="spacing" textLength="18.6951" x="523.5087" y="1903.2369">alt</text><text fill="#343A40" font-family="'Verdana'" font-size="12.5" font-weight="bold" lengthAdjust="spacing" textLength="84.9609" x="599.4954" y="1904.2786">[Fetch fails]</text><g class="message" data-entity-1="part4" data-entity-2="part5" id="msg27"><line style="stroke:#2FA4E7;stroke-width:2.0833;" x1="1011.319" x2="1021.7356" y1="1947.7865" y2="1958.2031"/><line style="stroke:#2FA4E7;stroke-width:2.0833;" x1="1011.319" x2="1021.7356" y1="1958.2031" y2="1947.7865"/><line style="stroke:#2FA4E7;stroke-width:3.125;" x1="833.0353" x2="1016.5273" y1="1952.9948" y2="1952.9948"/><text fill="#343A40" font-family="'Verdana'" font-size="12.5" lengthAdjust="spacing" textLength="86.6211" x="845.5353" y="1942.7551">Timeout/Error</text></g><g class="message" data-entity-1="part4" data-entity-2="part3" id="msg28"><polygon fill="#2FA4E7" points="603.4149,1988.3789,592.9983,1992.5456,603.4149,1996.7122,599.2483,1992.5456" style="stroke:#2FA4E7;stroke-width:1.0417;"/><line style="stroke:#2FA4E7;stroke-width:3.125;" x1="597.1649" x2="831.9936" y1="1992.5456" y2="1992.5456"/><text fill="#343A40" font-family="'Verdana'" font-size="12.5" lengthAdjust="spacing" textLength="113.6047" x="614.8733" y="1982.3059">mark_failed(error)</text></g><g class="message" data-entity-1="part4" data-entity-2="part6" id="msg29"><polygon fill="#2FA4E7" points="1164.4511,2027.9297,1174.8678,2032.0964,1164.4511,2036.263,1168.6178,2032.0964" style="stroke:#2FA4E7;stroke-width:1.0417;"/><line style="stroke:#2FA4E7;stroke-width:3.125;" x1="833.0353" x2="1170.7011" y1="2032.0964" y2="2032.0964"/><text fill="#343A40" font-family="'Verdana'" font-size="12.5" lengthAdjust="spacing" textLength="131.6528" x="845.5353" y="2021.8567">Log error in FeedRun</text></g><?plantuml-src dLN1RXen4BtxAwQSG2hY7ebA2KbKsgYXWTmg8MDFm8dNtjhU15BrtpksbsMNb2fgf8Ji-itCc-StmuUmmG91eAiqSZEqLT3A86D11OqmlPt07Dsp4WX3k4QKCDyPiN7Mg5SUb3Lq_BD28oY4Ys0TzCvbeSpeV3Rj0VSmqGfDgC_cOeEI2ZbMSXUKK2Kt0NenvHUx-c4MVAKnXTMlkhXOlsQJGVd_BkXg6z0Phc7FW3wPv86lk4VepQmFQuVpxpVfyFA2iV4OfXABqWRgOmUJ3Oed68zPfWx3JmVUS0Qps_a2HZmrwOabK5yZNghqm0x869QRe20q95A5ouXPFjfL_u5QMIhv4O9JwpMwGLH8FVE0JUlxw4wYJ0wtoWTbrf2oof6hZA57ndM0YEFQ8PUxZFCCwAV9TjJE7ORAcKD68iTGarBVy2KzT88xLAW6qIKCE1JMoVVKCNLMD98nYM-QZfTnjKLHrU_YFNGrhTr8ccROGLFwRSjOcuCr_csJBxXxMjQozGTjpEN5eRTekBlAxFkBvAunY0qyE5j0ssc9vo59V7C63n6xL4OgmSd-laz6vOLlaOpUZDXXfxD3nFBHMzCHAaP47ZDd1NeFqmORAMXhIxWcHrB0vf0dtqnBXwRKZ3kwQsua6EiAhjKhdWQVbwNUmU9c1d5R-6DWKkv-Dh-wMnoLRjZJkCNdLZ_q9dc1MhelPRgum8C_qZEdpkTfT7m4iNOMWdHLlFtAkdN-uGHVYQXctw6lT1YSAhttGwnU-Qw1ztQZHj86X8armLdjtxzAXkHWF_f5Vsar_1u9JcjLfw7E1STvt4d24sl6OmFDmVejElLJTVhfD-11dlqwntwjlB_UqiLl0nzEb8rQatSClAYmWUCGic30x8R_qijXSBjJ6rZaYQxtJxzUk-CKCsW7KLHT_OpcNYgQ_P3vrh5KAwyfvsZGFjFiwBWuwPRZJTNxWIjzF1_RUYiiL87qDJjAyM-6hUlBc0Tb7oDqyDTvkx5hICSqSllxJ1h-0G00?></g></svg>