<?plantuml 1.2026.2?><svg xmlns="http://www.w3.org/2000/svg" xmlns:xlink="http://www.w3.org/1999/xlink" contentStyleType="text/css" data-diagram-type="CLASS" height="1355.2083px" preserveAspectRatio="none" style="width:2067px;height:1355px;" version="1.1" viewBox="0 0 2067 1355" width="2067.7083px" zoomAndPan="magnify"><title>IOC Threat Intelligence Service - Domain Model</title><defs/><g><g class="title" data-source-line="9"><rect fill="none" height="47.168" rx="4.1667" ry="4.1667" style="stroke:#BABDBF;stroke-width:1.0417;" width="578.9266" x="739.8188" y="20.8333"/><text fill="#2FA4E7" font-family="'Verdana'" font-size="20.8333" font-weight="bold" lengthAdjust="spacing" textLength="556.0099" x="751.2772" y="51.6296">IOC Threat Intelligence Service - Domain Model</text></g><!--class Indicator--><g class="entity" data-qualified-name="Indicator" data-source-line="11" id="ent0002"><rect fill="#FFFFFF" height="430.9163" rx="4.1667" ry="4.1667" style="stroke:#000000;stroke-width:1.0417;" width="178.6952" x="366.2083" y="86.7513"/><ellipse cx="420.864" cy="103.8371" fill="#EDF0F2" rx="10.4167" ry="10.4167" style="stroke:#BABDBF;stroke-width:1.0417;"/><path d="M422.7683,108.2642 Q422.3452,108.4757 421.8732,108.5897 Q421.4012,108.7036 420.8966,108.7036 Q419.0411,108.7036 418.0646,107.4992 Q417.1043,106.2785 417.1043,103.9836 Q417.1043,101.6724 418.0646,100.4679 Q419.0411,99.2472 420.8966,99.2472 Q421.4012,99.2472 421.8732,99.3612 Q422.3614,99.4588 422.7683,99.6867 L422.7683,101.6886 Q422.3126,101.2655 421.8732,101.0701 Q421.4337,100.8586 420.978,100.8586 Q419.9851,100.8586 419.4806,101.6561 Q418.976,102.4373 418.976,103.9836 Q418.976,105.5135 419.4806,106.2948 Q419.9851,107.076 420.978,107.076 Q421.4337,107.076 421.8732,106.8807 Q422.3126,106.6854 422.7683,106.2622 L422.7683,108.2642 Z " fill="#2FA4E7"/><text fill="#343A40" font-family="'Verdana'" font-size="11.4583" lengthAdjust="spacing" textLength="50.6337" x="445.864" y="107.8039">Indicator</text><line style="stroke:#000000;stroke-width:1.0417;" x1="367.25" x2="543.8618" y1="120.9229" y2="120.9229"/><text fill="#343A40" font-family="'Verdana'" font-size="11.4583" lengthAdjust="spacing" textLength="100.8647" x="377.6667" y="140.9337">+id: Integer &#171;PK&#187;</text><text fill="#343A40" font-family="'Verdana'" font-size="11.4583" lengthAdjust="spacing" textLength="148.7737" x="377.6667" y="164.6886">+value: String &#171;required&#187;</text><text fill="#343A40" font-family="'Verdana'" font-size="11.4583" lengthAdjust="spacing" textLength="143.0725" x="377.6667" y="188.4435">+type: String &#171;required&#187;</text><text fill="#343A40" font-family="'Verdana'" font-size="11.4583" lengthAdjust="spacing" textLength="155.7785" x="377.6667" y="212.1984">+source: String &#171;required&#187;</text><text fill="#343A40" font-family="'Verdana'" font-size="11.4583" lengthAdjust="spacing" textLength="105.7882" x="377.6667" y="235.9533">+source_id: String</text><text fill="#343A40" font-family="'Verdana'" font-size="11.4583" lengthAdjust="spacing" textLength="152.5111" x="377.6667" y="259.7082">+confidence: Integer = 50</text><text fill="#343A40" font-family="'Verdana'" font-size="11.4583" lengthAdjust="spacing" textLength="131.2393" x="377.6667" y="283.463">+tlp: String = "WHITE"</text><text fill="#343A40" font-family="'Verdana'" font-size="11.4583" lengthAdjust="spacing" textLength="153.6133" x="377.6667" y="307.2179">+is_active: Boolean = true</text><text fill="#343A40" font-family="'Verdana'" font-size="11.4583" lengthAdjust="spacing" textLength="115.2883" x="377.6667" y="330.9728">+tags: List&lt;String&gt;</text><text fill="#343A40" font-family="'Verdana'" font-size="11.4583" lengthAdjust="spacing" textLength="108.7423" x="377.6667" y="354.7277">+metadata: JSONB</text><text fill="#343A40" font-family="'Verdana'" font-size="11.4583" lengthAdjust="spacing" textLength="128.3356" x="377.6667" y="378.4826">+first_seen: DateTime</text><text fill="#343A40" font-family="'Verdana'" font-size="11.4583" lengthAdjust="spacing" textLength="126.6123" x="377.6667" y="402.2374">+last_seen: DateTime</text><text fill="#343A40" font-family="'Verdana'" font-size="11.4583" lengthAdjust="spacing" textLength="134.0256" x="377.6667" y="425.9923">+created_at: DateTime</text><text fill="#343A40" font-family="'Verdana'" font-size="11.4583" lengthAdjust="spacing" textLength="137.7741" x="377.6667" y="449.7472">+updated_at: DateTime</text><line style="stroke:#000000;stroke-width:1.0417;" x1="367.25" x2="543.8618" y1="461.8245" y2="461.8245"/><text fill="#343A40" font-family="'Verdana'" font-size="11.4583" lengthAdjust="spacing" textLength="87.325" x="377.6667" y="481.8354">+to_dict(): Dict</text><text fill="#343A40" font-family="'Verdana'" font-size="11.4583" lengthAdjust="spacing" textLength="130.6463" x="377.6667" y="505.5903">+is_expired(): Boolean</text></g><!--class SyncJob--><g class="entity" data-qualified-name="SyncJob" data-source-line="31" id="ent0003"><rect fill="#FFFFFF" height="407.1615" rx="4.1667" ry="4.1667" style="stroke:#000000;stroke-width:1.0417;" width="475.7055" x="17.7083" y="606.2096"/><ellipse cx="223.5463" cy="623.2954" fill="#EDF0F2" rx="10.4167" ry="10.4167" style="stroke:#BABDBF;stroke-width:1.0417;"/><path d="M225.4506,627.7225 Q225.0275,627.9341 224.5555,628.048 Q224.0835,628.1619 223.5789,628.1619 Q221.7234,628.1619 220.7469,626.9575 Q219.7866,625.7368 219.7866,623.4419 Q219.7866,621.1307 220.7469,619.9263 Q221.7234,618.7056 223.5789,618.7056 Q224.0835,618.7056 224.5555,618.8195 Q225.0437,618.9172 225.4506,619.145 L225.4506,621.147 Q224.9949,620.7238 224.5555,620.5285 Q224.116,620.3169 223.6603,620.3169 Q222.6674,620.3169 222.1629,621.1144 Q221.6583,621.8957 221.6583,623.4419 Q221.6583,624.9718 222.1629,625.7531 Q222.6674,626.5343 223.6603,626.5343 Q224.116,626.5343 224.5555,626.339 Q224.9949,626.1437 225.4506,625.7205 L225.4506,627.7225 Z " fill="#2FA4E7"/><text fill="#343A40" font-family="'Verdana'" font-size="11.4583" lengthAdjust="spacing" textLength="45.2794" x="248.5463" y="627.2622">SyncJob</text><line style="stroke:#000000;stroke-width:1.0417;" x1="18.75" x2="492.3721" y1="640.3812" y2="640.3812"/><text fill="#343A40" font-family="'Verdana'" font-size="11.4583" lengthAdjust="spacing" textLength="100.8647" x="29.1667" y="660.3921">+id: Integer &#171;PK&#187;</text><text fill="#343A40" font-family="'Verdana'" font-size="11.4583" lengthAdjust="spacing" textLength="208.0851" x="29.1667" y="684.147">+job_id: String &#171;unique&#187; &#171;required&#187;</text><text fill="#343A40" font-family="'Verdana'" font-size="11.4583" lengthAdjust="spacing" textLength="203.1001" x="29.1667" y="707.9018">+feed_source_id: String &#171;required&#187;</text><text fill="#343A40" font-family="'Verdana'" font-size="11.4583" lengthAdjust="spacing" textLength="191.6585" x="29.1667" y="731.6567">+trigger_type: String = "manual"</text><text fill="#343A40" font-family="'Verdana'" font-size="11.4583" lengthAdjust="spacing" textLength="152.3321" x="29.1667" y="755.4116">+idempotency_key: String</text><text fill="#343A40" font-family="'Verdana'" font-size="11.4583" lengthAdjust="spacing" textLength="452.7888" x="29.1667" y="779.1665">+status: String = "queued|running|success|failed|cancel_requested|cancelled"</text><text fill="#343A40" font-family="'Verdana'" font-size="11.4583" lengthAdjust="spacing" textLength="79.4922" x="29.1667" y="802.9214">+error: String</text><text fill="#343A40" font-family="'Verdana'" font-size="11.4583" lengthAdjust="spacing" textLength="115.0309" x="29.1667" y="826.6762">+result_json: JSONB</text><text fill="#343A40" font-family="'Verdana'" font-size="11.4583" lengthAdjust="spacing" textLength="134.0256" x="29.1667" y="850.4311">+created_at: DateTime</text><text fill="#343A40" font-family="'Verdana'" font-size="11.4583" lengthAdjust="spacing" textLength="131.1386" x="29.1667" y="874.186">+started_at: DateTime</text><text fill="#343A40" font-family="'Verdana'" font-size="11.4583" lengthAdjust="spacing" textLength="135.346" x="29.1667" y="897.9409">+finished_at: DateTime</text><line style="stroke:#000000;stroke-width:1.0417;" x1="18.75" x2="492.3721" y1="910.0182" y2="910.0182"/><text fill="#343A40" font-family="'Verdana'" font-size="11.4583" lengthAdjust="spacing" textLength="98.0169" x="29.1667" y="930.0291">+mark_running()</text><text fill="#343A40" font-family="'Verdana'" font-size="11.4583" lengthAdjust="spacing" textLength="161.5916" x="29.1667" y="953.784">+mark_success(result: Dict)</text><text fill="#343A40" font-family="'Verdana'" font-size="11.4583" lengthAdjust="spacing" textLength="155.4372" x="29.1667" y="977.5389">+mark_failed(error: String)</text><text fill="#343A40" font-family="'Verdana'" font-size="11.4583" lengthAdjust="spacing" textLength="105.1951" x="29.1667" y="1001.2938">+request_cancel()</text></g><!--class Feed--><g class="entity" data-qualified-name="Feed" data-source-line="50" id="ent0004"><rect fill="#FFFFFF" height="312.1419" rx="4.1667" ry="4.1667" style="stroke:#000000;stroke-width:1.0417;" width="251.8372" x="866.1042" y="146.1367"/><ellipse cx="968.6661" cy="163.2225" fill="#EDF0F2" rx="10.4167" ry="10.4167" style="stroke:#BABDBF;stroke-width:1.0417;"/><path d="M970.5704,167.6496 Q970.1472,167.8612 969.6752,167.9751 Q969.2032,168.089 968.6987,168.089 Q966.8432,168.089 965.8666,166.8846 Q964.9064,165.6639 964.9064,163.369 Q964.9064,161.0578 965.8666,159.8534 Q966.8432,158.6326 968.6987,158.6326 Q969.2032,158.6326 969.6752,158.7466 Q970.1635,158.8442 970.5704,159.0721 L970.5704,161.0741 Q970.1147,160.6509 969.6752,160.4556 Q969.2358,160.244 968.78,160.244 Q967.7872,160.244 967.2827,161.0415 Q966.7781,161.8228 966.7781,163.369 Q966.7781,164.8989 967.2827,165.6802 Q967.7872,166.4614 968.78,166.4614 Q969.2358,166.4614 969.6752,166.2661 Q970.1147,166.0708 970.5704,165.6476 L970.5704,167.6496 Z " fill="#2FA4E7"/><text fill="#343A40" font-family="'Verdana'" font-size="11.4583" lengthAdjust="spacing" textLength="27.9633" x="993.6661" y="167.1893">Feed</text><line style="stroke:#000000;stroke-width:1.0417;" x1="867.1458" x2="1116.8997" y1="180.3083" y2="180.3083"/><text fill="#343A40" font-family="'Verdana'" font-size="11.4583" lengthAdjust="spacing" textLength="100.8647" x="877.5625" y="200.3192">+id: Integer &#171;PK&#187;</text><text fill="#343A40" font-family="'Verdana'" font-size="11.4583" lengthAdjust="spacing" textLength="228.9205" x="877.5625" y="224.074">+source_id: String &#171;unique&#187; &#171;required&#187;</text><text fill="#343A40" font-family="'Verdana'" font-size="11.4583" lengthAdjust="spacing" textLength="187.1043" x="877.5625" y="247.8289">+source_type: String &#171;required&#187;</text><text fill="#343A40" font-family="'Verdana'" font-size="11.4583" lengthAdjust="spacing" textLength="196.3862" x="877.5625" y="271.5838">+display_name: String &#171;required&#187;</text><text fill="#343A40" font-family="'Verdana'" font-size="11.4583" lengthAdjust="spacing" textLength="99.4995" x="877.5625" y="295.3387">+base_url: String</text><text fill="#343A40" font-family="'Verdana'" font-size="11.4583" lengthAdjust="spacing" textLength="108.6639" x="877.5625" y="319.0936">+auth_type: String</text><text fill="#343A40" font-family="'Verdana'" font-size="11.4583" lengthAdjust="spacing" textLength="222.7437" x="877.5625" y="342.8484">+schedule_cron: String = "*/15 * * * *"</text><text fill="#343A40" font-family="'Verdana'" font-size="11.4583" lengthAdjust="spacing" textLength="150.0158" x="877.5625" y="366.6033">+enabled: Boolean = true</text><text fill="#343A40" font-family="'Verdana'" font-size="11.4583" lengthAdjust="spacing" textLength="151.0173" x="877.5625" y="390.3582">+deleted: Boolean = false</text><text fill="#343A40" font-family="'Verdana'" font-size="11.4583" lengthAdjust="spacing" textLength="134.0256" x="877.5625" y="414.1131">+created_at: DateTime</text><text fill="#343A40" font-family="'Verdana'" font-size="11.4583" lengthAdjust="spacing" textLength="137.7741" x="877.5625" y="437.868">+updated_at: DateTime</text><line style="stroke:#000000;stroke-width:1.0417;" x1="867.1458" x2="1116.8997" y1="449.9453" y2="449.9453"/></g><!--class FeedStats--><g class="entity" data-qualified-name="FeedStats" data-source-line="64" id="ent0005"><rect fill="#FFFFFF" height="288.387" rx="4.1667" ry="4.1667" style="stroke:#000000;stroke-width:1.0417;" width="212.824" x="755.3958" y="665.5951"/><ellipse cx="823.8262" cy="682.6808" fill="#EDF0F2" rx="10.4167" ry="10.4167" style="stroke:#BABDBF;stroke-width:1.0417;"/><path d="M825.7305,687.1079 Q825.3073,687.3195 824.8353,687.4334 Q824.3633,687.5474 823.8587,687.5474 Q822.0032,687.5474 821.0267,686.3429 Q820.0664,685.1222 820.0664,682.8273 Q820.0664,680.5161 821.0267,679.3117 Q822.0032,678.091 823.8587,678.091 Q824.3633,678.091 824.8353,678.2049 Q825.3236,678.3026 825.7305,678.5304 L825.7305,680.5324 Q825.2747,680.1092 824.8353,679.9139 Q824.3958,679.7023 823.9401,679.7023 Q822.9473,679.7023 822.4427,680.4998 Q821.9381,681.2811 821.9381,682.8273 Q821.9381,684.3573 822.4427,685.1385 Q822.9473,685.9198 823.9401,685.9198 Q824.3958,685.9198 824.8353,685.7244 Q825.2747,685.5291 825.7305,685.106 L825.7305,687.1079 Z " fill="#2FA4E7"/><text fill="#343A40" font-family="'Verdana'" font-size="11.4583" lengthAdjust="spacing" textLength="57.2133" x="848.8262" y="686.6476">FeedStats</text><line style="stroke:#000000;stroke-width:1.0417;" x1="756.4375" x2="967.1782" y1="699.7666" y2="699.7666"/><text fill="#343A40" font-family="'Verdana'" font-size="11.4583" lengthAdjust="spacing" textLength="100.8647" x="766.8542" y="719.7775">+id: Integer &#171;PK&#187;</text><text fill="#343A40" font-family="'Verdana'" font-size="11.4583" lengthAdjust="spacing" textLength="155.7785" x="766.8542" y="743.5324">+source: String &#171;required&#187;</text><text fill="#343A40" font-family="'Verdana'" font-size="11.4583" lengthAdjust="spacing" textLength="105.7882" x="766.8542" y="767.2873">+source_id: String</text><text fill="#343A40" font-family="'Verdana'" font-size="11.4583" lengthAdjust="spacing" textLength="170.8344" x="766.8542" y="791.0421">+total_indicators: Integer = 0</text><text fill="#343A40" font-family="'Verdana'" font-size="11.4583" lengthAdjust="spacing" textLength="179.4617" x="766.8542" y="814.797">+active_indicators: Integer = 0</text><text fill="#343A40" font-family="'Verdana'" font-size="11.4583" lengthAdjust="spacing" textLength="189.9073" x="766.8542" y="838.5519">+inactive_indicators: Integer = 0</text><text fill="#343A40" font-family="'Verdana'" font-size="11.4583" lengthAdjust="spacing" textLength="139.654" x="766.8542" y="862.3068">+last_update: DateTime</text><text fill="#343A40" font-family="'Verdana'" font-size="11.4583" lengthAdjust="spacing" textLength="147.7722" x="766.8542" y="886.0617">+last_fetch_status: String</text><text fill="#343A40" font-family="'Verdana'" font-size="11.4583" lengthAdjust="spacing" textLength="140.7562" x="766.8542" y="909.8165">+last_fetch_error: String</text><text fill="#343A40" font-family="'Verdana'" font-size="11.4583" lengthAdjust="spacing" textLength="108.7423" x="766.8542" y="933.5714">+metadata: JSONB</text><line style="stroke:#000000;stroke-width:1.0417;" x1="756.4375" x2="967.1782" y1="945.6488" y2="945.6488"/></g><!--class FeedRun--><g class="entity" data-qualified-name="FeedRun" data-source-line="77" id="ent0006"><rect fill="#FFFFFF" height="264.6322" rx="4.1667" ry="4.1667" style="stroke:#000000;stroke-width:1.0417;" width="232.7698" x="1004.8021" y="677.4805"/><ellipse cx="1086.5874" cy="694.5662" fill="#EDF0F2" rx="10.4167" ry="10.4167" style="stroke:#BABDBF;stroke-width:1.0417;"/><path d="M1088.4917,698.9933 Q1088.0685,699.2049 1087.5965,699.3188 Q1087.1245,699.4328 1086.62,699.4328 Q1084.7645,699.4328 1083.7879,698.2284 Q1082.8276,697.0076 1082.8276,694.7127 Q1082.8276,692.4015 1083.7879,691.1971 Q1084.7645,689.9764 1086.62,689.9764 Q1087.1245,689.9764 1087.5965,690.0903 Q1088.0848,690.188 1088.4917,690.4159 L1088.4917,692.4178 Q1088.036,691.9946 1087.5965,691.7993 Q1087.1571,691.5877 1086.7013,691.5877 Q1085.7085,691.5877 1085.2039,692.3853 Q1084.6994,693.1665 1084.6994,694.7127 Q1084.6994,696.2427 1085.2039,697.0239 Q1085.7085,697.8052 1086.7013,697.8052 Q1087.1571,697.8052 1087.5965,697.6099 Q1088.036,697.4146 1088.4917,696.9914 L1088.4917,698.9933 Z " fill="#2FA4E7"/><text fill="#343A40" font-family="'Verdana'" font-size="11.4583" lengthAdjust="spacing" textLength="50.4491" x="1111.5874" y="698.533">FeedRun</text><line style="stroke:#000000;stroke-width:1.0417;" x1="1005.8438" x2="1236.5302" y1="711.652" y2="711.652"/><text fill="#343A40" font-family="'Verdana'" font-size="11.4583" lengthAdjust="spacing" textLength="100.8647" x="1016.2604" y="731.6629">+id: Integer &#171;PK&#187;</text><text fill="#343A40" font-family="'Verdana'" font-size="11.4583" lengthAdjust="spacing" textLength="203.1001" x="1016.2604" y="755.4178">+feed_source_id: String &#171;required&#187;</text><text fill="#343A40" font-family="'Verdana'" font-size="11.4583" lengthAdjust="spacing" textLength="209.8531" x="1016.2604" y="779.1727">+run_id: String &#171;unique&#187; &#171;required&#187;</text><text fill="#343A40" font-family="'Verdana'" font-size="11.4583" lengthAdjust="spacing" textLength="191.6585" x="1016.2604" y="802.9276">+trigger_type: String = "manual"</text><text fill="#343A40" font-family="'Verdana'" font-size="11.4583" lengthAdjust="spacing" textLength="158.1507" x="1016.2604" y="826.6824">+status: String = "running"</text><text fill="#343A40" font-family="'Verdana'" font-size="11.4583" lengthAdjust="spacing" textLength="79.4922" x="1016.2604" y="850.4373">+error: String</text><text fill="#343A40" font-family="'Verdana'" font-size="11.4583" lengthAdjust="spacing" textLength="164.0142" x="1016.2604" y="874.1922">+fetched_count: Integer = 0</text><text fill="#343A40" font-family="'Verdana'" font-size="11.4583" lengthAdjust="spacing" textLength="131.1386" x="1016.2604" y="897.9471">+started_at: DateTime</text><text fill="#343A40" font-family="'Verdana'" font-size="11.4583" lengthAdjust="spacing" textLength="135.346" x="1016.2604" y="921.702">+finished_at: DateTime</text><line style="stroke:#000000;stroke-width:1.0417;" x1="1005.8438" x2="1236.5302" y1="933.7793" y2="933.7793"/></g><!--class AuditLog--><g class="entity" data-qualified-name="AuditLog" data-source-line="89" id="ent0007"><rect fill="#FFFFFF" height="240.8773" rx="4.1667" ry="4.1667" style="stroke:#000000;stroke-width:1.0417;" width="175.6627" x="1612.5208" y="181.7721"/><ellipse cx="1665.6184" cy="198.8579" fill="#EDF0F2" rx="10.4167" ry="10.4167" style="stroke:#BABDBF;stroke-width:1.0417;"/><path d="M1667.5227,203.285 Q1667.0995,203.4966 1666.6275,203.6105 Q1666.1555,203.7244 1665.6509,203.7244 Q1663.7955,203.7244 1662.8189,202.52 Q1661.8586,201.2993 1661.8586,199.0044 Q1661.8586,196.6932 1662.8189,195.4888 Q1663.7955,194.2681 1665.6509,194.2681 Q1666.1555,194.2681 1666.6275,194.382 Q1667.1158,194.4797 1667.5227,194.7075 L1667.5227,196.7095 Q1667.0669,196.2863 1666.6275,196.091 Q1666.188,195.8794 1665.7323,195.8794 Q1664.7395,195.8794 1664.2349,196.6769 Q1663.7303,197.4582 1663.7303,199.0044 Q1663.7303,200.5343 1664.2349,201.3156 Q1664.7395,202.0968 1665.7323,202.0968 Q1666.188,202.0968 1666.6275,201.9015 Q1667.0669,201.7062 1667.5227,201.283 L1667.5227,203.285 Z " fill="#2FA4E7"/><text fill="#343A40" font-family="'Verdana'" font-size="11.4583" lengthAdjust="spacing" textLength="50.7177" x="1690.6184" y="202.8247">AuditLog</text><line style="stroke:#000000;stroke-width:1.0417;" x1="1613.5625" x2="1787.1419" y1="215.9437" y2="215.9437"/><text fill="#343A40" font-family="'Verdana'" font-size="11.4583" lengthAdjust="spacing" textLength="100.8647" x="1623.9792" y="235.9546">+id: Integer &#171;PK&#187;</text><text fill="#343A40" font-family="'Verdana'" font-size="11.4583" lengthAdjust="spacing" textLength="152.7461" x="1623.9792" y="259.7095">+action: String &#171;required&#187;</text><text fill="#343A40" font-family="'Verdana'" font-size="11.4583" lengthAdjust="spacing" textLength="115.8869" x="1623.9792" y="283.4643">+entity_type: String</text><text fill="#343A40" font-family="'Verdana'" font-size="11.4583" lengthAdjust="spacing" textLength="107.7688" x="1623.9792" y="307.2192">+entity_id: Integer</text><text fill="#343A40" font-family="'Verdana'" font-size="11.4583" lengthAdjust="spacing" textLength="92.4779" x="1623.9792" y="330.9741">+user_id: String</text><text fill="#343A40" font-family="'Verdana'" font-size="11.4583" lengthAdjust="spacing" textLength="104.7475" x="1623.9792" y="354.729">+ip_address: INET</text><text fill="#343A40" font-family="'Verdana'" font-size="11.4583" lengthAdjust="spacing" textLength="108.7423" x="1623.9792" y="378.4839">+metadata: JSONB</text><text fill="#343A40" font-family="'Verdana'" font-size="11.4583" lengthAdjust="spacing" textLength="134.0256" x="1623.9792" y="402.2387">+created_at: DateTime</text><line style="stroke:#000000;stroke-width:1.0417;" x1="1613.5625" x2="1787.1419" y1="414.3161" y2="414.3161"/></g><!--class ExportJob--><g class="entity" data-qualified-name="ExportJob" data-source-line="100" id="ent0008"><rect fill="#FFFFFF" height="264.6322" rx="4.1667" ry="4.1667" style="stroke:#000000;stroke-width:1.0417;" width="231.0018" x="1824.4375" y="169.8971"/><ellipse cx="1902.9778" cy="186.9829" fill="#EDF0F2" rx="10.4167" ry="10.4167" style="stroke:#BABDBF;stroke-width:1.0417;"/><path d="M1904.8821,191.41 Q1904.4589,191.6216 1903.9869,191.7355 Q1903.5149,191.8494 1903.0103,191.8494 Q1901.1549,191.8494 1900.1783,190.645 Q1899.218,189.4243 1899.218,187.1294 Q1899.218,184.8182 1900.1783,183.6138 Q1901.1549,182.3931 1903.0103,182.3931 Q1903.5149,182.3931 1903.9869,182.507 Q1904.4752,182.6047 1904.8821,182.8325 L1904.8821,184.8345 Q1904.4264,184.4113 1903.9869,184.216 Q1903.5475,184.0044 1903.0917,184.0044 Q1902.0989,184.0044 1901.5943,184.8019 Q1901.0898,185.5832 1901.0898,187.1294 Q1901.0898,188.6593 1901.5943,189.4406 Q1902.0989,190.2218 1903.0917,190.2218 Q1903.5475,190.2218 1903.9869,190.0265 Q1904.4264,189.8312 1904.8821,189.408 L1904.8821,191.41 Z " fill="#2FA4E7"/><text fill="#343A40" font-family="'Verdana'" font-size="11.4583" lengthAdjust="spacing" textLength="55.1712" x="1927.9778" y="190.9497">ExportJob</text><line style="stroke:#000000;stroke-width:1.0417;" x1="1825.4792" x2="2054.3976" y1="204.0687" y2="204.0687"/><text fill="#343A40" font-family="'Verdana'" font-size="11.4583" lengthAdjust="spacing" textLength="100.8647" x="1835.8958" y="224.0796">+id: Integer &#171;PK&#187;</text><text fill="#343A40" font-family="'Verdana'" font-size="11.4583" lengthAdjust="spacing" textLength="208.0851" x="1835.8958" y="247.8345">+job_id: String &#171;unique&#187; &#171;required&#187;</text><text fill="#343A40" font-family="'Verdana'" font-size="11.4583" lengthAdjust="spacing" textLength="137.1643" x="1835.8958" y="271.5893">+fmt: String &#171;required&#187;</text><text fill="#343A40" font-family="'Verdana'" font-size="11.4583" lengthAdjust="spacing" textLength="157.1045" x="1835.8958" y="295.3442">+status: String = "queued"</text><text fill="#343A40" font-family="'Verdana'" font-size="11.4583" lengthAdjust="spacing" textLength="115.7471" x="1835.8958" y="319.0991">+result_path: String</text><text fill="#343A40" font-family="'Verdana'" font-size="11.4583" lengthAdjust="spacing" textLength="79.4922" x="1835.8958" y="342.854">+error: String</text><text fill="#343A40" font-family="'Verdana'" font-size="11.4583" lengthAdjust="spacing" textLength="115.4394" x="1835.8958" y="366.6089">+query_json: JSONB</text><text fill="#343A40" font-family="'Verdana'" font-size="11.4583" lengthAdjust="spacing" textLength="134.0256" x="1835.8958" y="390.3637">+created_at: DateTime</text><text fill="#343A40" font-family="'Verdana'" font-size="11.4583" lengthAdjust="spacing" textLength="137.7741" x="1835.8958" y="414.1186">+updated_at: DateTime</text><line style="stroke:#000000;stroke-width:1.0417;" x1="1825.4792" x2="2054.3976" y1="426.196" y2="426.196"/></g><!--class AppSetting--><g class="entity" data-qualified-name="AppSetting" data-source-line="112" id="ent0009"><rect fill="#FFFFFF" height="217.1224" rx="4.1667" ry="4.1667" style="stroke:#000000;stroke-width:1.0417;" width="217.8146" x="1153.9479" y="193.6471"/><ellipse cx="1221.774" cy="210.7329" fill="#EDF0F2" rx="10.4167" ry="10.4167" style="stroke:#BABDBF;stroke-width:1.0417;"/><path d="M1223.6783,215.16 Q1223.2551,215.3716 1222.7831,215.4855 Q1222.3111,215.5994 1221.8065,215.5994 Q1219.9511,215.5994 1218.9745,214.395 Q1218.0142,213.1743 1218.0142,210.8794 Q1218.0142,208.5682 1218.9745,207.3638 Q1219.9511,206.1431 1221.8065,206.1431 Q1222.3111,206.1431 1222.7831,206.257 Q1223.2714,206.3547 1223.6783,206.5825 L1223.6783,208.5845 Q1223.2226,208.1613 1222.7831,207.966 Q1222.3437,207.7544 1221.8879,207.7544 Q1220.8951,207.7544 1220.3905,208.5519 Q1219.886,209.3332 1219.886,210.8794 Q1219.886,212.4093 1220.3905,213.1906 Q1220.8951,213.9718 1221.8879,213.9718 Q1222.3437,213.9718 1222.7831,213.7765 Q1223.2226,213.5812 1223.6783,213.158 L1223.6783,215.16 Z " fill="#2FA4E7"/><text fill="#343A40" font-family="'Verdana'" font-size="11.4583" lengthAdjust="spacing" textLength="63.4125" x="1246.774" y="214.6997">AppSetting</text><line style="stroke:#000000;stroke-width:1.0417;" x1="1154.9896" x2="1370.7209" y1="227.8187" y2="227.8187"/><text fill="#343A40" font-family="'Verdana'" font-size="11.4583" lengthAdjust="spacing" textLength="100.8647" x="1165.4063" y="247.8296">+id: Integer &#171;PK&#187;</text><text fill="#343A40" font-family="'Verdana'" font-size="11.4583" lengthAdjust="spacing" textLength="194.898" x="1165.4063" y="271.5845">+key: String &#171;unique&#187; &#171;required&#187;</text><text fill="#343A40" font-family="'Verdana'" font-size="11.4583" lengthAdjust="spacing" textLength="148.7737" x="1165.4063" y="295.3393">+value: String &#171;required&#187;</text><text fill="#343A40" font-family="'Verdana'" font-size="11.4583" lengthAdjust="spacing" textLength="158.1004" x="1165.4063" y="319.0942">+is_secret: Boolean = false</text><text fill="#343A40" font-family="'Verdana'" font-size="11.4583" lengthAdjust="spacing" textLength="137.7741" x="1165.4063" y="342.8491">+updated_at: DateTime</text><line style="stroke:#000000;stroke-width:1.0417;" x1="1154.9896" x2="1370.7209" y1="354.9264" y2="354.9264"/><text fill="#343A40" font-family="'Verdana'" font-size="11.4583" lengthAdjust="spacing" textLength="99.438" x="1165.4063" y="374.9373">+encrypt_value()</text><text fill="#343A40" font-family="'Verdana'" font-size="11.4583" lengthAdjust="spacing" textLength="141.1479" x="1165.4063" y="398.6922">+decrypt_value(): String</text></g><!--class AppLog--><g class="entity" data-qualified-name="AppLog" data-source-line="123" id="ent0010"><rect fill="#FFFFFF" height="240.8773" rx="4.1667" ry="4.1667" style="stroke:#000000;stroke-width:1.0417;" width="191.8879" x="686.6979" y="1101.918"/><ellipse cx="751.7405" cy="1119.0037" fill="#EDF0F2" rx="10.4167" ry="10.4167" style="stroke:#BABDBF;stroke-width:1.0417;"/><path d="M753.6448,1123.4308 Q753.2217,1123.6424 752.7497,1123.7563 Q752.2776,1123.8703 751.7731,1123.8703 Q749.9176,1123.8703 748.9411,1122.6659 Q747.9808,1121.4451 747.9808,1119.1502 Q747.9808,1116.839 748.9411,1115.6346 Q749.9176,1114.4139 751.7731,1114.4139 Q752.2776,1114.4139 752.7497,1114.5278 Q753.2379,1114.6255 753.6448,1114.8534 L753.6448,1116.8553 Q753.1891,1116.4321 752.7497,1116.2368 Q752.3102,1116.0252 751.8545,1116.0252 Q750.8616,1116.0252 750.3571,1116.8228 Q749.8525,1117.604 749.8525,1119.1502 Q749.8525,1120.6802 750.3571,1121.4614 Q750.8616,1122.2427 751.8545,1122.2427 Q752.3102,1122.2427 752.7497,1122.0474 Q753.1891,1121.8521 753.6448,1121.4289 L753.6448,1123.4308 Z " fill="#2FA4E7"/><text fill="#343A40" font-family="'Verdana'" font-size="11.4583" lengthAdjust="spacing" textLength="43.0527" x="776.7405" y="1122.9705">AppLog</text><line style="stroke:#000000;stroke-width:1.0417;" x1="687.7396" x2="877.5442" y1="1136.0895" y2="1136.0895"/><text fill="#343A40" font-family="'Verdana'" font-size="11.4583" lengthAdjust="spacing" textLength="100.8647" x="698.1563" y="1156.1004">+id: Integer &#171;PK&#187;</text><text fill="#343A40" font-family="'Verdana'" font-size="11.4583" lengthAdjust="spacing" textLength="133.5332" x="698.1563" y="1179.8553">+level: String = "INFO"</text><text fill="#343A40" font-family="'Verdana'" font-size="11.4583" lengthAdjust="spacing" textLength="165.1164" x="698.1563" y="1203.6102">+component: String = "app"</text><text fill="#343A40" font-family="'Verdana'" font-size="11.4583" lengthAdjust="spacing" textLength="168.9713" x="698.1563" y="1227.3651">+message: String &#171;required&#187;</text><text fill="#343A40" font-family="'Verdana'" font-size="11.4583" lengthAdjust="spacing" textLength="136.9237" x="698.1563" y="1251.1199">+feed_source_id: String</text><text fill="#343A40" font-family="'Verdana'" font-size="11.4583" lengthAdjust="spacing" textLength="86.7208" x="698.1563" y="1274.8748">+run_id: String</text><text fill="#343A40" font-family="'Verdana'" font-size="11.4583" lengthAdjust="spacing" textLength="108.7423" x="698.1563" y="1298.6297">+metadata: JSONB</text><text fill="#343A40" font-family="'Verdana'" font-size="11.4583" lengthAdjust="spacing" textLength="134.0256" x="698.1563" y="1322.3846">+created_at: DateTime</text><line style="stroke:#000000;stroke-width:1.0417;" x1="687.7396" x2="877.5442" y1="1334.4619" y2="1334.4619"/></g><g class="entity" data-qualified-name="GMN16" data-source-line="142" id="ent0017"><path d="M581.2188,259.5846 L581.2188,298.043 L545.4063,302.2096 L581.2188,306.3763 L581.2188,344.8385 A4.1667,4.1667 0 0 0 585.3854,349.0052 L825.7317,349.0052 A4.1667,4.1667 0 0 0 829.8984,344.8385 L829.8984,265.8346 L819.4817,255.418 L585.3854,255.418 A4.1667,4.1667 0 0 0 581.2188,259.5846" fill="none" style="stroke:#033C73;stroke-width:1.0417;"/><path d="M819.4817,255.418 L819.4817,263.7513 A2.0833,2.0833 0 0 0 821.565,265.8346 L829.8984,265.8346 L819.4817,255.418" fill="none" style="stroke:#033C73;stroke-width:1.0417;"/><text fill="#033C73" font-family="'Verdana'" font-size="12.5" lengthAdjust="spacing" textLength="153.3875" x="592.6771" y="277.4374">Core entity representing</text><text fill="#033C73" font-family="'Verdana'" font-size="12.5" lengthAdjust="spacing" textLength="209.8938" x="592.6771" y="291.9882">an IOC (Indicator of Compromise)</text><text fill="#033C73" font-family="'Verdana'" font-size="12.5" lengthAdjust="spacing" textLength="3.9734" x="592.6771" y="306.539">&#160;</text><text fill="#033C73" font-family="'Verdana'" font-size="12.5" lengthAdjust="spacing" textLength="216.3879" x="592.6771" y="321.0898">Types: ip, domain, url, hash, email</text><text fill="#033C73" font-family="'Verdana'" font-size="12.5" lengthAdjust="spacing" textLength="209.3628" x="592.6771" y="335.6405">TLP: WHITE, GREEN, AMBER, RED</text></g><g class="entity" data-qualified-name="GMN19" data-source-line="150" id="ent0020"><path d="M530.0313,781.7201 L530.0313,805.6263 L493.5938,809.793 L530.0313,813.9596 L530.0313,837.8724 A4.1667,4.1667 0 0 0 534.1979,842.0391 L714.4246,842.0391 A4.1667,4.1667 0 0 0 718.5912,837.8724 L718.5912,787.9701 L708.1746,777.5534 L534.1979,777.5534 A4.1667,4.1667 0 0 0 530.0313,781.7201" fill="none" style="stroke:#033C73;stroke-width:1.0417;"/><path d="M708.1746,777.5534 L708.1746,785.8867 A2.0833,2.0833 0 0 0 710.2579,787.9701 L718.5912,787.9701 L708.1746,777.5534" fill="none" style="stroke:#033C73;stroke-width:1.0417;"/><text fill="#033C73" font-family="'Verdana'" font-size="12.5" lengthAdjust="spacing" textLength="156.2683" x="541.4896" y="799.5728">Async job queue for feed</text><text fill="#033C73" font-family="'Verdana'" font-size="12.5" lengthAdjust="spacing" textLength="129.4678" x="541.4896" y="814.1236">synchronization with</text><text fill="#033C73" font-family="'Verdana'" font-size="12.5" lengthAdjust="spacing" textLength="133.606" x="541.4896" y="828.6744">idempotency support</text></g><g class="entity" data-qualified-name="GMN22" data-source-line="156" id="ent0023"><path d="M1407.7188,274.1367 L1407.7188,298.043 L1372.0625,302.2096 L1407.7188,306.3763 L1407.7188,330.2891 A4.1667,4.1667 0 0 0 1411.8854,334.4557 L1572.1536,334.4557 A4.1667,4.1667 0 0 0 1576.3202,330.2891 L1576.3202,280.3867 L1565.9036,269.9701 L1411.8854,269.9701 A4.1667,4.1667 0 0 0 1407.7188,274.1367" fill="none" style="stroke:#033C73;stroke-width:1.0417;"/><path d="M1565.9036,269.9701 L1565.9036,278.3034 A2.0833,2.0833 0 0 0 1567.9869,280.3867 L1576.3202,280.3867 L1565.9036,269.9701" fill="none" style="stroke:#033C73;stroke-width:1.0417;"/><text fill="#033C73" font-family="'Verdana'" font-size="12.5" lengthAdjust="spacing" textLength="136.3098" x="1419.1771" y="291.9895">Encrypted storage for</text><text fill="#033C73" font-family="'Verdana'" font-size="12.5" lengthAdjust="spacing" textLength="128.4485" x="1419.1771" y="306.5403">feed credentials and</text><text fill="#033C73" font-family="'Verdana'" font-size="12.5" lengthAdjust="spacing" textLength="82.9163" x="1419.1771" y="321.0911">configuration</text></g><!--link Feed to SyncJob--><g class="link" data-entity-1="ent0004" data-entity-2="ent0003" data-link-type="association" data-source-line="135" id="lnk11"><path codeLine="135" d="M908.2604,458.5326 C890.8438,480.8346 870.8125,501.6159 848.2708,517.668 C722.3125,607.3555 650.1563,537.1367 511.8125,606.2096 C505.7188,609.2513 499.6458,612.4492 493.5833,615.793" fill="none" id="Feed-SyncJob" style="stroke:#000000;stroke-width:3.125;"/><polygon fill="#343A40" points="791.7187,563.9208,799.6349,563.538,797.898,558.9581,791.7187,563.9208" style="stroke:#343A40;stroke-width:1.0417;"/><text fill="#343A40" font-family="'Verdana'" font-size="12.5" lengthAdjust="spacing" textLength="63.1409" x="810.1979" y="566.7708">generates</text><text fill="#343A40" font-family="'Verdana'" font-size="12.5" lengthAdjust="spacing" textLength="7.9529" x="891.2903" y="483.5203">1</text><text fill="#343A40" font-family="'Verdana'" font-size="12.5" lengthAdjust="spacing" textLength="22.1497" x="507.1361" y="601.9037">0..*</text></g><!--link Feed to FeedStats--><g class="link" data-entity-1="ent0004" data-entity-2="ent0005" data-link-type="association" data-source-line="136" id="lnk12"><path codeLine="136" d="M951.9792,458.6992 C935.0104,524.5638 915.3646,600.8346 898.75,665.3346" fill="none" id="Feed-FeedStats" style="stroke:#000000;stroke-width:3.125;"/><polygon fill="#343A40" points="930.0439,566.4783,934.2959,559.79,929.5525,558.5681,930.0439,566.4783" style="stroke:#343A40;stroke-width:1.0417;"/><text fill="#343A40" font-family="'Verdana'" font-size="12.5" lengthAdjust="spacing" textLength="38.324" x="945.6667" y="566.7708">tracks</text><text fill="#343A40" font-family="'Verdana'" font-size="12.5" lengthAdjust="spacing" textLength="7.9529" x="937.2785" y="483.167">1</text><text fill="#343A40" font-family="'Verdana'" font-size="12.5" lengthAdjust="spacing" textLength="23.8525" x="871.8242" y="649.1728">0..1</text></g><!--link Feed to FeedRun--><g class="link" data-entity-1="ent0004" data-entity-2="ent0006" data-link-type="association" data-source-line="137" id="lnk13"><path codeLine="137" d="M1031.7396,458.6992 C1049.6042,528.6263 1070.4688,610.2826 1087.5521,677.1367" fill="none" id="Feed-FeedRun" style="stroke:#000000;stroke-width:3.125;"/><polygon fill="#343A40" points="1065.6773,566.4803,1066.1842,558.5711,1061.4385,559.7837,1065.6773,566.4803" style="stroke:#343A40;stroke-width:1.0417;"/><text fill="#343A40" font-family="'Verdana'" font-size="12.5" lengthAdjust="spacing" textLength="56.6772" x="1079.2292" y="566.7708">executes</text><text fill="#343A40" font-family="'Verdana'" font-size="12.5" lengthAdjust="spacing" textLength="7.9529" x="1020.653" y="483.167">1</text><text fill="#343A40" font-family="'Verdana'" font-size="12.5" lengthAdjust="spacing" textLength="22.1497" x="1057.4436" y="661.2063">0..*</text></g><!--link Feed to AppLog--><g class="link" data-entity-1="ent0004" data-entity-2="ent0010" data-link-type="association" data-source-line="138" id="lnk14"><path codeLine="138" d="M1086.8125,458.7096 C1102.1042,479.418 1118.5938,499.6888 1135.7708,517.668 C1181.5,565.543 1225.75,547.1055 1255.5625,606.2096 C1337.0521,767.7826 1354.4688,861.8346 1255.5625,1013.3763 C1172.2188,1141.0534 991.0208,1190.8555 878.6875,1209.9076" fill="none" id="Feed-AppLog" style="stroke:#000000;stroke-width:3.125;"/><polygon fill="#343A40" points="1326.4188,814.3129,1330.7915,807.7029,1326.0711,806.3951,1326.4188,814.3129" style="stroke:#343A40;stroke-width:1.0417;"/><text fill="#343A40" font-family="'Verdana'" font-size="12.5" lengthAdjust="spacing" textLength="25.5676" x="1342.1146" y="814.6249">logs</text><text fill="#343A40" font-family="'Verdana'" font-size="12.5" lengthAdjust="spacing" textLength="7.9529" x="1078.2214" y="483.1779">1</text><text fill="#343A40" font-family="'Verdana'" font-size="12.5" lengthAdjust="spacing" textLength="22.1497" x="892.145" y="1201.0034">0..*</text></g><!--link SyncJob to AppLog--><g class="link" data-entity-1="ent0003" data-entity-2="ent0010" data-link-type="association" data-source-line="139" id="lnk15"><path codeLine="139" d="M493.8333,999.3451 C499.8854,1004.0742 505.8854,1008.7617 511.8125,1013.3763 C569.4479,1058.2721 634.3646,1108.1367 686.1875,1147.7826" fill="none" id="SyncJob-AppLog" style="stroke:#000000;stroke-width:3.125;"/><polygon fill="#343A40" points="585.9133,1060.6972,581.4421,1054.1534,578.4497,1058.0312,585.9133,1060.6972" style="stroke:#343A40;stroke-width:1.0417;"/><text fill="#343A40" font-family="'Verdana'" font-size="12.5" lengthAdjust="spacing" textLength="46.4661" x="597.1979" y="1062.4791">creates</text><text fill="#343A40" font-family="'Verdana'" font-size="12.5" lengthAdjust="spacing" textLength="7.9529" x="507.1614" y="998.0411">1</text><text fill="#343A40" font-family="'Verdana'" font-size="12.5" lengthAdjust="spacing" textLength="22.1497" x="650.8452" y="1134.3161">0..*</text></g><?plantuml-src hLVVKzj837xFNw7Bom4NUlIXBndAJ83qBZqAdOIPFdeMMucth7VTNIqbBVU_dzPs4ZjnVj0vO2P1qbhIzqbQ-JTACKE8qNg5GfyQJqfgxBX7gNDXHGQn4iuDYAnyy8IZsEY9_85mjcu2Fpl0FvSYVfnPutLoPPIny2MLX8LcOAtvNWel5LkLviOcQElIVpiTagGGHdTNS9zQ50GZJQYKdA6E4IPedoH_diAroOJKyCaag3gTCegHJcGiY1zNnlE7JFh5-HbQE3___C_5HIb_4ifZ7oQSc9wnnk8tBoqc2ptDyrrgPxoDznj4mNrfKuePlwbCGYAhiDx3kxFAgSgNZtmFtIz_Z-w7tIeF5ucOv1EVkpGcaCKMP3rM9yNCzU56EZelprTXP4WY4IJwy75oTtjP2gVIEeeSekx3jI2ybrdr6CQmNH478Z291ArhV9wqQqvFgz1Cn9pGqJ7h-NEP3Zxd0R0Whp8Av9SqJkOw_cWUzf7urJpK46QLr_ARnukB5aAco45kiDB6l9KpTXGrAe3Po8JsGYteI33B3J6Hy-WHvqsI7GdohdwMW_AOl5YlDKjUd8zZTEvbAgHYSIou7bGK0a57Im6hAc_8lMERFYmwhoZwwenkSBkTA8xAjckcKakNxk8m4_Ongg8_Egx9gaoEod1AXklwCiEZHWB7YmoATACoMNxgalqFJDK-wjkOtC5-PRwdgnFfSYNcaHRPBhC7uJ3oLZKP4PxIXeFASyp8ydIDOXkeMjN4oPzlty59-RlWMOi7XgkznNdA8JMLKw7ShpLe0-i9rwix3F3NJpmo95Ga5tFPrUTUDVRAmRRRHkf3h8hvLIRSEjgcI74QDVjpGztIRUjZj07VsEjzu1qyVBZ73gxfWmRLvYogsdZxQ2bGu7XZliQf1UJN3f8bM0EVIBenitre1QPhlRAPEMhU4UOjpLOfQW-kUi0nJkkLAVD890bFhb19jyFx7JTcQtSjyne-vyRI_trVPRIhsRPSCTt6xP0BIjS0sgIR3zhvQowItGDbaESJ90fHxK6ZTc_kXcBVhiRBX4EEbxRCnhqh2b_ZTfvJL3XQt6y9DeHBqEgP7b3C2fzGrOaQtNwuwowsGLuYD6ggwqMUTnUbw9oOxSgyVQwqZP9VAExVOOnAX5PqgSnTfxYMks-x31jqpzwyEUakzxG-y7AEbWyxkDWmv6-hQwRFLnel-crs9ztbFEq3FcFisv_7TXNsVL1c5amMWMonAbCCXXtDMnlmv4m9p7Jrli1GN1cBK4uGi9Xp3uL_2kYueiBxoD7gzOBFNZ5xrcJIOQWO_hldUSGzAVCU9CMxIGzuI-X1AbpQ0sI92bOtd_jGhFOz-6iy7DxsOF3fSZZkmNXutK6TG0XnFT0gGJu_SFmLU9H0qV8mvMX27R0gQ59UC-IFWZRuBYbbSMrP1UVpCAos-bcrBnySbdt1w3lEcKinE6DvS1SmJG90t6UCJt1VlDpCl2sShppy1m00?></g></svg>