<?xml version="1.0" encoding="us-ascii" standalone="no"?><svg xmlns="http://www.w3.org/2000/svg" xmlns:xlink="http://www.w3.org/1999/xlink" contentStyleType="text/css" height="2195.8333px" preserveAspectRatio="none" style="width:572px;height:2195px;" version="1.1" viewBox="0 0 572 2195" width="572.9167px" zoomAndPan="magnify"><defs/><g><rect fill="none" height="51.2916" id="_title" rx="4.1667" ry="4.1667" style="stroke:#BABDBF;stroke-width:1.0416666666666667;" width="462.5" x="53.9063" y="20.8333"/><text fill="#2FA4E7" font-family="Verdana" font-size="20.8333" font-weight="bold" lengthAdjust="spacing" textLength="439.5833" x="65.3646" y="54.5625">IOC Service - Indicator Ingestion Workflow</text><ellipse cx="176.5625" cy="94" fill="#033C73" rx="10.4167" ry="10.4167" style="stroke:#2683B9;stroke-width:1.0416666666666667;"/><rect fill="none" height="39.9418" rx="4.1667" ry="4.1667" style="stroke:#2FA4E7;stroke-width:1.0416666666666667;" width="159.375" x="96.875" y="125.25"/><text fill="#2FA4E7" font-family="Verdana" font-size="12.5" lengthAdjust="spacing" textLength="136.4583" x="108.3333" y="150.0709">Scheduler triggers sync</text><rect fill="none" height="39.9418" rx="4.1667" ry="4.1667" style="stroke:#2FA4E7;stroke-width:1.0416666666666667;" width="159.375" x="96.875" y="186.0251"/><text fill="#2FA4E7" font-family="Verdana" font-size="12.5" lengthAdjust="spacing" textLength="136.4583" x="108.3333" y="210.846">Check idempotency key</text><rect fill="none" height="39.9418" rx="4.1667" ry="4.1667" style="stroke:#2FA4E7;stroke-width:1.0416666666666667;" width="103.125" x="125" y="306.9088"/><text fill="#2FA4E7" font-family="Verdana" font-size="12.5" lengthAdjust="spacing" textLength="80.2083" x="136.4583" y="331.7297">Skip duplicate</text><ellipse cx="176.5625" cy="385.1234" fill="none" rx="11.4583" ry="11.4583" style="stroke:#2683B9;stroke-width:1.0416666666666667;"/><ellipse cx="176.5625" cy="385.1234" fill="none" rx="6.25" ry="6.25" style="stroke:#2683B9;stroke-width:1.0416666666666667;"/><polygon fill="none" points="141.6667,246.9961,211.4583,246.9961,223.9583,260.717,211.4583,274.4379,141.6667,274.4379,129.1667,260.717,141.6667,246.9961" style="stroke:#BABDBF;stroke-width:1.0416666666666667;"/><text fill="#343A40" font-family="Verdana" font-size="12.5" lengthAdjust="spacing" textLength="20.8333" x="185.9375" y="293.0088">Yes</text><text fill="#BABDBF" font-family="Verdana" font-size="12.5" lengthAdjust="spacing" textLength="59.375" x="146.875" y="265.5671">Job exists?</text><text fill="#343A40" font-family="Verdana" font-size="12.5" lengthAdjust="spacing" textLength="16.6667" x="229.1667" y="251.8462">No</text><rect fill="none" height="39.9418" rx="4.1667" ry="4.1667" style="stroke:#2FA4E7;stroke-width:1.0416666666666667;" width="152.0833" x="100.5208" y="440.3318"/><text fill="#2FA4E7" font-family="Verdana" font-size="12.5" lengthAdjust="spacing" textLength="129.1667" x="111.9792" y="465.1527">Create SyncJob record</text><rect fill="none" height="39.9418" rx="4.1667" ry="4.1667" style="stroke:#2FA4E7;stroke-width:1.0416666666666667;" width="138.5417" x="107.2917" y="501.1069"/><text fill="#2FA4E7" font-family="Verdana" font-size="12.5" lengthAdjust="spacing" textLength="115.625" x="118.75" y="525.9278">Mark job as running</text><rect fill="none" height="39.9418" rx="4.1667" ry="4.1667" style="stroke:#2FA4E7;stroke-width:1.0416666666666667;" width="145.8333" x="103.6458" y="561.882"/><text fill="#2FA4E7" font-family="Verdana" font-size="12.5" lengthAdjust="spacing" textLength="122.9167" x="115.1042" y="586.7029">Acquire advisory lock</text><rect fill="none" height="415.7987" rx="4.1667" ry="4.1667" style="stroke:#2FA4E7;stroke-width:1.0416666666666667;" width="201.0417" x="82.2917" y="612.2404"/><path d="M208.3333,612.2404 L208.3333,632.3906 L197.9167,642.8072 L82.2917,642.8072 " fill="none" style="stroke:#2FA4E7;stroke-width:1.0416666666666667;"/><text fill="#2FA4E7" font-family="Verdana" font-size="12.5" lengthAdjust="spacing" textLength="105.2083" x="90.625" y="631.853">External API Fetch</text><rect fill="none" height="39.9418" rx="4.1667" ry="4.1667" style="stroke:#2FA4E7;stroke-width:1.0416666666666667;" width="159.375" x="96.875" y="660.5156"/><text fill="#2FA4E7" font-family="Verdana" font-size="12.5" lengthAdjust="spacing" textLength="136.4583" x="108.3333" y="685.3365">Fetch from external API</text><rect fill="none" height="39.9418" rx="4.1667" ry="4.1667" style="stroke:#2FA4E7;stroke-width:1.0416666666666667;" width="77.0833" x="138.0208" y="781.3993"/><text fill="#2FA4E7" font-family="Verdana" font-size="12.5" lengthAdjust="spacing" textLength="54.1667" x="149.4792" y="806.2202">Log error</text><rect fill="none" height="39.9418" rx="4.1667" ry="4.1667" style="stroke:#2FA4E7;stroke-width:1.0416666666666667;" width="126.0417" x="113.5417" y="842.1744"/><text fill="#2FA4E7" font-family="Verdana" font-size="12.5" lengthAdjust="spacing" textLength="103.125" x="125" y="866.9953">Mark job as failed</text><rect fill="none" height="39.9418" rx="4.1667" ry="4.1667" style="stroke:#2FA4E7;stroke-width:1.0416666666666667;" width="146.875" x="103.125" y="908.9307"/><text fill="#2FA4E7" font-family="Verdana" font-size="12.5" lengthAdjust="spacing" textLength="123.9583" x="114.5833" y="933.7516">Release advisory lock</text><ellipse cx="176.5625" cy="981.1641" fill="none" rx="11.4583" ry="11.4583" style="stroke:#2683B9;stroke-width:1.0416666666666667;"/><ellipse cx="176.5625" cy="981.1641" fill="none" rx="6.25" ry="6.25" style="stroke:#2683B9;stroke-width:1.0416666666666667;"/><polygon fill="none" points="121.3542,721.4866,231.7708,721.4866,244.2708,735.2075,231.7708,748.9284,121.3542,748.9284,108.8542,735.2075,121.3542,721.4866" style="stroke:#BABDBF;stroke-width:1.0416666666666667;"/><text fill="#343A40" font-family="Verdana" font-size="12.5" lengthAdjust="spacing" textLength="16.6667" x="185.9375" y="767.4993">No</text><text fill="#BABDBF" font-family="Verdana" font-size="12.5" lengthAdjust="spacing" textLength="100" x="126.5625" y="740.0575">Fetch successful?</text><text fill="#343A40" font-family="Verdana" font-size="12.5" lengthAdjust="spacing" textLength="20.8333" x="249.4792" y="726.3366">Yes</text><rect fill="none" height="648.9476" rx="4.1667" ry="4.1667" style="stroke:#2FA4E7;stroke-width:1.0416666666666667;" width="550.5208" x="11.4583" y="1038.4558"/><path d="M95.8333,1038.4558 L95.8333,1058.6059 L85.4167,1069.0226 L11.4583,1069.0226 " fill="none" style="stroke:#2FA4E7;stroke-width:1.0416666666666667;"/><text fill="#2FA4E7" font-family="Verdana" font-size="12.5" lengthAdjust="spacing" textLength="63.5417" x="19.7917" y="1058.0684">Processing</text><rect fill="none" height="39.9418" rx="4.1667" ry="4.1667" style="stroke:#2FA4E7;stroke-width:1.0416666666666667;" width="145.8333" x="103.6458" y="1086.7309"/><text fill="#2FA4E7" font-family="Verdana" font-size="12.5" lengthAdjust="spacing" textLength="122.9167" x="115.1042" y="1111.5518">Parse JSON response</text><rect fill="none" height="39.9418" rx="4.1667" ry="4.1667" style="stroke:#2FA4E7;stroke-width:1.0416666666666667;" width="117.7083" x="117.7083" y="1216.1105"/><text fill="#2FA4E7" font-family="Verdana" font-size="12.5" lengthAdjust="spacing" textLength="94.7917" x="129.1667" y="1240.9314">Normalize value</text><rect fill="none" height="39.9418" rx="4.1667" ry="4.1667" style="stroke:#2FA4E7;stroke-width:1.0416666666666667;" width="271.875" x="40.625" y="1276.8856"/><text fill="#2FA4E7" font-family="Verdana" font-size="12.5" lengthAdjust="spacing" textLength="248.9583" x="52.0833" y="1301.7065">Determine type (ip/domain/url/hash/email)</text><path d="M253.125,1338.7024 L253.125,1353.465 L232.2917,1357.6316 L253.125,1361.7983 L253.125,1376.5609 A0,0 0 0 0 253.125,1376.5609 L456.25,1376.5609 A0,0 0 0 0 456.25,1376.5609 L456.25,1349.1191 L445.8333,1338.7024 L253.125,1338.7024 A0,0 0 0 0 253.125,1338.7024 " fill="none" style="stroke:#033C73;stroke-width:1.0416666666666667;"/><path d="M445.8333,1338.7024 L445.8333,1349.1191 L456.25,1349.1191 L445.8333,1338.7024 " fill="none" style="stroke:#033C73;stroke-width:1.0416666666666667;"/><text fill="#033C73" font-family="Verdana" font-size="12.5" lengthAdjust="spacing" textLength="170.8333" x="264.5833" y="1362.4817">CrowdSec always TLP:AMBER</text><rect fill="none" height="39.9418" rx="4.1667" ry="4.1667" style="stroke:#2FA4E7;stroke-width:1.0416666666666667;" width="111.4583" x="120.8333" y="1337.6607"/><text fill="#2FA4E7" font-family="Verdana" font-size="12.5" lengthAdjust="spacing" textLength="88.5417" x="132.2917" y="1362.4817">Apply TLP rules</text><rect fill="none" height="39.9418" rx="4.1667" ry="4.1667" style="stroke:#2FA4E7;stroke-width:1.0416666666666667;" width="143.75" x="104.6875" y="1398.4359"/><text fill="#2FA4E7" font-family="Verdana" font-size="12.5" lengthAdjust="spacing" textLength="120.8333" x="116.1458" y="1423.2568">Calculate confidence</text><rect fill="none" height="39.9418" rx="4.1667" ry="4.1667" style="stroke:#2FA4E7;stroke-width:1.0416666666666667;" width="83.3333" x="134.8958" y="1459.211"/><text fill="#2FA4E7" font-family="Verdana" font-size="12.5" lengthAdjust="spacing" textLength="60.4167" x="146.3542" y="1484.0319">Apply tags</text><rect fill="none" height="142.4173" rx="4.1667" ry="4.1667" style="stroke:#2FA4E7;stroke-width:1.0416666666666667;" width="428.125" x="104.6875" y="1509.5694"/><path d="M224.4792,1509.5694 L224.4792,1529.7195 L214.0625,1540.1362 L104.6875,1540.1362 " fill="none" style="stroke:#2FA4E7;stroke-width:1.0416666666666667;"/><text fill="#2FA4E7" font-family="Verdana" font-size="12.5" lengthAdjust="spacing" textLength="98.9583" x="113.0208" y="1529.182">Database Upsert</text><path d="M258.8542,1550.5529 L258.8542,1590.8531 L238.0208,1595.0198 L258.8542,1599.1865 L258.8542,1639.4867 A0,0 0 0 0 258.8542,1639.4867 L522.3958,1639.4867 A0,0 0 0 0 522.3958,1639.4867 L522.3958,1560.9695 L511.9792,1550.5529 L258.8542,1550.5529 A0,0 0 0 0 258.8542,1550.5529 " fill="none" style="stroke:#033C73;stroke-width:1.0416666666666667;"/><path d="M511.9792,1550.5529 L511.9792,1560.9695 L522.3958,1560.9695 L511.9792,1550.5529 " fill="none" style="stroke:#033C73;stroke-width:1.0416666666666667;"/><text fill="#033C73" font-family="Verdana" font-size="12.5" lengthAdjust="spacing" textLength="231.25" x="270.3125" y="1574.3321">ON CONFLICT (value, source, source_id)</text><text fill="#033C73" font-family="Verdana" font-size="12.5" lengthAdjust="spacing" textLength="95.8333" x="270.3125" y="1591.3573">DO UPDATE SET</text><text fill="#033C73" font-family="Verdana" font-size="12.5" lengthAdjust="spacing" textLength="109.375" x="276.5625" y="1608.3824">last_seen = NOW(),</text><text fill="#033C73" font-family="Verdana" font-size="12.5" lengthAdjust="spacing" textLength="93.75" x="276.5625" y="1625.4075">is_active = TRUE</text><rect fill="none" height="39.9418" rx="4.1667" ry="4.1667" style="stroke:#2FA4E7;stroke-width:1.0416666666666667;" width="122.9167" x="115.1042" y="1575.0489"/><text fill="#2FA4E7" font-family="Verdana" font-size="12.5" lengthAdjust="spacing" textLength="100" x="126.5625" y="1599.8698">UPSERT indicator</text><polygon fill="none" points="119.2708,1147.702,233.8542,1147.702,246.3542,1161.4228,233.8542,1175.1437,119.2708,1175.1437,106.7708,1161.4228,119.2708,1147.702" style="stroke:#BABDBF;stroke-width:1.0416666666666667;"/><text fill="#343A40" font-family="Verdana" font-size="12.5" lengthAdjust="spacing" textLength="31.25" x="185.9375" y="1193.7147">more</text><text fill="#BABDBF" font-family="Verdana" font-size="12.5" lengthAdjust="spacing" textLength="104.1667" x="124.4792" y="1166.2729">For each indicator</text><text fill="#343A40" font-family="Verdana" font-size="12.5" lengthAdjust="spacing" textLength="29.1667" x="72.3958" y="1152.552">done</text><rect fill="none" height="125.3921" rx="4.1667" ry="4.1667" style="stroke:#2FA4E7;stroke-width:1.0416666666666667;" width="381.25" x="69.2708" y="1697.82"/><path d="M138.0208,1697.82 L138.0208,1717.9701 L127.6042,1728.3868 L69.2708,1728.3868 " fill="none" style="stroke:#2FA4E7;stroke-width:1.0416666666666667;"/><text fill="#2FA4E7" font-family="Verdana" font-size="12.5" lengthAdjust="spacing" textLength="47.9167" x="77.6042" y="1717.4326">Cleanup</text><path d="M294.2708,1738.8035 L294.2708,1770.5912 L273.4375,1774.7578 L294.2708,1778.9245 L294.2708,1810.7122 A0,0 0 0 0 294.2708,1810.7122 L440.1042,1810.7122 A0,0 0 0 0 440.1042,1810.7122 L440.1042,1749.2201 L429.6875,1738.8035 L294.2708,1738.8035 A0,0 0 0 0 294.2708,1738.8035 " fill="none" style="stroke:#033C73;stroke-width:1.0416666666666667;"/><path d="M429.6875,1738.8035 L429.6875,1749.2201 L440.1042,1749.2201 L429.6875,1738.8035 " fill="none" style="stroke:#033C73;stroke-width:1.0416666666666667;"/><text fill="#033C73" font-family="Verdana" font-size="12.5" lengthAdjust="spacing" textLength="113.5417" x="305.7292" y="1762.5827">Set is_active=FALSE</text><text fill="#033C73" font-family="Verdana" font-size="12.5" lengthAdjust="spacing" textLength="112.5" x="305.7292" y="1779.6079">for indicators not in</text><text fill="#033C73" font-family="Verdana" font-size="12.5" lengthAdjust="spacing" textLength="75" x="305.7292" y="1796.633">current fetch</text><rect fill="none" height="39.9418" rx="4.1667" ry="4.1667" style="stroke:#2FA4E7;stroke-width:1.0416666666666667;" width="193.75" x="79.6875" y="1754.7869"/><text fill="#2FA4E7" font-family="Verdana" font-size="12.5" lengthAdjust="spacing" textLength="170.8333" x="91.1458" y="1779.6079">Deactivate missing indicators</text><rect fill="none" height="125.3921" rx="4.1667" ry="4.1667" style="stroke:#2FA4E7;stroke-width:1.0416666666666667;" width="301.0417" x="102.0833" y="1833.6288"/><path d="M175,1833.6288 L175,1853.779 L164.5833,1864.1956 L102.0833,1864.1956 " fill="none" style="stroke:#2FA4E7;stroke-width:1.0416666666666667;"/><text fill="#2FA4E7" font-family="Verdana" font-size="12.5" lengthAdjust="spacing" textLength="52.0833" x="110.4167" y="1853.2414">Statistics</text><path d="M261.4583,1874.6123 L261.4583,1906.4 L240.625,1910.5666 L261.4583,1914.7333 L261.4583,1946.521 A0,0 0 0 0 261.4583,1946.521 L392.7083,1946.521 A0,0 0 0 0 392.7083,1946.521 L392.7083,1885.029 L382.2917,1874.6123 L261.4583,1874.6123 A0,0 0 0 0 261.4583,1874.6123 " fill="none" style="stroke:#033C73;stroke-width:1.0416666666666667;"/><path d="M382.2917,1874.6123 L382.2917,1885.029 L392.7083,1885.029 L382.2917,1874.6123 " fill="none" style="stroke:#033C73;stroke-width:1.0416666666666667;"/><text fill="#033C73" font-family="Verdana" font-size="12.5" lengthAdjust="spacing" textLength="87.5" x="272.9167" y="1898.3915">Update counts,</text><text fill="#033C73" font-family="Verdana" font-size="12.5" lengthAdjust="spacing" textLength="98.9583" x="272.9167" y="1915.4167">last_fetch_status,</text><text fill="#033C73" font-family="Verdana" font-size="12.5" lengthAdjust="spacing" textLength="56.25" x="272.9167" y="1932.4418">metadata</text><rect fill="none" height="39.9418" rx="4.1667" ry="4.1667" style="stroke:#2FA4E7;stroke-width:1.0416666666666667;" width="128.125" x="112.5" y="1890.5957"/><text fill="#2FA4E7" font-family="Verdana" font-size="12.5" lengthAdjust="spacing" textLength="105.2083" x="123.9583" y="1915.4167">Update feed_stats</text><rect fill="none" height="39.9418" rx="4.1667" ry="4.1667" style="stroke:#2FA4E7;stroke-width:1.0416666666666667;" width="139.5833" x="106.7708" y="1979.8543"/><text fill="#2FA4E7" font-family="Verdana" font-size="12.5" lengthAdjust="spacing" textLength="116.6667" x="118.2292" y="2004.6752">Mark job as success</text><rect fill="none" height="39.9418" rx="4.1667" ry="4.1667" style="stroke:#2FA4E7;stroke-width:1.0416666666666667;" width="146.875" x="103.125" y="2040.6294"/><text fill="#2FA4E7" font-family="Verdana" font-size="12.5" lengthAdjust="spacing" textLength="123.9583" x="114.5833" y="2065.4504">Release advisory lock</text><rect fill="none" height="39.9418" rx="4.1667" ry="4.1667" style="stroke:#2FA4E7;stroke-width:1.0416666666666667;" width="111.4583" x="120.8333" y="2101.4045"/><text fill="#2FA4E7" font-family="Verdana" font-size="12.5" lengthAdjust="spacing" textLength="88.5417" x="132.2917" y="2126.2255">Log completion</text><ellipse cx="176.5625" cy="2173.638" fill="none" rx="11.4583" ry="11.4583" style="stroke:#2683B9;stroke-width:1.0416666666666667;"/><ellipse cx="176.5625" cy="2173.638" fill="none" rx="6.25" ry="6.25" style="stroke:#2683B9;stroke-width:1.0416666666666667;"/><line style="stroke:#2FA4E7;stroke-width:3.125;" x1="176.5625" x2="176.5625" y1="104.4166" y2="125.25"/><polygon fill="#2FA4E7" points="172.3958,114.8333,176.5625,125.25,180.7292,114.8333,176.5625,119" style="stroke:#2FA4E7;stroke-width:1.0416666666666667;"/><line style="stroke:#2FA4E7;stroke-width:3.125;" x1="176.5625" x2="176.5625" y1="165.1918" y2="186.0251"/><polygon fill="#2FA4E7" points="172.3958,175.6084,176.5625,186.0251,180.7292,175.6084,176.5625,179.7751" style="stroke:#2FA4E7;stroke-width:1.0416666666666667;"/><line style="stroke:#2FA4E7;stroke-width:3.125;" x1="176.5625" x2="176.5625" y1="346.8506" y2="373.6651"/><polygon fill="#2FA4E7" points="172.3958,363.2484,176.5625,373.6651,180.7292,363.2484,176.5625,367.4151" style="stroke:#2FA4E7;stroke-width:1.0416666666666667;"/><line style="stroke:#2FA4E7;stroke-width:3.125;" x1="176.5625" x2="176.5625" y1="274.4379" y2="306.9088"/><polygon fill="#2FA4E7" points="172.3958,296.4921,176.5625,306.9088,180.7292,296.4921,176.5625,300.6588" style="stroke:#2FA4E7;stroke-width:1.0416666666666667;"/><line style="stroke:#2FA4E7;stroke-width:3.125;" x1="223.9583" x2="238.5417" y1="260.717" y2="260.717"/><polygon fill="#2FA4E7" points="234.375,342.4151,238.5417,352.8318,242.7083,342.4151,238.5417,346.5818" style="stroke:#2FA4E7;stroke-width:3.125;"/><line style="stroke:#2FA4E7;stroke-width:3.125;" x1="238.5417" x2="238.5417" y1="260.717" y2="419.4984"/><line style="stroke:#2FA4E7;stroke-width:3.125;" x1="238.5417" x2="176.5625" y1="419.4984" y2="419.4984"/><line style="stroke:#2FA4E7;stroke-width:3.125;" x1="176.5625" x2="176.5625" y1="419.4984" y2="440.3318"/><polygon fill="#2FA4E7" points="172.3958,429.9151,176.5625,440.3318,180.7292,429.9151,176.5625,434.0818" style="stroke:#2FA4E7;stroke-width:1.0416666666666667;"/><line style="stroke:#2FA4E7;stroke-width:3.125;" x1="176.5625" x2="176.5625" y1="225.9669" y2="246.9961"/><polygon fill="#2FA4E7" points="172.3958,236.5795,176.5625,246.9961,180.7292,236.5795,176.5625,240.7461" style="stroke:#2FA4E7;stroke-width:1.0416666666666667;"/><line style="stroke:#2FA4E7;stroke-width:3.125;" x1="176.5625" x2="176.5625" y1="480.2735" y2="501.1069"/><polygon fill="#2FA4E7" points="172.3958,490.6902,176.5625,501.1069,180.7292,490.6902,176.5625,494.8569" style="stroke:#2FA4E7;stroke-width:1.0416666666666667;"/><line style="stroke:#2FA4E7;stroke-width:3.125;" x1="176.5625" x2="176.5625" y1="541.0487" y2="561.882"/><polygon fill="#2FA4E7" points="172.3958,551.4653,176.5625,561.882,180.7292,551.4653,176.5625,555.632" style="stroke:#2FA4E7;stroke-width:1.0416666666666667;"/><line style="stroke:#2FA4E7;stroke-width:3.125;" x1="176.5625" x2="176.5625" y1="821.3411" y2="842.1744"/><polygon fill="#2FA4E7" points="172.3958,831.7577,176.5625,842.1744,180.7292,831.7577,176.5625,835.9244" style="stroke:#2FA4E7;stroke-width:1.0416666666666667;"/><line style="stroke:#2FA4E7;stroke-width:3.125;" x1="176.5625" x2="176.5625" y1="882.1162" y2="908.9307"/><polygon fill="#2FA4E7" points="172.3958,898.514,176.5625,908.9307,180.7292,898.514,176.5625,902.6807" style="stroke:#2FA4E7;stroke-width:1.0416666666666667;"/><line style="stroke:#2FA4E7;stroke-width:3.125;" x1="176.5625" x2="176.5625" y1="948.8725" y2="969.7058"/><polygon fill="#2FA4E7" points="172.3958,959.2891,176.5625,969.7058,180.7292,959.2891,176.5625,963.4558" style="stroke:#2FA4E7;stroke-width:1.0416666666666667;"/><line style="stroke:#2FA4E7;stroke-width:3.125;" x1="176.5625" x2="176.5625" y1="748.9284" y2="781.3993"/><polygon fill="#2FA4E7" points="172.3958,770.9826,176.5625,781.3993,180.7292,770.9826,176.5625,775.1493" style="stroke:#2FA4E7;stroke-width:1.0416666666666667;"/><line style="stroke:#2FA4E7;stroke-width:3.125;" x1="244.2708" x2="260.4167" y1="735.2075" y2="735.2075"/><polygon fill="#2FA4E7" points="256.25,877.6807,260.4167,888.0973,264.5833,877.6807,260.4167,881.8473" style="stroke:#2FA4E7;stroke-width:3.125;"/><line style="stroke:#2FA4E7;stroke-width:3.125;" x1="260.4167" x2="260.4167" y1="735.2075" y2="1015.5391"/><line style="stroke:#2FA4E7;stroke-width:3.125;" x1="260.4167" x2="176.5625" y1="1015.5391" y2="1015.5391"/><line style="stroke:#2FA4E7;stroke-width:3.125;" x1="176.5625" x2="176.5625" y1="1015.5391" y2="1086.7309"/><polygon fill="#2FA4E7" points="172.3958,1076.3143,176.5625,1086.7309,180.7292,1076.3143,176.5625,1080.4809" style="stroke:#2FA4E7;stroke-width:1.0416666666666667;"/><line style="stroke:#2FA4E7;stroke-width:3.125;" x1="176.5625" x2="176.5625" y1="700.4574" y2="721.4866"/><polygon fill="#2FA4E7" points="172.3958,711.0699,176.5625,721.4866,180.7292,711.0699,176.5625,715.2366" style="stroke:#2FA4E7;stroke-width:1.0416666666666667;"/><line style="stroke:#2FA4E7;stroke-width:3.125;" x1="176.5625" x2="176.5625" y1="601.8238" y2="660.5156"/><polygon fill="#2FA4E7" points="172.3958,650.0989,176.5625,660.5156,180.7292,650.0989,176.5625,654.2656" style="stroke:#2FA4E7;stroke-width:1.0416666666666667;"/><line style="stroke:#2FA4E7;stroke-width:3.125;" x1="176.5625" x2="176.5625" y1="1256.0523" y2="1276.8856"/><polygon fill="#2FA4E7" points="172.3958,1266.469,176.5625,1276.8856,180.7292,1266.469,176.5625,1270.6356" style="stroke:#2FA4E7;stroke-width:1.0416666666666667;"/><line style="stroke:#2FA4E7;stroke-width:3.125;" x1="176.5625" x2="176.5625" y1="1316.8274" y2="1337.6607"/><polygon fill="#2FA4E7" points="172.3958,1327.2441,176.5625,1337.6607,180.7292,1327.2441,176.5625,1331.4107" style="stroke:#2FA4E7;stroke-width:1.0416666666666667;"/><line style="stroke:#2FA4E7;stroke-width:3.125;" x1="176.5625" x2="176.5625" y1="1377.6025" y2="1398.4359"/><polygon fill="#2FA4E7" points="172.3958,1388.0192,176.5625,1398.4359,180.7292,1388.0192,176.5625,1392.1859" style="stroke:#2FA4E7;stroke-width:1.0416666666666667;"/><line style="stroke:#2FA4E7;stroke-width:3.125;" x1="176.5625" x2="176.5625" y1="1438.3776" y2="1459.211"/><polygon fill="#2FA4E7" points="172.3958,1448.7943,176.5625,1459.211,180.7292,1448.7943,176.5625,1452.961" style="stroke:#2FA4E7;stroke-width:1.0416666666666667;"/><line style="stroke:#2FA4E7;stroke-width:3.125;" x1="176.5625" x2="176.5625" y1="1499.1528" y2="1575.0489"/><polygon fill="#2FA4E7" points="172.3958,1564.6322,176.5625,1575.0489,180.7292,1564.6322,176.5625,1568.7989" style="stroke:#2FA4E7;stroke-width:1.0416666666666667;"/><line style="stroke:#2FA4E7;stroke-width:3.125;" x1="176.5625" x2="176.5625" y1="1175.1437" y2="1216.1105"/><polygon fill="#2FA4E7" points="172.3958,1205.6938,176.5625,1216.1105,180.7292,1205.6938,176.5625,1209.8605" style="stroke:#2FA4E7;stroke-width:1.0416666666666667;"/><line style="stroke:#2FA4E7;stroke-width:3.125;" x1="176.5625" x2="176.5625" y1="1614.9907" y2="1662.4034"/><line style="stroke:#2FA4E7;stroke-width:3.125;" x1="176.5625" x2="545.3125" y1="1662.4034" y2="1662.4034"/><polygon fill="#2FA4E7" points="541.1458,1422.8423,545.3125,1412.4256,549.4792,1422.8423,545.3125,1418.6756" style="stroke:#2FA4E7;stroke-width:3.125;"/><line style="stroke:#2FA4E7;stroke-width:3.125;" x1="545.3125" x2="545.3125" y1="1161.4228" y2="1662.4034"/><line style="stroke:#2FA4E7;stroke-width:3.125;" x1="545.3125" x2="246.3542" y1="1161.4228" y2="1161.4228"/><polygon fill="#2FA4E7" points="256.7708,1157.2562,246.3542,1161.4228,256.7708,1165.5895,252.6042,1161.4228" style="stroke:#2FA4E7;stroke-width:1.0416666666666667;"/><line style="stroke:#2FA4E7;stroke-width:3.125;" x1="106.7708" x2="28.125" y1="1161.4228" y2="1161.4228"/><polygon fill="#2FA4E7" points="23.9583,1413.4673,28.125,1423.8839,32.2917,1413.4673,28.125,1417.6339" style="stroke:#2FA4E7;stroke-width:3.125;"/><line style="stroke:#2FA4E7;stroke-width:3.125;" x1="28.125" x2="28.125" y1="1161.4228" y2="1680.1117"/><line style="stroke:#2FA4E7;stroke-width:3.125;" x1="28.125" x2="176.5625" y1="1680.1117" y2="1680.1117"/><line style="stroke:#2FA4E7;stroke-width:3.125;" x1="176.5625" x2="176.5625" y1="1680.1117" y2="1754.7869"/><polygon fill="#2FA4E7" points="172.3958,1744.3703,176.5625,1754.7869,180.7292,1744.3703,176.5625,1748.5369" style="stroke:#2FA4E7;stroke-width:1.0416666666666667;"/><line style="stroke:#2FA4E7;stroke-width:3.125;" x1="176.5625" x2="176.5625" y1="1126.6727" y2="1147.702"/><polygon fill="#2FA4E7" points="172.3958,1137.2853,176.5625,1147.702,180.7292,1137.2853,176.5625,1141.452" style="stroke:#2FA4E7;stroke-width:1.0416666666666667;"/><line style="stroke:#2FA4E7;stroke-width:3.125;" x1="176.5625" x2="176.5625" y1="1794.7287" y2="1890.5957"/><polygon fill="#2FA4E7" points="172.3958,1880.1791,176.5625,1890.5957,180.7292,1880.1791,176.5625,1884.3457" style="stroke:#2FA4E7;stroke-width:1.0416666666666667;"/><line style="stroke:#2FA4E7;stroke-width:3.125;" x1="176.5625" x2="176.5625" y1="1930.5375" y2="1979.8543"/><polygon fill="#2FA4E7" points="172.3958,1969.4376,176.5625,1979.8543,180.7292,1969.4376,176.5625,1973.6043" style="stroke:#2FA4E7;stroke-width:1.0416666666666667;"/><line style="stroke:#2FA4E7;stroke-width:3.125;" x1="176.5625" x2="176.5625" y1="2019.7961" y2="2040.6294"/><polygon fill="#2FA4E7" points="172.3958,2030.2128,176.5625,2040.6294,180.7292,2030.2128,176.5625,2034.3794" style="stroke:#2FA4E7;stroke-width:1.0416666666666667;"/><line style="stroke:#2FA4E7;stroke-width:3.125;" x1="176.5625" x2="176.5625" y1="2080.5712" y2="2101.4045"/><polygon fill="#2FA4E7" points="172.3958,2090.9879,176.5625,2101.4045,180.7292,2090.9879,176.5625,2095.1545" style="stroke:#2FA4E7;stroke-width:1.0416666666666667;"/><line style="stroke:#2FA4E7;stroke-width:3.125;" x1="176.5625" x2="176.5625" y1="2141.3463" y2="2162.1797"/><polygon fill="#2FA4E7" points="172.3958,2151.763,176.5625,2162.1797,180.7292,2151.763,176.5625,2155.9297" style="stroke:#2FA4E7;stroke-width:1.0416666666666667;"/><!--SRC=[TLHDRnen4BtlhvZc158Zxg2eea0a8WA81KKz8SSxoxfuxQq_8BJAV-_OWLqGu0DWpupdlUV7V7C5bWWSZPV8rAFsJWg5IUA4amZZsG1ID3l14HvXh3B1cTE6VctGEg4Ll6cppQNU9ubrpBWawQQym8nkC-2Cs6pGMB07nNiK6XJ8jo0oB2ljKF43RF500P53wqM_0tu8w-oFDX0g1QrVQDi9qEgcMr51vYiP-cCl7bgdgmIbHMXDTJj10fU77WOf1L9g6QuqoBN9UadtbPaj_AOJPi5ufOJQ14Xz_iSBWy2odR3Q741glgL0HMH4PFWm-d1e59FGdu_X6Hql7k3V5wwuWzpeah0tMLy0uqUWzfLbFUTeRUxbDS661XnNTw8tWCPeqslEpZdaJ4ZCpe8Bf1UqLqnEyIXNx1M5-hoWE3SwO2DDQcfpPkYobtGs9GrjfPN5CrhxWheJC_82CY8dJjPeWx3GAhN1CovJRKecnL-47PCUpq0FaLGhoN7W3XLTAAfEfaicLCSRsIcOBJf8MzbkQfhYVbN90omdSmZkjKsA8dS1cQzmzL5O0wFtMOeScDopWmsLtVxhpz6YpY9jOl6DPWCckPV1Mbohd3oiEDu7vTZ6teYUIJvaZhs7zrfL5eqxwLxVivgdeyMo4RPt4Rx3C2nwiC5i-ZmP3vRGYdf_1wkzuVNtMcJjgxBX35RpONyvWdIql8e2I6RTsYBPzWccixTM-_kD967NZ3knGqfQBbQZYvGhSJzFVZowATEAN7Ffp44OIxwgRJd4s22yGocYOnk9ZehVq2P5rs1xUkvFqWPQJXvkhWZLjAsZt1k3oa4U_iF91OrBeAbZZgQNuBR6kggoW3D7pDOq7TrzVCTChhrojX4sQXuxntf_5YhHCQfXLv0kXiHnvj3ukpCTufZXkgma1XgzCCPfJlm7]--></g></svg>