<?plantuml 1.2026.2?><svg xmlns="http://www.w3.org/2000/svg" xmlns:xlink="http://www.w3.org/1999/xlink" contentStyleType="text/css" data-diagram-type="DESCRIPTION" height="1239.5833px" preserveAspectRatio="none" style="width:2420px;height:1239px;" version="1.1" viewBox="0 0 2420 1239" width="2420.8333px" zoomAndPan="magnify"><title>IOC Threat Intelligence Service - Deployment Diagram</title><defs/><g><g class="title" data-source-line="5"><rect fill="none" height="47.168" rx="4.1667" ry="4.1667" style="stroke:#BABDBF;stroke-width:1.0417;" width="659.7982" x="876.1163" y="20.8333"/><text fill="#2FA4E7" font-family="'Verdana'" font-size="20.8333" font-weight="bold" lengthAdjust="spacing" textLength="636.8815" x="887.5747" y="51.6296">IOC Threat Intelligence Service - Deployment Diagram</text></g><!--cluster DockerHost--><g class="cluster" data-qualified-name="DockerHost" data-source-line="7" id="ent0002"><polygon fill="none" points="27.0833,96.1263,37.5,85.7096,1671.875,85.7096,1671.875,1041.668,1661.4583,1052.0846,27.0833,1052.0846,27.0833,96.1263" style="stroke:#2FA4E7;stroke-width:1.0417;"/><line style="stroke:#2FA4E7;stroke-width:1.0417;" x1="1661.4583" x2="1671.875" y1="96.1263" y2="85.7096"/><line style="stroke:#2FA4E7;stroke-width:1.0417;" x1="27.0833" x2="1661.4583" y1="96.1263" y2="96.1263"/><line style="stroke:#2FA4E7;stroke-width:1.0417;" x1="1661.4583" x2="1661.4583" y1="96.1263" y2="1052.0846"/><text fill="#343A40" font-family="'Verdana'" font-size="12.5" font-weight="bold" lengthAdjust="spacing" textLength="86.145" x="802.24" y="116.0624">Docker Host</text></g><!--cluster Nginx--><g class="cluster" data-qualified-name="DockerHost.Nginx" data-source-line="9" id="ent0003"><polygon fill="none" points="845.8333,161.7513,856.25,151.3346,1055.2083,151.3346,1055.2083,323.1159,1044.7917,333.5326,845.8333,333.5326,845.8333,161.7513" style="stroke:#2FA4E7;stroke-width:1.0417;"/><line style="stroke:#2FA4E7;stroke-width:1.0417;" x1="1044.7917" x2="1055.2083" y1="161.7513" y2="151.3346"/><line style="stroke:#2FA4E7;stroke-width:1.0417;" x1="845.8333" x2="1044.7917" y1="161.7513" y2="161.7513"/><line style="stroke:#2FA4E7;stroke-width:1.0417;" x1="1044.7917" x2="1044.7917" y1="161.7513" y2="333.5326"/><text fill="#343A40" font-family="'Verdana'" font-size="12.5" font-style="italic" lengthAdjust="spacing" textLength="74.6582" x="909.0251" y="181.6874">&#171;container&#187;</text><text fill="#343A40" font-family="'Verdana'" font-size="12.5" font-weight="bold" lengthAdjust="spacing" textLength="79.9194" x="906.3944" y="206.6549">Nginx Edge</text></g><!--cluster App--><g class="cluster" data-qualified-name="DockerHost.App" data-source-line="13" id="ent0005"><polygon fill="none" points="60.4167,385.6159,70.8333,375.1992,472.9167,375.1992,472.9167,678.2409,462.5,688.6576,60.4167,688.6576,60.4167,385.6159" style="stroke:#2FA4E7;stroke-width:1.0417;"/><line style="stroke:#2FA4E7;stroke-width:1.0417;" x1="462.5" x2="472.9167" y1="385.6159" y2="375.1992"/><line style="stroke:#2FA4E7;stroke-width:1.0417;" x1="60.4167" x2="462.5" y1="385.6159" y2="385.6159"/><line style="stroke:#2FA4E7;stroke-width:1.0417;" x1="462.5" x2="462.5" y1="385.6159" y2="688.6576"/><text fill="#343A40" font-family="'Verdana'" font-size="12.5" font-style="italic" lengthAdjust="spacing" textLength="74.6582" x="225.1709" y="405.552">&#171;container&#187;</text><text fill="#343A40" font-family="'Verdana'" font-size="12.5" font-weight="bold" lengthAdjust="spacing" textLength="68.9331" x="228.0334" y="430.5194">Flask App</text></g><!--cluster Worker--><g class="cluster" data-qualified-name="DockerHost.Worker" data-source-line="20" id="ent0010"><polygon fill="none" points="777.0833,538.7096,787.5,528.293,1240.625,528.293,1240.625,883.418,1230.2083,893.8346,777.0833,893.8346,777.0833,538.7096" style="stroke:#2FA4E7;stroke-width:1.0417;"/><line style="stroke:#2FA4E7;stroke-width:1.0417;" x1="1230.2083" x2="1240.625" y1="538.7096" y2="528.293"/><line style="stroke:#2FA4E7;stroke-width:1.0417;" x1="777.0833" x2="1230.2083" y1="538.7096" y2="538.7096"/><line style="stroke:#2FA4E7;stroke-width:1.0417;" x1="1230.2083" x2="1230.2083" y1="538.7096" y2="893.8346"/><text fill="#343A40" font-family="'Verdana'" font-size="12.5" font-style="italic" lengthAdjust="spacing" textLength="74.6582" x="967.3584" y="558.6458">&#171;container&#187;</text><text fill="#343A40" font-family="'Verdana'" font-size="12.5" font-weight="bold" lengthAdjust="spacing" textLength="139.978" x="934.6985" y="583.6132">Background Worker</text></g><!--cluster Postgres--><g class="cluster" data-qualified-name="DockerHost.Postgres" data-source-line="27" id="ent0015"><path d="M364.5833,740.7409 C364.5833,730.3242 550,730.3242 550,730.3242 C550,730.3242 735.4167,730.3242 735.4167,740.7409 L735.4167,1008.3346 C735.4167,1018.7513 550,1018.7513 550,1018.7513 C550,1018.7513 364.5833,1018.7513 364.5833,1008.3346 L364.5833,740.7409" fill="none" style="stroke:#2FA4E7;stroke-width:1.0417;"/><path d="M364.5833,740.7409 C364.5833,751.1576 550,751.1576 550,751.1576 C550,751.1576 735.4167,751.1576 735.4167,740.7409" fill="none" style="stroke:#2FA4E7;stroke-width:1.0417;"/><text fill="#2FA4E7" font-family="'Verdana'" font-size="12.5" font-style="italic" lengthAdjust="spacing" textLength="74.6582" x="512.6709" y="770.052">&#171;container&#187;</text><text fill="#2FA4E7" font-family="'Verdana'" font-size="12.5" font-weight="bold" lengthAdjust="spacing" textLength="104.0955" x="497.9523" y="795.0194">PostgreSQL 16</text></g><!--cluster Redis--><g class="cluster" data-qualified-name="DockerHost.Redis" data-source-line="33" id="ent0019"><rect fill="none" height="272.8021" rx="36.4583" ry="36.4583" style="stroke:#2FA4E7;stroke-width:1.0417;" width="356.25" x="1282.2917" y="745.9492"/><text fill="#DD5600" font-family="'Verdana'" font-size="12.5" font-style="italic" lengthAdjust="spacing" textLength="74.6582" x="1423.0876" y="767.9687">&#171;container&#187;</text><text fill="#DD5600" font-family="'Verdana'" font-size="12.5" font-weight="bold" lengthAdjust="spacing" textLength="51.825" x="1434.5042" y="795.0194">Redis 7</text></g><!--cluster Migrate--><g class="cluster" data-qualified-name="DockerHost.Migrate" data-source-line="39" id="ent0023"><polygon fill="none" points="514.5833,538.7096,525,528.293,735.4167,528.293,735.4167,670.9596,725,681.3763,514.5833,681.3763,514.5833,538.7096" style="stroke:#2FA4E7;stroke-width:1.0417;"/><line style="stroke:#2FA4E7;stroke-width:1.0417;" x1="725" x2="735.4167" y1="538.7096" y2="528.293"/><line style="stroke:#2FA4E7;stroke-width:1.0417;" x1="514.5833" x2="725" y1="538.7096" y2="538.7096"/><line style="stroke:#2FA4E7;stroke-width:1.0417;" x1="725" x2="725" y1="538.7096" y2="681.3763"/><text fill="#343A40" font-family="'Verdana'" font-size="12.5" font-style="italic" lengthAdjust="spacing" textLength="74.6582" x="583.5042" y="558.6458">&#171;container&#187;</text><text fill="#343A40" font-family="'Verdana'" font-size="12.5" font-weight="bold" lengthAdjust="spacing" textLength="111.0413" x="565.3127" y="583.6132">Migrate Service</text></g><!--cluster External--><g class="cluster" data-qualified-name="External" data-source-line="44" id="ent0025"><path d="M1723.143,785.5081 C1734.6658,766.5297 1748.1873,767.3982 1760.8199,784.3442 C1770.4233,765.6085 1781.7492,768.6773 1793.7451,781.8776 C1803.3789,765.6449 1814.5763,767.0975 1823.7727,782.2955 C1831.2135,761.4832 1848.8185,758.8885 1861.6272,777.0867 C1871.75,760.347 1887.3141,761.6542 1894.4604,779.8814 C1904.2267,764.1764 1914.7806,757.9029 1929.0942,775.0939 C1938.0716,761.7267 1950.6989,757.1294 1960.8998,773.7983 C1973.0697,758.979 1987.5731,758.7052 1994.768,778.6456 C2004.4402,761.5833 2016.698,761.2356 2027.1293,777.9176 C2036.5149,762.0004 2051.295,763.2816 2060.0846,778.5474 C2071.9064,765.323 2082.5906,764.4892 2093.5934,779.5186 C2104.4306,761.555 2121.591,763.1179 2132.9037,778.9658 C2146.8201,763.0899 2156.99,767.5142 2166.4626,783.6277 C2177.0128,767.342 2194.169,770.9946 2202.0833,786.5742 C2205.9294,785.3349 2207.1979,787.4291 2206.8115,790.8596 C2224.7583,797.4279 2223.8862,814.5148 2210.8937,824.8038 C2230.3508,834.1866 2231.3739,850.4656 2216.4452,864.6403 C2232.7412,875.8437 2235.21,888.377 2217.0444,900.1617 C2230.9498,914.146 2230.6119,930.7769 2210.4243,938.941 C2228.4287,953.3567 2227.6054,964.7016 2207.4745,976.0891 C2225.8318,997.1898 2220.0941,1009.899 2194.7917,1017.6888 C2197.9095,1016.0284 2201.0777,1017.3837 2200.653,1021.3675 C2191.967,1039.1855 2174.1589,1039.7811 2162.3553,1025.0339 C2152.2698,1040.1947 2142.3993,1041.4303 2131.1602,1026.2187 C2118.4852,1041.448 2104.7251,1041.845 2095.1424,1022.9545 C2085.5971,1038.8234 2073.9606,1038.6728 2062.5542,1025.0081 C2053.4516,1039.5346 2042.3414,1039.7159 2030.8764,1027.8429 C2019.5336,1045.6459 2006.4228,1044.3102 1994.9134,1028.0186 C1986.8205,1047.3667 1970.8484,1047.9884 1958.135,1032.9623 C1946.8696,1050.0816 1935.8466,1046.4689 1925.1178,1032.3944 C1917.1115,1046.1824 1902.6593,1044.6836 1896.1148,1030.8589 C1882.1316,1046.8183 1868.3234,1042.4669 1859.4263,1025.2367 C1851.6925,1041.8795 1837.9769,1041.9581 1827.3672,1028.2772 C1814.825,1045.1419 1804.2551,1042.6463 1792.7957,1027.1215 C1779.9153,1043.1653 1768.0843,1041.683 1759.8018,1022.7804 C1739.3925,1043.6237 1721.6788,1035.399 1713.5417,1010.3971 C1716.1137,1008.8502 1717.7075,1009.7739 1718.0846,1012.6511 C1699.1488,999.5712 1700.901,987.8056 1717.954,974.6021 C1697.7018,967.47 1694.7808,949.9033 1712.4512,937.1929 C1697.8482,922.8342 1698.134,910.2787 1716.174,899.1112 C1696.4638,889.3444 1695.0493,873.9065 1713.6393,861.5547 C1698.4208,850.3783 1701.2935,836.3339 1717.1697,828.4762 C1691.4369,809.3879 1697.8177,794.7404 1720.8333,779.2826 C1724.5304,780.3238 1725.4771,782.2294 1723.143,785.5081" fill="none" style="stroke:#2FA4E7;stroke-width:1.0417;"/><text fill="#343A40" font-family="'Verdana'" font-size="12.5" font-weight="bold" lengthAdjust="spacing" textLength="94.1162" x="1910.7544" y="801.302">External APIs</text></g><!--entity TLSEdge--><g class="entity" data-qualified-name="DockerHost.Nginx.TLSEdge" data-source-line="10" id="ent0004"><rect fill="none" height="74.9023" rx="4.1667" ry="4.1667" style="stroke:#2FA4E7;stroke-width:1.0417;" width="138.5803" x="871.3333" y="233.6263"/><text fill="#2FA4E7" font-family="'Verdana'" font-size="12.5" lengthAdjust="spacing" textLength="101.2329" x="886.9583" y="260.8541">TLS 1.2+/HTTP2</text><text fill="#2FA4E7" font-family="'Verdana'" font-size="12.5" lengthAdjust="spacing" textLength="83.2275" x="886.9583" y="275.4049">Rate Limiting</text><text fill="#2FA4E7" font-family="'Verdana'" font-size="12.5" lengthAdjust="spacing" textLength="107.3303" x="886.9583" y="289.9556">Security Headers</text></g><!--entity Gunicorn--><g class="entity" data-qualified-name="DockerHost.App.Gunicorn" data-source-line="14" id="ent0006"><rect fill="none" height="45.8008" rx="4.1667" ry="4.1667" style="stroke:#2FA4E7;stroke-width:1.0417;" width="125.4761" x="98.7188" y="457.4909"/><text fill="#2FA4E7" font-family="'Verdana'" font-size="12.5" lengthAdjust="spacing" textLength="94.2261" x="114.3438" y="484.7187">Gunicorn WSGI</text></g><!--entity Flask--><g class="entity" data-qualified-name="DockerHost.App.Flask" data-source-line="15" id="ent0007"><rect fill="none" height="45.8008" rx="4.1667" ry="4.1667" style="stroke:#2FA4E7;stroke-width:1.0417;" width="167.0044" x="260.25" y="457.4909"/><text fill="#2FA4E7" font-family="'Verdana'" font-size="12.5" lengthAdjust="spacing" textLength="135.7544" x="275.875" y="484.7187">Flask App + Admin UI</text></g><!--entity JobCtrl--><g class="entity" data-qualified-name="DockerHost.App.JobCtrl" data-source-line="16" id="ent0008"><rect fill="none" height="60.3516" rx="4.1667" ry="4.1667" style="stroke:#2FA4E7;stroke-width:1.0417;" width="161.8286" x="85.75" y="603.3034"/><text fill="#2FA4E7" font-family="'Verdana'" font-size="12.5" lengthAdjust="spacing" textLength="102.8015" x="101.375" y="630.5312">Sync Job Control</text><text fill="#2FA4E7" font-family="'Verdana'" font-size="12.5" lengthAdjust="spacing" textLength="130.5786" x="101.375" y="645.0819">(retry/cancel/details)</text></g><!--entity Metrics--><g class="entity" data-qualified-name="DockerHost.App.Metrics" data-source-line="17" id="ent0009"><rect fill="none" height="45.8008" rx="4.1667" ry="4.1667" style="stroke:#2FA4E7;stroke-width:1.0417;" width="155.7373" x="283.5938" y="610.5846"/><text fill="#2FA4E7" font-family="'Verdana'" font-size="12.5" lengthAdjust="spacing" textLength="124.4873" x="299.2188" y="637.8124">Prometheus Metrics</text></g><!--entity Scheduler--><g class="entity" data-qualified-name="DockerHost.Worker.Scheduler" data-source-line="21" id="ent0011"><rect fill="none" height="45.8008" rx="4.1667" ry="4.1667" style="stroke:#2FA4E7;stroke-width:1.0417;" width="138.8611" x="805.5729" y="610.5846"/><text fill="#2FA4E7" font-family="'Verdana'" font-size="12.5" lengthAdjust="spacing" textLength="107.6111" x="821.1979" y="637.8124">Schedule Service</text></g><!--entity Processor--><g class="entity" data-qualified-name="DockerHost.Worker.Processor" data-source-line="22" id="ent0012"><rect fill="none" height="45.8008" rx="4.1667" ry="4.1667" style="stroke:#2FA4E7;stroke-width:1.0417;" width="171.0876" x="981.125" y="610.5846"/><text fill="#2FA4E7" font-family="'Verdana'" font-size="12.5" lengthAdjust="spacing" textLength="139.8376" x="996.75" y="637.8124">Sync Queue Processor</text></g><!--entity DepRefresh--><g class="entity" data-qualified-name="DockerHost.Worker.DepRefresh" data-source-line="23" id="ent0013"><rect fill="none" height="45.8008" rx="4.1667" ry="4.1667" style="stroke:#2FA4E7;stroke-width:1.0417;" width="153.5339" x="802.3958" y="823.0326"/><text fill="#2FA4E7" font-family="'Verdana'" font-size="12.5" lengthAdjust="spacing" textLength="122.2839" x="818.0208" y="850.2603">Dep Health Refresh</text></g><!--entity CorrRefresh--><g class="entity" data-qualified-name="DockerHost.Worker.CorrRefresh" data-source-line="24" id="ent0014"><rect fill="none" height="45.8008" rx="4.1667" ry="4.1667" style="stroke:#2FA4E7;stroke-width:1.0417;" width="215.094" x="992.4479" y="823.0326"/><text fill="#2FA4E7" font-family="'Verdana'" font-size="12.5" lengthAdjust="spacing" textLength="183.844" x="1008.0729" y="850.2603">Correlation Snapshot Refresh</text></g><!--entity IndicatorsDB--><g class="entity" data-qualified-name="DockerHost.Postgres.IndicatorsDB" data-source-line="28" id="ent0016"><rect fill="none" height="45.8008" rx="4.1667" ry="4.1667" style="stroke:#2FA4E7;stroke-width:1.0417;" width="115.1733" x="389.2917" y="823.0326"/><text fill="#2FA4E7" font-family="'Verdana'" font-size="12.5" lengthAdjust="spacing" textLength="83.9233" x="404.9167" y="850.2603">Indicators DB</text></g><!--entity Trgm--><g class="entity" data-qualified-name="DockerHost.Postgres.Trgm" data-source-line="29" id="ent0017"><rect fill="none" height="45.8008" rx="4.1667" ry="4.1667" style="stroke:#2FA4E7;stroke-width:1.0417;" width="148.6511" x="541.3021" y="823.0326"/><text fill="#2FA4E7" font-family="'Verdana'" font-size="12.5" lengthAdjust="spacing" textLength="117.4011" x="556.9271" y="850.2603">pg_trgm extension</text></g><!--entity JSONB--><g class="entity" data-qualified-name="DockerHost.Postgres.JSONB" data-source-line="30" id="ent0018"><rect fill="none" height="45.8008" rx="4.1667" ry="4.1667" style="stroke:#2FA4E7;stroke-width:1.0417;" width="127.1362" x="389.5521" y="947.9492"/><text fill="#2FA4E7" font-family="'Verdana'" font-size="12.5" lengthAdjust="spacing" textLength="95.8862" x="405.1771" y="975.177">JSONB columns</text></g><!--entity RateLimit--><g class="entity" data-qualified-name="DockerHost.Redis.RateLimit" data-source-line="34" id="ent0020"><rect fill="none" height="45.8008" rx="4.1667" ry="4.1667" style="stroke:#2FA4E7;stroke-width:1.0417;" width="137.9944" x="1307.0417" y="823.0326"/><text fill="#2FA4E7" font-family="'Verdana'" font-size="12.5" lengthAdjust="spacing" textLength="106.7444" x="1322.6667" y="850.2603">Rate Limit Cache</text></g><!--entity QueryCache--><g class="entity" data-qualified-name="DockerHost.Redis.QueryCache" data-source-line="35" id="ent0021"><rect fill="none" height="45.8008" rx="4.1667" ry="4.1667" style="stroke:#2FA4E7;stroke-width:1.0417;" width="112.085" x="1481.4583" y="823.0326"/><text fill="#2FA4E7" font-family="'Verdana'" font-size="12.5" lengthAdjust="spacing" textLength="80.835" x="1497.0833" y="850.2603">Query Cache</text></g><!--entity ExportCache--><g class="entity" data-qualified-name="DockerHost.Redis.ExportCache" data-source-line="36" id="ent0022"><rect fill="none" height="45.8008" rx="4.1667" ry="4.1667" style="stroke:#2FA4E7;stroke-width:1.0417;" width="115.0146" x="1318.5313" y="947.9492"/><text fill="#2FA4E7" font-family="'Verdana'" font-size="12.5" lengthAdjust="spacing" textLength="83.7646" x="1334.1563" y="975.177">Export Cache</text></g><!--entity Alembic--><g class="entity" data-qualified-name="DockerHost.Migrate.Alembic" data-source-line="40" id="ent0024"><rect fill="none" height="45.8008" rx="4.1667" ry="4.1667" style="stroke:#2FA4E7;stroke-width:1.0417;" width="150.8423" x="539.1667" y="610.5846"/><text fill="#2FA4E7" font-family="'Verdana'" font-size="12.5" lengthAdjust="spacing" textLength="119.5923" x="554.7917" y="637.8124">Alembic Migrations</text></g><!--entity CrowdSec--><g class="entity" data-qualified-name="External.CrowdSec" data-source-line="45" id="ent0026"><rect fill="none" height="45.8008" rx="4.1667" ry="4.1667" style="stroke:#2FA4E7;stroke-width:1.0417;" width="117.1692" x="1729.9583" y="823.0326"/><text fill="#2FA4E7" font-family="'Verdana'" font-size="12.5" lengthAdjust="spacing" textLength="85.9192" x="1745.5833" y="850.2603">CrowdSec API</text></g><!--entity MISP--><g class="entity" data-qualified-name="External.MISP" data-source-line="46" id="ent0027"><rect fill="none" height="45.8008" rx="4.1667" ry="4.1667" style="stroke:#2FA4E7;stroke-width:1.0417;" width="118.335" x="1883.5417" y="823.0326"/><text fill="#2FA4E7" font-family="'Verdana'" font-size="12.5" lengthAdjust="spacing" textLength="87.085" x="1899.1667" y="850.2603">MISP Instance</text></g><!--entity Bazaar--><g class="entity" data-qualified-name="External.Bazaar" data-source-line="47" id="ent0028"><rect fill="none" height="45.8008" rx="4.1667" ry="4.1667" style="stroke:#2FA4E7;stroke-width:1.0417;" width="127.1362" x="2038.5104" y="823.0326"/><text fill="#2FA4E7" font-family="'Verdana'" font-size="12.5" lengthAdjust="spacing" textLength="95.8862" x="2054.1354" y="850.2603">MalwareBazaar</text></g><!--entity MWDB--><g class="entity" data-qualified-name="External.MWDB" data-source-line="48" id="ent0029"><rect fill="none" height="45.8008" rx="4.1667" ry="4.1667" style="stroke:#2FA4E7;stroke-width:1.0417;" width="72.5952" x="1752.2396" y="947.9492"/><text fill="#2FA4E7" font-family="'Verdana'" font-size="12.5" lengthAdjust="spacing" textLength="41.3452" x="1767.8646" y="975.177">MWDB</text></g><!--entity AbuseCh--><g class="entity" data-qualified-name="External.AbuseCh" data-source-line="49" id="ent0030"><rect fill="none" height="60.3516" rx="4.1667" ry="4.1667" style="stroke:#2FA4E7;stroke-width:1.0417;" width="188.5803" x="1860.9167" y="940.6784"/><text fill="#2FA4E7" font-family="'Verdana'" font-size="12.5" lengthAdjust="spacing" textLength="56.488" x="1876.5417" y="967.9062">abuse.ch</text><text fill="#2FA4E7" font-family="'Verdana'" font-size="12.5" lengthAdjust="spacing" textLength="157.3303" x="1876.5417" y="982.4569">ThreatFox, URLhaus, etc.</text></g><g class="entity" data-qualified-name="GMN38" data-source-line="63" id="ent0039"><path d="M1688.5208,235.7305 L1688.5208,306.4336 A4.1667,4.1667 0 0 0 1692.6875,310.6003 L1836.4762,310.6003 A4.1667,4.1667 0 0 0 1840.6428,306.4336 L1840.6428,241.9805 L1830.2262,231.5638 L1692.6875,231.5638 A4.1667,4.1667 0 0 0 1688.5208,235.7305" fill="none" style="stroke:#033C73;stroke-width:1.0417;"/><path d="M1830.2262,231.5638 L1830.2262,239.8971 A2.0833,2.0833 0 0 0 1832.3095,241.9805 L1840.6428,241.9805 L1830.2262,231.5638" fill="none" style="stroke:#033C73;stroke-width:1.0417;"/><ellipse cx="1705.7083" cy="248.7188" fill="#033C73" rx="2.6042" ry="2.6042"/><text fill="#033C73" font-family="'Verdana'" font-size="12.5" lengthAdjust="spacing" textLength="56.8604" x="1712.4792" y="253.5833">TLS 1.2+</text><ellipse cx="1705.7083" cy="263.2695" fill="#033C73" rx="2.6042" ry="2.6042"/><text fill="#033C73" font-family="'Verdana'" font-size="12.5" lengthAdjust="spacing" textLength="44.3726" x="1712.4792" y="268.134">HTTP/2</text><ellipse cx="1705.7083" cy="277.8203" fill="#033C73" rx="2.6042" ry="2.6042"/><text fill="#033C73" font-family="'Verdana'" font-size="12.5" lengthAdjust="spacing" textLength="107.3303" x="1712.4792" y="282.6848">Security Headers</text><ellipse cx="1705.7083" cy="292.3711" fill="#033C73" rx="2.6042" ry="2.6042"/><text fill="#033C73" font-family="'Verdana'" font-size="12.5" lengthAdjust="spacing" textLength="83.2275" x="1712.4792" y="297.2356">Rate Limiting</text></g><g class="entity" data-qualified-name="GMN41" data-source-line="70" id="ent0042"><path d="M2239.0104,817.8555 L2239.0104,874.0078 A4.1667,4.1667 0 0 0 2243.1771,878.1745 L2404.7392,878.1745 A4.1667,4.1667 0 0 0 2408.9058,874.0078 L2408.9058,824.1055 L2398.4892,813.6888 L2243.1771,813.6888 A4.1667,4.1667 0 0 0 2239.0104,817.8555" fill="none" style="stroke:#033C73;stroke-width:1.0417;"/><path d="M2398.4892,813.6888 L2398.4892,822.0221 A2.0833,2.0833 0 0 0 2400.5725,824.1055 L2408.9058,824.1055 L2398.4892,813.6888" fill="none" style="stroke:#033C73;stroke-width:1.0417;"/><ellipse cx="2256.1979" cy="830.8438" fill="#033C73" rx="2.6042" ry="2.6042"/><text fill="#033C73" font-family="'Verdana'" font-size="12.5" lengthAdjust="spacing" textLength="125.1038" x="2262.9688" y="835.7083">JSONB for metadata</text><ellipse cx="2256.1979" cy="845.3945" fill="#033C73" rx="2.6042" ry="2.6042"/><text fill="#033C73" font-family="'Verdana'" font-size="12.5" lengthAdjust="spacing" textLength="119.2017" x="2262.9688" y="850.259">pg_trgm for search</text><ellipse cx="2256.1979" cy="859.9453" fill="#033C73" rx="2.6042" ry="2.6042"/><text fill="#033C73" font-family="'Verdana'" font-size="12.5" lengthAdjust="spacing" textLength="120.7336" x="2262.9688" y="864.8098">Connection pooling</text></g><g class="entity" data-qualified-name="GMN44" data-source-line="76" id="ent0045"><path d="M1987.8021,590.8555 L1987.8021,676.1094 A4.1667,4.1667 0 0 0 1991.9688,680.276 L2208.023,680.276 A4.1667,4.1667 0 0 0 2212.1897,676.1094 L2212.1897,597.1055 L2201.773,586.6888 L1991.9688,586.6888 A4.1667,4.1667 0 0 0 1987.8021,590.8555" fill="none" style="stroke:#033C73;stroke-width:1.0417;"/><path d="M2201.773,586.6888 L2201.773,595.0221 A2.0833,2.0833 0 0 0 2203.8564,597.1055 L2212.1897,597.1055 L2201.773,586.6888" fill="none" style="stroke:#033C73;stroke-width:1.0417;"/><ellipse cx="2004.9896" cy="603.8438" fill="#033C73" rx="2.6042" ry="2.6042"/><text fill="#033C73" font-family="'Verdana'" font-size="12.5" lengthAdjust="spacing" textLength="127.594" x="2011.7604" y="608.7083">Scheduled sync jobs</text><ellipse cx="2004.9896" cy="618.3945" fill="#033C73" rx="2.6042" ry="2.6042"/><text fill="#033C73" font-family="'Verdana'" font-size="12.5" lengthAdjust="spacing" textLength="138.208" x="2011.7604" y="623.259">Per-feed idempotency</text><ellipse cx="2004.9896" cy="632.9453" fill="#033C73" rx="2.6042" ry="2.6042"/><text fill="#033C73" font-family="'Verdana'" font-size="12.5" lengthAdjust="spacing" textLength="114.4348" x="2011.7604" y="637.8098">Retry with backoff</text><ellipse cx="2004.9896" cy="647.4961" fill="#033C73" rx="2.6042" ry="2.6042"/><text fill="#033C73" font-family="'Verdana'" font-size="12.5" lengthAdjust="spacing" textLength="162.1216" x="2011.7604" y="652.3606">cancel_requested support</text><ellipse cx="2004.9896" cy="662.0469" fill="#033C73" rx="2.6042" ry="2.6042"/><text fill="#033C73" font-family="'Verdana'" font-size="12.5" lengthAdjust="spacing" textLength="179.5959" x="2011.7604" y="666.9114">periodic dependency refresh</text></g><g class="entity" data-qualified-name="GMN47" data-source-line="84" id="ent0048"><path d="M1688.7188,612.6784 L1688.7188,654.2799 A4.1667,4.1667 0 0 0 1692.8854,658.4466 L1946.696,658.4466 A4.1667,4.1667 0 0 0 1950.8627,654.2799 L1950.8627,618.9284 L1940.446,608.5117 L1692.8854,608.5117 A4.1667,4.1667 0 0 0 1688.7188,612.6784" fill="none" style="stroke:#033C73;stroke-width:1.0417;"/><path d="M1940.446,608.5117 L1940.446,616.8451 A2.0833,2.0833 0 0 0 1942.5294,618.9284 L1950.8627,618.9284 L1940.446,608.5117" fill="none" style="stroke:#033C73;stroke-width:1.0417;"/><text fill="#033C73" font-family="'Verdana'" font-size="12.5" lengthAdjust="spacing" textLength="210.6323" x="1700.1771" y="630.5312">Docker Compose exposes service</text><text fill="#033C73" font-family="'Verdana'" font-size="12.5" lengthAdjust="spacing" textLength="229.8523" x="1700.1771" y="645.0819">on host port 7003 -&gt; container 8080</text></g><!--link Nginx to App--><g class="link" data-entity-1="ent0003" data-entity-2="ent0005" data-link-type="dependency" data-source-line="53" id="lnk31"><path d="M1046.875,333.5988 C1046.875,333.8087 1046.875,334.0185 1046.875,334.2281 C1046.875,335.0668 1046.875,335.9036 1046.875,336.7377 C1046.875,338.4059 1046.875,340.0634 1046.875,341.7042 C1046.875,344.9858 1046.875,348.2006 1046.875,351.3009 C1046.875,357.5013 1046.875,363.2432 1046.875,368.1432 C1046.875,377.9434 1046.875,384.3763 1046.875,384.3763 C1046.875,384.3763 901.3021,384.3763 755.7292,384.3763 C682.9427,384.3763 610.1563,384.3763 555.5664,384.3763 C528.2715,384.3763 505.5257,384.3763 489.6037,384.3763 C485.6232,384.3763 482.0691,384.3763 478.9771,384.3763 C477.4311,384.3763 476.0006,384.3763 474.6901,384.3763 C474.3625,384.3763 480.2923,384.3763 479.9797,384.3763" fill="none" id="Nginx-to-App" style="stroke:#2FA4E7;stroke-width:3.125;"/><polygon fill="#2FA4E7" points="473.7297,384.3763,483.1047,388.543,478.9381,384.3763,483.1047,380.2096,473.7297,384.3763" style="stroke:#2FA4E7;stroke-width:3.125;"/><text fill="#343A40" font-family="'Verdana'" font-size="12.5" lengthAdjust="spacing" textLength="76.5625" x="682.0208" y="376.1874">HTTP/HTTPS</text></g><!--link App to Postgres--><g class="link" data-entity-1="ent0005" data-entity-2="ent0015" data-link-type="dependency" data-source-line="54" id="lnk32"><path d="M473.4275,480.2096 C473.8011,480.2096 474.1855,480.2096 474.5804,480.2096 C476.16,480.2096 477.9083,480.2096 479.8117,480.2096 C487.4254,480.2096 497.5211,480.2096 509.2342,480.2096 C532.6605,480.2096 562.5566,480.2096 592.0065,480.2096 C650.9063,480.2096 708.0208,480.2096 708.0208,480.2096 C708.0208,480.2096 708.0208,571.6159 708.0208,663.0221 C708.0208,685.8737 708.0208,702.4753 708.0208,723.8986" fill="none" id="App-to-Postgres" style="stroke:#2FA4E7;stroke-width:3.125;"/><polygon fill="#2FA4E7" points="708.0208,730.1486,712.1875,720.7736,708.0208,724.9403,703.8542,720.7736,708.0208,730.1486" style="stroke:#2FA4E7;stroke-width:3.125;"/><text fill="#343A40" font-family="'Verdana'" font-size="12.5" lengthAdjust="spacing" textLength="78.8208" x="714.2708" y="542.5833">SQLAlchemy</text></g><!--link App to Redis--><g class="link" data-entity-1="ent0005" data-entity-2="ent0019" data-link-type="dependency" data-source-line="55" id="lnk33"><path d="M473.1546,559.3763 C473.5865,559.3763 474.0341,559.3763 474.4972,559.3763 C475.4236,559.3763 476.4122,559.3763 477.4621,559.3763 C485.8613,559.3763 498.1801,559.3763 513.8586,559.3763 C545.2157,559.3763 590.0114,559.3763 643.7663,559.3763 C751.276,559.3763 894.6224,559.3763 1037.9688,559.3763 C1324.6615,559.3763 1611.3542,559.3763 1611.3542,559.3763 C1611.3542,559.3763 1611.3542,630.9909 1611.3542,702.6055 C1611.3542,711.5573 1611.3542,720.5091 1611.3542,729.3211 C1611.3542,733.727 1611.3542,738.098 1611.3542,742.4166 C1611.3542,743.4962 1611.3542,738.3226 1611.3542,739.3954" fill="none" id="App-to-Redis" style="stroke:#2FA4E7;stroke-width:3.125;"/><polygon fill="#2FA4E7" points="1611.3542,745.6454,1615.5208,736.2704,1611.3542,740.4371,1607.1875,736.2704,1611.3542,745.6454" style="stroke:#2FA4E7;stroke-width:3.125;"/><text fill="#343A40" font-family="'Verdana'" font-size="12.5" lengthAdjust="spacing" textLength="50.592" x="1157.4167" y="551.1874">redis-py</text></g><!--link Worker to Postgres--><g class="link" data-entity-1="ent0010" data-entity-2="ent0015" data-link-type="dependency" data-source-line="56" id="lnk34"><path d="M775.5248,873.9596 C774.914,873.9596 774.3079,873.9596 773.7066,873.9596 C764.0859,873.9596 755.6986,873.9596 748.7915,873.9596 C745.3379,873.9596 742.2544,873.9596 739.5717,873.9596 C738.2304,873.9596 736.9892,873.9596 735.8522,873.9596 C735.71,873.9596 741.8195,873.9596 741.6807,873.9596" fill="none" id="Worker-to-Postgres" style="stroke:#2FA4E7;stroke-width:3.125;"/><polygon fill="#2FA4E7" points="735.4307,873.9596,744.8057,878.1263,740.639,873.9596,744.8057,869.793,735.4307,873.9596" style="stroke:#2FA4E7;stroke-width:3.125;"/><text fill="#343A40" font-family="'Verdana'" font-size="12.5" lengthAdjust="spacing" textLength="78.8208" x="1001.5417" y="891.8124">SQLAlchemy</text></g><!--link Worker to Redis--><g class="link" data-entity-1="ent0010" data-entity-2="ent0019" data-link-type="dependency" data-source-line="57" id="lnk35"><path d="M1241.0498,633.3346 C1241.2942,633.3346 1241.5433,633.3346 1241.7972,633.3346 C1242.3049,633.3346 1242.8315,633.3346 1243.3767,633.3346 C1244.467,633.3346 1245.6315,633.3346 1246.8674,633.3346 C1249.3391,633.3346 1252.0961,633.3346 1255.1159,633.3346 C1267.195,633.3346 1283.4779,633.3346 1302.5169,633.3346 C1340.5951,633.3346 1389.6979,633.3346 1438.2448,633.3346 C1535.3385,633.3346 1630.2083,633.3346 1630.2083,633.3346 C1630.2083,633.3346 1630.2083,683.2148 1630.2083,734.6536 C1630.2083,737.8686 1630.2083,741.0896 1630.2083,744.3049 C1630.2083,744.7068 1630.2083,738.8586 1630.2083,739.2603" fill="none" id="Worker-to-Redis" style="stroke:#2FA4E7;stroke-width:3.125;"/><polygon fill="#2FA4E7" points="1630.2083,745.5103,1634.375,736.1353,1630.2083,740.302,1626.0417,736.1353,1630.2083,745.5103" style="stroke:#2FA4E7;stroke-width:3.125;"/><text fill="#343A40" font-family="'Verdana'" font-size="12.5" lengthAdjust="spacing" textLength="50.592" x="1481.3125" y="625.1458">redis-py</text></g><!--link Worker to External--><g class="link" data-entity-1="ent0010" data-entity-2="ent0025" data-link-type="dependency" data-source-line="58" id="lnk36"><path d="M1241.767,746.8763 C1242.3948,746.8763 1243.0349,746.8763 1243.6871,746.8763 C1248.9052,746.8763 1254.9031,746.8763 1261.6207,746.8763 C1288.491,746.8763 1326.8773,746.8763 1372.9408,746.8763 C1465.0677,746.8763 1587.9036,746.8763 1710.7396,746.8763 C1956.4115,746.8763 2202.0833,746.8763 2202.0833,746.8763 C2202.0833,746.8763 2202.0833,752.5007 2202.0833,761.069 C2202.0833,763.2111 2202.0833,765.5372 2202.0833,768.0054 C2202.0833,768.6225 2202.0833,769.2484 2202.0833,769.8826 C2202.0833,770.1996 2202.0833,764.2688 2202.0833,764.5899" fill="none" id="Worker-to-External" style="stroke:#2FA4E7;stroke-width:3.125;"/><polygon fill="#2FA4E7" points="2202.0833,770.8399,2206.25,761.4649,2202.0833,765.6316,2197.9167,761.4649,2202.0833,770.8399" style="stroke:#2FA4E7;stroke-width:3.125;"/><text fill="#343A40" font-family="'Verdana'" font-size="12.5" lengthAdjust="spacing" textLength="75.1648" x="1615.9063" y="738.6874">HTTPS/JSON</text></g><!--link Migrate to Postgres--><g class="link" data-entity-1="ent0023" data-entity-2="ent0015" data-link-type="dependency" data-source-line="59" id="lnk37"><path d="M727.0833,681.4234 C727.0833,682.7397 727.0833,684.0733 727.0833,685.4228 C727.0833,690.8211 727.0833,696.4752 727.0833,702.3015 C727.0833,708.1277 727.0833,714.1261 727.0833,720.2129 C727.0833,723.2563 727.0833,726.3218 727.0833,729.399 C727.0833,729.5913 727.0833,729.7837 727.0833,729.9761 C727.0833,730.0723 727.0833,723.9185 727.0833,724.0147" fill="none" id="Migrate-to-Postgres" style="stroke:#2FA4E7;stroke-width:3.125;"/><polygon fill="#2FA4E7" points="727.0833,730.2647,731.25,720.8897,727.0833,725.0564,722.9167,720.8897,727.0833,730.2647" style="stroke:#2FA4E7;stroke-width:3.125;"/><text fill="#343A40" font-family="'Verdana'" font-size="12.5" lengthAdjust="spacing" textLength="57.8003" x="663.5417" y="731.3749">DDL/DML</text></g><!--link Nginx to GMN38--><g class="link" data-entity-1="ent0003" data-entity-2="ent0039" data-link-type="association" data-source-line="63" id="lnk40"><path d="M1055.6098,270.8346 C1055.8754,270.8346 1056.1467,270.8346 1056.4237,270.8346 C1060.8563,270.8346 1066.7544,270.8346 1073.9529,270.8346 C1088.35,270.8346 1107.9491,270.8346 1131.43,270.8346 C1178.3919,270.8346 1240.8815,270.8346 1308.3385,270.8346 C1443.2526,270.8346 1598.0365,270.8346 1688.2083,270.8346" fill="none" id="Nginx-GMN38" style="stroke:#2FA4E7;stroke-width:3.125;stroke-dasharray:7.2917,7.2917;"/></g><!--link Postgres to GMN41--><g class="link" data-entity-1="ent0015" data-entity-2="ent0042" data-link-type="association" data-source-line="70" id="lnk43"><path d="M735.5326,845.8346 C735.6509,845.8346 735.7701,845.8346 735.8901,845.8346 C736.13,845.8346 736.373,845.8346 736.6188,845.8346 C737.1105,845.8346 737.6135,845.8346 738.1261,845.8346 C739.1511,845.8346 740.2141,845.8346 741.2995,845.8346 C743.4705,845.8346 745.7314,845.8346 747.9596,845.8346 C756.8724,845.8346 765.2604,845.8346 765.2604,845.8346 C765.2604,845.8346 765.2604,870.8346 765.2604,870.8346 C765.2604,870.8346 1912.4792,870.8346 2238.4896,870.8346" fill="none" id="Postgres-GMN41" style="stroke:#2FA4E7;stroke-width:3.125;stroke-dasharray:7.2917,7.2917;"/></g><!--link Worker to GMN44--><g class="link" data-entity-1="ent0010" data-entity-2="ent0045" data-link-type="association" data-source-line="76" id="lnk46"><path d="M1241.4357,594.793 C1242.6293,594.793 1243.9345,594.793 1245.3484,594.793 C1248.1761,594.793 1251.4382,594.793 1255.1101,594.793 C1269.7976,594.793 1291.0419,594.793 1317.2687,594.793 C1369.7223,594.793 1442.1061,594.793 1521.8268,594.793 C1681.2682,594.793 1870.0573,594.793 1987.4479,594.793" fill="none" id="Worker-GMN44" style="stroke:#2FA4E7;stroke-width:3.125;stroke-dasharray:7.2917,7.2917;"/></g><!--link App to GMN47--><g class="link" data-entity-1="ent0005" data-entity-2="ent0048" data-link-type="association" data-source-line="84" id="lnk49"><path d="M474.2312,531.2513 C477.1869,531.2513 480.4131,531.2513 483.8998,531.2513 C490.8732,531.2513 498.8885,531.2513 507.8658,531.2513 C543.7747,531.2513 595.0731,531.2513 656.6312,531.2513 C779.7474,531.2513 943.9023,531.2513 1108.0573,531.2513 C1436.3672,531.2513 1764.6771,531.2513 1764.6771,531.2513 C1764.6771,531.2513 1764.6771,577.9388 1764.6771,608.2096" fill="none" id="App-GMN47" style="stroke:#2FA4E7;stroke-width:3.125;stroke-dasharray:7.2917,7.2917;"/></g><g class="legend" data-source-line="88"><rect fill="none" height="136.6536" rx="4.1667" ry="4.1667" style="stroke:#BABDBF;stroke-width:1.0417;" width="225.4008" x="2165.7967" y="1079.168"/><text fill="#343A40" font-family="'Verdana'" font-size="14.5833" font-weight="bold" lengthAdjust="spacing" textLength="42.9311" x="2187.5405" y="1111.4545">Color</text><text fill="#343A40" font-family="'Verdana'" font-size="14.5833" font-weight="bold" lengthAdjust="spacing" textLength="70.4458" x="2251.0425" y="1111.4545">Meaning</text><rect fill="#ADD8E6" height="27.3926" style="stroke:none;stroke-width:1.0417;" width="63.502" x="2177.255" y="1120.1022"/><text fill="#343A40" font-family="'Verdana'" font-size="14.5833" lengthAdjust="spacing" textLength="4.6356" x="2182.4634" y="1138.8471">&#160;</text><text fill="#343A40" font-family="'Verdana'" font-size="14.5833" lengthAdjust="spacing" textLength="71.2646" x="2250.601" y="1138.8471">Container</text><rect fill="#90EE90" height="27.3926" style="stroke:none;stroke-width:1.0417;" width="63.502" x="2177.255" y="1147.4948"/><text fill="#343A40" font-family="'Verdana'" font-size="14.5833" lengthAdjust="spacing" textLength="4.6356" x="2182.4634" y="1166.2397">&#160;</text><text fill="#343A40" font-family="'Verdana'" font-size="14.5833" lengthAdjust="spacing" textLength="119.2942" x="2250.601" y="1166.2397">External Service</text><rect fill="#FFFFE0" height="27.3926" style="stroke:none;stroke-width:1.0417;" width="63.502" x="2177.255" y="1174.8874"/><text fill="#343A40" font-family="'Verdana'" font-size="14.5833" lengthAdjust="spacing" textLength="4.6356" x="2182.4634" y="1193.6323">&#160;</text><text fill="#343A40" font-family="'Verdana'" font-size="14.5833" lengthAdjust="spacing" textLength="69.5841" x="2250.601" y="1193.6323">Database</text><line style="stroke:#343A40;stroke-width:1.0417;" x1="2177.255" x2="2379.7392" y1="1092.7096" y2="1092.7096"/><line style="stroke:#343A40;stroke-width:1.0417;" x1="2177.255" x2="2379.7392" y1="1120.1022" y2="1120.1022"/><line style="stroke:#343A40;stroke-width:1.0417;" x1="2177.255" x2="2379.7392" y1="1147.4948" y2="1147.4948"/><line style="stroke:#343A40;stroke-width:1.0417;" x1="2177.255" x2="2379.7392" y1="1174.8874" y2="1174.8874"/><line style="stroke:#343A40;stroke-width:1.0417;" x1="2177.255" x2="2379.7392" y1="1202.2799" y2="1202.2799"/><line style="stroke:#343A40;stroke-width:1.0417;" x1="2177.255" x2="2177.255" y1="1092.7096" y2="1202.2799"/><line style="stroke:#343A40;stroke-width:1.0417;" x1="2240.757" x2="2240.757" y1="1092.7096" y2="1202.2799"/><line style="stroke:#343A40;stroke-width:1.0417;" x1="2379.7392" x2="2379.7392" y1="1092.7096" y2="1202.2799"/></g><?plantuml-src VLPjRzis4FwkNt7BFkobTP9cm5e4MG2_f8aBEtMZ5C7G30LDdIKk5AcIr69jwN_VaPGinvlh3nPvVEvuhu_qdIkmHE1eQebC3NJjf52Os0UXAcPO2LoNbLQeNEeQYM2GEwPokGtn6gwf4BHnXKuI9nmXf-_7S5iOP0wcog6K8aV54L8qVmbw3c22bTHDIRPX8bXEff94wGpXOABv0nguqjOT0BCGztuB_oH0l_0NiTUvK6kuo78CqBWzE-DQEKQEcVFpLiV_FjtEKdXrUFBYwEhsTd5ohswOGvY9KZYXydkL8g-DS0rS8SlGs3-yITBnveEHhxlNlvNCFi2mgiBjzDn_zsMj1DT6mLrwEGsMEqcFsPY35p3CIg7WOuI6WnwNDeh3Exs4CTrbjBnNFnfqfZdYZ98iZp8a3wJzAUWIRkoCxBKNHfT8fQyjp4bBy1Xek_x_G4UCF-H6rog3Esse727WkDmVSyeBpAYtkhA7UpgXsOddGuqr0Zd7qLfj0dQpwx7KDxu-qXLmWok3jWX84hVR7ZhMng1aJcW5gMALBRHxfkG1srfROMVCiIMp5Fg26Yytc7wOmQjVGzYjnEuFVAeomPdJXXmRXQjwoMJKuwhyipDv2RXsg2pv6LkEH3tcNVh-UaIJAEjInKe5oQx3bcopdFozmKnOU1qyZUkzRlRz3sD6PGdMlJ38UXoLnZHRaB0FsnvpiQw80RP0KT2Z_jDJSq5JxpRD4HpkP7jT7aeibuAtGCfOJ4ahRY_wcYHSwZg3WmjAh55Cmd0njGVHhLOIZNuQ6_sOqUHxH6oALX2FvzDqGSMppazMd1EIj6TCFZA38_OtOx5Vux8zlMjBxnTHn9QrnKDUtAl8ZM_r-YLyl9aLhBOl0Hq_ZC5usBZmOVpWHrmHxVf8aqXlWy5vu8XJy3GMk2nDlC0VR7hp5AXZXvAoNpQRqzWFfqJaz1nKJT9Ey7xDBS2tb3TPZKwbHxv7awwQE-OdazdHP3xpqLrhXvPudq16v8K3lOeaJWdx6Jg-3fiGx4bOxX9r43uZymI9gRpPPCTuvqPGYQErqWQ849aV-I3kfj8VM6I65q7SLm8ghUMtRecPYRwsT9U1zIptfrx6knTe1YiaiSYGNh8q_xo9SNWcXqT11BSarjMhLH17Qlziy4kDrdbpTUK7B7gCHcWY6CYm8f-yBIfJ9BOT7vVQELrw9wafIBbzsuxzcvxe3jV-OIdkC9G4e70B_-uDu_tw-FWNe6fkfXFU7Byvthf3Okut8HEa_FGRMPQKHrhCwHk3aWPFNWvdtyyyPYHhFAVjU6FmsV6bGLJ-VDDWtHV4CzZlz8MX7prkql7satSgUfFy2m00?></g></svg>