<?xml version="1.0" encoding="us-ascii" standalone="no"?><svg xmlns="http://www.w3.org/2000/svg" xmlns:xlink="http://www.w3.org/1999/xlink" contentStyleType="text/css" height="1154.1667px" preserveAspectRatio="none" style="width:886px;height:1154px;" version="1.1" viewBox="0 0 886 1154" width="886.4583px" zoomAndPan="magnify"><defs/><g><rect fill="none" height="51.2916" id="_title" rx="4.1667" ry="4.1667" style="stroke:#BABDBF;stroke-width:1.0416666666666667;" width="352.0833" x="262.7865" y="20.8333"/><text fill="#2FA4E7" font-family="Verdana" font-size="20.8333" font-weight="bold" lengthAdjust="spacing" textLength="329.1667" x="274.2448" y="54.5625">SyncJob Lifecycle State Machine</text><ellipse cx="524.5313" cy="100.25" fill="#033C73" rx="10.4167" ry="10.4167" style="stroke:#2683B9;stroke-width:1.0416666666666667;"/><rect fill="none" height="173.9206" rx="4.1667" ry="4.1667" style="stroke:#2FA4E7;stroke-width:1.0416666666666667;" width="93.75" x="477.6563" y="202.3333"/><line style="stroke:#2FA4E7;stroke-width:1.0416666666666667;" x1="477.6563" x2="571.4063" y1="238.7728" y2="238.7728"/><text fill="#BABDBF" font-family="Verdana" font-size="11.4583" lengthAdjust="spacing" textLength="41.6667" x="503.6979" y="224.9988">queued</text><ellipse cx="526.0938" cy="260.6478" fill="#033C73" rx="10.4167" ry="10.4167" style="stroke:#2683B9;stroke-width:1.0416666666666667;"/><g id="queued.waiting"><rect fill="none" height="57.2728" rx="4.1667" ry="4.1667" style="stroke:#2FA4E7;stroke-width:1.0416666666666667;" width="71.875" x="490.1563" y="308.5644"/><line style="stroke:#2FA4E7;stroke-width:1.0416666666666667;" x1="490.1563" x2="562.0313" y1="345.0039" y2="345.0039"/><text fill="#BABDBF" font-family="Verdana" font-size="11.4583" lengthAdjust="spacing" textLength="40.625" x="505.7813" y="331.23">waiting</text></g><!--link *start*queued to waiting--><g id="link_*start*queued_waiting"><path d="M526.0938,271.1269 C526.0938,280.5124 526.0938,289.1478 526.0938,302.304 " fill="none" id="*start*queued-to-waiting" style="stroke:#2FA4E7;stroke-width:3.125;"/><polygon fill="#2FA4E7" points="526.0938,308.554,530.2604,299.179,526.0938,303.3457,521.9271,299.179,526.0938,308.554" style="stroke:#2FA4E7;stroke-width:3.125;"/></g><rect fill="none" height="173.9206" rx="4.1667" ry="4.1667" style="stroke:#2FA4E7;stroke-width:1.0416666666666667;" width="112.5" x="259.9479" y="467.9583"/><line style="stroke:#2FA4E7;stroke-width:1.0416666666666667;" x1="259.9479" x2="372.4479" y1="504.3978" y2="504.3978"/><text fill="#BABDBF" font-family="Verdana" font-size="11.4583" lengthAdjust="spacing" textLength="44.7917" x="293.8021" y="490.6238">running</text><ellipse cx="317.7604" cy="526.2728" fill="#033C73" rx="10.4167" ry="10.4167" style="stroke:#2683B9;stroke-width:1.0416666666666667;"/><g id="running.processing"><rect fill="none" height="57.2728" rx="4.1667" ry="4.1667" style="stroke:#2FA4E7;stroke-width:1.0416666666666667;" width="90.625" x="272.4479" y="574.1894"/><line style="stroke:#2FA4E7;stroke-width:1.0416666666666667;" x1="272.4479" x2="363.0729" y1="610.6289" y2="610.6289"/><text fill="#BABDBF" font-family="Verdana" font-size="11.4583" lengthAdjust="spacing" textLength="59.375" x="288.0729" y="596.855">processing</text></g><!--link *start*running to processing--><g id="link_*start*running_processing"><path d="M317.7604,536.7519 C317.7604,546.1374 317.7604,554.7728 317.7604,567.929 " fill="none" id="*start*running-to-processing" style="stroke:#2FA4E7;stroke-width:3.125;"/><polygon fill="#2FA4E7" points="317.7604,574.179,321.9271,564.804,317.7604,568.9707,313.5938,564.804,317.7604,574.179" style="stroke:#2FA4E7;stroke-width:3.125;"/></g><g id="cancelled"><rect fill="none" height="57.2728" rx="4.1667" ry="4.1667" style="stroke:#2FA4E7;stroke-width:1.0416666666666667;" width="81.25" x="521.4063" y="999.2083"/><line style="stroke:#2FA4E7;stroke-width:1.0416666666666667;" x1="521.4063" x2="602.6563" y1="1035.6478" y2="1035.6478"/><text fill="#BABDBF" font-family="Verdana" font-size="11.4583" lengthAdjust="spacing" textLength="50" x="537.0313" y="1021.8738">cancelled</text></g><g id="success"><rect fill="none" height="57.2728" rx="4.1667" ry="4.1667" style="stroke:#2FA4E7;stroke-width:1.0416666666666667;" width="70.8333" x="142.2396" y="791.9166"/><line style="stroke:#2FA4E7;stroke-width:1.0416666666666667;" x1="142.2396" x2="213.0729" y1="828.3561" y2="828.3561"/><text fill="#BABDBF" font-family="Verdana" font-size="11.4583" lengthAdjust="spacing" textLength="39.5833" x="157.8646" y="814.5822">success</text></g><g id="failed"><rect fill="none" height="57.2728" rx="4.1667" ry="4.1667" style="stroke:#2FA4E7;stroke-width:1.0416666666666667;" width="61.4583" x="43.8021" y="791.9166"/><line style="stroke:#2FA4E7;stroke-width:1.0416666666666667;" x1="43.8021" x2="105.2604" y1="828.3561" y2="828.3561"/><text fill="#BABDBF" font-family="Verdana" font-size="11.4583" lengthAdjust="spacing" textLength="30.2083" x="59.4271" y="814.5822">failed</text></g><rect fill="none" height="173.9206" rx="4.1667" ry="4.1667" style="stroke:#2FA4E7;stroke-width:1.0416666666666667;" width="125" x="441.1979" y="733.5833"/><line style="stroke:#2FA4E7;stroke-width:1.0416666666666667;" x1="441.1979" x2="566.1979" y1="770.0228" y2="770.0228"/><text fill="#BABDBF" font-family="Verdana" font-size="11.4583" lengthAdjust="spacing" textLength="93.75" x="456.8229" y="756.2488">cancel_requested</text><ellipse cx="492.7604" cy="791.8978" fill="#033C73" rx="10.4167" ry="10.4167" style="stroke:#2683B9;stroke-width:1.0416666666666667;"/><g id="cancel_requested.draining"><rect fill="none" height="57.2728" rx="4.1667" ry="4.1667" style="stroke:#2FA4E7;stroke-width:1.0416666666666667;" width="78.125" x="453.6979" y="839.8144"/><line style="stroke:#2FA4E7;stroke-width:1.0416666666666667;" x1="453.6979" x2="531.8229" y1="876.2539" y2="876.2539"/><text fill="#BABDBF" font-family="Verdana" font-size="11.4583" lengthAdjust="spacing" textLength="46.875" x="469.3229" y="862.48">draining</text></g><!--link *start*cancel_requested to draining--><g id="link_*start*cancel_requested_draining"><path d="M492.7604,802.3769 C492.7604,811.7624 492.7604,820.3978 492.7604,833.554 " fill="none" id="*start*cancel_requested-to-draining" style="stroke:#2FA4E7;stroke-width:3.125;"/><polygon fill="#2FA4E7" points="492.7604,839.804,496.9271,830.429,492.7604,834.5957,488.5938,830.429,492.7604,839.804" style="stroke:#2FA4E7;stroke-width:3.125;"/></g><ellipse cx="177.6563" cy="1131.5" fill="none" rx="11.4583" ry="11.4583" style="stroke:#033C73;stroke-width:1.0416666666666667;"/><ellipse cx="177.6563" cy="1131.5" fill="none" rx="6.25" ry="6.25" style="stroke:#033C73;stroke-width:1.0416666666666667;"/><g id="elem_GMN31"><path d="M607.8646,257.5416 L607.8646,285.1458 L571.5313,289.3125 L607.8646,293.4791 L607.8646,321.117 A4.1667,4.1667 0 0 0 612.0313,325.2837 L757.8646,325.2837 A4.1667,4.1667 0 0 0 762.0313,321.117 L762.0313,263.7916 L751.6146,253.375 L612.0313,253.375 A4.1667,4.1667 0 0 0 607.8646,257.5416 " fill="none" style="stroke:#033C73;stroke-width:1.0416666666666667;"/><path d="M751.6146,253.375 L751.6146,261.7083 A2.0833,2.0833 0 0 0 753.6979,263.7916 L762.0313,263.7916 L751.6146,253.375 " fill="none" style="stroke:#033C73;stroke-width:1.0416666666666667;"/><text fill="#033C73" font-family="Verdana" font-size="12.5" lengthAdjust="spacing" textLength="121.875" x="619.3229" y="277.1542">Jobs are created with</text><text fill="#033C73" font-family="Verdana" font-size="12.5" lengthAdjust="spacing" textLength="114.5833" x="619.3229" y="294.1794">idempotency_key to</text><text fill="#033C73" font-family="Verdana" font-size="12.5" lengthAdjust="spacing" textLength="107.2917" x="619.3229" y="311.2045">prevent duplicates</text></g><g id="elem_GMN34"><path d="M408.9063,523.1666 L408.9063,550.7708 L372.5938,554.9375 L408.9063,559.1041 L408.9063,586.742 A4.1667,4.1667 0 0 0 413.0729,590.9087 L563.0729,590.9087 A4.1667,4.1667 0 0 0 567.2396,586.742 L567.2396,529.4166 L556.8229,519 L413.0729,519 A4.1667,4.1667 0 0 0 408.9063,523.1666 " fill="none" style="stroke:#033C73;stroke-width:1.0416666666666667;"/><path d="M556.8229,519 L556.8229,527.3333 A2.0833,2.0833 0 0 0 558.9063,529.4166 L567.2396,529.4166 L556.8229,519 " fill="none" style="stroke:#033C73;stroke-width:1.0416666666666667;"/><text fill="#033C73" font-family="Verdana" font-size="12.5" lengthAdjust="spacing" textLength="126.0417" x="420.3646" y="542.7792">Advisory lock ensures</text><text fill="#033C73" font-family="Verdana" font-size="12.5" lengthAdjust="spacing" textLength="115.625" x="420.3646" y="559.8044">only one worker per</text><text fill="#033C73" font-family="Verdana" font-size="12.5" lengthAdjust="spacing" textLength="80.2083" x="420.3646" y="576.8295">feed at a time</text></g><g id="elem_GMN37"><path d="M250.0521,788.7916 L250.0521,816.3958 L213.1042,820.5625 L250.0521,824.7291 L250.0521,852.367 A4.1667,4.1667 0 0 0 254.2188,856.5337 L401.0938,856.5337 A4.1667,4.1667 0 0 0 405.2604,852.367 L405.2604,795.0416 L394.8438,784.625 L254.2188,784.625 A4.1667,4.1667 0 0 0 250.0521,788.7916 " fill="none" style="stroke:#033C73;stroke-width:1.0416666666666667;"/><path d="M394.8438,784.625 L394.8438,792.9583 A2.0833,2.0833 0 0 0 396.9271,795.0416 L405.2604,795.0416 L394.8438,784.625 " fill="none" style="stroke:#033C73;stroke-width:1.0416666666666667;"/><text fill="#033C73" font-family="Verdana" font-size="12.5" lengthAdjust="spacing" textLength="87.5" x="261.5104" y="808.4042">Result contains</text><text fill="#033C73" font-family="Verdana" font-size="12.5" lengthAdjust="spacing" textLength="122.9167" x="261.5104" y="825.4294">counts and metadata</text><text fill="#033C73" font-family="Verdana" font-size="12.5" lengthAdjust="spacing" textLength="83.3333" x="261.5104" y="842.4545">for monitoring</text></g><!--link *start* to queued--><g id="link_*start*_queued"><path d="M524.5313,110.8229 C524.5313,128.0104 524.5313,159.5625 524.5313,195.875 " fill="none" id="*start*-to-queued" style="stroke:#2FA4E7;stroke-width:3.125;"/><polygon fill="#2FA4E7" points="524.5313,202.125,528.6979,192.75,524.5313,196.9166,520.3646,192.75,524.5313,202.125" style="stroke:#2FA4E7;stroke-width:3.125;"/><text fill="#343A40" font-family="Verdana" font-size="12.5" lengthAdjust="spacing" textLength="51.0417" x="530.7813" y="161.5292">enqueue</text></g><!--link queued to running--><g id="link_queued_running"><path d="M477.4375,343.9583 C460.4583,363.6979 441.3438,386.3958 424.5313,407.5416 C407.2188,429.3125 392.7153,448.3908 376.2674,470.6408 " fill="none" id="queued-to-running" style="stroke:#2FA4E7;stroke-width:3.125;"/><polygon fill="#2FA4E7" points="372.5521,475.6666,381.4756,470.6047,375.6481,471.4784,374.7744,465.651,372.5521,475.6666" style="stroke:#2FA4E7;stroke-width:3.125;"/><text fill="#343A40" font-family="Verdana" font-size="12.5" lengthAdjust="spacing" textLength="158.3333" x="430.7813" y="427.1542">start (idempotency passed)</text></g><!--link queued to cancelled--><g id="link_queued_cancelled"><path d="M571.5313,359.0729 C577.0938,365.25 582.9896,371.1146 589.1146,376.2916 C612.1979,395.8125 628.4583,385.8646 649.5313,407.5416 C740.9063,501.5104 748.4479,545.3854 777.6563,673.1666 C805.4896,794.9583 754.5521,846.7708 649.5313,967.9583 C636.5833,982.8958 624.3178,992.4414 608.297,1002.2643 " fill="none" id="queued-to-cancelled" style="stroke:#2FA4E7;stroke-width:3.125;"/><polygon fill="#2FA4E7" points="602.9688,1005.5312,613.139,1004.183,607.4089,1002.8088,608.7831,997.0787,602.9688,1005.5312" style="stroke:#2FA4E7;stroke-width:3.125;"/><text fill="#343A40" font-family="Verdana" font-size="12.5" lengthAdjust="spacing" textLength="79.1667" x="789.1146" y="692.7792">admin_cancel</text></g><!--link cancelled to queued--><g id="link_cancelled_queued"><path d="M584.25,999.0729 C590.4375,989.7291 596.3438,978.8958 599.5313,967.9583 C616.9583,908.1771 617.0208,467.3021 599.5313,407.5416 C593.5938,387.2604 586.3535,372.3932 574.916,354.7161 " fill="none" id="cancelled-to-queued" style="stroke:#2FA4E7;stroke-width:3.125;"/><polygon fill="#2FA4E7" points="571.5208,349.4687,573.1154,359.6033,574.3502,353.8416,580.1119,355.0764,571.5208,349.4687" style="stroke:#2FA4E7;stroke-width:3.125;"/><text fill="#343A40" font-family="Verdana" font-size="12.5" lengthAdjust="spacing" textLength="141.6667" x="619.3229" y="692.7792">admin_retry (new job_id)</text></g><!--link running to success--><g id="link_running_success"><path d="M259.7917,639.1041 C252.875,650.375 246.1458,661.9271 240.1563,673.1666 C218.8438,713.1562 201.4081,756.1265 190.0331,786.0536 " fill="none" id="running-to-success" style="stroke:#2FA4E7;stroke-width:3.125;"/><polygon fill="#2FA4E7" points="187.8125,791.8958,195.0382,784.6129,189.663,787.0273,187.2485,781.6521,187.8125,791.8958" style="stroke:#2FA4E7;stroke-width:3.125;"/><text fill="#343A40" font-family="Verdana" font-size="12.5" lengthAdjust="spacing" textLength="137.5" x="246.4063" y="692.7792">complete (update stats)</text></g><!--link running to failed--><g id="link_running_failed"><path d="M259.6979,617.9479 C250.75,626.4271 241.3021,634.6979 231.8229,641.9166 C209.0729,659.2396 197.75,655.1146 175.5729,673.1666 C148.0729,695.5521 143.9375,704.6146 123.4896,733.5833 C110.4167,752.1041 100.7429,768.8546 91.5971,786.0837 " fill="none" id="running-to-failed" style="stroke:#2FA4E7;stroke-width:3.125;"/><polygon fill="#2FA4E7" points="88.6667,791.6041,96.7426,785.2771,91.1087,787.0038,89.382,781.3699,88.6667,791.6041" style="stroke:#2FA4E7;stroke-width:3.125;"/><text fill="#343A40" font-family="Verdana" font-size="12.5" lengthAdjust="spacing" textLength="30.2083" x="181.8229" y="692.7792">error</text></g><!--link running to cancel_requested--><g id="link_running_cancel_requested"><path d="M372.4479,635.0521 C394.4583,665.9791 416.1359,696.4603 438.6255,728.0541 " fill="none" id="running-to-cancel_requested" style="stroke:#2FA4E7;stroke-width:3.125;"/><polygon fill="#2FA4E7" points="442.25,733.1458,440.2078,723.0919,439.2296,728.9027,433.4188,727.9245,442.25,733.1458" style="stroke:#2FA4E7;stroke-width:3.125;"/><text fill="#343A40" font-family="Verdana" font-size="12.5" lengthAdjust="spacing" textLength="129.1667" x="422.4479" y="692.7792">admin_cancel_request</text></g><!--link cancel_requested to cancelled--><g id="link_cancel_requested_cancelled"><path d="M488.1458,907.5833 C487.8021,928.0416 490.3438,949.3229 498.4896,967.9583 C503.6667,979.8125 507.9341,986.1095 517.4341,994.8595 " fill="none" id="cancel_requested-to-cancelled" style="stroke:#2FA4E7;stroke-width:3.125;"/><polygon fill="#2FA4E7" points="522.0313,999.0937,517.9583,989.6776,518.2003,995.5652,512.3127,995.8072,522.0313,999.0937" style="stroke:#2FA4E7;stroke-width:3.125;"/><text fill="#343A40" font-family="Verdana" font-size="12.5" lengthAdjust="spacing" textLength="84.375" x="504.7396" y="958.4042">finalize_cancel</text></g><!--link failed to queued--><g id="link_failed_queued"><path d="M66.2708,791.7396 C49.0938,727.9062 16.6667,568.5521 87.0313,467.9583 C178.6458,336.9687 378.3208,303.0922 471.227,294.0922 " fill="none" id="failed-to-queued" style="stroke:#2FA4E7;stroke-width:3.125;"/><polygon fill="#2FA4E7" points="477.4479,293.4896,467.7148,290.2462,472.2639,293.9917,468.5183,298.5408,477.4479,293.4896" style="stroke:#2FA4E7;stroke-width:3.125;"/><text fill="#343A40" font-family="Verdana" font-size="12.5" lengthAdjust="spacing" textLength="141.6667" x="93.2813" y="559.9667">admin_retry (new job_id)</text></g><!--link success to *end*--><g id="link_success_*end*"><path d="M177.6563,849.2812 C177.6563,914.7291 177.6563,1070.4791 177.6563,1113.5521 " fill="none" id="success-to-*end*" style="stroke:#2FA4E7;stroke-width:3.125;"/><polygon fill="#2FA4E7" points="177.6563,1119.8021,181.8229,1110.4271,177.6563,1114.5937,173.4896,1110.4271,177.6563,1119.8021" style="stroke:#2FA4E7;stroke-width:3.125;"/></g><!--link failed to *end*--><g id="link_failed_*end*"><path d="M83.7708,849.2812 C105.7188,915.0208 158.2288,1072.2696 172.3122,1114.4467 " fill="none" id="failed-to-*end*" style="stroke:#2FA4E7;stroke-width:3.125;"/><polygon fill="#2FA4E7" points="174.2917,1120.375,175.2746,1110.1629,172.6421,1115.4348,167.3703,1112.8023,174.2917,1120.375" style="stroke:#2FA4E7;stroke-width:3.125;"/></g><!--link cancelled to *end*--><g id="link_cancelled_*end*"><path d="M521.2604,1039.6666 C434.8958,1062.4896 243.4698,1113.0704 194.7302,1125.9454 " fill="none" id="cancelled-to-*end*" style="stroke:#2FA4E7;stroke-width:3.125;"/><polygon fill="#2FA4E7" points="188.6875,1127.5416,198.8157,1129.1758,193.7231,1126.2114,196.6874,1121.1188,188.6875,1127.5416" style="stroke:#2FA4E7;stroke-width:3.125;"/></g><!--SRC=[ZLBBRjmm3BpxAzZRfi3-G0y5UWtQItiCWeKYqLbsPSgXg2pSelyUoe_jAei2zS6mHpFK3CaFUiG1mQEKY8xtgMWangvJqeZmOs9_dvxWA_Ne9ryHTOhmpVdZJ7lu-0Zx_MTuALWmm2T0dZ-xBi_45V_TWJqR-Un8YPzdRA5jo9-kMnML9uNPKAjgB57OKS1XJ8hi9nXTpXZkhldUiSSOPnyk3CI71TdCRFLQDwCaZpctXgv0yxG9ApqNNq_i2f-6CQAHTsKCLLIb-QwbzuuMGoYIf3rRt1q4BKFM6zlRmMR_Xjxc2EA8snGNo3BSgDzth2TsaNxXfMchzMQyYpz1bGbsZ6VucPuEP6FuM-d_-DtMnqgt2CrrzRyjE3CurI7Iyr4XzUiTbjOMD8CJQv2WgydEf4V3hxRbSC89D1au2huYAuGoHl96pnroW5hw_GNhg4pq9RnIJXOX9d-o5Sz5J0UGE4xsilrDSaA14SNG7is3Kt2WDE0_owyDCC5tp2MgxHEhpQiYFXLM2sNI0TNPThbQE0aCYKcJL5-Nmcy0]--></g></svg>